<svg id="bf98ece1-b97e-40fb-acc9-c06af0adcc1d" data-name="Layer 1" xmlns="http://www.w3.org/2000/svg" xmlns:xlink="http://www.w3.org/1999/xlink" viewBox="0 0 59.58334 59.5834"><defs><style>.f9b90acd-2ca0-47a5-ac2b-998853eb06cc{fill:none;}.a4dbadc4-0df7-4872-8485-af4f2818018f{clip-path:url(#ae5f460e-6009-434c-9c64-38e70aefd2ae);}.f95a9146-5101-462d-b9d5-9288799bd99d{fill:#f9a802;}.bcd4827d-9ae0-4179-996b-7be1e3344750{fill:#414042;}.a28eb5d5-af55-4b73-abd7-943324c5768e{fill:#27231f;}.bae9c420-58c9-4657-9d91-467ce9261a2d{fill:#f9f9f9;}</style><clipPath id="ae5f460e-6009-434c-9c64-38e70aefd2ae"><circle class="f9b90acd-2ca0-47a5-ac2b-998853eb06cc" cx="29.79167" cy="29.7917" r="29.79226"/></clipPath></defs><g class="a4dbadc4-0df7-4872-8485-af4f2818018f"><path class="f95a9146-5101-462d-b9d5-9288799bd99d" d="M29.79163,58.97973A29.188,29.188,0,1,1,58.98011,29.79125,29.22124,29.22124,0,0,1,29.79163,58.97973Z"/><path class="bcd4827d-9ae0-4179-996b-7be1e3344750" d="M29.79163,1.20776a28.584,28.584,0,1,1-28.584,28.584,28.6164,28.6164,0,0,1,28.584-28.584m0-1.20826A29.79224,29.79224,0,1,0,59.58387,29.79174,29.79215,29.79215,0,0,0,29.79163-.0005Z"/><path class="a28eb5d5-af55-4b73-abd7-943324c5768e" d="M45.55141,14.09009v31.42H14.06779v-31.42ZM44.1242,44.1117v-28.64H15.45913v28.64Z"/><path class="bae9c420-58c9-4657-9d91-467ce9261a2d" d="M44.1242,44.1117H15.45913v-28.64H44.1242ZM32.46013,25.2155l.0138.00006c0,1.15779-.06543,2.32007.01382,3.47242a4.17634,4.17634,0,0,0,4.15948,3.98477,4.04573,4.04573,0,0,0,4.40621-3.78612,72.22265,72.22265,0,0,0,.00127-7.43323,3.63343,3.63343,0,0,0-2.37179-3.285,4.31414,4.31414,0,0,0-6.21564,3.7721C32.42172,23.03038,32.46013,24.12374,32.46013,25.2155Zm-14.10391,10.25H41.18911V34.12388H18.35622Zm1.88087-15.53177V32.61217h1.72872V18.116H18.48719v1.81772Zm8.92725,12.71139V18.14461H25.707v1.80655H27.4736v12.694Zm-2.714,4.351v4.28473l.75978-.05267.08423-1.68383c1.077.1508.84869,1.30612,1.54928,1.74315l.76189-.07215-.8494-1.69879c.10971-.10141.2333-.20606.34588-.32144a1.19764,1.19764,0,0,0,.30657-1.36169,1.21385,1.21385,0,0,0-1.22123-.837C27.627,36.995,27.06665,36.99614,26.45036,36.99614Zm-5.48748,2.1117c.06647-.10558.12308-.18532.16939-.27064.53735-.98993.10883-1.781-1.01669-1.83975-.5804-.0303-1.16369-.00533-1.744-.00533v4.29724c.575,0,1.0987-.00193,1.62235.00052.55848.00261,1.09019-.0999,1.3249-.67087A1.22347,1.22347,0,0,0,20.96288,39.10784Zm20.22023,2.1421-.85369-1.72112a4.73257,4.73257,0,0,0,.53009-.58605,1.23612,1.23612,0,0,0-.74523-1.88414,13.99411,13.99411,0,0,0-2.10772-.02179v4.18354h.83883v-1.6842c1.06321.16823.875,1.22974,1.51874,1.71376ZM22.27489,37.08088c0,.89147-.01447,1.77653.00385,2.66091a1.44434,1.44434,0,0,0,1.50955,1.58361,1.48547,1.48547,0,0,0,1.647-1.56684c.03634-.88465.00754-1.772.00754-2.71381h-.84044c0,.37571.00014.69949,0,1.02327-.00028.52843.01715,1.05765-.00579,1.5851-.02734.62841-.31327.953-.77443.93558-.46091-.01741-.69428-.33129-.72252-.98654-.00994-.23077-.00207-.46232-.0021-.69351-.00008-.61855,0-1.23711,0-1.86624a4.45565,4.45565,0,0,0-.48448-.04716A1.797,1.797,0,0,0,22.27489,37.08088Zm11.07989,1.13777c-.25976-.9731-.73164-1.32748-1.66856-1.25769a1.42035,1.42035,0,0,0-1.4151,1.47483,10.17086,10.17086,0,0,0,.01522,1.58159,1.39308,1.39308,0,0,0,1.28851,1.28515c1.36876.18634,2.1163-.82148,1.75884-2.3568H31.85734l.0375.59911.73631.13571c-.02743.58813-.29535.93167-.85569.89741-.53533-.03273-.68407-.43687-.6782-.91687a6.96685,6.96685,0,0,1,.02366-1.1841c.04837-.25773.2242-.62251.42481-.68756a.97772.97772,0,0,1,.85667.18612A.75988.75988,0,0,0,33.35478,38.21865Zm1.7785-.55482h1.97829l-.07751-.63435H34.324v4.20534h2.72522v-.68065H35.15381V39.45491h1.67742l-.055-.65255-1.643-.07605Z"/><path class="a28eb5d5-af55-4b73-abd7-943324c5768e" d="M32.46013,25.2155c0-1.09176-.03841-2.18512.00715-3.275a4.31414,4.31414,0,0,1,6.21564-3.7721,3.63343,3.63343,0,0,1,2.37179,3.285,72.22265,72.22265,0,0,1-.00127,7.43323,4.04573,4.04573,0,0,1-4.40621,3.78612A4.17634,4.17634,0,0,1,32.48775,28.688c-.07925-1.15235-.01382-2.31463-.01382-3.47242Zm1.82446-.0421-.03653,0c0,.92629-.0021,1.8526.00167,2.77887.00081.19817.01617.39694.03626.59427a2.56551,2.56551,0,0,0,2.41072,2.45685,2.5135,2.5135,0,0,0,2.55642-2.17493,7.05782,7.05782,0,0,0,.12933-1.28012c.01571-1.55484.02052-3.11009.00067-4.66482a6.7305,6.7305,0,0,0-.16807-1.474,2.40429,2.40429,0,0,0-1.64363-1.83276A2.48909,2.48909,0,0,0,34.299,21.90043C34.2213,22.98622,34.28459,24.08207,34.28459,25.1734Z"/><path class="a28eb5d5-af55-4b73-abd7-943324c5768e" d="M18.35622,35.46551V34.12388H41.18911v1.34163Z"/><path class="a28eb5d5-af55-4b73-abd7-943324c5768e" d="M20.23709,19.93374h-1.7499V18.116h3.47862V32.61217H20.23709Z"/><path class="a28eb5d5-af55-4b73-abd7-943324c5768e" d="M29.16434,32.64513H27.4736v-12.694H25.707V18.14461h3.45735Z"/><path class="a28eb5d5-af55-4b73-abd7-943324c5768e" d="M26.45036,36.99614c.61629,0,1.17665-.00113,1.737.00031a1.21385,1.21385,0,0,1,1.22123.837,1.19764,1.19764,0,0,1-.30657,1.36169c-.11258.11538-.23617.22-.34588.32144l.8494,1.69879-.76189.07215c-.70059-.437-.47232-1.59235-1.54928-1.74315l-.08423,1.68383-.75978.05267Zm.78784,1.85373c.55793-.0379,1.05024.17561,1.35035-.33342a.533.533,0,0,0-.01234-.45753c-.2995-.49727-.77453-.342-1.278-.33946Z"/><path class="a28eb5d5-af55-4b73-abd7-943324c5768e" d="M20.96288,39.10784A1.22347,1.22347,0,0,1,21.3188,40.619c-.23471.571-.76642.67348-1.3249.67087-.52365-.00245-1.04732-.00052-1.62235-.00052V36.99212c.58034,0,1.16363-.025,1.744.00533,1.12552.05875,1.554.84982,1.01669,1.83975C21.086,38.92252,21.02935,39.00226,20.96288,39.10784Zm-1.783,1.50459,1.28367-.16383c.08315-1.015-.04221-1.09092-1.28367-.86754Zm.013-1.74814c.51408-.16213.90328-.26425,1.269-.42109.059-.02532.07877-.34238.005-.44209-.3315-.448-.79734-.28894-1.274-.26819Z"/><path class="a28eb5d5-af55-4b73-abd7-943324c5768e" d="M41.18311,41.24994h-.819c-.64377-.484-.45553-1.54553-1.51874-1.71376v1.6842h-.83883V37.03684a13.99411,13.99411,0,0,1,2.10772.02179,1.23612,1.23612,0,0,1,.74523,1.88414,4.73257,4.73257,0,0,1-.53009.58605ZM38.90159,37.7182v1.13756c.50471-.08178,1.14442.254,1.29388-.53311C40.27757,37.89034,39.89827,37.71885,38.90159,37.7182Z"/><path class="a28eb5d5-af55-4b73-abd7-943324c5768e" d="M22.27489,37.08088a1.797,1.797,0,0,1,.33815-.08563,4.45565,4.45565,0,0,1,.48448.04716c0,.62913,0,1.24769,0,1.86624,0,.23119-.00784.46274.0021.69351.02824.65525.26161.96913.72252.98654.46116.01743.74709-.30717.77443-.93558.02294-.52745.00551-1.05667.00579-1.5851.00017-.32378,0-.64756,0-1.02327h.84044c0,.94183.0288,1.82916-.00754,2.71381a1.48547,1.48547,0,0,1-1.647,1.56684,1.44434,1.44434,0,0,1-1.50955-1.58361C22.26042,38.85741,22.27489,37.97235,22.27489,37.08088Z"/><path class="a28eb5d5-af55-4b73-abd7-943324c5768e" d="M33.35478,38.21865a.75988.75988,0,0,1-.95238-.2431.97772.97772,0,0,0-.85667-.18612c-.20061.065-.37644.42983-.42481.68756a6.96685,6.96685,0,0,0-.02366,1.1841c-.00587.48.14287.88414.6782.91687.56034.03426.82826-.30928.85569-.89741l-.73631-.13571-.0375-.59911h1.47635c.35746,1.53532-.39008,2.54314-1.75884,2.3568a1.39308,1.39308,0,0,1-1.28851-1.28515,10.17086,10.17086,0,0,1-.01522-1.58159,1.42035,1.42035,0,0,1,1.4151-1.47483C32.62314,36.89117,33.095,37.24555,33.35478,38.21865Z"/><path class="a28eb5d5-af55-4b73-abd7-943324c5768e" d="M35.13328,37.66383v1.06248l1.643.07605.055.65255H35.15381v1.09926h1.89541v.68065H34.324V37.02948h2.71006l.07751.63435Z"/><path class="bae9c420-58c9-4657-9d91-467ce9261a2d" d="M34.28459,25.1734c0-1.09133-.06329-2.18718.01438-3.273a2.48909,2.48909,0,0,1,3.27246-2.32361,2.40429,2.40429,0,0,1,1.64363,1.83276,6.7305,6.7305,0,0,1,.16807,1.474c.01985,1.55473.015,3.11-.00067,4.66482a7.05782,7.05782,0,0,1-.12933,1.28012,2.5135,2.5135,0,0,1-2.55642,2.17493A2.56551,2.56551,0,0,1,34.286,28.54656c-.02009-.19733-.03545-.3961-.03626-.59427-.00377-.92627-.00167-1.85258-.00167-2.77887Z"/><path class="bae9c420-58c9-4657-9d91-467ce9261a2d" d="M27.2382,38.84987l.06-1.13041c.50344-.00252.97847-.15781,1.278.33946a.533.533,0,0,1,.01234.45753C28.28844,39.02548,27.79613,38.812,27.2382,38.84987Z"/><path class="bae9c420-58c9-4657-9d91-467ce9261a2d" d="M19.17983,40.61243V39.58106c1.24146-.22338,1.36682-.14748,1.28367.86754Z"/><path class="bae9c420-58c9-4657-9d91-467ce9261a2d" d="M19.19282,38.86429V37.73292c.47664-.02075.94248-.17982,1.274.26819.07377.09971.054.41677-.005.44209C20.0961,38.6,19.7069,38.70216,19.19282,38.86429Z"/><path class="bae9c420-58c9-4657-9d91-467ce9261a2d" d="M38.90159,37.7182c.99668.00065,1.376.17214,1.29388.60445-.14946.78712-.78917.45133-1.29388.53311Z"/></g></svg>