<?xml version="1.0" encoding="utf-8"?>
<!-- Generator: Adobe Illustrator 24.1.2, SVG Export Plug-In . SVG Version: 6.00 Build 0)  -->
<svg version="1.1" id="eee076c9-740d-470a-b68c-c0fea130a474"
	 xmlns="http://www.w3.org/2000/svg" xmlns:xlink="http://www.w3.org/1999/xlink" x="0px" y="0px" viewBox="0 0 52.8 52.8"
	 style="enable-background:new 0 0 52.8 52.8;" xml:space="preserve">
<style type="text/css">
	.st0{clip-path:url(#SVGID_2_);}
	.st1{fill:#F3F3F3;}
	.st2{fill:#59B6D7;}
	.st3{fill:#07435D;}
	.st4{fill:#097296;}
	.st5{fill:#5B5B41;}
	.st6{fill:#0EAB41;}
	.st7{fill:#54ABBE;}
	.st8{fill:#BEB715;}
	.st9{fill:#92820D;}
	.st10{fill:#857B16;}
</style>
<g>
	<defs>
		<circle id="SVGID_1_" cx="26.4" cy="26.4" r="26.4"/>
	</defs>
	<clipPath id="SVGID_2_">
		<use xlink:href="#SVGID_1_"  style="overflow:visible;"/>
	</clipPath>
	<g class="st0">
		<g>
			<circle class="st1" cx="26.4" cy="23.9" r="30.4"/>
			<polygon class="st2" points="45.1,2.7 24,32.5 51.9,45.1 57.3,6 			"/>
			<circle class="st3" cx="26.4" cy="25.1" r="5.2"/>
			<circle class="st4" cx="14.9" cy="26.4" r="3.3"/>
			<circle class="st1" cx="37.6" cy="26.1" r="3"/>
			<circle class="st4" cx="14.8" cy="41" r="10.6"/>
			<circle class="st1" cx="37.6" cy="41" r="10.6"/>
			<ellipse class="st3" cx="26.9" cy="49.5" rx="14" ry="17.8"/>
		</g>
		<path class="st5" d="M36.5,14.8c0,0.1,0,2.2-0.2,2.3c-0.2-0.2-0.6-0.5-0.9-0.7C35,15.5,35.9,15.1,36.5,14.8z"/>
		<path class="st6" d="M36.5,6.7c-0.1,0.5-0.1,0.9-0.2,1.4c-0.3-0.4-0.6-0.8-0.9-1.2L36.5,6.7z"/>
		<path class="st7" d="M39.4,13.9l0.3-0.4L39.4,13.9z"/>
		<path class="st7" d="M40.1,13.1l0.4-0.4L40.1,13.1z"/>
		<path class="st7" d="M40.5,12.6c0.1-0.2,0.2-0.4,0.4-0.5C40.8,12.3,40.6,12.5,40.5,12.6z"/>
		<path class="st7" d="M41,13.5c-0.2,0.1-0.3,0.2-0.5,0.3C40.7,13.8,40.8,13.6,41,13.5z"/>
		<path class="st2" d="M40.5,10.1c-0.1,0.2-0.3,0.3-0.4,0.5C40.3,10.4,40.4,10.3,40.5,10.1z"/>
		<polygon class="st8" points="38,6.1 37.1,4.2 36.3,6.1 36.3,15.3 38,15.3 		"/>
		<path class="st6" d="M41,13.6c-0.3,0.1-0.5,0.3-0.7,0.5c-0.3,0.3-0.6,0.8-1,0.7c0,0-0.1,0-0.1,0c0,0,0,0,0,0c0,0.1,0,0.2-0.1,0.3
			c0,0-0.4-0.6-0.3-0.6c0.1,0,0.2-0.1,0.3-0.2c0.1-0.2,0.2-0.4,0.3-0.6c0.1-0.2,0.3-0.4,0.5-0.6c0.2-0.2,0.4-0.4,0.6-0.6
			c0.1-0.1,0.2-0.2,0.2-0.3c0-0.1,0-0.3,0-0.4c0-0.1,0.1-0.3,0.1-0.4c0.1-0.2,0.2-0.3,0.3-0.5c0.1-0.2,0.1-0.4-0.1-0.5
			c-0.1-0.1-0.2-0.1-0.3-0.2c-0.2-0.1-0.4-0.2-0.5,0c-0.2,0.3-0.5,0.6-0.6,0.9c0,0,0,0,0,0c0,0,0,0,0,0c-0.1,0-0.2-0.1-0.2-0.1
			c0.2-0.2,0.3-0.5,0.4-0.8c0-0.1,0-0.3,0-0.4c0-0.1,0-0.2-0.1-0.2c0-0.1-0.1-0.1-0.1-0.2c0,0,0-0.1,0-0.1c0.1,0.1,0.3,0,0.3-0.1
			c0.1-0.2,0-0.4,0-0.6c0-0.2-0.1-0.4-0.1-0.6c0-0.3-0.1-0.5-0.1-0.8c0,0-0.6,0.7-0.6,0.7c-0.3,0.4-0.5,0.7-0.8,1.1
			c0,0.1-0.1,0.1-0.1,0.2c-0.1,0.3,0,0.6-0.3,0.8l-1.7-1.2c0,0-1.2,0.4-1.2,0.4c0.1,0.1,0.5,0.2,0.4,0.5c0,0,0.8,0.7,0.9,0.8
			c0.4,0.4,0.9,0.7,1.5,0.9c0.5,0.2,0.9,0,1.4,0.1c0,0,0,0,0.1,0c0,0,0,0.1,0,0.1c0,0.1-0.1,0.2-0.1,0.2c0,0.1-0.1,0.1-0.1,0.2
			c0,0.1-0.1,0.1-0.2,0.1c-0.1,0-0.1,0.1-0.2,0.1c0,0-0.1,0-0.1,0c-0.1,0-0.1,0-0.2-0.1C38,12.3,38,12.1,37.9,12
			c-0.1-0.1-0.3-0.2-0.5-0.3c-0.2-0.1-0.4-0.2-0.6-0.2c-0.2,0-0.4,0.1-0.6,0.1c-0.1,0-0.3,0.1-0.4,0.1c0,0-0.7,0.1-0.7,0.1
			c0.2,0.2,0.3,0.4,0.5,0.7c0.3,0.4,0.5,0.8,0.8,1.1c0.1,0.1,0.3,0.2,0.5,0.2c0.1,0,0.2,0,0.3,0c0.2,0,0.3,0.1,0.4,0.2c0,0,0,0,0,0
			c0,0,0,0,0,0c-0.1,0.4,0,0.8,0.3,1c0,0-0.3,0.2-0.4,0.3c-0.4,0.5-0.9,1-1.2,1.5c-0.1,0.2-0.2,0.4-0.2,0.7c0,0.1,0,0.2,0,0.3
			c0,0.1,0.1,0.1,0.2,0.2c0.2,0.1,0.5,0.1,0.7,0c0.4-0.2,0.6-0.6,0.9-1c0,0,1.2-0.9,1.2-0.9c0.4-0.2,0.8-0.6,1.2-0.9
			c0.4-0.3,1.1-0.9,1.4-0.9c0,0,0.1-0.5,0.1-0.6c0,0,0.1-0.4,0.1-0.4C41.7,13.4,41.4,13.4,41,13.6C41.1,13.6,41,13.6,41,13.6z
			 M39.2,15.1L39.2,15.1C39.2,15.1,39.2,15.1,39.2,15.1L39.2,15.1z M39.6,15.2C39.6,15.2,39.6,15.2,39.6,15.2
			C39.6,15.2,39.6,15.2,39.6,15.2C39.6,15.2,39.6,15.2,39.6,15.2C39.6,15.2,39.6,15.2,39.6,15.2z"/>
		<path class="st9" d="M38.5,18.7c0-0.2-0.1-0.4-0.1-0.5c-0.1-0.1-0.1-0.2-0.2-0.4c-0.1-0.3-0.2-0.5-0.3-0.8
			c-0.3,0.2-0.6,0.4-0.9,0.7c0,0,0,0,0,0c0,0,0,0,0,0c-0.1,0-0.3,0.1-0.4,0.1c0,0,0,0,0,0l0,0l-0.5-0.1c-0.1,0.2-0.3,0.3-0.4,0.5h0
			v0l0,0h0l0.1,0.9c0.8,0.3,1.7,0.3,2.5,0C38.4,19,38.5,18.8,38.5,18.7C38.5,18.7,38.5,18.7,38.5,18.7z"/>
		<path class="st10" d="M37.1,15.1c0.3,0,0.5,0.1,0.8,0.1c0,0.9-0.6,1.6-1.5,1.6c0,0-0.1,0-0.1,0c0-0.5,0-1.1,0-1.6
			C36.6,15.2,36.9,15.2,37.1,15.1z"/>
	</g>
</g>
</svg>
