<?xml version="1.0" encoding="utf-8"?>
<!-- Generator: Adobe Illustrator 24.1.2, SVG Export Plug-In . SVG Version: 6.00 Build 0)  -->
<svg version="1.1" id="a3154b23-6d15-4e82-a9fe-579c18fe2efb"
	 xmlns="http://www.w3.org/2000/svg" xmlns:xlink="http://www.w3.org/1999/xlink" x="0px" y="0px" viewBox="0 0 52.8 52.8"
	 style="enable-background:new 0 0 52.8 52.8;" xml:space="preserve">
<style type="text/css">
	.st0{fill:#EB2828;}
	.st1{fill:#FEF3F0;}
	.st2{fill:#FFFFFF;}
	.st3{fill:#FEF5F2;}
	.st4{fill:#262D1A;}
	.st5{fill:#FEF1ED;}
	.st6{fill:#FBE5DD;}
	.st7{fill:#D39086;}
	.st8{fill:#EC3B32;}
	.st9{fill:#EE4B3F;}
	.st10{fill:#B34E40;}
	.st11{fill:#BC6354;}
	.st12{fill:#B74E43;}
	.st13{fill:#B65749;}
	.st14{fill:#C06B5B;}
	.st15{fill:#E0B3A9;}
	.st16{fill:#CA7E71;}
	.st17{fill:#C67466;}
	.st18{fill:#AE322C;}
	.st19{fill:#A52926;}
</style>
<circle class="st0" cx="26.4" cy="26.4" r="26"/>
<g>
	<g>
		<path class="st1" d="M25.1,15.6V18v0.1c0,0-0.1,21.1-0.1,22.8h1.2l0.1-25.3H25.1z"/>
		<path class="st1" d="M26.7,15.5c0,0,0,24.3,0,25.5l1.2-0.2V15.6L26.7,15.5z"/>
		<polyline class="st2" points="16.2,19.7 17.7,18.1 24.7,17.9 26.2,18.5 26.4,18.8 26.7,18.4 28.6,17.9 35.3,18.3 35.9,18.9 
			36.2,19.3 36.7,19.9 36.7,35.9 36.4,35.9 16.1,35.9 16.1,19.8 		"/>
		<path class="st3" d="M27.7,15.3c-0.2,0-0.3-0.1-0.5-0.1c-0.8,0-1.6,0-2.4,0c-1.3-0.1-2.5,0.1-3.7,0.4c-1.3,0.3-2.6,0.3-3.8-0.2
			l1.4-0.9l-1.9-1.1l0.1-0.2l0.9-0.1c0,0,0.9,0,0.9,0c0.2,0,0.4,0.2,0.5,0.3c0.3,0.2,0.7,0.3,1,0.2c0.1,0,0.2-0.1,0.3-0.2
			c0.2-0.2,0.4-0.3,0.5-0.5c0,0,0-0.1,0.1-0.1c0,0,0,0,0.1,0c0.3,0.1,0.6,0.2,0.8,0.4c0.5,0.3,1.1,0.5,1.7,0.5
			c1.6,0.1,3.1,0.1,4.7,0.1c0.9-0.1,1.8,0.5,2,1.4c0.2,0.9,0.3,1.8,0.4,2.7h-2.1c0-0.5,0-1-0.1-1.5C28.5,15.9,28.2,15.5,27.7,15.3z"
			/>
		<path class="st1" d="M28,50.6l0.2,0.7h-3.3v-0.7l2.8-0.9l-0.3-0.8l-2.1,0.6v-0.9l1.6-0.5l-0.6-0.7l-1,0.2v-0.9
			c-1.3-1.1-2.2-2.6-2.3-4.3l1.7,0.7l0.7,1.8l2.2-0.6v0.9L26,45.7l0.6,0.7l1.1-0.3V47l-0.4,0.2c0.8,0.9,1.1,2.1,0.7,3.2l-0.3-0.2
			l-0.1,0.1L28,50.6z"/>
		<path class="st4" d="M30.7,45.6c0.5,0.7,0.5,1.1,0.3,2.4c0.7-0.4,1.6-0.3,2.3,0.1c-0.4,1.2-1.7,1.8-2.9,1.4
			c-0.1,0-0.2-0.1-0.3-0.1c-0.4-0.3-0.7-0.7-0.6-1.2C29.4,47.2,29.8,46.2,30.7,45.6z"/>
		<path class="st4" d="M40.1,31.6c0.4-0.7,1.2-1.2,2-1.2c0.2,1.3-0.7,2.5-2,2.8c-0.1,0-0.3,0-0.4,0c-0.1,0-0.2-0.1-0.3-0.1
			c-1.1-0.8-1.4-2.3-0.7-3.5C39.5,30,40,30.8,40.1,31.6z"/>
		<path class="st4" d="M9.5,11.1c0.8,0.2,1.3,0.6,1.8,1.7c0.3-0.8,0.9-1.4,1.7-1.6c0.7,1.1-0.1,2.8-1.6,3.3c-1.4-0.3-2.2-1.7-1.9-3
			C9.4,11.3,9.4,11.2,9.5,11.1z"/>
		<path class="st4" d="M13.7,29.8c0.8,1.1,0.5,2.6-0.5,3.5c-0.2,0.1-0.4,0.2-0.6,0.2c-1.3-0.1-2.3-1.2-2.2-2.6l0,0v-0.1
			c0.7-0.1,1.3,0.2,2.1,1C12.6,31,13,30.2,13.7,29.8z"/>
		<path class="st4" d="M33.6,45c0.6-0.5,1.5-0.7,2.3-0.5c-0.2,1.3-1.3,2.2-2.6,2c-0.1,0-0.2,0-0.3-0.1c-0.1,0-0.2-0.1-0.3-0.1
			c-1-1.1-0.9-2.7,0.2-3.6l0,0l0,0C33.5,43.3,33.7,44.2,33.6,45z"/>
		<path class="st4" d="M39.3,18.2c0.8,0.2,1.5,0.8,1.7,1.6c0.2-0.8,0.9-1.5,1.7-1.7c0.5,1.3-0.1,2.7-1.4,3.3l0,0
			c-0.1,0-0.2,0.1-0.2,0.1c-0.1,0-0.2,0-0.2,0C39.6,21,38.9,19.6,39.3,18.2L39.3,18.2L39.3,18.2z"/>
		<path class="st4" d="M12.9,22.2c0.5,1.3-0.2,2.7-1.5,3.2l0,0c-0.2,0-0.3,0-0.5,0c-1.3-0.5-2-1.9-1.5-3.2c0.8,0.2,1.5,0.9,1.7,1.7
			C11.5,23.1,12.1,22.5,12.9,22.2z"/>
		<path class="st4" d="M14.8,33.3c0.9,1.1,0.8,2.7-0.3,3.6l0,0c-0.3,0.1-0.7,0.1-1,0.1c-1.1-0.2-1.9-1.3-1.9-2.4
			c0.8-0.1,1.7,0.3,2.2,0.9C13.8,34.7,14.1,33.9,14.8,33.3z"/>
		<path class="st4" d="M22,48c0-0.5-0.1-1.1-0.1-1.6c0-0.3,0.1-0.5,0.2-0.8c1.3,0.6,1.7,2.2,1.1,3.4l0,0v0.1
			c-0.7,0.6-1.6,0.7-2.4,0.3c-0.4-0.3-0.9-0.7-1.2-1.1C20.3,47.8,21.2,47.7,22,48L22,48L22,48z"/>
		<path class="st4" d="M9.5,18.4c0.8,0.2,1.5,0.9,1.7,1.7c0.3-0.8,0.9-1.4,1.7-1.6c0.5,1.3-0.1,2.7-1.4,3.2l0,0h-0.1
			c-0.3,0-0.6-0.1-0.9-0.2C9.5,20.8,9.1,19.6,9.5,18.4z"/>
		<path class="st4" d="M35.7,41.7c0.6-0.5,1.4-0.7,2.2-0.5c-0.1,1.3-1.2,2.2-2.5,2c-0.2,0-0.3,0-0.4-0.1c-0.3-0.2-0.6-0.5-0.7-0.9
			c-0.4-1-0.2-2.1,0.6-2.8C35.5,40.1,35.8,40.9,35.7,41.7L35.7,41.7L35.7,41.7z"/>
		<path class="st4" d="M39.4,22c0.8,0.2,1.5,0.8,1.8,1.5c0.3-0.8,0.9-1.4,1.7-1.7c0.3,0.6,0.2,1.3,0,2c-0.2,0.9-1.1,1.5-2,1.4
			c-0.7-0.1-1.2-0.7-1.4-1.4C39.2,23.2,39.2,22.6,39.4,22z"/>
		<path class="st4" d="M19.4,45c-0.1-0.8,0.1-1.7,0.6-2.3c1.1,0.9,1.2,2.5,0.3,3.6c-0.1,0.1-0.2,0.1-0.2,0.1
			c-1.2,0.4-2.5-0.3-2.9-1.5c0-0.1-0.1-0.2-0.1-0.4C17.9,44.4,18.7,44.5,19.4,45z"/>
		<path class="st4" d="M9.5,14.5c0.8,0.2,1.4,0.9,1.7,1.7c0.6-1.1,1-1.4,1.7-1.6c0.5,1.3-0.2,2.6-1.4,3.1h-0.1c-0.4,0-0.7-0.1-1-0.3
			C9.5,16.8,9.1,15.6,9.5,14.5z"/>
		<path class="st4" d="M36.7,36.2c0.6,0.6,0.9,1.5,0.8,2.3c0.6-0.6,1.5-0.8,2.3-0.6c-0.1,1.3-1.3,2.2-2.6,2.1c-0.1,0-0.2,0-0.3-0.1
			c-0.1,0-0.2-0.1-0.3-0.2C35.6,38.8,35.7,37.2,36.7,36.2z"/>
		<path class="st4" d="M37.7,33.1c0.7,0.4,0.8,0.6,1.2,2c0.3-0.3,0.6-0.5,1-0.7c0.4-0.1,0.7-0.2,1.1-0.3c0.2,1.5-1.3,2.9-2.6,2.6
			c-0.4-0.2-0.7-0.5-0.9-1C37.1,35,37.2,33.9,37.7,33.1z"/>
		<path class="st4" d="M12.9,26.4c0.6,1.2,0.1,2.7-1.1,3.3h-0.1c-0.3,0-0.6,0-0.8-0.1c-1.1-0.5-1.7-1.7-1.4-2.9
			c0.8,0.1,1.5,0.7,1.9,1.4C11.6,27.4,12.2,26.7,12.9,26.4z"/>
		<path class="st4" d="M39.1,10.8c0.8,0.2,1.5,0.8,1.8,1.6c0.3-0.8,0.9-1.5,1.7-1.7c0.5,1.3-0.1,2.7-1.4,3.3l0,0c0,0-0.1,0-0.1,0.1
			c-0.1,0-0.3,0-0.4,0C39.3,13.6,38.6,12.1,39.1,10.8z"/>
		<path class="st4" d="M13,38.3c0.8-0.2,1.6-0.1,2.3,0.5c-0.1-0.8,0.1-1.7,0.7-2.3c1,0.9,1.2,2.5,0.3,3.5c-0.2,0.2-0.4,0.3-0.7,0.3
			C14.4,40.4,13.2,39.5,13,38.3C13.1,38.3,13.1,38.3,13,38.3L13,38.3z"/>
		<path class="st4" d="M14.9,41.5c0.8-0.3,1.7-0.1,2.3,0.5c-0.1-0.8,0.1-1.7,0.7-2.3c1.1,0.9,1.2,2.5,0.3,3.6l0,0
			c-0.5,0.3-1.1,0.3-1.7,0.1C15.6,43,15.1,42.3,14.9,41.5z"/>
		<path class="st4" d="M42.6,14.1c0.5,1.3-0.1,2.7-1.3,3.2l0,0c-0.1,0-0.1,0.1-0.2,0.1c-0.2,0-0.3,0-0.5-0.1c-1.2-0.5-1.8-1.8-1.4-3
			c0.7,0,1.2,0.4,1.8,1.5C41.2,15,41.8,14.4,42.6,14.1z"/>
		<path class="st4" d="M41.1,27.9c0.3-0.8,1-1.4,1.8-1.5c0.4,1.3-0.4,2.7-1.7,3.1l0,0h-0.1c-0.1,0-0.3,0-0.4,0
			c-1.3-0.5-1.8-2-1.3-3.2v-0.1C40.2,26.4,40.7,26.9,41.1,27.9z"/>
		<path class="st5" d="M26.2,7.5v5.7H25C25.1,11.2,24.8,9.3,26.2,7.5z"/>
		<path class="st5" d="M27.9,13.2h-1.1V7.6C28.2,9.3,27.9,11.2,27.9,13.2z"/>
		<path class="st4" d="M11.2,7c1,1,1,2.7,0,3.7l0,0c-1-0.9-1.1-2.4-0.3-3.5C11,7.1,11.1,7.1,11.2,7L11.2,7z"/>
		<path class="st4" d="M40.8,10.4c-1.1-1-1.1-2.6-0.2-3.6l0,0l0,0c1,0.9,1.2,2.5,0.3,3.5l0,0C40.9,10.3,40.8,10.4,40.8,10.4z"/>
		<path class="st5" d="M29.3,35.9c0,1.2-0.4,2.4-1.1,3.4c0-1.2,0-2.3,0-3.5h0.4h0.5L29.3,35.9z"/>
		<path class="st5" d="M24.8,39.2v1.7l-1.7,1C23.2,40.7,23.9,39.7,24.8,39.2z"/>
		<path class="st6" d="M16.3,14.9c-0.5,0.8-0.9,0.9-1.5,0.5c0.2-0.1,0.5-0.2,0.6-0.4s0-0.5,0-0.7l2.7,0.2L16.3,14.9z"/>
		<path class="st6" d="M28.7,42.3c-0.4,0.3-0.9,0.5-1.4,0.4s-1-0.1-1.6,0c-0.5,0.1-1,0-1.4-0.4H28.7z"/>
		<path class="st6" d="M25.3,44v-0.9h2.4v0.2L25.3,44z"/>
		<path class="st6" d="M28.6,41.7h-4.2v-0.1c0.3-0.1,0.7-0.2,1-0.3c0.6,0,1.3,0,1.9,0c0.4,0,0.9,0.1,1.3,0.2V41.7z"/>
		<path class="st6" d="M20,13.5h-0.2l-0.1-0.1v-1l0.8,0.3C20.7,13.2,20.4,13.3,20,13.5z"/>
		<path class="st6" d="M19,12.8l0.5-0.4v1C19.3,13.4,19,13.2,19,12.8C19,12.9,19,12.9,19,12.8z"/>
		<path class="st7" d="M28,50.6l-0.4-0.3l0.1-0.1l0.3,0.2V50.6z"/>
		<path class="st8" d="M26.7,18.2v0.2h-0.1C26.7,18.3,26.7,18.2,26.7,18.2z"/>
		<path class="st8" d="M26.7,15.5v0.2V15.5z"/>
		<path class="st8" d="M26.9,15.5L26.9,15.5L26.9,15.5z"/>
		<path class="st9" d="M27.9,40.8L27.9,40.8C27.9,40.8,27.9,40.8,27.9,40.8C28,40.8,27.9,40.8,27.9,40.8z"/>
		<path class="st8" d="M26.7,16.1L26.7,16.1C26.7,16.2,26.7,16.2,26.7,16.1L26.7,16.1z"/>
		<path class="st9" d="M19.7,13.4L19.7,13.4L19.7,13.4z"/>
		<path class="st0" d="M22,48L22,48L22,48L22,48z"/>
		<path class="st0" d="M35.7,41.7L35.7,41.7L35.7,41.7L35.7,41.7z"/>
		<path class="st10" d="M35.3,18.7v-0.5V18.7z"/>
		<path class="st10" d="M28.1,18.1h-0.2H28.1z"/>
		<path class="st10" d="M28.8,18.1h-0.1H28.8z"/>
		<path class="st10" d="M16.7,35.9h0.7H16.7z"/>
		<path class="st10" d="M16.5,19.8h-0.3H16.5z"/>
		<path class="st10" d="M16.3,35.9h0.2H16.3z"/>
		<path class="st11" d="M16.6,19.1L16.6,19.1L16.6,19.1z"/>
		<path class="st12" d="M24.9,35.7L24.9,35.7L24.9,35.7z"/>
		<path class="st13" d="M32.6,35.8h0.7H32.6z"/>
		<path class="st13" d="M29.8,35.7h0.6H29.8z"/>
		<path class="st13" d="M33.6,35.9L33.6,35.9L33.6,35.9z"/>
		<path class="st14" d="M18,35h0.6H18z"/>
		<path class="st14" d="M24.9,18.2h-0.4H24.9z"/>
		<path class="st12" d="M28.2,35.7h0.1H28.2z"/>
		<path class="st15" d="M28.2,35.5h0.2H28.2z"/>
		<path class="st16" d="M35.6,34.9h-1.5H35.6z"/>
		<path class="st11" d="M16.6,35.2L16.6,35.2C16.6,35.1,16.6,35.1,16.6,35.2L16.6,35.2z"/>
		<path class="st11" d="M16.9,35.5h-0.1H16.9z"/>
		<path class="st17" d="M28.5,34.9h-0.3H28.5z"/>
		<path class="st15" d="M28.2,35.1h0.4H28.2z"/>
		<path class="st18" d="M36.4,19.5c0-0.2,0-0.4,0-0.4L36,18.9l0.1-0.1l-0.5-0.5l-0.1-0.4h-4.7h-2.1L28.1,18l-0.3,0.1l0.2,0.1h0.1
			h0.2h0.6H29c2,0,3.9,0,5.9,0c0.2,0,0.3,0.1,0.5,0.1v0.5c0,0.2,0,0.5,0,0.7c0,4.9,0,9.8,0,14.7c0,0.1,0,0.2,0,0.3H17.2
			c0.1,0.1-0.1,0.2,0,0.2c1.4,0,12.9,0,14.3,0c0.2,0,0.4,0,0.6,0h3.5l0-0.4c0-5,0-10.1,0-15.1c0-0.1,0-0.2,0.1-0.3l0.1,0.2h-0.1
			c0,5.2,0,10.6,0,15.8h-1.5l-7.5-0.1l-0.1-0.3c0-0.1,0-0.3,0-0.4c0-4.9,0-9.7,0-14.5c0-0.9,0.1-1,1-1.3c0.1,0,0.2-0.1,0.3-0.1
			l-0.2-0.1l-0.9,0.2h-0.1c0,0.2-0.1,0.3-0.2,0.5l-0.2-0.4L25.2,18c-0.4-0.1-0.8-0.1-1-0.1c-2,0-4.1,0-6.1,0
			C18,18,17.8,18,17.7,18.1h-0.1l0-0.1c-0.3,0.3-0.6,0.7-0.9,1c0,0.2-0.1,0.3-0.1,0.5c-0.1,0.1-0.3,0.1-0.4,0.2v16.4
			c0.2,0,0.4,0,0.6,0c1.1,0,2.3-0.1,3.4-0.1c1.7-0.1,3.3-0.1,5.1-0.2h0.9h0.5c0.4,0,0.7,0,1.1,0c0,0,0,0,0,0c0,0,0.1,0,0.1,0
			l0.3,0.1h0.4h0.5c0,0,5.3,0.1,7.7,0.2V19.6C36.6,19.5,36.5,19.5,36.4,19.5z M17.2,18.6l0.3,0.1h0.1h0.1v-0.4l0,0l0.1-0.2h0h6.8H25
			l0.3,0.1v-0.1c0.1,0.1,0.2,0.1,0.4,0.2c0.4,0.2,0.7,0.6,0.7,1c0,5,0,10,0,15c0,0.1-0.1,0.5-0.1,0.5L19.4,35h-0.7h-0.6h-0.9V18.6z
			 M16.8,19.1c0.1,0.1,0.3,0.1,0.3,0.2c0,0.1,0,0.3,0,0.4c0,4.9,0,15.4,0,15.4h2.3c0.3,0,6.4-0.1,6.7-0.1c0.1,0,0.2,0.1,0.3,0.2h0.2
			l0.1-0.2l9.1,0.1c0.1-0.1,0.1-0.4,0.1-0.6c0-5,0-10.2,0-15.2h0.4v4.6v2.7v8.7H16.7c0,0,0-14.4,0-15.6L16.8,19.1z M26.2,35.6
			c-0.3,0-0.6,0-0.9,0l-7.8,0.3h-0.9h-0.2c-0.1-0.3-0.1-11-0.1-16.2h0.3v15.8l9.8,0C26.3,35.6,26.3,35.6,26.2,35.6z M36.7,35.3
			c0,0.2,0,0.3,0,0.5l-7.2-0.2c0,0-2.4,0-2.7,0c0,0,0,0-0.1-0.1l9.7,0c0-4.9,0-10.2,0-15.1c0-0.1,0-0.4,0-0.7l0.3,0
			C36.7,24.8,36.7,30.2,36.7,35.3z"/>
		<rect x="33.2" y="19" class="st19" width="1.1" height="0.2"/>
		<rect x="33.2" y="19.5" class="st19" width="1.1" height="0.2"/>
		<rect x="33.2" y="20.1" class="st19" width="1.1" height="0.2"/>
		<rect x="33.2" y="20.6" class="st19" width="1.1" height="0.2"/>
		<rect x="33.2" y="21.2" class="st19" width="1.1" height="0.2"/>
		<rect x="33.2" y="21.7" class="st19" width="1.1" height="0.2"/>
		<rect x="33.2" y="22.2" class="st19" width="1.1" height="0.2"/>
		<rect x="33.2" y="22.8" class="st19" width="1.1" height="0.2"/>
		<rect x="33.2" y="23.3" class="st19" width="1.1" height="0.2"/>
		<rect x="33.2" y="23.8" class="st19" width="1.1" height="0.2"/>
		<rect x="33.2" y="24.4" class="st19" width="1.1" height="0.2"/>
		<rect x="33.2" y="24.9" class="st19" width="1.1" height="0.2"/>
		<rect x="33.2" y="25.4" class="st19" width="1.1" height="0.2"/>
		<rect x="33.2" y="26" class="st19" width="1.1" height="0.2"/>
		<rect x="33.2" y="26.5" class="st19" width="1.1" height="0.2"/>
		<rect x="33.2" y="27.1" class="st19" width="1.1" height="0.2"/>
		<rect x="33.2" y="27.6" class="st19" width="1.1" height="0.2"/>
		<rect x="33.2" y="28.1" class="st19" width="1.1" height="0.2"/>
		<rect x="33.2" y="28.7" class="st19" width="1.1" height="0.2"/>
		<rect x="33.2" y="29.2" class="st19" width="1.1" height="0.2"/>
		<rect x="33.2" y="29.7" class="st19" width="1.1" height="0.2"/>
		<rect x="33.2" y="30.3" class="st19" width="1.1" height="0.2"/>
		<rect x="33.2" y="30.8" class="st19" width="1.1" height="0.2"/>
		<rect x="33.2" y="31.3" class="st19" width="1.1" height="0.2"/>
		<rect x="33.2" y="31.9" class="st19" width="1.1" height="0.2"/>
		<rect x="33.2" y="32.4" class="st19" width="1.1" height="0.2"/>
		<rect x="33.2" y="33" class="st19" width="1.1" height="0.2"/>
		<rect x="33.2" y="33.5" class="st19" width="1.1" height="0.2"/>
		<rect x="31.9" y="19" class="st19" width="1.1" height="0.2"/>
		<rect x="31.9" y="19.5" class="st19" width="1.1" height="0.2"/>
		<rect x="31.9" y="20.1" class="st19" width="1.1" height="0.2"/>
		<rect x="31.9" y="20.6" class="st19" width="1.1" height="0.2"/>
		<rect x="31.9" y="21.2" class="st19" width="1.1" height="0.2"/>
		<rect x="31.9" y="21.7" class="st19" width="1.1" height="0.2"/>
		<rect x="31.9" y="22.2" class="st19" width="1.1" height="0.2"/>
		<rect x="31.9" y="22.8" class="st19" width="1.1" height="0.2"/>
		<rect x="31.9" y="23.3" class="st19" width="1.1" height="0.2"/>
		<rect x="31.9" y="23.8" class="st19" width="1.1" height="0.2"/>
		<rect x="31.9" y="24.4" class="st19" width="1.1" height="0.2"/>
		<rect x="31.9" y="24.9" class="st19" width="1.1" height="0.2"/>
		<rect x="31.9" y="25.4" class="st19" width="1.1" height="0.2"/>
		<rect x="31.9" y="26" class="st19" width="1.1" height="0.2"/>
		<rect x="31.9" y="26.5" class="st19" width="1.1" height="0.2"/>
		<rect x="31.9" y="27.1" class="st19" width="1.1" height="0.2"/>
		<rect x="31.9" y="27.6" class="st19" width="1.1" height="0.2"/>
		<rect x="31.9" y="28.1" class="st19" width="1.1" height="0.2"/>
		<rect x="31.9" y="28.7" class="st19" width="1.1" height="0.2"/>
		<rect x="31.9" y="29.2" class="st19" width="1.1" height="0.2"/>
		<rect x="31.9" y="29.7" class="st19" width="1.1" height="0.2"/>
		<rect x="31.9" y="30.3" class="st19" width="1.1" height="0.2"/>
		<rect x="31.9" y="30.8" class="st19" width="1.1" height="0.2"/>
		<rect x="31.9" y="31.3" class="st19" width="1.1" height="0.2"/>
		<rect x="31.9" y="31.9" class="st19" width="1.1" height="0.2"/>
		<rect x="31.9" y="32.4" class="st19" width="1.1" height="0.2"/>
		<rect x="31.9" y="33" class="st19" width="1.1" height="0.2"/>
		<rect x="31.9" y="33.5" class="st19" width="1.1" height="0.2"/>
		<rect x="30.5" y="19" class="st19" width="1.1" height="0.2"/>
		<rect x="30.5" y="19.5" class="st19" width="1.1" height="0.2"/>
		<rect x="30.5" y="20.1" class="st19" width="1.1" height="0.2"/>
		<rect x="30.5" y="20.6" class="st19" width="1.1" height="0.2"/>
		<rect x="30.5" y="21.2" class="st19" width="1.1" height="0.2"/>
		<rect x="30.5" y="21.7" class="st19" width="1.1" height="0.2"/>
		<rect x="30.5" y="22.2" class="st19" width="1.1" height="0.2"/>
		<rect x="30.5" y="22.8" class="st19" width="1.1" height="0.2"/>
		<rect x="30.5" y="23.3" class="st19" width="1.1" height="0.2"/>
		<rect x="30.5" y="23.8" class="st19" width="1.1" height="0.2"/>
		<rect x="30.5" y="24.4" class="st19" width="1.1" height="0.2"/>
		<rect x="30.5" y="24.9" class="st19" width="1.1" height="0.2"/>
		<rect x="30.5" y="25.4" class="st19" width="1.1" height="0.2"/>
		<rect x="30.5" y="26" class="st19" width="1.1" height="0.2"/>
		<rect x="30.5" y="26.5" class="st19" width="1.1" height="0.2"/>
		<rect x="30.5" y="27.1" class="st19" width="1.1" height="0.2"/>
		<rect x="30.5" y="27.6" class="st19" width="1.1" height="0.2"/>
		<rect x="30.5" y="28.1" class="st19" width="1.1" height="0.2"/>
		<rect x="30.5" y="28.7" class="st19" width="1.1" height="0.2"/>
		<rect x="30.5" y="29.2" class="st19" width="1.1" height="0.2"/>
		<rect x="30.5" y="29.7" class="st19" width="1.1" height="0.2"/>
		<rect x="30.5" y="30.3" class="st19" width="1.1" height="0.2"/>
		<rect x="30.5" y="30.8" class="st19" width="1.1" height="0.2"/>
		<rect x="30.5" y="31.3" class="st19" width="1.1" height="0.2"/>
		<rect x="30.5" y="31.9" class="st19" width="1.1" height="0.2"/>
		<rect x="30.5" y="32.4" class="st19" width="1.1" height="0.2"/>
		<rect x="30.5" y="33" class="st19" width="1.1" height="0.2"/>
		<rect x="30.5" y="33.5" class="st19" width="1.1" height="0.2"/>
		<rect x="29.2" y="19" class="st19" width="1.1" height="0.2"/>
		<rect x="29.2" y="19.5" class="st19" width="1.1" height="0.2"/>
		<rect x="29.2" y="20.1" class="st19" width="1.1" height="0.2"/>
		<rect x="29.2" y="20.6" class="st19" width="1.1" height="0.2"/>
		<rect x="29.2" y="21.2" class="st19" width="1.1" height="0.2"/>
		<rect x="29.2" y="21.7" class="st19" width="1.1" height="0.2"/>
		<rect x="29.2" y="22.2" class="st19" width="1.1" height="0.2"/>
		<rect x="29.2" y="22.8" class="st19" width="1.1" height="0.2"/>
		<rect x="29.2" y="23.3" class="st19" width="1.1" height="0.2"/>
		<rect x="29.2" y="23.8" class="st19" width="1.1" height="0.2"/>
		<rect x="29.2" y="24.4" class="st19" width="1.1" height="0.2"/>
		<rect x="29.2" y="24.9" class="st19" width="1.1" height="0.2"/>
		<rect x="29.2" y="25.4" class="st19" width="1.1" height="0.2"/>
		<rect x="29.2" y="26" class="st19" width="1.1" height="0.2"/>
		<rect x="29.2" y="26.5" class="st19" width="1.1" height="0.2"/>
		<rect x="29.2" y="27.1" class="st19" width="1.1" height="0.2"/>
		<rect x="29.2" y="27.6" class="st19" width="1.1" height="0.2"/>
		<rect x="29.2" y="28.1" class="st19" width="1.1" height="0.2"/>
		<rect x="29.2" y="28.7" class="st19" width="1.1" height="0.2"/>
		<rect x="29.2" y="29.2" class="st19" width="1.1" height="0.2"/>
		<rect x="29.2" y="29.7" class="st19" width="1.1" height="0.2"/>
		<rect x="29.2" y="30.3" class="st19" width="1.1" height="0.2"/>
		<rect x="29.2" y="30.8" class="st19" width="1.1" height="0.2"/>
		<rect x="29.2" y="31.3" class="st19" width="1.1" height="0.2"/>
		<rect x="29.2" y="31.9" class="st19" width="1.1" height="0.2"/>
		<rect x="29.2" y="32.4" class="st19" width="1.1" height="0.2"/>
		<rect x="29.2" y="33" class="st19" width="1.1" height="0.2"/>
		<rect x="29.2" y="33.5" class="st19" width="1.1" height="0.2"/>
		<rect x="27.9" y="19" class="st19" width="1.1" height="0.2"/>
		<rect x="27.9" y="19.5" class="st19" width="1.1" height="0.2"/>
		<rect x="27.9" y="20.1" class="st19" width="1.1" height="0.2"/>
		<rect x="27.9" y="20.6" class="st19" width="1.1" height="0.2"/>
		<rect x="27.9" y="21.2" class="st19" width="1.1" height="0.2"/>
		<rect x="27.9" y="21.7" class="st19" width="1.1" height="0.2"/>
		<rect x="27.9" y="22.2" class="st19" width="1.1" height="0.2"/>
		<rect x="27.9" y="22.8" class="st19" width="1.1" height="0.2"/>
		<rect x="27.9" y="23.3" class="st19" width="1.1" height="0.2"/>
		<rect x="27.9" y="23.8" class="st19" width="1.1" height="0.2"/>
		<rect x="27.9" y="24.4" class="st19" width="1.1" height="0.2"/>
		<rect x="27.9" y="24.9" class="st19" width="1.1" height="0.2"/>
		<rect x="27.9" y="25.4" class="st19" width="1.1" height="0.2"/>
		<rect x="27.9" y="26" class="st19" width="1.1" height="0.2"/>
		<rect x="27.9" y="26.5" class="st19" width="1.1" height="0.2"/>
		<rect x="27.9" y="27.1" class="st19" width="1.1" height="0.2"/>
		<rect x="27.9" y="27.6" class="st19" width="1.1" height="0.2"/>
		<rect x="27.9" y="28.1" class="st19" width="1.1" height="0.2"/>
		<rect x="27.9" y="28.7" class="st19" width="1.1" height="0.2"/>
		<rect x="27.9" y="29.2" class="st19" width="1.1" height="0.2"/>
		<rect x="27.9" y="29.7" class="st19" width="1.1" height="0.2"/>
		<rect x="27.9" y="30.3" class="st19" width="1.1" height="0.2"/>
		<rect x="27.9" y="30.8" class="st19" width="1.1" height="0.2"/>
		<rect x="27.9" y="31.3" class="st19" width="1.1" height="0.2"/>
		<rect x="27.9" y="31.9" class="st19" width="1.1" height="0.2"/>
		<rect x="27.9" y="32.4" class="st19" width="1.1" height="0.2"/>
		<rect x="27.9" y="33" class="st19" width="1.1" height="0.2"/>
		<rect x="27.9" y="33.5" class="st19" width="1.1" height="0.2"/>
		<rect x="23.8" y="19" class="st19" width="1.1" height="0.2"/>
		<rect x="23.8" y="19.5" class="st19" width="1.1" height="0.2"/>
		<rect x="23.8" y="20.1" class="st19" width="1.1" height="0.2"/>
		<rect x="23.8" y="20.6" class="st19" width="1.1" height="0.2"/>
		<rect x="23.8" y="21.2" class="st19" width="1.1" height="0.2"/>
		<rect x="23.8" y="21.7" class="st19" width="1.1" height="0.2"/>
		<rect x="23.8" y="22.2" class="st19" width="1.1" height="0.2"/>
		<rect x="23.8" y="22.8" class="st19" width="1.1" height="0.2"/>
		<rect x="23.8" y="23.3" class="st19" width="1.1" height="0.2"/>
		<rect x="23.8" y="23.8" class="st19" width="1.1" height="0.2"/>
		<rect x="23.8" y="24.4" class="st19" width="1.1" height="0.2"/>
		<rect x="23.8" y="24.9" class="st19" width="1.1" height="0.2"/>
		<rect x="23.8" y="25.4" class="st19" width="1.1" height="0.2"/>
		<rect x="23.8" y="26" class="st19" width="1.1" height="0.2"/>
		<rect x="23.8" y="26.5" class="st19" width="1.1" height="0.2"/>
		<rect x="23.8" y="27.1" class="st19" width="1.1" height="0.2"/>
		<rect x="23.8" y="27.6" class="st19" width="1.1" height="0.2"/>
		<rect x="23.8" y="28.1" class="st19" width="1.1" height="0.2"/>
		<rect x="23.8" y="28.7" class="st19" width="1.1" height="0.2"/>
		<rect x="23.8" y="29.2" class="st19" width="1.1" height="0.2"/>
		<rect x="23.8" y="29.7" class="st19" width="1.1" height="0.2"/>
		<rect x="23.8" y="30.3" class="st19" width="1.1" height="0.2"/>
		<rect x="23.8" y="30.8" class="st19" width="1.1" height="0.2"/>
		<rect x="23.8" y="31.3" class="st19" width="1.1" height="0.2"/>
		<rect x="23.8" y="31.9" class="st19" width="1.1" height="0.2"/>
		<rect x="23.8" y="32.4" class="st19" width="1.1" height="0.2"/>
		<rect x="23.8" y="33" class="st19" width="1.1" height="0.2"/>
		<rect x="23.8" y="33.5" class="st19" width="1.1" height="0.2"/>
		<rect x="22.5" y="19" class="st19" width="1.1" height="0.2"/>
		<rect x="22.5" y="19.5" class="st19" width="1.1" height="0.2"/>
		<rect x="22.5" y="20.1" class="st19" width="1.1" height="0.2"/>
		<rect x="22.5" y="20.6" class="st19" width="1.1" height="0.2"/>
		<rect x="22.5" y="21.2" class="st19" width="1.1" height="0.2"/>
		<rect x="22.5" y="21.7" class="st19" width="1.1" height="0.2"/>
		<rect x="22.5" y="22.2" class="st19" width="1.1" height="0.2"/>
		<rect x="22.5" y="22.8" class="st19" width="1.1" height="0.2"/>
		<rect x="22.5" y="23.3" class="st19" width="1.1" height="0.2"/>
		<rect x="22.5" y="23.8" class="st19" width="1.1" height="0.2"/>
		<rect x="22.5" y="24.4" class="st19" width="1.1" height="0.2"/>
		<rect x="22.5" y="24.9" class="st19" width="1.1" height="0.2"/>
		<rect x="22.5" y="25.4" class="st19" width="1.1" height="0.2"/>
		<rect x="22.5" y="26" class="st19" width="1.1" height="0.2"/>
		<rect x="22.5" y="26.5" class="st19" width="1.1" height="0.2"/>
		<rect x="22.5" y="27.1" class="st19" width="1.1" height="0.2"/>
		<rect x="22.5" y="27.6" class="st19" width="1.1" height="0.2"/>
		<rect x="22.5" y="28.1" class="st19" width="1.1" height="0.2"/>
		<rect x="22.5" y="28.7" class="st19" width="1.1" height="0.2"/>
		<rect x="22.5" y="29.2" class="st19" width="1.1" height="0.2"/>
		<rect x="22.5" y="29.7" class="st19" width="1.1" height="0.2"/>
		<rect x="22.5" y="30.3" class="st19" width="1.1" height="0.2"/>
		<rect x="22.5" y="30.8" class="st19" width="1.1" height="0.2"/>
		<rect x="22.5" y="31.3" class="st19" width="1.1" height="0.2"/>
		<rect x="22.5" y="31.9" class="st19" width="1.1" height="0.2"/>
		<rect x="22.5" y="32.4" class="st19" width="1.1" height="0.2"/>
		<rect x="22.5" y="33" class="st19" width="1.1" height="0.2"/>
		<rect x="22.5" y="33.5" class="st19" width="1.1" height="0.2"/>
		<rect x="21.2" y="19" class="st19" width="1.1" height="0.2"/>
		<rect x="21.2" y="19.5" class="st19" width="1.1" height="0.2"/>
		<rect x="21.2" y="20.1" class="st19" width="1.1" height="0.2"/>
		<rect x="21.2" y="20.6" class="st19" width="1.1" height="0.2"/>
		<rect x="21.2" y="21.2" class="st19" width="1.1" height="0.2"/>
		<rect x="21.2" y="21.7" class="st19" width="1.1" height="0.2"/>
		<rect x="21.2" y="22.2" class="st19" width="1.1" height="0.2"/>
		<rect x="21.2" y="22.8" class="st19" width="1.1" height="0.2"/>
		<rect x="21.2" y="23.3" class="st19" width="1.1" height="0.2"/>
		<rect x="21.2" y="23.8" class="st19" width="1.1" height="0.2"/>
		<rect x="21.2" y="24.4" class="st19" width="1.1" height="0.2"/>
		<rect x="21.2" y="24.9" class="st19" width="1.1" height="0.2"/>
		<rect x="21.2" y="25.4" class="st19" width="1.1" height="0.2"/>
		<rect x="21.2" y="26" class="st19" width="1.1" height="0.2"/>
		<rect x="21.2" y="26.5" class="st19" width="1.1" height="0.2"/>
		<rect x="21.2" y="27.1" class="st19" width="1.1" height="0.2"/>
		<rect x="21.2" y="27.6" class="st19" width="1.1" height="0.2"/>
		<rect x="21.2" y="28.1" class="st19" width="1.1" height="0.2"/>
		<rect x="21.2" y="28.7" class="st19" width="1.1" height="0.2"/>
		<rect x="21.2" y="29.2" class="st19" width="1.1" height="0.2"/>
		<rect x="21.2" y="29.7" class="st19" width="1.1" height="0.2"/>
		<rect x="21.2" y="30.3" class="st19" width="1.1" height="0.2"/>
		<rect x="21.2" y="30.8" class="st19" width="1.1" height="0.2"/>
		<rect x="21.2" y="31.3" class="st19" width="1.1" height="0.2"/>
		<rect x="21.2" y="31.9" class="st19" width="1.1" height="0.2"/>
		<rect x="21.2" y="32.4" class="st19" width="1.1" height="0.2"/>
		<rect x="21.2" y="33" class="st19" width="1.1" height="0.2"/>
		<rect x="21.2" y="33.5" class="st19" width="1.1" height="0.2"/>
		<rect x="19.8" y="19" class="st19" width="1.1" height="0.2"/>
		<rect x="19.8" y="19.5" class="st19" width="1.1" height="0.2"/>
		<rect x="19.8" y="20.1" class="st19" width="1.1" height="0.2"/>
		<rect x="19.8" y="20.6" class="st19" width="1.1" height="0.2"/>
		<rect x="19.8" y="21.2" class="st19" width="1.1" height="0.2"/>
		<rect x="19.8" y="21.7" class="st19" width="1.1" height="0.2"/>
		<rect x="19.8" y="22.2" class="st19" width="1.1" height="0.2"/>
		<rect x="19.8" y="22.8" class="st19" width="1.1" height="0.2"/>
		<rect x="19.8" y="23.3" class="st19" width="1.1" height="0.2"/>
		<rect x="19.8" y="23.8" class="st19" width="1.1" height="0.2"/>
		<rect x="19.8" y="24.4" class="st19" width="1.1" height="0.2"/>
		<rect x="19.8" y="24.9" class="st19" width="1.1" height="0.2"/>
		<rect x="19.8" y="25.4" class="st19" width="1.1" height="0.2"/>
		<rect x="19.8" y="26" class="st19" width="1.1" height="0.2"/>
		<rect x="19.8" y="26.5" class="st19" width="1.1" height="0.2"/>
		<rect x="19.8" y="27.1" class="st19" width="1.1" height="0.2"/>
		<rect x="19.8" y="27.6" class="st19" width="1.1" height="0.2"/>
		<rect x="19.8" y="28.1" class="st19" width="1.1" height="0.2"/>
		<rect x="19.8" y="28.7" class="st19" width="1.1" height="0.2"/>
		<rect x="19.8" y="29.2" class="st19" width="1.1" height="0.2"/>
		<rect x="19.8" y="29.7" class="st19" width="1.1" height="0.2"/>
		<rect x="19.8" y="30.3" class="st19" width="1.1" height="0.2"/>
		<rect x="19.8" y="30.8" class="st19" width="1.1" height="0.2"/>
		<rect x="19.8" y="31.3" class="st19" width="1.1" height="0.2"/>
		<rect x="19.8" y="31.9" class="st19" width="1.1" height="0.2"/>
		<rect x="19.8" y="32.4" class="st19" width="1.1" height="0.2"/>
		<rect x="19.8" y="33" class="st19" width="1.1" height="0.2"/>
		<rect x="19.8" y="33.5" class="st19" width="1.1" height="0.2"/>
		<rect x="18.5" y="19" class="st19" width="1.1" height="0.2"/>
		<rect x="18.5" y="19.5" class="st19" width="1.1" height="0.2"/>
		<rect x="18.5" y="20.1" class="st19" width="1.1" height="0.2"/>
		<rect x="18.5" y="20.6" class="st19" width="1.1" height="0.2"/>
		<rect x="18.5" y="21.2" class="st19" width="1.1" height="0.2"/>
		<rect x="18.5" y="21.7" class="st19" width="1.1" height="0.2"/>
		<rect x="18.5" y="22.2" class="st19" width="1.1" height="0.2"/>
		<rect x="18.5" y="22.8" class="st19" width="1.1" height="0.2"/>
		<rect x="18.5" y="23.3" class="st19" width="1.1" height="0.2"/>
		<rect x="18.5" y="23.8" class="st19" width="1.1" height="0.2"/>
		<rect x="18.5" y="24.4" class="st19" width="1.1" height="0.2"/>
		<rect x="18.5" y="24.9" class="st19" width="1.1" height="0.2"/>
		<rect x="18.5" y="25.4" class="st19" width="1.1" height="0.2"/>
		<rect x="18.5" y="26" class="st19" width="1.1" height="0.2"/>
		<rect x="18.5" y="26.5" class="st19" width="1.1" height="0.2"/>
		<rect x="18.5" y="27.1" class="st19" width="1.1" height="0.2"/>
		<rect x="18.5" y="27.6" class="st19" width="1.1" height="0.2"/>
		<rect x="18.5" y="28.1" class="st19" width="1.1" height="0.2"/>
		<rect x="18.5" y="28.7" class="st19" width="1.1" height="0.2"/>
		<rect x="18.5" y="29.2" class="st19" width="1.1" height="0.2"/>
		<rect x="18.5" y="29.7" class="st19" width="1.1" height="0.2"/>
		<rect x="18.5" y="30.3" class="st19" width="1.1" height="0.2"/>
		<rect x="18.5" y="30.8" class="st19" width="1.1" height="0.2"/>
		<rect x="18.5" y="31.3" class="st19" width="1.1" height="0.2"/>
		<rect x="18.5" y="31.9" class="st19" width="1.1" height="0.2"/>
		<rect x="18.5" y="32.4" class="st19" width="1.1" height="0.2"/>
		<rect x="18.5" y="33" class="st19" width="1.1" height="0.2"/>
		<rect x="18.5" y="33.5" class="st19" width="1.1" height="0.2"/>
	</g>
</g>
</svg>
