<?xml version="1.0" encoding="utf-8"?>
<!-- Generator: Adobe Illustrator 24.1.2, SVG Export Plug-In . SVG Version: 6.00 Build 0)  -->
<svg version="1.1" id="a32a59a1-b7bd-4584-9cea-8d53f8003f94"
	 xmlns="http://www.w3.org/2000/svg" xmlns:xlink="http://www.w3.org/1999/xlink" x="0px" y="0px" viewBox="0 0 52.8 52.8"
	 style="enable-background:new 0 0 52.8 52.8;" xml:space="preserve">
<style type="text/css">
	.st0{fill:#414042;}
	.st1{clip-path:url(#SVGID_2_);}
	.st2{fill:#E81D24;}
	.st3{fill:#282C7B;}
	.st4{fill:#FEFEFE;stroke:#000000;stroke-width:0.25;stroke-miterlimit:10;}
	.st5{fill:#5E619D;}
	.st6{fill:#A6A8C8;}
	.st7{fill:#9395BD;}
	.st8{fill:#FCFCFC;stroke:#000000;stroke-width:0.25;stroke-miterlimit:10;}
	.st9{fill:#FBFBFB;stroke:#000000;stroke-width:0.25;stroke-miterlimit:10;}
</style>
<circle class="st0" cx="25.5" cy="27.3" r="24.7"/>
<g>
	<defs>
		<circle id="SVGID_1_" cx="26.4" cy="26.4" r="26.4"/>
	</defs>
	<clipPath id="SVGID_2_">
		<use xlink:href="#SVGID_1_"  style="overflow:visible;"/>
	</clipPath>
	<g class="st1">
		<rect x="37.7" y="17" transform="matrix(0.7071 0.7071 -0.7071 0.7071 45.773 -16.4086)" class="st2" width="10" height="60.2"/>
		
			<rect x="23.8" y="2.3" transform="matrix(0.7071 0.7071 -0.7071 0.7071 31.3632 -10.8821)" class="st2" width="10" height="60.2"/>
		<rect x="30.1" y="6.3" transform="matrix(0.7071 0.7071 -0.7071 0.7071 38.8053 -12.9838)" class="st3" width="10" height="68"/>
		
			<rect x="9.3" y="-11.7" transform="matrix(0.7071 0.7071 -0.7071 0.7071 17.2343 -4.7503)" class="st2" width="10" height="60.2"/>
		
			<rect x="17.1" y="-7.4" transform="matrix(0.7071 0.7071 -0.7071 0.7071 24.0919 -8.3822)" class="st3" width="10" height="64.6"/>
		<rect x="0" y="-16.5" transform="matrix(0.7071 0.7071 -0.7071 0.7071 11.0653 0.4482)" class="st3" width="10" height="60.2"/>
		<polygon class="st4" points="23.2,13.6 23.3,26.2 15,26.1 16.5,16.2 18,14.9 		"/>
		<polygon class="st4" points="34.3,14.9 35.5,16.2 37.2,25.9 29.1,26.1 29,13.8 		"/>
		<path class="st5" d="M-0.1,26.9v-0.7c0,0,0,0,0,0c0,0,0,0,0,0C0,26.4,0,26.6-0.1,26.9C0,26.9-0.1,26.9-0.1,26.9
			C-0.1,26.9-0.1,26.9-0.1,26.9z"/>
		<path class="st6" d="M-0.1,26.9C-0.1,26.9-0.1,26.9-0.1,26.9C0,27.1,0,27.3,0,27.5l0,0V26.9z"/>
		<path class="st7" d="M0,26.2L0,26.2l0-0.4c0,0,0,0,0,0c0,0,0,0,0,0C0,25.9,0,26,0,26.2z"/>
		<path class="st4" d="M26.6,0.7c-0.1,0.5-0.1,0.9,0,1.4c0.1,0.9,0.3,1.7,0.6,2.5c0.2,0.6,0.6,1.3,0.8,1.9c0.3,0.9,0.5,1.9,0.5,2.9
			c0,7.7,0,15.5,0,23.2c0,0.1,0,0.1,0,0.2c0,0.3-0.2,0.6-0.5,0.6c-0.4,0.1-0.9,0.2-1.3,0.4c-0.1,0-0.1,0-0.1-0.1c0-1.2,0-2.5,0-3.7
			c0-1,0-2,0-3c0-1.4,0-2.8,0-4.2c0-1,0-2,0-3.1c0-0.8,0-1.6,0-2.3c0-1.4,0-2.9,0-4.3c0-0.8,0-1.6,0-2.4c0-0.9,0-1.9,0-2.8
			c0,0,0-0.1,0-0.1c-0.1,0-0.1,0.1-0.1,0.1c0,0.5,0,0.9,0,1.4c0,1.6,0,3.1,0,4.7c0,1,0,2,0,3c0,1.4,0,2.9,0,4.3c0,1,0,2,0,3
			c0,1.4,0,2.9,0,4.3c0,1,0,2,0,3c0,0.7,0,1.4,0,2.1c0,0.1,0,0.1-0.1,0.1c-0.5-0.1-1.1-0.1-1.6-0.2c-0.3,0-0.5-0.2-0.5-0.5
			c0-0.1,0-0.3,0-0.4c0-4.8,0-9.6,0-14.4c0-1.7,0-3.3,0-5c0-0.9,0-1.7,0-2.6c0-0.9,0-1.7,0-2.6c0-1.7,0.4-3.5,1.1-5
			C25.3,2.1,25.9,1.4,26.6,0.7z"/>
		<path class="st4" d="M25.6,37.1c-0.7,0-1.5-0.1-2.2-0.4c-0.5-0.2-1-0.6-1.4-1c-0.6-0.5-1.3-1.1-1.9-1.6c-0.8-0.6-1.6-1-2.5-1.3
			c-1.7-0.7-3.5-1.1-5.3-1.4c-0.5,0-1-0.1-1.4-0.2c-0.4-0.1-0.8-0.3-1.1-0.5c-0.4-0.4-0.6-0.8-0.6-1.4c0-0.5-0.1-1-0.1-1.5
			c0-0.1,0-0.1,0.1-0.1c2.4,0.6,4.7,1.1,7.1,1.7c1.3,0.4,2.6,1,3.7,1.8c0.5,0.4,1,0.8,1.5,1.2c0.9,0.8,2.1,1.4,3.3,1.6
			c0.9,0.1,1.8,0.1,2.7-0.2c1.3-0.4,2.5-1,3.6-1.7c0.8-0.5,1.6-1.1,2.4-1.6c1-0.6,2.1-1,3.2-1.4c2-0.6,3.9-1.2,5.9-1.7
			c0.1,0,0.1,0,0.1,0.1c-0.1,0.6-0.1,1.3-0.2,1.9c-0.1,0.5-0.4,1-0.9,1.2c-0.5,0.2-1.1,0.4-1.6,0.5c-1.5,0.5-2.9,0.9-4.4,1.3
			c-1.3,0.4-2.4,1.1-3.5,1.8c-0.8,0.5-1.5,1.1-2.2,1.6C28.6,36.7,27.1,37.2,25.6,37.1z"/>
		<path class="st4" d="M23.4,13.6v0.2c0,3.1,0,6.3,0,9.4c0,0.1,0,0.2-0.1,0.2c-0.7,0.3-1.5,0.6-2.2,0.8c-0.9,0.2-1.8,0.3-2.8,0.2
			c-0.5,0-0.9-0.1-1.4-0.1c-0.1,0-0.1,0-0.1-0.1c0.2-1.9,0.5-3.8,0.7-5.7c0.1-1.1,0.3-2.2,0.4-3.2c0-0.3,0.2-0.4,0.5-0.4
			c1.3,0,2.5-0.3,3.7-0.8C22.5,13.8,22.9,13.7,23.4,13.6z"/>
		<path class="st4" d="M29,18.5c0-1.6,0-3.1,0-4.7c0-0.1,0-0.1,0.1-0.1c0.6,0.1,1.2,0.3,1.7,0.6c0.9,0.4,1.9,0.6,3,0.5
			c0.1,0,0.1,0,0.2,0c0.2,0,0.3,0.1,0.3,0.3c0.1,0.3,0.1,0.7,0.1,1c0.1,1,0.2,2,0.4,2.9c0.1,1,0.2,1.9,0.4,2.9
			c0.1,0.7,0.2,1.4,0.3,2.2c0,0.1,0,0.1-0.1,0.1c-0.8,0.1-1.6,0.2-2.5,0.2c-0.7,0-1.5-0.2-2.1-0.5c-0.5-0.2-0.9-0.4-1.4-0.5
			C29,23.3,29,23.3,29,22.9L29,18.5z"/>
		<path class="st4" d="M19.7,13.9c0.1-0.1,0.2-0.2,0.3-0.3c0.1-0.1,0.2-0.3,0.2-0.5c0-0.6,0-1.2,0.1-1.8c0-0.6,0.1-1.2,0.2-1.8
			c0.2-1.2,0.4-2.3,0.6-3.5c0.3-1.5,1.1-2.9,2.2-4C23.3,2.1,23.4,2,23.4,2c0.2-0.1,0.3-0.2,0.5-0.3c0,0.5-0.1,0.9-0.1,1.4
			c-0.1,1.1-0.1,2.2-0.2,3.3c-0.1,1.1-0.1,2.2-0.2,3.3c-0.1,1.1-0.1,2.1-0.2,3.2c0,0.4,0,0.4-0.4,0.5c-0.8,0.3-1.7,0.6-2.5,0.9
			c-0.5,0.1-1.1,0.2-1.6,0.2c-0.2,0-0.5,0-0.7,0c-0.2,0-0.4,0.2-0.4,0.4c0,0.1-0.1,0.2-0.2,0.2c-0.6,0.3-1.2,0.6-1.8,1
			c-0.1-0.3-0.1-0.5-0.1-0.8c0.1-1.3,0.3-2.5,0.7-3.8c0.4-1.4,0.8-2.7,1.4-3.9c0.2-0.5,0.5-1,0.9-1.4c0,0,0.1-0.1,0.1-0.1
			c0.1-0.1,0.1-0.1,0.1,0c0.2,0.4,0.4,0.8,0.5,1.3c0.5,1.7,0.6,3.5,0.4,5.2c0,0.3-0.1,0.5-0.1,0.8C19.6,13.6,19.6,13.8,19.7,13.9z"
			/>
		<path class="st4" d="M32.4,12.8c0.1-0.1,0.2-0.2,0.2-0.4c0-0.1,0.1-0.2,0.1-0.3c-0.1-1-0.2-2-0.3-3c-0.1-0.6-0.3-1.2-0.5-1.7
			c-0.2-0.4-0.1-0.9,0.2-1.2c0,0,0,0,0-0.1l0,0c0,0.2,0.1,0.4,0.1,0.6c0.1,0.8,0.4,1.6,0.7,2.3c0.3,0.7,0.8,1.3,1.2,2
			c0.6,1.1,1.1,2.3,1.5,3.6c0.1,0.3,0.1,0.6,0,0.8c-0.1-0.1-0.2-0.2-0.2-0.3c-0.2-0.2-0.4-0.4-0.5-0.6c-0.2-0.2-0.4-0.3-0.6-0.3
			c-1.3,0.1-2.6-0.2-3.8-0.8c-0.4-0.2-0.8-0.3-1.3-0.4c-0.1,0-0.1-0.1-0.1-0.2c0-0.9,0-1.8,0-2.6c0-1.6-0.2-3.1-0.7-4.6
			c-0.2-0.4-0.3-0.8-0.3-1.2c-0.1-0.9,0.2-1.8,0.9-2.4c0,0,0.1-0.1,0.1-0.1c0,0,0,0,0,0C29,2.6,29.1,3,29.2,3.3
			c0.1,0.7,0.3,1.5,0.6,2.2c0.2,0.6,0.5,1.1,0.9,1.5c0.7,0.9,1.1,1.9,1.3,3c0.1,0.7,0.1,1.4,0.2,2.1C32.2,12.4,32.3,12.6,32.4,12.8z
			"/>
		<path class="st4" d="M14.5,25.1c0,0.3-0.2,0.6-0.5,0.7c-0.4,0.1-0.8,0.2-1.2,0.3c-1,0.2-1.9,0.7-2.7,1.3c-0.2,0.2-0.5,0.3-0.7,0.1
			c0,0,0,0,0,0c-0.8-0.4-1.1-1.4-0.7-2.2c0.1-0.1,0.1-0.2,0.2-0.3c0.7-0.8,1.7-1.4,2.8-1.7c0.8-0.2,1.6-0.4,2.4-0.7
			c0.1,0,0.1,0,0.1,0.1c0.1,0.6,0.1,1.2,0.2,1.7C14.4,24.6,14.5,24.9,14.5,25.1z"/>
		<path class="st4" d="M37.8,24.6c0.1-0.8,0.1-1.6,0.2-2.4c0-0.1,0-0.1,0.1-0.1c1.1,0.3,2.3,0.5,3.4,0.8c1,0.2,1.7,1.1,1.7,2.2
			c0,0.3,0,0.6-0.1,0.9c0,0.1-0.1,0.3-0.2,0.4c-0.1,0.2-0.3,0.4-0.4,0.6c0,0.1-0.1,0.1-0.1,0c-0.6-0.7-1.4-1.1-2.3-1.3
			c-0.6-0.1-1.3-0.2-1.9-0.4c-0.1,0-0.1,0-0.2-0.1c-0.2,0-0.3-0.2-0.3-0.4C37.8,24.8,37.8,24.7,37.8,24.6z"/>
		<path class="st4" d="M27.3,43.1c-0.4,0-0.7-0.1-1-0.1c-0.5,0-1.1,0-1.6,0c-0.5,0.1-1-0.2-1.3-0.6c-0.2-0.2-0.4-0.5-0.6-0.7
			c-0.1-0.1-0.1-0.1,0-0.2c0.3-0.3,0.5-0.7,0.8-1c0.2-0.2,0.4-0.3,0.7-0.3c1.2,0,2.5,0,3.7,0c0.2,0,0.4,0.1,0.6,0.2
			c0.4,0.3,0.7,0.7,1,1c0.1,0.1,0,0.1,0,0.1C29.1,42.6,28.2,43.1,27.3,43.1z"/>
		<path class="st4" d="M13.6,16.7c0.7,0,1.3,0,2,0c0.1,0,0.1,0,0.1,0.1c-0.1,0.9-0.3,1.8-0.4,2.7c0,0.2-0.2,0.3-0.4,0.3
			c-1.1,0-2.2,0-3.2-0.1c-0.4,0-0.7-0.2-0.9-0.5c-0.5-0.5-0.6-1.1-0.5-1.8c0.1-0.3,0.2-0.5,0.5-0.6c0.4-0.2,0.8-0.3,1.3-0.2
			C12.6,16.7,13.1,16.7,13.6,16.7z"/>
		<path class="st4" d="M38.6,16.3c0.7,0,1.4,0,2.2,0c0.6,0.1,1,0.5,0.9,1.1c0,0.5-0.2,1-0.6,1.4c-0.1,0.1-0.1,0.1-0.2,0.2
			c-0.2,0.3-0.5,0.4-0.9,0.4c-0.9,0-1.7,0-2.6,0c-0.1,0-0.1,0-0.2,0c-0.3,0-0.5-0.2-0.5-0.5c0,0,0,0,0,0c-0.1-0.8-0.2-1.6-0.3-2.4
			c0-0.1,0-0.1,0.1-0.1c0.7,0,1.3,0,2,0C38.5,16.3,38.6,16.3,38.6,16.3L38.6,16.3z"/>
		<path class="st4" d="M26.2,50.6c-0.9,0-1.7,0-2.6,0c0,0,0,0,0,0c-0.5,0-0.6-0.2-0.6-0.7c0-0.2,0-0.3,0-0.5
			c-0.1-0.2,0.1-0.4,0.3-0.5c0,0,0.1,0,0.1,0c0.4,0,0.7,0,1.1,0c0.6,0,1.2,0,1.8,0c0.6,0,1.1,0,1.7,0c0.3,0,0.6,0,0.9,0
			c0.1,0,0.2,0,0.2,0.1c0,0.4,0,0.8,0,1.3c0,0.1,0,0.1-0.1,0.1C28,50.5,27.1,50.5,26.2,50.6L26.2,50.6z"/>
		<path class="st4" d="M11.8,22.8c-0.3,0-0.5-0.1-0.6-0.4c-0.1-0.3-0.2-0.6-0.2-0.9c-0.1-0.6-0.1-1.2-0.2-1.7c0,0,0-0.1,0-0.1
			c0-0.1,0-0.1,0-0.1c0,0,0,0,0.1,0c1,0.6,2,1.1,2.9,1.7c0.1,0.1,0.2,0.2,0.3,0.3c0.1,0.1,0.1,0.3,0,0.4c0,0,0,0,0,0
			c-0.1,0.1-0.2,0.2-0.4,0.2C13.1,22.6,12.5,22.7,11.8,22.8C11.9,22.8,11.9,22.8,11.8,22.8z"/>
		<path class="st4" d="M19.1,26.1c-1.3,0-2.7,0-4,0c-0.1,0-0.2,0-0.1-0.2c0.3-1.8,0.5-3.6,0.8-5.3c0.2-1.4,0.4-2.9,0.6-4.3
			c0,0,0-0.1,0.1-0.1c0.1,0,0.1,0.1,0.1,0.1c-0.1,0.6-0.2,1.1-0.2,1.7c-0.1,1-0.3,2-0.4,2.9c-0.2,1.2-0.3,2.3-0.5,3.5
			c0,0.3-0.1,0.5-0.1,0.8c0,0.4,0.1,0.6,0.5,0.6c1,0.1,2,0.2,3,0.2c0.6,0,1.3-0.2,1.9-0.4c0.5-0.2,1.1-0.4,1.6-0.5
			c0.3,0,0.6,0,0.9,0c0.1,0,0.1,0,0.1,0.1c0,0.2,0,0.5,0,0.7c0,0.1,0,0.1-0.1,0.1C21.8,26.1,20.5,26.1,19.1,26.1z"/>
		<path class="st4" d="M41.5,19.1c-0.2,0.6-0.3,1.2-0.5,1.8c-0.1,0.3-0.2,0.7-0.3,1c0,0.3-0.3,0.4-0.5,0.4c0,0-0.1,0-0.1,0
			c-0.7-0.2-1.3-0.3-2-0.5c-0.1,0-0.1-0.1-0.1-0.2c0-0.1,0-0.1,0-0.1C39.2,20.7,40.3,19.9,41.5,19.1C41.5,19.1,41.5,19.1,41.5,19.1z
			"/>
		<path class="st4" d="M24.5,45.6c-0.4,0-0.6-0.3-0.5-0.6c0-0.1,0.1-0.2,0.1-0.3c0.1-0.2,0.2-0.3,0.4-0.3c1-0.2,2-0.4,3.1-0.6
			c0.3-0.1,0.3,0,0.4,0.2c0,0.1,0.1,0.2,0.1,0.2c0.1,0.3,0,0.6-0.2,0.8c-0.1,0-0.1,0.1-0.2,0.1c-0.5,0.1-0.9,0.1-1.4,0.2
			c-0.6,0.1-1.1,0.2-1.7,0.3C24.6,45.6,24.6,45.6,24.5,45.6z"/>
		<path class="st4" d="M24.2,38.6c0-0.4,0-0.8,0-1.2c0-0.1,0-0.1,0.1-0.1c0.4,0.1,0.8,0.1,1.2,0.2c0.2,0,0.3,0.2,0.3,0.4
			c0,0.6,0,1.3,0,1.9c0,0.1,0,0.1-0.1,0.1c-0.5,0-0.9,0-1.4,0c-0.1,0-0.1,0-0.1-0.1C24.2,39.4,24.2,39,24.2,38.6z"/>
		<path class="st4" d="M28.2,38.5c0,0.4,0,0.9,0,1.3c0,0.1,0,0.1-0.1,0.1c-0.3,0-0.6,0-0.9,0c-0.2,0-0.4-0.2-0.4-0.4
			c-0.1-0.3,0-0.7,0-1c0-0.2,0-0.5,0-0.7c0-0.3,0.2-0.5,0.4-0.6c0.3-0.1,0.7-0.2,1-0.3c0.1,0,0.1,0.1,0.1,0.1
			C28.2,37.6,28.2,38.1,28.2,38.5z"/>
		<path class="st4" d="M24,46.6c0-0.3,0.2-0.5,0.4-0.5c1.1-0.2,2.2-0.4,3.3-0.5c0.1,0,0.4,0.2,0.4,0.4c0,0.3-0.2,0.5-0.4,0.6
			c-1.1,0.2-2.1,0.4-3.2,0.6C24.3,47.1,24,46.8,24,46.6z"/>
		<path class="st4" d="M28.2,47.2c0,0.3-0.2,0.5-0.5,0.6c-1.1,0.2-2.1,0.3-3.2,0.4c-0.1,0-0.2,0.1-0.4,0c-0.1-0.1-0.2-0.3-0.2-0.5
			c0-0.2,0.2-0.3,0.3-0.3c0.3-0.1,0.5-0.1,0.8-0.1c0.8-0.1,1.6-0.3,2.4-0.4C27.9,46.8,28.1,46.9,28.2,47.2
			C28.2,47.2,28.2,47.2,28.2,47.2z"/>
		<path class="st4" d="M33,26.1c-1.3,0-2.5,0-3.8,0c-0.1,0-0.2,0-0.2-0.2c0-0.3,0-0.6,0-0.9c0,0,0-0.1,0.1-0.1
			c0.5,0.1,1,0.1,1.5,0.2c0.3,0.1,0.6,0.2,0.9,0.4c0.7,0.3,1.5,0.4,2.2,0.4c1.1,0,2.1-0.1,3.2-0.3c0,0,0.1,0,0.1,0
			c0.1,0,0.1,0,0.1,0.1c0,0.1,0,0.1,0,0.1c-0.1,0.1-0.3,0.2-0.4,0.2c0,0-0.1,0-0.1,0C35.4,26.1,34.2,26.1,33,26.1L33,26.1z"/>
		<path class="st4" d="M35,15.6c0.1,0.6,0.2,1.2,0.2,1.8c0.1,1.1,0.3,2.1,0.4,3.2c0.1,1.1,0.3,2.1,0.4,3.2c0,0.3,0.1,0.6,0.1,1
			c0,0.1,0,0.1-0.1,0.1c-0.7,0.1-1.3,0.2-2,0.2c-0.9,0.1-1.8,0-2.6-0.4c-0.5-0.2-0.9-0.3-1.4-0.4c-0.4-0.1-0.8-0.2-1.2-0.3
			c0.4-0.1,0.8-0.1,1.1,0c0.4,0.1,0.7,0.2,1,0.4c0.4,0.2,0.9,0.4,1.4,0.4c0.9,0,1.7,0,2.6-0.2c0.1,0,0.3,0,0.4-0.1
			c0.2,0,0.4-0.2,0.3-0.4c0-0.4-0.1-0.8-0.1-1.1c-0.1-1.1-0.3-2.2-0.4-3.3c-0.1-1-0.3-2.1-0.4-3.1c0-0.2-0.1-0.4-0.1-0.7
			C34.8,15.8,34.9,15.7,35,15.6z"/>
		<path class="st4" d="M32.4,25.5c0.2,0,0.5-0.1,0.7-0.1c0.9-0.1,1.8-0.1,2.7-0.2c0.1,0,0.3,0,0.4-0.1c0.2,0,0.3-0.2,0.3-0.4
			c0-0.3-0.1-0.7-0.1-1c-0.2-1.2-0.3-2.5-0.5-3.7c-0.2-1.1-0.3-2.2-0.5-3.3c0-0.2,0-0.3,0-0.5c0,0,0-0.1,0-0.1c0.1,0,0.1,0,0.1,0.1
			c0,0.3,0.1,0.6,0.1,1c0.2,1.1,0.3,2.1,0.5,3.2c0.2,1.1,0.3,2.3,0.5,3.4c0.1,0.5,0.1,1,0.2,1.5c0,0.1,0,0.1-0.1,0.1
			c-0.7,0.1-1.3,0.2-2,0.2C33.9,25.7,33.2,25.7,32.4,25.5z"/>
		<path class="st4" d="M20,25.5c-0.3,0.1-0.6,0.2-0.9,0.2c-0.7,0-1.5,0-2.2-0.1c-0.4,0-0.8-0.1-1.1-0.1c-0.1,0-0.1,0-0.1-0.1
			c0.1-0.7,0.2-1.4,0.3-2.1c0.1-1,0.3-2,0.4-3c0.2-1.1,0.3-2.1,0.5-3.2c0-0.2,0.1-0.5,0.1-0.7c0,0,0-0.1,0.1-0.1
			c0.1,0,0.1,0,0.1,0.1c-0.1,1.1-0.3,2.1-0.4,3.2c-0.1,1-0.3,2.1-0.4,3.1c-0.1,0.6-0.2,1.3-0.3,1.9c0,0.1,0,0.1,0,0.2
			c0,0.2,0.1,0.4,0.4,0.5c0,0,0,0,0,0c0.4,0,0.8,0.1,1.2,0.1c0.8,0.1,1.5,0.1,2.3,0.2C19.9,25.5,19.9,25.5,20,25.5z"/>
		<path class="st4" d="M19.1,24.8c0.9,0,1.8-0.2,2.6-0.6c0.3-0.2,0.7-0.3,1.1-0.3c0.1,0,0.2,0,0.3,0c0.1,0,0.1,0,0.1,0.1
			c0,0,0,0.1,0,0.1c0,0.1,0,0.1-0.1,0.1c-0.5,0.1-1.1,0.2-1.6,0.3c-0.4,0.1-0.7,0.3-1.1,0.4c-0.8,0.2-1.6,0.3-2.4,0.2
			c-0.6-0.1-1.2-0.1-1.8-0.2c-0.1,0-0.1,0-0.1-0.1c0.1-0.7,0.2-1.5,0.3-2.2c0,0,0-0.1,0.1-0.1c0.1,0,0,0.1,0,0.1
			c0,0.5-0.1,0.9-0.1,1.4c0,0.3,0.1,0.5,0.4,0.6C17.7,24.7,18.4,24.8,19.1,24.8z"/>
		<path class="st8" d="M24.7,48.5c0.3-0.1,0.6-0.1,0.9-0.1c0.6-0.1,1.2-0.2,1.8-0.3c0.3,0,0.5,0.1,0.8,0.2c0,0,0,0,0,0.1
			c0,0,0,0,0,0c0,0.1,0,0.1-0.1,0.2c0,0,0,0-0.1,0c-1.1,0-2.1,0-3.2,0C24.8,48.6,24.7,48.6,24.7,48.5z"/>
		<path class="st8" d="M26.8,43.7c-0.2,0-0.5,0.1-0.7,0.1c-0.5,0.1-1.1,0.2-1.6,0.3c-0.2,0-0.4-0.1-0.5-0.2c0,0,0-0.2,0.1-0.2
			c0,0,0.1,0,0.1,0c0.8,0,1.7,0,2.5,0C26.7,43.6,26.7,43.7,26.8,43.7L26.8,43.7z"/>
		<path class="st9" d="M23.2,24.7l-1.8,0.2C22,24.5,22.6,24.5,23.2,24.7z"/>
		<path class="st9" d="M29.1,24.7c0.5-0.2,1.1-0.2,1.6,0.1L29.1,24.7z"/>
	</g>
</g>
</svg>
