<?xml version="1.0" encoding="utf-8"?>
<!-- Generator: Adobe Illustrator 24.1.2, SVG Export Plug-In . SVG Version: 6.00 Build 0)  -->
<svg version="1.1" id="bfe65a84-311b-4b24-aac5-3b26593fd951"
	 xmlns="http://www.w3.org/2000/svg" xmlns:xlink="http://www.w3.org/1999/xlink" x="0px" y="0px" viewBox="0 0 52.8 52.8"
	 style="enable-background:new 0 0 52.8 52.8;" xml:space="preserve">
<style type="text/css">
	.st0{fill:#ED1D25;}
	.st1{fill:url(#SVGID_1_);}
	.st2{fill:#2C4923;}
	.st3{fill:#070707;}
	.st4{fill:#FFFFFF;}
	.st5{fill:#FAEA44;}
	.st6{fill:#290D0D;}
	.st7{fill:#9A832B;}
	.st8{fill:none;stroke:#231F20;stroke-width:0.25;}
	.st9{fill:#FFFFFF;stroke:#000000;stroke-width:0.25;}
	.st10{fill:#71BF44;stroke:#000000;stroke-width:0.25;}
	.st11{fill:#FF0000;stroke:#000000;stroke-width:0.25;}
</style>
<circle class="st0" cx="26.5" cy="26.5" r="26.5"/>
<linearGradient id="SVGID_1_" gradientUnits="userSpaceOnUse" x1="12.3722" y1="18.4028" x2="39.6054" y2="18.4028">
	<stop  offset="0" style="stop-color:#000000"/>
	<stop  offset="0.5" style="stop-color:#FFFFFF"/>
	<stop  offset="1" style="stop-color:#000000"/>
</linearGradient>
<ellipse class="st1" cx="26" cy="18.4" rx="13.6" ry="13"/>
<rect x="22.6" y="26.3" class="st2" width="6.9" height="2.9"/>
<g>
	<g>
		<g>
			<path class="st3" d="M17,4.9l-0.8,0.8c-0.1-0.1-0.1-0.1-0.2-0.2c0-0.1,0.1-0.1,0.1-0.1C16.4,5.2,16.7,5.1,17,4.9
				C17,4.9,17,4.9,17,4.9z"/>
			<path class="st3" d="M35.5,4.9c0.3,0.2,0.6,0.3,0.8,0.5c0,0,0,0,0,0c0,0.1-0.1,0.1-0.1,0.2c-0.1,0-0.1-0.1-0.2-0.1
				C35.8,5.4,35.6,5.2,35.5,4.9C35.4,4.9,35.4,4.9,35.5,4.9z"/>
			<path class="st4" d="M42.2,16.4c0,0,0,0.2,0,0.2c0,0.1,0,0.2,0,0.3c0,0.2,0,0.4,0,0.6c0,0.6,0,1.2,0,1.8c0,0.4-0.1,0.9-0.1,1.3
				c-0.7,5-3.7,9.3-8.1,11.8c0,0-0.1,0-0.1,0.1c0.7,1.2,1,2.6,1,4c0,0,0,0,0.1,0c0.4-0.2,0.7-0.4,1.1-0.7c-0.3-0.4-0.6-0.8-0.9-1.2
				l1.5-1.1c0,0,0.1,0.1,0.1,0.1c0.2,0.3,0.5,0.6,0.7,1c0,0,0,0.1,0.1,0.1c0.5-0.4,1-0.8,1.4-1.3l-1.1-1c0,0,0,0,0-0.1
				c0.4-0.4,0.8-0.8,1.1-1.3c0,0,0,0,0.1,0c0,0,0,0,0.1,0.1c0.3,0.3,0.6,0.5,0.9,0.8c0,0,0.1,0,0.1,0.1c0,0,0,0,0.1,0c0,0,0,0,0-0.1
				c0.4-0.5,0.7-0.9,1-1.4c0,0,0,0,0-0.1c0,0-0.1,0-0.1-0.1c-0.3-0.2-0.7-0.4-1-0.6c0,0-0.1,0-0.1-0.1c0,0,0,0,0,0
				c0.3-0.5,0.6-1,0.8-1.5c0,0,0,0,0,0c0,0,0,0,0.1,0c0,0,0.1,0,0.1,0.1c0.3,0.2,0.7,0.4,1,0.6c0,0,0.1,0.1,0.1,0.1
				c0.3-0.6,0.6-1.2,0.8-1.8c0,0-0.1,0-0.1,0c-0.4-0.1-0.7-0.2-1.1-0.4c0,0-0.1,0-0.1,0c0,0,0,0,0,0c0,0,0,0,0-0.1
				c0.2-0.5,0.3-1.1,0.5-1.6c0,0,0,0,0,0c0,0,0,0,0.1,0c0,0,0,0,0.1,0c0.4,0.1,0.8,0.3,1.2,0.4c0,0,0.1,0,0.1,0
				c0.2-0.6,0.3-1.2,0.4-1.9c0,0,0,0,0,0c-0.4,0-0.8-0.1-1.2-0.1c-0.1,0-0.2,0-0.2,0c0-0.5,0.1-1,0.1-1.4c0-0.1,0-0.2,0-0.3
				c0,0,0,0,0.1,0c0.1,0,0.2,0,0.3,0c0.4,0,0.7,0.1,1.1,0.1c0.1,0,0.1,0,0.1-0.1c0,0,0,0,0-0.1c0-0.6,0-1.1,0-1.7c0,0,0-0.1,0-0.1
				c0,0,0,0,0,0c0,0,0,0-0.1,0c-0.4,0-0.8,0.1-1.3,0.1c0,0,0,0,0,0c0,0,0,0,0,0c0,0,0,0,0-0.1c-0.1-0.5-0.1-1-0.2-1.6
				c0-0.2,0-0.2,0.1-0.2c0.3,0,0.7-0.1,1-0.1c0.1,0,0.2,0,0.3,0c-0.1-0.6-0.2-1.3-0.4-1.9c0,0-0.1,0-0.1,0
				C43.1,16.2,42.7,16.3,42.2,16.4C42.2,16.4,42.2,16.4,42.2,16.4z"/>
			<path class="st4" d="M10.2,16.6c-0.1,0.8-0.1,1.6-0.1,2.4c0.2,3.5,1.5,6.9,3.8,9.7c1.2,1.5,2.7,2.7,4.4,3.7c0,0,0.1,0,0.1,0
				c0,0,0,0,0,0.1c0,0,0,0,0,0c0,0,0,0.1,0,0.1c-0.4,0.8-0.7,1.6-0.9,2.5c-0.1,0.4-0.1,0.8-0.1,1.2c0,0,0,0.1,0,0.1c0,0,0,0-0.1,0
				c0,0,0,0,0,0c-0.3-0.2-0.6-0.4-0.9-0.6c0,0,0,0,0,0c0.1-0.1,0.2-0.3,0.3-0.4c0.1-0.1,0.2-0.3,0.3-0.4c0.1-0.1,0.2-0.3,0.3-0.4
				l-1.5-1.1c-0.1,0.1-0.2,0.3-0.3,0.4c-0.1,0.1-0.2,0.3-0.3,0.4l-0.3,0.4c-0.2-0.1-0.3-0.3-0.5-0.4c-0.2-0.1-0.3-0.3-0.5-0.4
				c-0.2-0.1-0.3-0.3-0.5-0.5l1.1-1c0,0,0-0.1-0.1-0.1c-0.4-0.4-0.7-0.8-1.1-1.2c0,0,0,0-0.1-0.1c0,0,0,0-0.1,0c0,0,0,0,0,0
				c0,0-0.1,0.1-0.1,0.1c-0.3,0.3-0.6,0.5-0.9,0.8c0,0-0.1,0-0.1,0.1c-0.4-0.5-0.8-1-1.2-1.6c0.4-0.2,0.8-0.5,1.2-0.7
				c0,0,0-0.1,0-0.1c-0.3-0.5-0.5-0.9-0.8-1.4c0,0,0,0,0-0.1c0,0,0,0,0,0c0,0-0.1,0-0.1,0c-0.3,0.2-0.7,0.4-1,0.6
				c0,0-0.1,0.1-0.1,0.1c-0.3-0.6-0.6-1.2-0.8-1.8c0,0,0.1,0,0.1-0.1c0.4-0.1,0.8-0.2,1.1-0.4c0,0,0.1,0,0.1,0c0,0,0,0,0,0
				c0,0,0,0,0-0.1c-0.2-0.5-0.3-1-0.5-1.5c0,0,0,0,0,0c0-0.1,0-0.1-0.1,0c-0.3,0.1-0.6,0.2-0.8,0.3c-0.1,0-0.2,0.1-0.4,0.1
				c-0.1,0-0.1,0-0.1-0.1c-0.1-0.3-0.1-0.5-0.2-0.8c-0.1-0.3-0.1-0.6-0.2-0.9c0,0,0,0,0-0.1c0.1,0,0.2,0,0.2,0c0.3,0,0.7-0.1,1-0.1
				l0,0l0.2,0c0-0.1,0-0.1,0-0.2c-0.1-0.5-0.1-1-0.2-1.5c0,0,0,0,0,0c0,0,0,0,0,0c0,0-0.1,0-0.1,0c-0.2,0-0.5,0-0.7,0.1
				c-0.2,0-0.4,0-0.6,0.1c0,0,0,0,0,0c0,0,0,0,0,0c0,0,0-0.1,0-0.1c0-0.2,0-0.4,0-0.7c0-0.3,0-0.6,0-1c0,0,0-0.1,0-0.1
				c0-0.1,0-0.1,0.1-0.1c0.3,0,0.6,0.1,1,0.1c0.1,0,0.2,0,0.3,0c0.1,0,0.1,0,0.1-0.1c0-0.2,0-0.4,0.1-0.6c0-0.4,0.1-0.7,0.1-1.1l0,0
				c0,0,0,0,0-0.1c0,0,0,0,0,0c0,0-0.1,0-0.1,0c-0.4,0-0.8-0.1-1.2-0.1l0,0c-0.1,0-0.1,0-0.1-0.1c0,0,0-0.1,0-0.1
				c0.1-0.5,0.2-1.1,0.3-1.6c0,0,0,0,0-0.1c0,0,0.1,0,0.1,0c0.4,0.1,0.8,0.3,1.2,0.4C10.1,16.4,10.2,16.5,10.2,16.6z"/>
			<path class="st5" d="M20.7,29.6L20.7,29.6c0-0.1-0.1-0.1-0.1-0.2c-0.2-0.2-0.5-0.3-0.7-0.6c-0.2-0.2-0.4-0.5-0.5-0.7
				c-0.2-0.4-0.1-0.8,0-1.2c0.1-0.2,0.3-0.5,0.4-0.6c0.2-0.2,0.5-0.4,0.7-0.6c0.5-0.3,1-0.5,1.6-0.7c0.4-0.1,0.7-0.2,1.1-0.3
				c0.1,0,0.1,0,0.1,0.1c0.1,0.4,0.3,0.8,0.5,1.2c0.1,0.1,0.1,0.2,0.2,0.3c0,0,0,0.1,0,0.1c-0.1,0.1-0.2,0.2-0.3,0.3
				c-0.1,0.1-0.2,0.2-0.3,0.3c0,0,0,0.1-0.1,0.1c-0.1,0-0.1,0.1-0.2,0.2c-0.2,0.3-0.3,0.7-0.5,1c0,0.1-0.1,0.1-0.1,0.1
				C22.1,28.8,21.4,29.2,20.7,29.6C20.8,29.7,20.7,29.7,20.7,29.6C20.7,29.6,20.7,29.6,20.7,29.6z"/>
			<path class="st5" d="M32.8,27.7c0,0.3-0.1,0.5-0.2,0.8c-0.1,0.2-0.2,0.4-0.4,0.5c-0.2,0.2-0.4,0.4-0.7,0.5c0,0-0.1,0-0.1,0.1
				c0,0,0,0.1,0,0.1c0,0-0.1,0-0.1,0c-0.6-0.4-1.2-0.8-1.9-1.1c-0.1,0-0.1-0.1-0.1-0.1c-0.2-0.4-0.3-0.7-0.5-1.1
				c0-0.1,0-0.1-0.1-0.1c0,0,0,0-0.1,0c-0.2-0.2-0.4-0.4-0.5-0.5c0,0-0.1-0.1,0-0.1c0.2-0.5,0.3-0.9,0.5-1.4c0-0.1,0-0.2,0.1-0.2
				c0,0,0,0,0.1,0c0,0,0,0,0,0c0.1,0,0.2,0,0.3,0.1c0.6,0.1,1.2,0.3,1.8,0.6c0.4,0.2,0.8,0.4,1.1,0.7c0.2,0.2,0.4,0.3,0.5,0.5
				c0.2,0.2,0.3,0.5,0.4,0.9C32.8,27.5,32.8,27.5,32.8,27.7C32.8,27.6,32.8,27.6,32.8,27.7z"/>
			<path class="st4" d="M42.3,12.5C42.3,12.5,42.3,12.5,42.3,12.5c0,0,0.1,0.1,0.1,0.1c0.3,0.5,0.5,1,0.7,1.6c0,0,0,0.1,0,0.1
				c0,0,0,0,0,0c0,0,0,0-0.1,0c-0.4,0.1-0.7,0.2-1.1,0.4c0,0,0,0-0.1,0c0,0,0,0,0,0c0,0,0,0,0,0c0,0,0,0,0-0.1
				c-0.1-0.5-0.3-0.9-0.5-1.4c0,0,0,0,0-0.1c0,0,0,0,0-0.1c0,0,0,0,0,0c0,0,0,0,0,0C41.6,12.8,41.9,12.7,42.3,12.5
				C42.2,12.5,42.3,12.5,42.3,12.5z"/>
			<path class="st4" d="M9.3,14.2c0.2-0.6,0.5-1.2,0.8-1.8c0,0,0,0,0,0c0.3,0.2,0.6,0.4,0.9,0.5c0.1,0,0.1,0,0,0.1
				c-0.2,0.4-0.3,0.8-0.4,1.3c0,0.1,0,0.2-0.1,0.2c0,0,0,0,0,0c0,0,0,0,0,0c-0.1,0-0.1,0-0.2-0.1c-0.3-0.1-0.6-0.2-0.9-0.3
				C9.4,14.3,9.3,14.2,9.3,14.2z"/>
			<path class="st6" d="M30.5,44.2C30.5,44.2,30.5,44.2,30.5,44.2C30.5,44.3,30.5,44.2,30.5,44.2C30.5,44.2,30.5,44.2,30.5,44.2
				C30.5,44.2,30.5,44.2,30.5,44.2z"/>
			<path class="st7" d="M20.7,29.6L20.7,29.6C20.8,29.7,20.8,29.7,20.7,29.6C20.7,29.7,20.7,29.7,20.7,29.6
				C20.7,29.7,20.7,29.6,20.7,29.6C20.7,29.6,20.7,29.6,20.7,29.6z"/>
			<path class="st4" d="M39.6,9.8c0.2-0.2,0.4-0.3,0.6-0.5c0,0,0,0,0.1,0c0,0,0,0,0,0c0,0,0,0,0,0c0.4,0.5,0.7,0.9,1,1.4
				c0,0,0,0,0,0.1c0,0,0,0-0.1,0c-0.2,0.1-0.5,0.3-0.7,0.4c-0.1,0-0.1,0-0.1,0c-0.1-0.3-0.3-0.5-0.4-0.8
				C39.9,10.3,39.8,10.1,39.6,9.8z"/>
			<path class="st4" d="M11.9,11.3c-0.3-0.1-0.6-0.3-0.9-0.5c0.1-0.1,0.1-0.2,0.2-0.3c0.3-0.4,0.6-0.8,0.9-1.2c0,0,0,0,0-0.1
				c0-0.1,0.1-0.1,0.1,0c0.1,0.1,0.2,0.2,0.3,0.2c0.1,0.1,0.1,0.1,0.2,0.2c0,0,0,0,0,0.1l0,0C12.4,10.3,12.1,10.8,11.9,11.3
				C11.9,11.3,11.9,11.3,11.9,11.3z"/>
			<path class="st4" d="M37.5,6.6c0.5,0.4,1,0.8,1.4,1.3l-0.4,0.4c0,0-0.1,0-0.1-0.1c-0.3-0.5-0.7-0.9-1-1.3l0,0
				c-0.1-0.1-0.1-0.1,0-0.2C37.5,6.7,37.5,6.6,37.5,6.6z"/>
			<path class="st4" d="M13.4,7.9c0.5-0.5,0.9-0.9,1.4-1.3c0,0.1,0.1,0.1,0.1,0.2c0,0,0,0.1,0,0.1c-0.4,0.4-0.7,0.9-1.1,1.3
				c0,0,0,0,0,0c0,0,0,0,0,0c0,0,0,0,0,0C13.6,8.1,13.5,8,13.4,7.9z"/>
			<g>
				<path class="st5" d="M33.2,5.3C26,1.4,17,4.1,13.1,11.3c-3.9,7.2-1.3,16.2,5.9,20.1c0,0,0.1-0.1,0.1-0.1c0.4-0.5,0.9-1,1.4-1.5
					c0,0,0.1-0.1,0.1-0.1c0-0.1-0.1-0.1-0.1-0.1c-1.6-0.8-3-1.9-4.1-3.3c0-0.1-0.1-0.1-0.1-0.2c-0.1-0.4-0.1-0.7,0-1.1
					c0.1-0.5,0.3-0.9,0.6-1.3c0.3-0.4,0.6-0.7,1-1c0.5-0.4,1-0.7,1.5-1c1.3-0.6,2.7-1,4.2-1.2c0.3,0,0.6-0.1,0.9-0.1
					c0,0,0.1,0,0.1,0v0.3c0,0,0,0,0,0.1c0-0.1,0.1-0.1,0.1-0.2c0-0.1,0.1-0.1,0.1-0.2c0-0.1,0.1-0.2,0.1-0.2c0,0.1,0,0.1,0,0.2
					c0,0.2,0,0.5,0.1,0.7c0.1,0.2,0.2,0.4,0.3,0.6c0.1,0.2,0.2,0.4,0.3,0.5c0.1,0.3,0.2,0.5,0.3,0.8c0,0,0,0,0.1,0
					c0-0.2,0-0.5-0.1-0.7c-0.1-0.3-0.2-0.5-0.3-0.8c-0.1-0.2-0.2-0.5-0.2-0.7c-0.1-0.3-0.1-0.6,0-1c0.1-0.4,0.2-0.7,0.3-1.1
					c0,0,0-0.1,0-0.1c0,0.1,0,0.1,0,0.2c0,0.3,0.1,0.5,0.1,0.8c0.1,0.3,0.2,0.6,0.4,0.9c0.1,0.3,0.3,0.5,0.4,0.8
					c0.1,0.2,0.2,0.5,0.2,0.8c0,0,0,0,0.1,0c0-0.1,0-0.3,0-0.4c0.1-0.4,0-0.8-0.2-1.1c-0.1-0.2-0.2-0.4-0.3-0.6
					c-0.1-0.2-0.2-0.3-0.2-0.5c-0.1-0.3-0.2-0.5-0.2-0.8c0-0.5,0-0.9,0-1.4v-0.2c0,0,0,0,0,0.1c0,0.1,0,0.1,0.1,0.2
					c0,0.2,0.1,0.3,0.2,0.5c0,0.1,0.1,0.1,0.1,0.2c0.3,0.5,0.7,1,1.1,1.4c0,0,0,0,0,0v-3.7c0,0,0-0.1,0.1-0.1c0.2,0,0.3,0,0.5,0
					c0.4,0,0.8,0.1,1.1,0.1c1.6,0.2,3.4,0.7,4.8,1.4c1.7,0.8,3.5,2.2,3.8,4.1c0,0.3,0,0.6,0,0.8c0,0.3-0.1,0.7-0.3,1
					c-0.4,0.9-0.9,1.7-1.5,2.4c0,0,0,0,0,0c0,0,0-0.1,0-0.1c0.1-0.2,0.1-0.5,0.1-0.7c0-0.2,0-0.3,0-0.5c-0.1-0.4-0.2-0.8-0.5-1.2
					c-0.3-0.5-0.6-0.9-1.1-1.2c-0.5-0.4-1-0.7-1.6-1c-1.1-0.5-2.3-0.9-3.4-1.1c-0.4-0.1-0.7-0.1-1.1-0.2c-0.3,0-0.5,0-0.8-0.1
					c0,0,0,0-0.1,0c0.2,0.2,0.4,0.4,0.6,0.7c0,0,0.1,0,0.1,0.1c0.3,0,0.6,0.1,0.9,0.1c1.3,0.2,2.6,0.7,3.8,1.3
					c1,0.6,2.1,1.4,2.5,2.4c0.2,0.5,0.3,1.1,0.2,1.7c0,0.1,0,0.1-0.1,0.2c-0.4,0.5-0.9,1-1.4,1.4c-0.8,0.7-1.8,1.4-2.8,1.9
					c0,0-0.1,0-0.1,0.1c0.1,0.1,0.2,0.2,0.4,0.3c0.1,0.1,0.2,0.2,0.3,0.3c0.1,0.1,0.2,0.2,0.3,0.4c0.1,0.1,0.2,0.2,0.3,0.3
					c0.1,0.1,0.2,0.3,0.3,0.4c2.5-1.4,4.6-3.4,6-6C43.1,18.3,40.4,9.2,33.2,5.3z M13.8,15.8c0-0.1,0-0.1,0-0.2
					c1-4.5,4.5-8.1,8.9-9.3c0.5-0.1,1-0.3,1.6-0.3c0.1,0,0.1,0,0.2,0c0,0,0,0,0,0c0,0,0,0,0,0v3.8c0,0.1,0,0.1-0.1,0.1
					c-0.4,0-0.8,0.1-1.3,0.1c-0.5,0-0.9,0.1-1.4,0.2c-1.8,0.3-3.5,1.1-5,2.1c-0.4,0.3-0.8,0.6-1.1,0.9c-0.7,0.6-1.2,1.4-1.6,2.2
					c0,0.1-0.1,0.2-0.1,0.3C14,15.8,13.9,15.8,13.8,15.8C13.9,15.8,13.8,15.8,13.8,15.8C13.8,15.8,13.8,15.8,13.8,15.8L13.8,15.8z
					 M24.4,19.5c0,0,0,0.1,0,0.1c0,0-0.1,0-0.1,0c-0.4,0.1-0.9,0.1-1.3,0.1c-0.7,0.1-1.3,0.2-2,0.4c-2.2,0.6-5.3,2.2-5.2,4.9
					c0-0.1-0.4-0.5-0.5-0.7c-0.2-0.3-0.3-0.6-0.4-0.9c-0.2-0.6-0.4-1.2-0.3-1.9c0-0.2,0-0.4,0.1-0.5c0.1-0.4,0.3-0.9,0.5-1.2
					c1.1-1.7,3.1-2.6,5-3.2c0.8-0.2,1.7-0.4,2.5-0.6c0.3-0.1,1.7-0.5,1.9-0.1c0,0.1,0,0.1,0,0.2C24.4,17.4,24.5,18.5,24.4,19.5z
					 M13.9,20.1c0.1-0.1-0.1-0.6-0.1-0.7c0-0.3,0-0.5,0-0.8c0-0.6,0.1-1.1,0.3-1.7c0.4-1,1.2-1.9,2-2.7c1.8-1.7,4-2.8,6.4-3
					c0.4-0.1,1.7-0.2,1.8-0.2c0,0,0,0,0,0c0,0,0,0.1,0,0.1c0,0,0.1,3.1,0,3.8c-2.3,0.2-4.7,0.6-6.8,1.6C16,17.2,14.5,18.5,13.9,20.1
					z M38.2,19.9c-1.4-3.3-5.7-4.5-8.9-4.9c-0.1,0-1.5-0.2-1.5-0.2c0-0.9,0-1.9-0.1-2.8c0-0.2,0-0.5,0-0.7c0,0,0-0.2,0-0.2
					c0.1-0.1,0.5,0,0.7,0c1.1,0.1,2.1,0.3,3.1,0.6c2.7,0.8,4.9,2.5,6.4,4.9c0.2,0.3,0.3,0.6,0.4,0.9c0.2,0.9,0.1,2,0,2.9
					C38.3,20.1,38.3,20,38.2,19.9z M27.6,6c0-0.1,0-0.1,0.1-0.1c5.1,0.7,9.2,4.3,10.5,9.3c0.1,0.2,0.1,0.4,0.1,0.6c0,0,0,0.1,0,0.1
					h0c0,0-0.1,0-0.1,0c0,0,0,0-0.1,0c0,0,0,0,0,0c-0.3-0.8-0.8-1.5-1.3-2.1c-0.4-0.4-0.8-0.8-1.2-1.1c-0.7-0.5-1.4-1-2.2-1.4
					c-0.8-0.4-1.7-0.7-2.5-0.9c-0.5-0.1-1.1-0.2-1.6-0.3C28.9,10,28.5,9.9,28,9.9c-0.1,0-0.2,0-0.4,0c0,0-0.1,0-0.1-0.1V6z"/>
			</g>
			<circle class="st2" cx="26.1" cy="36.5" r="8.7"/>
		</g>
		<g>
			<path class="st8" d="M17,4.9l-0.8,0.8c-0.1-0.1-0.1-0.1-0.2-0.2c0-0.1,0.1-0.1,0.1-0.1C16.4,5.2,16.7,5.1,17,4.9
				C17,4.9,17,4.9,17,4.9z"/>
			<path class="st8" d="M35.5,4.9c0.3,0.2,0.6,0.3,0.8,0.5c0,0,0,0,0,0c0,0.1-0.1,0.1-0.1,0.2c-0.1,0-0.1-0.1-0.2-0.1
				C35.8,5.4,35.6,5.2,35.5,4.9C35.4,4.9,35.4,4.9,35.5,4.9z"/>
			<path class="st8" d="M42.2,16.4c0,0,0,0.2,0,0.2c0,0.1,0,0.2,0,0.3c0,0.2,0,0.4,0,0.6c0,0.6,0,1.2,0,1.8c0,0.4-0.1,0.9-0.1,1.3
				c-0.7,5-3.7,9.3-8.1,11.8c0,0-0.1,0-0.1,0.1c0.7,1.2,1,2.6,1,4c0,0,0,0,0.1,0c0.4-0.2,0.7-0.4,1.1-0.7c-0.3-0.4-0.6-0.8-0.9-1.2
				l1.5-1.1c0,0,0.1,0.1,0.1,0.1c0.2,0.3,0.5,0.6,0.7,1c0,0,0,0.1,0.1,0.1c0.5-0.4,1-0.8,1.4-1.3l-1.1-1c0,0,0,0,0-0.1
				c0.4-0.4,0.8-0.8,1.1-1.3c0,0,0,0,0.1,0c0,0,0,0,0.1,0.1c0.3,0.3,0.6,0.5,0.9,0.8c0,0,0.1,0,0.1,0.1c0,0,0,0,0.1,0c0,0,0,0,0-0.1
				c0.4-0.5,0.7-0.9,1-1.4c0,0,0,0,0-0.1c0,0-0.1,0-0.1-0.1c-0.3-0.2-0.7-0.4-1-0.6c0,0-0.1,0-0.1-0.1c0,0,0,0,0,0
				c0.3-0.5,0.6-1,0.8-1.5c0,0,0,0,0,0c0,0,0,0,0.1,0c0,0,0.1,0,0.1,0.1c0.3,0.2,0.7,0.4,1,0.6c0,0,0.1,0.1,0.1,0.1
				c0.3-0.6,0.6-1.2,0.8-1.8c0,0-0.1,0-0.1,0c-0.4-0.1-0.7-0.2-1.1-0.4c0,0-0.1,0-0.1,0c0,0,0,0,0,0c0,0,0,0,0-0.1
				c0.2-0.5,0.3-1.1,0.5-1.6c0,0,0,0,0,0c0,0,0,0,0.1,0c0,0,0,0,0.1,0c0.4,0.1,0.8,0.3,1.2,0.4c0,0,0.1,0,0.1,0
				c0.2-0.6,0.3-1.2,0.4-1.9c0,0,0,0,0,0c-0.4,0-0.8-0.1-1.2-0.1c-0.1,0-0.2,0-0.2,0c0-0.5,0.1-1,0.1-1.4c0-0.1,0-0.2,0-0.3
				c0,0,0,0,0.1,0c0.1,0,0.2,0,0.3,0c0.4,0,0.7,0.1,1.1,0.1c0.1,0,0.1,0,0.1-0.1c0,0,0,0,0-0.1c0-0.6,0-1.1,0-1.7c0,0,0-0.1,0-0.1
				c0,0,0,0,0,0c0,0,0,0-0.1,0c-0.4,0-0.8,0.1-1.3,0.1c0,0,0,0,0,0c0,0,0,0,0,0c0,0,0,0,0-0.1c-0.1-0.5-0.1-1-0.2-1.6
				c0-0.2,0-0.2,0.1-0.2c0.3,0,0.7-0.1,1-0.1c0.1,0,0.2,0,0.3,0c-0.1-0.6-0.2-1.3-0.4-1.9c0,0-0.1,0-0.1,0
				C43.1,16.2,42.7,16.3,42.2,16.4C42.2,16.4,42.2,16.4,42.2,16.4z"/>
			<path class="st8" d="M10.2,16.6c-0.1,0.8-0.1,1.6-0.1,2.4c0.2,3.5,1.5,6.9,3.8,9.7c1.2,1.5,2.7,2.7,4.4,3.7c0,0,0.1,0,0.1,0
				c0,0,0,0,0,0.1c0,0,0,0,0,0c0,0,0,0.1,0,0.1c-0.4,0.8-0.7,1.6-0.9,2.5c-0.1,0.4-0.1,0.8-0.1,1.2c0,0,0,0.1,0,0.1c0,0,0,0-0.1,0
				c0,0,0,0,0,0c-0.3-0.2-0.6-0.4-0.9-0.6c0,0,0,0,0,0c0.1-0.1,0.2-0.3,0.3-0.4c0.1-0.1,0.2-0.3,0.3-0.4c0.1-0.1,0.2-0.3,0.3-0.4
				l-1.5-1.1c-0.1,0.1-0.2,0.3-0.3,0.4c-0.1,0.1-0.2,0.3-0.3,0.4l-0.3,0.4c-0.2-0.1-0.3-0.3-0.5-0.4c-0.2-0.1-0.3-0.3-0.5-0.4
				c-0.2-0.1-0.3-0.3-0.5-0.5l1.1-1c0,0,0-0.1-0.1-0.1c-0.4-0.4-0.7-0.8-1.1-1.2c0,0,0,0-0.1-0.1c0,0,0,0-0.1,0c0,0,0,0,0,0
				c0,0-0.1,0.1-0.1,0.1c-0.3,0.3-0.6,0.5-0.9,0.8c0,0-0.1,0-0.1,0.1c-0.4-0.5-0.8-1-1.2-1.6c0.4-0.2,0.8-0.5,1.2-0.7
				c0,0,0-0.1,0-0.1c-0.3-0.5-0.5-0.9-0.8-1.4c0,0,0,0,0-0.1c0,0,0,0,0,0c0,0-0.1,0-0.1,0c-0.3,0.2-0.7,0.4-1,0.6
				c0,0-0.1,0.1-0.1,0.1c-0.3-0.6-0.6-1.2-0.8-1.8c0,0,0.1,0,0.1-0.1c0.4-0.1,0.8-0.2,1.1-0.4c0,0,0.1,0,0.1,0c0,0,0,0,0,0
				c0,0,0,0,0-0.1c-0.2-0.5-0.3-1-0.5-1.5c0,0,0,0,0,0c0-0.1,0-0.1-0.1,0c-0.3,0.1-0.6,0.2-0.8,0.3c-0.1,0-0.2,0.1-0.4,0.1
				c-0.1,0-0.1,0-0.1-0.1c-0.1-0.3-0.1-0.5-0.2-0.8c-0.1-0.3-0.1-0.6-0.2-0.9c0,0,0,0,0-0.1c0.1,0,0.2,0,0.2,0c0.3,0,0.7-0.1,1-0.1
				l0,0l0.2,0c0-0.1,0-0.1,0-0.2c-0.1-0.5-0.1-1-0.2-1.5c0,0,0,0,0,0c0,0,0,0,0,0c0,0-0.1,0-0.1,0c-0.2,0-0.5,0-0.7,0.1
				c-0.2,0-0.4,0-0.6,0.1c0,0,0,0,0,0c0,0,0,0,0,0c0,0,0-0.1,0-0.1c0-0.2,0-0.4,0-0.7c0-0.3,0-0.6,0-1c0,0,0-0.1,0-0.1
				c0-0.1,0-0.1,0.1-0.1c0.3,0,0.6,0.1,1,0.1c0.1,0,0.2,0,0.3,0c0.1,0,0.1,0,0.1-0.1c0-0.2,0-0.4,0.1-0.6c0-0.4,0.1-0.7,0.1-1.1l0,0
				c0,0,0,0,0-0.1c0,0,0,0,0,0c0,0-0.1,0-0.1,0c-0.4,0-0.8-0.1-1.2-0.1l0,0c-0.1,0-0.1,0-0.1-0.1c0,0,0-0.1,0-0.1
				c0.1-0.5,0.2-1.1,0.3-1.6c0,0,0,0,0-0.1c0,0,0.1,0,0.1,0c0.4,0.1,0.8,0.3,1.2,0.4C10.1,16.4,10.2,16.5,10.2,16.6z"/>
			<path class="st8" d="M20.7,29.6L20.7,29.6c0-0.1-0.1-0.1-0.1-0.2c-0.2-0.2-0.5-0.3-0.7-0.6c-0.2-0.2-0.4-0.5-0.5-0.7
				c-0.2-0.4-0.1-0.8,0-1.2c0.1-0.2,0.3-0.5,0.4-0.6c0.2-0.2,0.5-0.4,0.7-0.6c0.5-0.3,1-0.5,1.6-0.7c0.4-0.1,0.7-0.2,1.1-0.3
				c0.1,0,0.1,0,0.1,0.1c0.1,0.4,0.3,0.8,0.5,1.2c0.1,0.1,0.1,0.2,0.2,0.3c0,0,0,0.1,0,0.1c-0.1,0.1-0.2,0.2-0.3,0.3
				c-0.1,0.1-0.2,0.2-0.3,0.3c0,0,0,0.1-0.1,0.1c-0.1,0-0.1,0.1-0.2,0.2c-0.2,0.3-0.3,0.7-0.5,1c0,0.1-0.1,0.1-0.1,0.1
				C22.1,28.8,21.4,29.2,20.7,29.6C20.8,29.7,20.7,29.7,20.7,29.6C20.7,29.6,20.7,29.6,20.7,29.6z"/>
			<path class="st8" d="M32.8,27.7c0,0.3-0.1,0.5-0.2,0.8c-0.1,0.2-0.2,0.4-0.4,0.5c-0.2,0.2-0.4,0.4-0.7,0.5c0,0-0.1,0-0.1,0.1
				c0,0,0,0.1,0,0.1c0,0-0.1,0-0.1,0c-0.6-0.4-1.2-0.8-1.9-1.1c-0.1,0-0.1-0.1-0.1-0.1c-0.2-0.4-0.3-0.7-0.5-1.1
				c0-0.1,0-0.1-0.1-0.1c0,0,0,0-0.1,0c-0.2-0.2-0.4-0.4-0.5-0.5c0,0-0.1-0.1,0-0.1c0.2-0.5,0.3-0.9,0.5-1.4c0-0.1,0-0.2,0.1-0.2
				c0,0,0,0,0.1,0c0,0,0,0,0,0c0.1,0,0.2,0,0.3,0.1c0.6,0.1,1.2,0.3,1.8,0.6c0.4,0.2,0.8,0.4,1.1,0.7c0.2,0.2,0.4,0.3,0.5,0.5
				c0.2,0.2,0.3,0.5,0.4,0.9C32.8,27.5,32.8,27.5,32.8,27.7C32.8,27.6,32.8,27.6,32.8,27.7z"/>
			<path class="st8" d="M42.3,12.5C42.3,12.5,42.3,12.5,42.3,12.5c0,0,0.1,0.1,0.1,0.1c0.3,0.5,0.5,1,0.7,1.6c0,0,0,0.1,0,0.1
				c0,0,0,0,0,0c0,0,0,0-0.1,0c-0.4,0.1-0.7,0.2-1.1,0.4c0,0,0,0-0.1,0c0,0,0,0,0,0c0,0,0,0,0,0c0,0,0,0,0-0.1
				c-0.1-0.5-0.3-0.9-0.5-1.4c0,0,0,0,0-0.1c0,0,0,0,0-0.1c0,0,0,0,0,0c0,0,0,0,0,0C41.6,12.8,41.9,12.7,42.3,12.5
				C42.2,12.5,42.3,12.5,42.3,12.5z"/>
			<path class="st8" d="M9.3,14.2c0.2-0.6,0.5-1.2,0.8-1.8c0,0,0,0,0,0c0.3,0.2,0.6,0.4,0.9,0.5c0.1,0,0.1,0,0,0.1
				c-0.2,0.4-0.3,0.8-0.4,1.3c0,0.1,0,0.2-0.1,0.2c0,0,0,0,0,0c0,0,0,0,0,0c-0.1,0-0.1,0-0.2-0.1c-0.3-0.1-0.6-0.2-0.9-0.3
				C9.4,14.3,9.3,14.2,9.3,14.2z"/>
			<path class="st8" d="M30.5,44.2C30.5,44.2,30.5,44.2,30.5,44.2C30.5,44.3,30.5,44.2,30.5,44.2C30.5,44.2,30.5,44.2,30.5,44.2
				C30.5,44.2,30.5,44.2,30.5,44.2z"/>
			<path class="st8" d="M20.7,29.6L20.7,29.6C20.8,29.7,20.8,29.7,20.7,29.6C20.7,29.7,20.7,29.7,20.7,29.6
				C20.7,29.7,20.7,29.6,20.7,29.6C20.7,29.6,20.7,29.6,20.7,29.6z"/>
			<path class="st8" d="M39.6,9.8c0.2-0.2,0.4-0.3,0.6-0.5c0,0,0,0,0.1,0c0,0,0,0,0,0c0,0,0,0,0,0c0.4,0.5,0.7,0.9,1,1.4
				c0,0,0,0,0,0.1c0,0,0,0-0.1,0c-0.2,0.1-0.5,0.3-0.7,0.4c-0.1,0-0.1,0-0.1,0c-0.1-0.3-0.3-0.5-0.4-0.8
				C39.9,10.3,39.8,10.1,39.6,9.8z"/>
			<path class="st8" d="M11.9,11.3c-0.3-0.1-0.6-0.3-0.9-0.5c0.1-0.1,0.1-0.2,0.2-0.3c0.3-0.4,0.6-0.8,0.9-1.2c0,0,0,0,0-0.1
				c0-0.1,0.1-0.1,0.1,0c0.1,0.1,0.2,0.2,0.3,0.2c0.1,0.1,0.1,0.1,0.2,0.2c0,0,0,0,0,0.1l0,0C12.4,10.3,12.1,10.8,11.9,11.3
				C11.9,11.3,11.9,11.3,11.9,11.3z"/>
			<path class="st8" d="M37.5,6.6c0.5,0.4,1,0.8,1.4,1.3l-0.4,0.4c0,0-0.1,0-0.1-0.1c-0.3-0.5-0.7-0.9-1-1.3l0,0
				c-0.1-0.1-0.1-0.1,0-0.2C37.5,6.7,37.5,6.6,37.5,6.6z"/>
			<path class="st8" d="M13.4,7.9c0.5-0.5,0.9-0.9,1.4-1.3c0,0.1,0.1,0.1,0.1,0.2c0,0,0,0.1,0,0.1c-0.4,0.4-0.7,0.9-1.1,1.3
				c0,0,0,0,0,0c0,0,0,0,0,0c0,0,0,0,0,0C13.6,8.1,13.5,8,13.4,7.9z"/>
			<g>
				<path class="st8" d="M33.2,5.3C26,1.4,17,4.1,13.1,11.3c-3.9,7.2-1.3,16.2,5.9,20.1c0,0,0.1-0.1,0.1-0.1c0.4-0.5,0.9-1,1.4-1.5
					c0,0,0.1-0.1,0.1-0.1c0-0.1-0.1-0.1-0.1-0.1c-1.6-0.8-3-1.9-4.1-3.3c0-0.1-0.1-0.1-0.1-0.2c-0.1-0.4-0.1-0.7,0-1.1
					c0.1-0.5,0.3-0.9,0.6-1.3c0.3-0.4,0.6-0.7,1-1c0.5-0.4,1-0.7,1.5-1c1.3-0.6,2.7-1,4.2-1.2c0.3,0,0.6-0.1,0.9-0.1
					c0,0,0.1,0,0.1,0v0.3c0,0,0,0,0,0.1c0-0.1,0.1-0.1,0.1-0.2c0-0.1,0.1-0.1,0.1-0.2c0-0.1,0.1-0.2,0.1-0.2c0,0.1,0,0.1,0,0.2
					c0,0.2,0,0.5,0.1,0.7c0.1,0.2,0.2,0.4,0.3,0.6c0.1,0.2,0.2,0.4,0.3,0.5c0.1,0.3,0.2,0.5,0.3,0.8c0,0,0,0,0.1,0
					c0-0.2,0-0.5-0.1-0.7c-0.1-0.3-0.2-0.5-0.3-0.8c-0.1-0.2-0.2-0.5-0.2-0.7c-0.1-0.3-0.1-0.6,0-1c0.1-0.4,0.2-0.7,0.3-1.1
					c0,0,0-0.1,0-0.1c0,0.1,0,0.1,0,0.2c0,0.3,0.1,0.5,0.1,0.8c0.1,0.3,0.2,0.6,0.4,0.9c0.1,0.3,0.3,0.5,0.4,0.8
					c0.1,0.2,0.2,0.5,0.2,0.8c0,0,0,0,0.1,0c0-0.1,0-0.3,0-0.4c0.1-0.4,0-0.8-0.2-1.1c-0.1-0.2-0.2-0.4-0.3-0.6
					c-0.1-0.2-0.2-0.3-0.2-0.5c-0.1-0.3-0.2-0.5-0.2-0.8c0-0.5,0-0.9,0-1.4v-0.2c0,0,0,0,0,0.1c0,0.1,0,0.1,0.1,0.2
					c0,0.2,0.1,0.3,0.2,0.5c0,0.1,0.1,0.1,0.1,0.2c0.3,0.5,0.7,1,1.1,1.4c0,0,0,0,0,0v-3.7c0,0,0-0.1,0.1-0.1c0.2,0,0.3,0,0.5,0
					c0.4,0,0.8,0.1,1.1,0.1c1.6,0.2,3.4,0.7,4.8,1.4c1.7,0.8,3.5,2.2,3.8,4.1c0,0.3,0,0.6,0,0.8c0,0.3-0.1,0.7-0.3,1
					c-0.4,0.9-0.9,1.7-1.5,2.4c0,0,0,0,0,0c0,0,0-0.1,0-0.1c0.1-0.2,0.1-0.5,0.1-0.7c0-0.2,0-0.3,0-0.5c-0.1-0.4-0.2-0.8-0.5-1.2
					c-0.3-0.5-0.6-0.9-1.1-1.2c-0.5-0.4-1-0.7-1.6-1c-1.1-0.5-2.3-0.9-3.4-1.1c-0.4-0.1-0.7-0.1-1.1-0.2c-0.3,0-0.5,0-0.8-0.1
					c0,0,0,0-0.1,0c0.2,0.2,0.4,0.4,0.6,0.7c0,0,0.1,0,0.1,0.1c0.3,0,0.6,0.1,0.9,0.1c1.3,0.2,2.6,0.7,3.8,1.3
					c1,0.6,2.1,1.4,2.5,2.4c0.2,0.5,0.3,1.1,0.2,1.7c0,0.1,0,0.1-0.1,0.2c-0.4,0.5-0.9,1-1.4,1.4c-0.8,0.7-1.8,1.4-2.8,1.9
					c0,0-0.1,0-0.1,0.1c0.1,0.1,0.2,0.2,0.4,0.3c0.1,0.1,0.2,0.2,0.3,0.3c0.1,0.1,0.2,0.2,0.3,0.4c0.1,0.1,0.2,0.2,0.3,0.3
					c0.1,0.1,0.2,0.3,0.3,0.4c2.5-1.4,4.6-3.4,6-6C43.1,18.3,40.4,9.2,33.2,5.3z M13.8,15.8c0-0.1,0-0.1,0-0.2
					c1-4.5,4.5-8.1,8.9-9.3c0.5-0.1,1-0.3,1.6-0.3c0.1,0,0.1,0,0.2,0c0,0,0,0,0,0c0,0,0,0,0,0v3.8c0,0.1,0,0.1-0.1,0.1
					c-0.4,0-0.8,0.1-1.3,0.1c-0.5,0-0.9,0.1-1.4,0.2c-1.8,0.3-3.5,1.1-5,2.1c-0.4,0.3-0.8,0.6-1.1,0.9c-0.7,0.6-1.2,1.4-1.6,2.2
					c0,0.1-0.1,0.2-0.1,0.3C14,15.8,13.9,15.8,13.8,15.8C13.9,15.8,13.8,15.8,13.8,15.8C13.8,15.8,13.8,15.8,13.8,15.8L13.8,15.8z
					 M24.4,19.5c0,0,0,0.1,0,0.1c0,0-0.1,0-0.1,0c-0.4,0.1-0.9,0.1-1.3,0.1c-0.7,0.1-1.3,0.2-2,0.4c-2.2,0.6-5.3,2.2-5.2,4.9
					c0-0.1-0.4-0.5-0.5-0.7c-0.2-0.3-0.3-0.6-0.4-0.9c-0.2-0.6-0.4-1.2-0.3-1.9c0-0.2,0-0.4,0.1-0.5c0.1-0.4,0.3-0.9,0.5-1.2
					c1.1-1.7,3.1-2.6,5-3.2c0.8-0.2,1.7-0.4,2.5-0.6c0.3-0.1,1.7-0.5,1.9-0.1c0,0.1,0,0.1,0,0.2C24.4,17.4,24.5,18.5,24.4,19.5z
					 M13.9,20.1c0.1-0.1-0.1-0.6-0.1-0.7c0-0.3,0-0.5,0-0.8c0-0.6,0.1-1.1,0.3-1.7c0.4-1,1.2-1.9,2-2.7c1.8-1.7,4-2.8,6.4-3
					c0.4-0.1,1.7-0.2,1.8-0.2c0,0,0,0,0,0c0,0,0,0.1,0,0.1c0,0,0.1,3.1,0,3.8c-2.3,0.2-4.7,0.6-6.8,1.6C16,17.2,14.5,18.5,13.9,20.1
					z M38.2,19.9c-1.4-3.3-5.7-4.5-8.9-4.9c-0.1,0-1.5-0.2-1.5-0.2c0-0.9,0-1.9-0.1-2.8c0-0.2,0-0.5,0-0.7c0,0,0-0.2,0-0.2
					c0.1-0.1,0.5,0,0.7,0c1.1,0.1,2.1,0.3,3.1,0.6c2.7,0.8,4.9,2.5,6.4,4.9c0.2,0.3,0.3,0.6,0.4,0.9c0.2,0.9,0.1,2,0,2.9
					C38.3,20.1,38.3,20,38.2,19.9z M27.6,6c0-0.1,0-0.1,0.1-0.1c5.1,0.7,9.2,4.3,10.5,9.3c0.1,0.2,0.1,0.4,0.1,0.6c0,0,0,0.1,0,0.1
					h0c0,0-0.1,0-0.1,0c0,0,0,0-0.1,0c0,0,0,0,0,0c-0.3-0.8-0.8-1.5-1.3-2.1c-0.4-0.4-0.8-0.8-1.2-1.1c-0.7-0.5-1.4-1-2.2-1.4
					c-0.8-0.4-1.7-0.7-2.5-0.9c-0.5-0.1-1.1-0.2-1.6-0.3C28.9,10,28.5,9.9,28,9.9c-0.1,0-0.2,0-0.4,0c0,0-0.1,0-0.1-0.1V6z"/>
			</g>
			<circle class="st8" cx="26.1" cy="36.5" r="8.7"/>
		</g>
	</g>
</g>
<path class="st9" d="M27.8,43.6v-0.3c0,0,0,0,0.1,0c0.5-0.2,1-0.5,1.5-0.7c0,0,0.1,0,0.1-0.1c-0.1-0.1-0.2-0.1-0.2-0.1
	c-0.2,0-0.4,0-0.6,0c-0.3,0-0.6,0-0.8-0.1c0,0-0.1,0-0.1,0V31.2h0c0-0.1,0-0.2,0-0.3c0-0.1,0-0.1,0-0.2c0-0.4-0.1-0.8-0.2-1.3
	c-0.1-0.5-0.2-1-0.4-1.4c-0.3-0.7-0.6-1.3-1-2c0,0,0,0,0,0c0,0,0,0,0,0c-0.3,0.6-0.6,1.1-0.9,1.7c-0.2,0.5-0.4,1-0.5,1.6
	c-0.1,0.3-0.1,0.7-0.2,1c0,0.3,0,0.6,0,0.9c0,0,0,0.1,0,0.1v2.7c0,0,0,0,0,0c0,0,0,0.1,0,0.1c0,0.5,0,1,0,1.4l0,0.1c0,0,0,0.1,0,0.1
	v1.8c0,0,0,0,0,0c0,0,0,0.1,0,0.1c0,0.6,0,1.2,0,1.7c0,0,0,0,0,0.1c0,0,0,0,0,0c0,0,0,0,0,0v1.3c0,0,0,0,0,0c0,0,0,0,0,0
	c0,0.2,0,0.4,0,0.6c0,0.1,0,0.1-0.1,0.2c-0.5,0.2-1,0.5-1.5,0.7c0,0-0.1,0-0.1,0.1c0,0,0.1,0.1,0.1,0.1c0.5,0.2,1,0.5,1.5,0.7
	c0.2,0.1,0.2,0,0.2,0.2c0,2,0,6,0,6.1c0,0,0,0.1-0.1,0.1c-0.1,0-0.2,0-0.4,0c0,0,0,0,0,0c0,0,0,0,0,0c0,0,0,0,0,0.1c0,0.3,0,0.7,0,1
	c0,0,0,0.1,0,0.1c0,0,0,0,0,0c0,0,0.2,0,0.2,0h3.4l0,0c0.1,0,0.2,0,0.4,0c0,0,0.1,0,0.1,0c0,0,0,0,0,0c0,0,0-0.1,0-0.1
	c0-0.3,0-0.7,0-1c0,0,0,0,0-0.1c0,0,0-0.1-0.1-0.1c0,0,0,0,0,0c-0.1,0-0.2,0-0.3,0C27.7,49.5,27.8,43.6,27.8,43.6z"/>
<g>
	<path class="st10" d="M28.4,37.2c-0.1-0.3-0.3-0.6-0.5-0.8c-0.2-0.2-0.5-0.3-0.7-0.4c-0.3-0.1-0.6-0.2-0.9-0.2c-0.4,0-0.7,0-1.1,0
		c-0.3,0-0.6,0.1-0.9,0.1c-0.5,0.1-0.9,0.2-1.4,0.3c0,0-0.1,0-0.1,0c0,0,0,0,0.1,0.1c0.2,0.1,0.3,0.2,0.5,0.4c0.5,0.4,1.1,0.7,1.7,1
		c0.3,0.1,0.6,0.3,0.9,0.3c0.5,0.1,1,0.2,1.4,0.1c0.3,0,0.6-0.1,0.8-0.3c0.1-0.1,0.2-0.1,0.3-0.2l0.7,0.2l-0.7-0.3
		C28.5,37.4,28.5,37.3,28.4,37.2z"/>
	<path class="st10" d="M31.2,41.1c0,0,0.1-0.1,0.1-0.1c0.3-0.1,0.6-0.4,0.7-0.7c0.2-0.4,0.3-0.8,0.3-1.2c0-0.5,0-1-0.1-1.5
		c-0.1-0.6-0.3-1.2-0.5-1.8c0,0,0-0.1,0-0.1c0,0,0,0-0.1,0.1c-0.3,0.5-0.6,1.1-0.9,1.7c-0.1,0.3-0.2,0.6-0.3,0.9
		c0,0.2,0,0.4-0.1,0.6c0,0.4,0,0.7,0.1,1.1c0,0.3,0.2,0.6,0.4,0.8c0,0,0,0.1,0,0.1c0,0.1-0.1,0.2-0.1,0.2c0,0,0,0,0,0
		C31.1,41.2,31.1,41.1,31.2,41.1z"/>
	<path class="st10" d="M33.1,41.5C33.1,41.5,33,41.5,33.1,41.5c-0.1,0.1-0.2,0.2-0.3,0.2c-0.5,0.4-0.9,0.8-1.3,1.3
		c-0.4,0.4-0.6,0.9-0.8,1.4c-0.1,0.3-0.2,0.6-0.2,1c0,0.2,0.1,0.5,0.2,0.7c0,0.1,0,0.1,0,0.1c-0.1,0.2-0.3,0.3-0.4,0.5
		c-0.2,0.2-0.5,0.3-0.8,0.3c0,0-0.1,0-0.1,0c0,0,0-0.1,0-0.1c0.2-0.4,0.5-0.8,0.6-1.3c0.2-0.5,0.4-1.1,0.5-1.6
		c0.1-0.4,0.1-0.8,0.2-1.2c0-0.2,0-0.5,0-0.7c0-0.1,0-0.2,0-0.3c0-0.1,0.1-0.2,0.2-0.3c0,0,0,0,0,0l0.2-0.2l-0.2,0.2
		c0,0-0.1,0-0.1,0.1c0-0.1,0-0.1,0-0.2c0-0.4-0.1-0.7-0.2-1.1c-0.2-0.8-0.4-1.5-0.8-2.2c-0.1-0.2-0.2-0.3-0.3-0.5c0,0,0-0.1,0-0.1
		c0-0.1,0-0.1,0.1-0.2c0.1-0.3,0.1-0.6,0.1-0.9c0-0.1,0-0.1,0.1-0.1c0.2,0,0.3-0.2,0.4-0.3c0-0.1,0.1-0.1,0.1-0.2
		c0.1-0.2,0.1-0.5,0.1-0.7c0-0.2,0-0.4,0-0.5c-0.1-0.4-0.1-0.7-0.2-1.1c-0.1-0.3-0.2-0.5-0.3-0.8c-0.3-0.5-0.5-1-0.9-1.5
		c0,0,0-0.1-0.1-0.1c0,0,0,0,0,0.1c-0.1,0.4-0.2,0.8-0.3,1.3c0,0.3-0.1,0.5-0.1,0.8c0,0.2,0,0.4,0,0.6c0,0.2,0,0.4,0,0.6
		c0,0.3,0.1,0.5,0.2,0.7c0.1,0.3,0.3,0.5,0.5,0.8c0.1,0.1,0.2,0.2,0.4,0.3c0,0,0.1,0,0.1,0.1c0,0.2,0,0.4,0,0.6
		c0,0.2-0.1,0.3-0.1,0.4c0,0,0,0,0,0c0,0,0-0.1-0.1-0.1c-0.4-0.7-1-1.4-1.5-2c-0.3-0.3-0.5-0.5-0.8-0.8c0,0-0.1-0.1-0.1-0.1
		c0-0.1,0-0.2-0.1-0.3c-0.2-0.6-0.5-1.1-1-1.6c-0.4-0.4-0.9-0.8-1.4-1c-0.7-0.3-1.4-0.6-2.1-0.7c0,0-0.1,0-0.1,0c0,0,0,0.1,0,0.1
		c0.1,0.4,0.2,0.7,0.4,1.1c0.2,0.3,0.4,0.6,0.6,0.9c0.4,0.5,1,0.9,1.6,1.2c0.6,0.3,1.2,0.5,1.8,0.6c0.1,0,0.3,0.1,0.4,0.2l0,0
		c0.3,0.3,0.7,0.6,1,0.9c0.5,0.5,0.9,1.1,1.2,1.7c0.1,0.1,0.1,0.3,0.2,0.4c0,0-0.1,0,0,0.1c0.1,0.1,0.2,0.2,0.2,0.3
		c0,0,0,0.1,0.1,0.1c0.3,0.6,0.5,1.3,0.7,2c0.1,0.4,0.1,0.8,0.2,1.2c0,0.3,0,0.7,0,1c0,0,0,0.1,0,0.1c0,0-0.1,0-0.1-0.1
		c-0.1-0.1-0.2-0.2-0.4-0.3c0,0-0.1-0.1-0.1-0.1c-0.1,0-0.1-0.1-0.1-0.2c0,0,0-0.1,0-0.1c-0.1-0.4-0.3-0.8-0.6-1.1
		c-0.2-0.1-0.4-0.3-0.6-0.3c-0.3-0.1-0.6-0.2-0.9-0.3c-0.4-0.1-0.9-0.2-1.3-0.3c-0.3,0-0.5-0.1-0.8-0.1c-0.4,0-0.8,0-1.2,0
		c-0.2,0-0.3,0-0.5,0c0,0-0.1,0-0.1,0c0,0.1,0.1,0.1,0.1,0.1c0.5,0.5,1,0.9,1.6,1.3c0.4,0.3,0.9,0.6,1.4,0.7
		c0.5,0.2,0.9,0.3,1.4,0.3c0.5,0,0.9,0,1.4,0c0.1,0,0.1,0,0.2,0c0.2,0.1,0.4,0.2,0.6,0.4c0,0,0.1,0.1,0.1,0.2c0,0.2,0,0.4,0,0.5
		c0,0.3-0.1,0.6-0.1,1c-0.1,0.6-0.3,1.2-0.5,1.7c-0.4,0.9-1.1,1.7-1.8,2.4c-0.8,0.7-1.6,1.2-2.6,1.6c-0.3,0.1-0.5,0.2-0.8,0.3
		c-0.1,0-0.1,0-0.1,0.1c0,0.2,0,0.5,0,0.7c0,0,0,0,0,0c0.1,0,0.1,0,0.1,0c0.6-0.2,1.2-0.5,1.7-0.9c1-0.6,1.8-1.4,2.5-2.3
		c0.1-0.1,0.2-0.3,0.3-0.4c0,0,0.1-0.1,0.1-0.1c0.1,0,0.2,0,0.2,0c0.2,0,0.5-0.1,0.6-0.2c0.1-0.1,0.3-0.2,0.4-0.4
		c0.1-0.1,0.2-0.3,0.3-0.4c0,0,0.1-0.1,0.2-0.1c0.4,0,0.8-0.2,1.1-0.5c0.2-0.2,0.3-0.3,0.4-0.5c0.4-0.8,0.6-1.6,0.7-2.4
		c0-0.2,0-0.3,0-0.5C33.1,42,33.1,41.8,33.1,41.5C33.1,41.5,33.1,41.5,33.1,41.5z"/>
</g>
<path class="st11" d="M26.7,23.6c0.2-0.4,0.3-0.9,0.4-1.3c0.1-0.4,0.1-0.8,0-1.2c-0.1-0.5-0.4-0.9-0.6-1.3c-0.3-0.5-0.3-1.1-0.2-1.6
	c0,0,0,0,0.1,0.1c0.2,0.4,0.5,0.8,0.7,1.1c0.5,0.6,1.1,1,1.4,1.7c0.5,0.7,0.4,1.5,0.3,2.4c-0.2,1-0.4,2-0.8,3c0,0.1-0.1,0.2,0,0.4
	c0.1,0.1,0.2,0.2,0.3,0.3c0,0,0.1,0,0.1,0.1c0,0,0,0,0,0c0,0,0,0,0,0c0,0,0,0,0,0c-0.4,0-0.8,0-1.2,0c0,0,0,0,0,0
	c-0.1,0-0.1,0-0.1-0.1c0-0.1-0.7-1.4-0.8-1.4c0,0.1-0.8,1.5-0.8,1.5c-0.5,0-1,0-1.4,0c0,0,0,0,0,0c0-0.1,0.5-0.6,0.6-0.6
	c-0.3-0.5-0.7-1.1-0.8-1.7c-0.2-0.7-0.1-1.4,0.2-2c0.1-0.2,0.1-0.3,0.2-0.5c0,0,0-0.1,0-0.1c0,0,0,0,0,0c0,0.1,0,0.2,0,0.3
	c0,0.4,0.2,0.8,0.4,1.2c0.2,0.4,0.3,0.9,0.3,1.4c0.2-0.3,0.4-0.7,0.3-1.1c0-0.9-0.7-1.6-0.5-2.5c0-0.1,0.1-0.3,0.1-0.4
	c0,0,0,0,0-0.1c0,0,0,0.1,0,0.1c0.1,0.5,0.5,1,0.7,1.5c0.2,0.5,0.2,0.9,0.3,1.4c0,0,0.2-0.2,0.2-0.3c0.1-0.1,0.1-0.3,0.1-0.4
	c0.1-0.4,0-0.8-0.2-1.2c-0.3-0.8-0.6-1.6-0.3-2.5c0,0.1,0.1,0.3,0.1,0.3c0,0.1,0.1,0.2,0.1,0.4c0.1,0.2,0.2,0.5,0.3,0.7
	c0.2,0.4,0.5,0.8,0.6,1.3C26.8,22.6,26.6,23.1,26.7,23.6C26.7,23.6,26.7,23.6,26.7,23.6z"/>
</svg>
