<?xml version="1.0" encoding="utf-8"?>
<!-- Generator: Adobe Illustrator 24.1.2, SVG Export Plug-In . SVG Version: 6.00 Build 0)  -->
<svg version="1.1" id="a41ca15d-2c65-46e9-ada1-bb50ed388585"
	 xmlns="http://www.w3.org/2000/svg" xmlns:xlink="http://www.w3.org/1999/xlink" x="0px" y="0px" viewBox="0 0 52.8 52.8"
	 style="enable-background:new 0 0 52.8 52.8;" xml:space="preserve">
<style type="text/css">
	.st0{fill:#000ABF;}
	.st1{clip-path:url(#SVGID_2_);}
	.st2{fill:#A5A8ED;}
	.st3{fill:#B9BBF1;}
	.st4{fill:#696EE0;}
	.st5{fill:#FFFF00;}
	.st6{fill:#FFFFFF;}
	.st7{fill:#CB0000;}
	.st8{fill:#FEFEFE;}
	.st9{fill:#F3EDF4;}
	.st10{fill:#A30226;}
	.st11{fill:#9A022D;}
	.st12{fill:#45067D;}
	.st13{fill:#7B044B;}
	.st14{fill:#4A2C81;}
	.st15{fill:#A976A9;}
	.st16{fill:#C68F20;}
	.st17{fill:#FFFEFF;}
	.st18{fill:#BC85AA;}
	.st19{fill:#DD8E97;}
	.st20{fill:#2A1FB3;}
	.st21{fill:#C8A2C2;}
	.st22{fill:#A181BD;}
	.st23{fill:#FEFEFF;}
</style>
<circle class="st0" cx="26.4" cy="26.4" r="26.4"/>
<g>
	<defs>
		<circle id="SVGID_1_" cx="26.4" cy="26.4" r="26.4"/>
	</defs>
	<clipPath id="SVGID_2_">
		<use xlink:href="#SVGID_1_"  style="overflow:visible;"/>
	</clipPath>
	<g class="st1">
		<path class="st2" d="M7.4,26.4c0,0,0-0.1-0.1-0.2V26C7.4,26.1,7.4,26.3,7.4,26.4z"/>
		<path class="st3" d="M45.5,26.3L45.5,26.3L45.5,26.3l0-0.2c0,0,0,0,0,0L45.5,26.3z"/>
		<path class="st4" d="M45.5,26.1C45.5,26.1,45.4,26.1,45.5,26.1C45.4,26.1,45.4,26.1,45.5,26.1L45.5,26.1z"/>
		<path class="st5" d="M35.1,33.6c0.1-0.3,0.1-0.6,0.2-0.9c0.2-1.4,0.4-2.8,0.4-4.2c0-0.8,0-1.6-0.1-2.5c-0.1-1-0.2-2-0.4-2.9
			c-0.3-1.4-0.6-2.9-1.1-4.3c-0.9-2.7-2-5.2-3.4-7.6c-0.5-0.8-1-1.6-1.5-2.4C29,8.8,29,8.7,29,8.6c0-0.4,0-0.8,0-1.2
			c0-0.1,0-0.1,0-0.2c-0.8-1.8-1.7-3.6-2.5-5.4c0,0,0-0.1-0.1-0.1l-0.9,2C24.3,2.1,23,0.5,21.6-1h0.2c3.1,0,6.1,0,9.2,0
			c0.1,0,0.2,0,0.2,0.1c1.9,3.6,3.7,7.2,5.2,11c1,2.6,2,5.2,2.8,7.8c0.3,1.1,0.6,2.3,0.7,3.4c0.2,1.5,0.3,3,0.2,4.4
			c-0.2,3.2-1,6.3-2.4,9.2c-0.4,0.8-0.8,1.5-1.2,2.3c0,0-0.1,0.1-0.1,0.1c-0.1,0-0.1-0.1-0.1-0.2c-0.1-1.2-0.5-2.4-1.1-3.4
			C35.1,33.8,35,33.7,35.1,33.6z"/>
		<path class="st5" d="M23.9,17.2c-0.1-0.1-0.2-0.2-0.3-0.3c-0.9-0.8-1.8-1.5-2.8-2.2c-2.9-2.2-6-4.2-9.1-6.1
			c-1.3-0.8-2.5-1.5-3.8-2.3c-0.1,0-0.1-0.1-0.1-0.2c0-2.3,0-4.7,0-7c0,0,0,0,0,0C7.7-1,7.7-1,7.8-1c0,0,0,0,0.1,0
			c2.8,0,5.7,0,8.5,0c0.1,0,0.2,0,0.3,0.1c1.4,1.2,2.8,2.5,4.1,3.7C22,4,23.1,5.2,24.2,6.4c0.1,0.1,0.1,0.1,0,0.2
			C24.1,6.8,24,7,23.9,7.2c-0.1,0.1-0.1,0.2-0.1,0.3c0,3.2,0,6.3,0,9.5L23.9,17.2z"/>
		<path class="st5" d="M23.9,25.3c-0.1-0.1-0.2-0.2-0.3-0.2c-1.3-1-2.7-1.8-4.1-2.5c-3.6-1.8-7.4-3.3-11.3-4.4
			c-0.1,0-0.2-0.1-0.3-0.1c-0.1,0-0.1,0-0.1-0.1c0,0,0-0.1,0-0.1c0-2.5,0-5,0-7.5v-0.2c0.1,0,0.1,0,0.1,0c2.3,0.9,4.6,1.9,6.8,3
			c2,1,4,2.1,6,3.2c1.1,0.6,2.1,1.4,3.1,2.2c0.1,0.1,0.1,0.2,0.1,0.3c0,2.1,0,4.1,0,6.2L23.9,25.3z"/>
		<path class="st6" d="M28.4,33.4c0,0.5,0,1,0,1.5c0,0.1,0,0.1,0,0.2c0,0.1,0,0.2,0,0.3c0,0.4,0,0.7,0,1.1c0,0.4,0,0.8,0,1.2
			c0,0.1-0.1,0.2-0.2,0.2c-0.4,0-0.7,0-1.1,0c-0.2,0-0.2-0.1-0.2-0.2c0,0,0,0,0,0c0-0.5,0-1.1,0-1.6c0-1.7,0-3.3,0-5c0-1,0-2,0-3
			c0-1,0-2,0-3c0-1,0-2,0-3c0-1,0-2,0-3c0-1,0-2,0-3c0-1,0-2,0-3c0-1,0-2,0-3c0-0.7,0-1.3,0-2c0,0,0-0.1,0-0.1
			c0-0.1-0.1-0.1-0.1-0.1c0,0-0.1,0-0.1,0.1c0,0,0,0.1,0,0.1c0,1.5,0,2.9,0,4.4c0,1.2,0,2.4,0,3.6c0,1,0,1.9,0,2.9c0,1,0,2.1,0,3.1
			c0,1,0,1.9,0,2.9c0,1,0,2,0,3.1c0,1,0,2,0,2.9c0,1,0,2,0,3c0,1,0,2,0,2.9c0,0.2,0,0.4,0,0.6c0,0.1-0.1,0.2-0.2,0.2c0,0,0,0,0,0
			c-0.4,0-0.8,0-1.2,0c-0.1,0-0.2-0.1-0.2-0.2c0-0.4,0-0.8,0-1.2c0-0.4,0-0.8,0-1.1c0-0.1,0-0.2,0-0.3c0-0.5,0-1,0-1.5
			c0-0.1,0-0.1,0-0.2c0-0.1,0-0.1,0-0.2c0-0.3,0-0.6,0-0.9c0-0.1,0-0.2,0-0.2c0-0.1,0-0.1,0-0.2c0-8.1,0-16.2,0-24.3
			c0-0.1,0-0.2,0.1-0.3c0.6-1.3,1.2-2.6,1.8-3.9c0-0.1,0-0.1,0.1-0.1c0,0,0.1,0.1,0.1,0.1c0.6,1.3,1.2,2.6,1.8,3.9
			c0,0.1,0.1,0.2,0.1,0.3c0,8.1,0,16.2,0,24.3c0,0.1,0,0.1,0,0.2c0,0.1,0,0.1,0,0.2c0,0.3,0,0.6,0,1C28.4,33.3,28.4,33.3,28.4,33.4z
			"/>
		<path class="st5" d="M32.1,30.6c-0.1-0.5-0.3-1-0.5-1.5c-0.7-1.8-1.5-3.6-2.5-5.3c0-0.1-0.1-0.2-0.1-0.2c0-3.8,0-7.6,0-11.4V12
			c0,0,0.1,0,0.1,0c1.2,1.4,2.2,2.9,3.1,4.6c0.9,1.8,1.6,3.7,2.1,5.7c0.2,1,0.4,2.1,0.6,3.1c0.1,0.9,0.2,1.7,0.2,2.6
			c0,0.9,0,1.7,0,2.6c0,0.9-0.1,1.8-0.2,2.6c0,0,0,0,0,0c-0.1,0-0.1-0.1-0.2-0.2c-0.3-0.4-0.6-0.8-1-1.2c-0.4-0.4-0.9-0.8-1.4-1.1
			c-0.1,0-0.1-0.1-0.2-0.2C32,30.6,32.1,30.6,32.1,30.6z"/>
		<path class="st7" d="M32.1,30.7c0.4,0.3,0.8,0.5,1.1,0.8c0.6,0.5,1.1,1,1.5,1.7c0,0,0.1,0.1,0.1,0.1c0.1,0.1,0.1,0.2,0.2,0.3
			c0,0,0,0.1,0.1,0.1c0.6,1,1,2.1,1.1,3.3c0,0.1,0,0.2,0.1,0.4c0,0.2,0,0.5,0,0.7c0,1-0.1,2-0.4,2.9c-0.1,0.3-0.2,0.6-0.3,0.9
			c0,0,0,0.1-0.1,0.1L35,40.9l-0.9,0.6c-0.1,0-0.1,0,0-0.1c0.1-0.4,0.2-0.8,0.3-1.2c0.1-0.6,0.2-1.2,0.3-1.8c0-0.2,0-0.4,0-0.5
			c0-0.7-0.1-1.4-0.3-2.1c-0.3-1.1-0.9-2-1.6-2.8c-0.8-0.8-1.7-1.5-2.8-2c-0.1,0-0.1,0-0.2-0.1l0,0c0.1-0.1,0.3-0.2,0.4-0.3
			c0,0,0,0,0,0c0.2-0.1,0.2-0.3,0.1-0.5c0-0.1,0-0.2,0-0.3c0-0.1,0-0.2,0.2-0.1c0.1,0,0.2,0.1,0.4,0.2c0.3,0.1,0.6,0.3,0.9,0.5
			c0,0,0.1,0,0.1,0.1c0,0,0,0,0.1,0.1L32.1,30.7C32,30.6,32.1,30.6,32.1,30.7z"/>
		<path class="st7" d="M28.4,36.5c0,0,0-0.1,0-0.1c0-0.4,0-0.8,0-1.2c0,0,0-0.1,0-0.1c0.5,0.2,0.9,0.6,1.2,0.9
			c0.7,0.7,1.1,1.7,1.1,2.7c0.1,1.6-0.7,3.1-2.1,3.9l-0.1,0.1c-0.1,0.1-0.2,0.1-0.3,0.2c0,0-0.1,0-0.1,0c-0.2,0.1-0.5,0.2-0.7,0.2
			c-0.1,0-0.1,0-0.1,0c-0.5,0.1-1.1,0.1-1.6,0c-0.1,0-0.1,0-0.1-0.1L25.1,43c-0.2,0-0.5-0.1-0.7-0.3c-0.2-0.1-0.4-0.2-0.6-0.4
			c-1.9-1.4-2.2-4.1-0.8-6c0.4-0.5,0.8-0.8,1.3-1.1l0.2-0.1c0,0,0,0.1,0,0.1c0,0.4,0,0.8,0,1.2c0,0,0,0.1,0,0.1
			c0,0.1-0.1,0.1-0.1,0.2c-0.3,0.3-0.6,0.7-0.8,1.1c0,0.1-0.1,0.2-0.3,0.2c-0.2,0-0.4,0-0.6,0c-0.1,0-0.2,0-0.2,0.2
			c0,0.6,0,1.1,0,1.7c0,0.1,0,0.2,0.2,0.2c0.2,0,0.4,0,0.6,0c0.1,0,0.2,0,0.2,0.1c0.2,0.4,0.5,0.8,0.8,1.1l0,0
			c0.1,0.1,0.2,0.2,0.3,0.2c0.5,0.3,1,0.5,1.6,0.5c0.2,0,0.3,0,0.5,0c0,0,0.1,0,0.1,0c0.6-0.1,1.1-0.4,1.6-0.7
			c0.4-0.3,0.6-0.7,0.8-1.1c0-0.1,0.1-0.2,0.2-0.2c0.2,0,0.4,0,0.6,0c0.1,0,0.2,0,0.2-0.2c0-0.6,0-1.1,0-1.7c0-0.1,0-0.1-0.1-0.1
			c-0.2,0-0.4,0-0.6,0c-0.1,0-0.2-0.1-0.3-0.2c-0.2-0.4-0.4-0.8-0.8-1.1C28.4,36.6,28.4,36.6,28.4,36.5z"/>
		<path class="st7" d="M32.5,44.9l-0.5,0.9h1.2c0,0.1-0.1,0.1-0.1,0.2c-0.7,0.7-1.5,1.2-2.4,1.5c-0.7,0.2-1.4,0.4-2.1,0.5
			c-0.8,0.1-1.7,0.1-2.5,0.1c-1,0-1.9-0.2-2.9-0.5c-0.7-0.3-1.4-0.7-2-1.2c-0.5-0.4-1-0.9-1.4-1.3c0,0,0,0-0.1-0.1l1.2,0.2l-0.4-1
			c0.1,0,0.1,0.1,0.2,0.1c0.8,0.8,1.8,1.4,2.8,1.9c0.3,0.1,0.5,0.2,0.8,0.3c0.1,0,0.1,0,0.2,0c0.3,0.1,0.6,0.1,0.9,0.2
			c0.1,0,0.3,0,0.4,0c0.6,0,1.2,0,1.7,0c0.1,0,0.1,0,0.2,0c0.2,0,0.4,0,0.6-0.1c0,0,0,0,0.1,0c1.3-0.1,2.5-0.6,3.5-1.3
			C32.2,45.1,32.3,44.9,32.5,44.9C32.5,44.8,32.5,44.9,32.5,44.9z"/>
		<path class="st7" d="M22.9,29.9L22.3,31c0.4,0.1,0.7,0,1.1,0.1c0,0-0.1,0.1-0.1,0.1c-0.8,0.4-1.5,0.9-2.2,1.4
			c-0.7,0.5-1.2,1.2-1.6,1.9c-0.6,1-1,2.1-1.1,3.3c-0.1,0.6,0,1.2,0,1.8c0,0.5,0.1,1.1,0.2,1.6c0,0,0,0,0,0l-0.7-0.7l-0.5,0.9
			c-0.1,0-0.1-0.1-0.1-0.1c-0.3-1-0.4-2-0.4-3.1c0.1-3.7,2.5-7,6-8.3C22.8,29.9,22.8,29.9,22.9,29.9C22.9,29.8,22.9,29.9,22.9,29.9z
			"/>
		<path class="st7" d="M25,45.4c-0.1,0-0.3-0.1-0.4-0.1c-0.1,0-0.1,0-0.2-0.1c-0.3-0.1-0.5-0.2-0.8-0.3c-2.1-0.9-3.5-2.8-3.9-5
			c-0.1-0.8-0.2-1.5,0-2.3c0,0,0,0,0,0c0.1,0,0.1,0.1,0.1,0.1c0.2,0.2,0.3,0.3,0.5,0.5c0.1,0.1,0.1,0.1,0.1,0
			c0.1-0.1,0.2-0.2,0.3-0.3c0,0,0.1-0.1,0.1-0.1c0,0.2,0,0.4-0.1,0.5c-0.2,2.4,1.2,4.7,3.5,5.6c0,0,0.1,0,0.1,0c0,0,0,0,0.1,0
			c0.3,0.1,0.6,0.2,0.9,0.2c0.1,0,0.1,0.1,0,0.2c-0.1,0.1-0.1,0.2-0.2,0.2c-0.1,0.1-0.1,0.1,0,0.3c0.1,0.1,0.1,0.2,0.2,0.3
			c0.1,0.1,0.1,0.1,0.2,0.2c0.1,0.1,0,0.2-0.1,0.1C25.3,45.5,25.1,45.5,25,45.4z"/>
		<path class="st7" d="M28.5,43.9c0.2-0.1,0.4-0.1,0.5-0.2c1.6-0.8,2.7-2.3,3-4.1c0.1-0.6,0.1-1.1,0-1.7c0-0.1,0-0.1,0-0.2l0.9,0.5
			l0.3-0.6c0,0.1,0.1,0.3,0.1,0.4c0.2,3.1-1.7,6-4.7,7c-0.1,0-0.1,0-0.1,0.1c-0.2,0.1-0.4,0.2-0.6,0.2c-0.1,0-0.1-0.1-0.1-0.2
			c0.1-0.1,0.2-0.3,0.3-0.4c0,0,0-0.1,0.1-0.1c0,0,0,0,0,0c0,0,0,0,0-0.1c0.1-0.2,0.1-0.2-0.1-0.2c0,0,0,0-0.1,0
			c-0.1,0-0.3-0.1-0.4-0.2c-0.1,0-0.1-0.1,0-0.1C27.9,44,28.2,44,28.5,43.9z"/>
		<path class="st5" d="M31.9,30.5c-0.5-0.3-1-0.5-1.5-0.7c0,0.2,0,0.3,0,0.5c0,0.1,0,0.1,0,0.2c0,0.1,0,0.2-0.1,0.2c0,0,0,0,0,0
			c0,0-0.1,0.1-0.1,0.1c-0.3-0.2-0.7-0.3-1.1-0.5c-0.1-0.1-0.1,0-0.1-0.2c0-1.7,0-3.4,0-5.2v-0.1c0.1,0,0.1,0,0.1,0.1
			C30.2,26.7,31.1,28.5,31.9,30.5C31.9,30.5,31.9,30.5,31.9,30.5C31.9,30.5,31.9,30.5,31.9,30.5C31.9,30.5,31.9,30.5,31.9,30.5z"/>
		<path class="st6" d="M26.4,48.2h2.8c0,0,0.1,0,0.1,0c0.1,0,0.1,0,0.1,0.1c0,0.2,0,0.4,0,0.7c0,0.1,0,0.2,0,0.3
			c0,0.1,0,0.1-0.1,0.1c0,0-0.1,0-0.1,0h-5.5c0,0,0,0-0.1,0c-0.1,0-0.1,0-0.1-0.1c0-0.3,0-0.6,0-0.9c0-0.2,0-0.1,0.2-0.1
			C24.6,48.2,25.5,48.2,26.4,48.2z"/>
		<path class="st7" d="M28.4,33.4c0,0,0-0.1,0-0.1c0-0.4,0-0.7,0-1.1c0,0,0-0.1,0-0.1c0.6,0.2,1.2,0.4,1.7,0.8
			c1,0.6,1.8,1.5,2.4,2.5c0,0,0,0.1,0.1,0.1c-0.1,0-0.1,0-0.1,0c-0.2-0.1-0.3-0.1-0.5-0.2c-0.2-0.1-0.1-0.1-0.2,0.1
			c-0.1,0.2-0.1,0.4-0.2,0.5c0,0,0,0.1-0.1,0.1c0,0-0.1-0.1-0.1-0.1c-0.6-1.1-1.6-2-2.8-2.5C28.5,33.4,28.4,33.4,28.4,33.4z"/>
		<path class="st6" d="M28.5,43.9c-0.2,0.1-0.5,0.2-0.7,0.2c0,0-0.1,0-0.2,0c0.2,0.1,0.4,0.1,0.5,0.2c0,0.1-0.1,0.1-0.1,0.2
			c-0.8,0.6-1.6,1.3-2.4,1.9c0,0-0.1,0.1-0.2,0.1c-0.4,0-0.7-0.1-1-0.2c0-0.1,0-0.2,0-0.4c0-0.1,0-0.1,0.1-0.2
			c0.2-0.1,0.3-0.3,0.5-0.4c0.2,0,0.3,0.1,0.5,0.1c0-0.1-0.2-0.2-0.2-0.3c0-0.1,0.1-0.1,0.1-0.1c0.8-0.7,1.7-1.3,2.5-2
			c0,0,0.1-0.1,0.2-0.1c0,0,0.1,0,0.1-0.1c0.1-0.1,0.2-0.1,0.3-0.2c0,0.4,0,0.7,0,1.1C28.5,43.8,28.5,43.9,28.5,43.9z"/>
		<path class="st7" d="M24.5,32.1C24.6,32.1,24.6,32.1,24.5,32.1c0,0.5,0,0.8,0,1.2c0,0,0,0.1,0,0.1c-0.2,0-0.3,0.1-0.5,0.2
			c-0.9,0.4-1.7,1.1-2.3,2c0,0,0,0.1-0.1,0.1c-0.1,0,0-0.1-0.1-0.1c-0.1-0.2-0.1-0.4-0.2-0.6c0-0.2,0-0.2-0.2-0.1
			c-0.2,0-0.3,0-0.5,0.1c0-0.1,0-0.1,0.1-0.2c0.9-1.3,2.1-2.2,3.6-2.7C24.4,32.1,24.5,32.1,24.5,32.1z"/>
		<path class="st6" d="M28.1,44.9l-0.4,0.5c0.2,0,0.5-0.1,0.7-0.2c0,0.2,0,0.5,0,0.7c0,0.1,0,0.1-0.1,0.2c-0.2,0.2-0.4,0.3-0.6,0.5
			c-0.7,0.1-1.3,0.1-2,0c0-0.1,0.1-0.1,0.1-0.1c0.7-0.5,1.3-1.1,2-1.6C28,44.8,28.1,44.8,28.1,44.9C28.1,44.8,28.2,44.8,28.1,44.9z"
			/>
		<path class="st6" d="M25.1,44.9c-0.1-0.1-0.1-0.1-0.2-0.2l0.5-0.5c-0.3-0.1-0.7-0.2-1-0.3c0.3-0.2,0.6-0.5,0.9-0.7
			c0,0,0.1-0.1,0.1-0.1c0.4,0.1,0.7,0.1,1.1,0.1c0.2,0,0.5,0,0.7-0.1c0,0,0,0,0.1,0c0,0.1,0,0.1-0.1,0.1c-0.7,0.5-1.3,1-2,1.6
			C25.2,44.9,25.1,44.9,25.1,44.9z"/>
		<path class="st8" d="M24.4,42.7l0.7,0.3c-0.2,0.2-0.4,0.3-0.7,0.5c0-0.1,0-0.3,0-0.4C24.4,43,24.4,42.8,24.4,42.7z"/>
		<path class="st9" d="M24.4,45.2c0.1,0,0.1,0,0.2,0.1l-0.2,0.2C24.4,45.4,24.4,45.3,24.4,45.2z"/>
		<path class="st10" d="M32.5,44.9C32.5,44.9,32.4,44.8,32.5,44.9l0.1-0.2c0,0,0,0,0,0C32.5,44.8,32.5,44.9,32.5,44.9z"/>
		<path class="st11" d="M34.1,41.5C34.1,41.5,34.2,41.6,34.1,41.5c0,0.1,0,0.1,0,0.1C34.1,41.6,34.1,41.6,34.1,41.5
			C34.1,41.5,34.1,41.5,34.1,41.5z"/>
		<path class="st12" d="M32.5,44.8L32.5,44.8C32.5,44.7,32.5,44.7,32.5,44.8C32.5,44.7,32.6,44.7,32.5,44.8
			C32.6,44.7,32.6,44.7,32.5,44.8C32.6,44.7,32.6,44.7,32.5,44.8z"/>
		<path class="st13" d="M22.9,29.9L22.9,29.9C22.9,29.8,22.9,29.8,22.9,29.9C22.9,29.9,22.9,29.9,22.9,29.9z"/>
		<path class="st14" d="M32.1,30.7C32.1,30.7,32,30.7,32.1,30.7c0-0.1,0-0.1,0-0.1C32.1,30.6,32.1,30.6,32.1,30.7z"/>
		<path class="st15" d="M28.5,46.5C28.5,46.5,28.4,46.5,28.5,46.5C28.4,46.5,28.5,46.5,28.5,46.5z"/>
		<path class="st16" d="M31.9,30.5L31.9,30.5C31.9,30.5,31.9,30.6,31.9,30.5C31.9,30.6,31.9,30.6,31.9,30.5z"/>
		<path class="st6" d="M24.7,41.5c0.6-0.4,1.1-0.9,1.7-1.3c0.1-0.1,0.3-0.2,0.5-0.2c0.5,0,1,0,1.5,0c0.1,0,0.1,0,0.1,0.1
			c0,0.1,0,0.2-0.1,0.3c-0.7,0.5-1.3,1-2,1.5c0,0-0.1,0.1-0.1,0.1c-0.4,0-0.7-0.1-1.1-0.2C25,41.7,24.8,41.6,24.7,41.5z"/>
		<path class="st0" d="M25.1,44.9c0.7-0.6,1.4-1.1,2.1-1.7c0,0,0.1-0.1,0.1-0.1c0,0,0,0,0,0c0.3-0.1,0.5-0.1,0.7-0.2c0,0,0,0,0,0
			c0,0,0,0,0,0c-0.3,0.3-0.7,0.5-1,0.8c-0.6,0.5-1.2,1-1.8,1.4C25.2,45.1,25.1,45,25.1,44.9z"/>
		<path class="st17" d="M26.9,42c0.2-0.2,0.4-0.3,0.6-0.5c0.3-0.3,0.7-0.5,1-0.8c0,0.2,0,0.4,0,0.6c-0.3,0.3-0.7,0.5-1.1,0.6
			C27.2,42,27.1,42,26.9,42C26.9,42,26.9,42,26.9,42z"/>
		<path class="st18" d="M27.3,43.1C27.3,43.1,27.3,43.2,27.3,43.1l-0.1,0C27.3,43.1,27.3,43.1,27.3,43.1z"/>
		<path class="st19" d="M26.9,42L26.9,42C26.9,42,26.8,42,26.9,42C26.8,42,26.8,42,26.9,42z"/>
		<path class="st20" d="M28.1,42.9L28.1,42.9C28.1,42.9,28.1,42.9,28.1,42.9C28.1,42.9,28.1,42.9,28.1,42.9z"/>
		<path class="st0" d="M28.1,44.8c-0.7,0.5-1.3,1.1-2,1.6c-0.1,0.1-0.1,0.1-0.2,0.2c-0.2,0-0.3,0-0.5-0.1c0.4-0.3,0.7-0.6,1.1-0.9
			c0.5-0.4,1-0.8,1.5-1.2c0,0,0.1-0.1,0.1-0.1c0.1,0,0.2,0.1,0.3,0.1c0,0.1-0.1,0.2-0.2,0.2C28.2,44.8,28.2,44.8,28.1,44.8
			L28.1,44.8C28.2,44.8,28.2,44.8,28.1,44.8z"/>
		<path class="st21" d="M28.1,44.8C28.1,44.8,28.2,44.8,28.1,44.8C28.2,44.8,28.2,44.9,28.1,44.8L28.1,44.8z"/>
		<path class="st22" d="M28.2,44.8C28.2,44.8,28.2,44.7,28.2,44.8C28.2,44.8,28.2,44.8,28.2,44.8z"/>
		<path class="st6" d="M26.4,38.2c1.1,0,2.3,0,3.4,0c0.2,0,0.2,0,0.2,0.2c0,0.4,0,0.8,0,1.2c0,0.2,0,0.2-0.1,0.2c-0.7,0-1.4,0-2.1,0
			c-1.6,0-3.1,0-4.7,0c-0.2,0-0.2,0-0.2-0.2c0-0.4,0-0.8,0-1.1c0-0.2,0-0.2,0.2-0.2C24.2,38.2,25.3,38.2,26.4,38.2z"/>
		<path class="st23" d="M24.4,41.3c0-0.4,0-0.8,0-1.2c0-0.1,0-0.1,0.1-0.1c0.5,0,1,0,1.5,0c0,0.1,0,0.1,0,0.1
			C25.4,40.5,25,40.8,24.4,41.3C24.4,41.2,24.4,41.3,24.4,41.3L24.4,41.3z"/>
		<path class="st5" d="M10,11.1C8.8,10.5,7.5,10,6.1,9.6C4.3,9.2,2.5,9.2,0.7,9.4C0.6,9.4,0,9.4,0,9.4c-0.6,1-1.1,2-1.6,3
			c-0.4,0.8-0.8,1.8-1.2,2.6c-0.4,0.7-1.3,1.4-0.3,2c0.9,0.5,2,0.6,3,0.2c2.2-0.3,4.5-0.2,6.7,0.4c0.3,0.1,3.5,1,4.1,1.2
			c0.3,0.1-2.7-1.3-2.5-1.6c0.2-0.3,0.3-0.6,0.4-1c0.2-0.6,0.4-1.2,0.5-1.8c0.1-1-0.1-2-0.6-2.9c-0.1-0.2-0.2-0.4-0.3-0.7
			C8.1,10.7,10.3,11.3,10,11.1z"/>
	</g>
</g>
</svg>
