<svg xmlns="http://www.w3.org/2000/svg" viewBox="0 0 52.6 52.8"><defs><style>.b{fill:#fff}.d,.e{fill:#010101}.d{stroke:#010101; stroke-miterlimit:3.9777; stroke-width:0.37741px}.e{fill-rule:evenodd}</style></defs><symbol id="n1" width=".507" height="2.1" viewBox="0 0 1 4.2"><path style="fill:#fff" xmlns="http://www.w3.org/2000/svg" d="m0,.675v.3h.525L.55,4.2h.4L.95,0h-.2C.7.05,.725.5,.225 .66H0"/></symbol><symbol id="n0" width="0.912" height="2.1" viewBox="0 0 1.74 4"><path style="stroke:#fff; stroke-width:.4px; fill:none;" xmlns="http://www.w3.org/2000/svg" d="m.87,.2C.2.33,.2 1.4,.2 1.6V2.4C.2 3,.3 3.67,.87 3.8C1.57 3.67,1.54 2.4,1.54 1.6V2.4C1.54 1.4,1.54.33,.87.2Z"/></symbol><symbol id="serial"><use href="#n1" x="6.355" y="0"/><use href="#n0" x="5.175" y="0"/><use href="#n0" x="3.975" y="0"/><use href="#n1" x="3.2" y="0"/><use href="#n0" x="1.9" y="0"/><use href="#n0" x="0.8" y="0"/><use href="#n1" x="0" y="0"/></symbol><ellipse style="fill:#171a40" cx="26.3" cy="26.4" rx="26.3" ry="26.4"/><clipPath id="numberBounds"><path transform="translate(3.45,3.85)" d="M45.65453,21.28387A21.00431,21.00431,0,0,0,42.51762,10.2702c-.83075-1.20788-1.27465-1.57953-1.9732-2.58136A32.42341,32.42341,0,0,0,33.50767,0H12.21092A39.55079,39.55079,0,0,0,5.2924,7.90479C4.59386,8.90656,4.03172,9.06232,3.201,10.2702A21.0038,21.0038,0,0,0,.064,21.28387S-.957,30.616,5.15636,37.12573c2.20678,2.35,3.10058,5.17462,7.36639,8.00733l20.82764.00647c4.26581-2.83271,5.005-5.66382,7.21185-8.0138C46.67552,30.616,45.65453,21.28387,45.65453,21.28387Z"/></clipPath><g clip-path="url(#numberBounds)"><use href="#serial" transform="translate(30.1 3.8)skewX(30)scale(.5,1)"/><use href="#serial" transform="translate(26.25 3.8)skewX(10)scale(.5,1)"/><use href="#serial" transform="translate(22.5 3.8)skewX(-10)scale(.5,1)"/><use href="#serial" transform="translate(19 3.8)skewX(-30)scale(.5,1)"/><use href="#serial" transform="translate(15.5 3.8)skewX(-50)scale(.5,1)"/><use href="#serial" transform="translate(37.1 7.6)skewX(41)scale(.55,1)"/><use href="#serial" transform="translate(27 7.6)skewX(20)scale(.55,1)"/><use href="#serial" transform="translate(21.4 7.6)skewX(-20)scale(.55,1)"/><use href="#serial" transform="translate(16.5 7.6)skewX(-30)scale(.55,1)"/><use href="#serial" transform="translate(11.5 7.6)skewX(-41)scale(.55,1)"/><use href="#serial" transform="translate(39.5 11.2)skewX(40)scale(.6,1)"/><use href="#serial" transform="translate(33.5 11.2)skewX(29)scale(.6,1)"/><use href="#serial" transform="translate(27.5 11.2)skewX(20)scale(.6,1)"/><use href="#serial" transform="translate(20 11.2)skewX(-20)scale(.6,1)"/><use href="#serial" transform="translate(14.5 11.2)skewX(-29)scale(.6,1)"/><use href="#serial" transform="translate(8.7 11.2)skewX(-40)scale(.6,1)"/><use href="#serial" transform="translate(41.9 14.8)skewX(27)scale(.65,1)"/><use href="#serial" transform="translate(35.1 14.8)skewX(22)scale(.65,1)"/><use href="#serial" transform="translate(28.9 14.8)skewX(17)scale(.65,1)"/><use href="#serial" transform="translate(19 14.8)skewX(-17)scale(.65,1)"/><use href="#serial" transform="translate(12.75 14.8)skewX(-22)scale(.65,1)"/><use href="#serial" transform="translate(6.25 14.8)skewX(-27)scale(.65,1)"/><use href="#serial" transform="translate(43.15 18.2)skewX(14)scale(.7,1)"/><use href="#serial" transform="translate(36.15 18.2)skewX(12)scale(.7,1)"/><use href="#serial" transform="translate(29.5 18.2)skewX(10)scale(.7,1)"/><use href="#serial" transform="translate(18.15 18.2)skewX(-10)scale(.7,1)"/><use href="#serial" transform="translate(11.45 18.2)skewX(-12)scale(.7,1)"/><use href="#serial" transform="translate(4.65 18.2)skewX(-14)scale(.7,1)"/><use href="#serial" transform="translate(43.65 21.8)skewX(8)scale(.75,1)"/><use href="#serial" transform="translate(36.65 21.8)skewX(6)scale(.75,1)"/><use href="#serial" transform="translate(17.75 21.8)skewX(-4)scale(.75,1)"/><use href="#serial" transform="translate(10.75 21.8)skewX(-6)scale(.75,1)"/><use href="#serial" transform="translate(3.75 21.8)skewX(-8)scale(.75,1)"/><use href="#serial" transform="translate(43.95 25.4)skewX(1)scale(.75,1)"/><use href="#serial" transform="translate(36.95 25.4)skewX(1)scale(.75,1)"/><use href="#serial" transform="translate(17.5 25.4)skewX(-1)scale(.75,1)"/><use href="#serial" transform="translate(10.5 25.4)skewX(-1)scale(.75,1)"/><use href="#serial" transform="translate(3.45 25.4)skewX(-1)scale(.75,1)"/><use href="#serial" transform="translate(43.9 29)skewX(-8)scale(.75,1)"/><use href="#serial" transform="translate(37 29)skewX(-6)scale(.75,1)"/><use href="#serial" transform="translate(10.5 29)skewX(6)scale(.75,1)"/><use href="#serial" transform="translate(3.45 29)skewX(8)scale(.75,1)"/><use href="#serial" transform="translate(43.5 32.6)skewX(-14)scale(.7,1)"/><use href="#serial" transform="translate(37 32.6)skewX(-12)scale(.7,1)"/><use href="#serial" transform="translate(11 32.6)skewX(12)scale(.7,1)"/><use href="#serial" transform="translate(4.2 32.6)skewX(14)scale(.7,1)"/><use href="#serial" transform="translate(42.65 36.2)skewX(-27)scale(.65,1)"/><use href="#serial" transform="translate(12 36.2)skewX(22)scale(.65,1)"/><use href="#serial" transform="translate(5.45 36.2)skewX(27)scale(.65,1)"/><use href="#serial" transform="translate(41.25 39.8)skewX(-40)scale(.6,1)"/><use href="#serial" transform="translate(34.75 39.8)skewX(-29)scale(.6,1)"/><use href="#serial" transform="translate(13.75 39.8)skewX(29)scale(.6,1)"/><use href="#serial" transform="translate(7.25 39.8)skewX(40)scale(.6,1)"/><use href="#serial" transform="translate(38.95 43.4)skewX(-41)scale(.55,1)"/><use href="#serial" transform="translate(33 43.4)skewX(-30)scale(.55,1)"/><use href="#serial" transform="translate(27.45 43.4)skewX(-8)scale(.55,1)"/><use href="#serial" transform="translate(21.5 43.4)skewX(8)scale(.55,1)"/><use href="#serial" transform="translate(15.5 43.4)skewX(30)scale(.55,1)"/><use href="#serial" transform="translate(9.95 43.4)skewX(41)scale(.55,1)"/><use href="#serial" transform="translate(36.2 47)skewX(-50)scale(.5,1)"/><use href="#serial" transform="translate(31.4 47)skewX(-30)scale(.5,1)"/><use href="#serial" transform="translate(27 47)skewX(-10)scale(.5,1)"/><use href="#serial" transform="translate(22.25 47)skewX(10)scale(.5,1)"/><use href="#serial" transform="translate(17.9 47)skewX(30)scale(.5,1)"/><use href="#serial" transform="translate(13.2 47)skewX(50)scale(.5,1)"/></g><path style="fill:#ed2224" d="M33.885,1.177,20.668,29.126,20.64,42.254l-3.808,7.287.124.054.154.061.237.095.219.082L41.587,19.4,29.228,22.456,40.515,4.235s-.469-.33-1.246-.776c-.633-.362-1.532-.824-2.044-1.059-.532-.244-1.334-.565-2.028-.807-.713-.249-1.312-.416-1.312-.416Z"/><path class="d" d="M40.871,35.1A3.412,3.412,0,0,0,42.1,33.362l-3.136.055a6.661,6.661,0,0,0,2.9-3.62l-2.258-.011c.626-.627,2.311-2.378,2.511-3.507l-6.84,1.247L33.6,29.159l-9.916.308c-.583-.29-10.665-2.147-11.6-2.333a8.314,8.314,0,0,0,3.105,3.548l-2.972.024a9.277,9.277,0,0,0,3.129,2.962l-2.752-.039a3.933,3.933,0,0,0,1.243,2.224l26.013-.238a3.4,3.4,0,0,0,1.021-.512Z"/><path class="b" d="M34.87,27.329l-1.946,1.639-9.7.394c-1.988-1.177-9.047-2.114-11.362-2.463a12.708,12.708,0,0,0,3.6,3.783l-2.972.024a9.277,9.277,0,0,0,3.129,2.962l-2.752-.039a3.933,3.933,0,0,0,1.243,2.224l25.051-.238a3.325,3.325,0,0,0,2.157-2.033l-3.135.055a8.381,8.381,0,0,0,2.936-3.62l-2.259-.011a12.229,12.229,0,0,0,3.3-3.914"/><path class="b" d="M23.972,43.566c-.388-.464-1.338-.813-1.75-.2l-.717-.749c-3.642-1.3-8.741-4.566-10.1-7.512,3.531-.147,13.781,1.781,12.958-3.1-.76-.75-2.908-2.563-3.637-3.235l-.355-.091c-.845,1.163-1.8,1.424-1.8-.323,2.506-1.653-7.189-3.118-1.123-6.031,2.194-.3,2.235,5.64,4.129,1.917a1.729,1.729,0,0,1,.666,2.352,1.682,1.682,0,0,1-.207.3c1.035.749,2.914,3.7,2.334.2-.3-.706-2.75-3.808-1.054-3.285,1.823,1.078.952-.948,1-2.15-1.178-1.163-2.5-4.534.088-2.774l-.031-.095a21.654,21.654,0,0,0-.125-2.609c-1.487-1.471-3.3-2.855-3.309-4.82,6.7,4.813,3.48-8.974,7.263.2.684,1.438.271,3.523.847,4.483,1.653-7.164,3.412,1.19,2.361,4.019,3.019-3,2.817-1.982,2.149,2.752-1.163,1.97,1.461,1.458,2.254,2.474-.919,1.658,2.26,5.987.725,8.742-.632,1.956,3.772.786,5.015.891.922,3.6-7.824,7.966-12.429,7.954v.869a28.752,28.752,0,0,1-5.031,0l-.117-.177Zm10.1-9.083a11.244,11.244,0,0,0,.5-5.211c.29,2.806-6.514,6.569-.834,5.762Zm-4.553-1.739c.207-2.015-.9-2.934-.564-.143.176.166.545.823.564.143ZM32.1,29.027c3.319-2.666,1.681-1.1,1.036-4.134C32.78,25.989,28.887,32.814,32.1,29.027ZM29.441,27.6c-.182-1.491-.914-1.8-.648-.082.386,1.228.859,1.587.648.082ZM18.158,24.929c.583-.651-.245-1.81-.9-.843C17.039,24.718,17.468,25.33,18.158,24.929Zm11.592-1.9a14.135,14.135,0,0,0-.767-2.465C28.467,20.873,29.967,25.147,29.75,23.025Z"/><path class="e" d="M39.944,35.321c-1.556.086-2.591-.237-3.847-.082a1.9,1.9,0,0,0-.6,1.232c2.061.52,4.343.515,5.625-1.267C40.934,35.207,40.182,35.347,39.944,35.321Zm.514-.39c.559-.079,1.436-.164,1.842.39a2.289,2.289,0,0,1-1.411,1.406,1.27,1.27,0,0,1,.257.245c-.184.963-1.508,1.71-2.463,2.076.057.071.132.158.227.261a7.3,7.3,0,0,1-2.544,1.622c-1.641,1.821-4.792,2.038-7.212,2.222a2.553,2.553,0,0,1,.011.889c-2.039,0-3.382.006-5,0a2.269,2.269,0,0,0-.222-.5c-.22-.126-1.061-.18-1.289-.374q-.2.332-.272.482c-2.431-2.052-6.409-2.758-8.529-5.354l.232,0c-.6-.487-1.752-.927-2.027-1.675.244.011.488.034.73.069-.651-.54-1.652-.855-1.7-1.7,4.184.357,9.487.434,13.221-1.051.615-2.584-2.443-3.374-3.812-5.137-.441.38-.725,1.04-1.225,1.276-.374-.472-.942-.808-.845-1.5-.077-.382.44-.756.6-1.007-6.6-2.035-1.706-8.813,1.542-2.149,1.005-2.324,2.918.082,1.491,1.408.456.386,1.828,1.638,2.245,2a11.421,11.421,0,0,0-.031-1.623,8.6,8.6,0,0,1-1.68-3.569c.288.031,1.357.356,1.715.348,0-.776.024-1.318-.012-1.923a5.706,5.706,0,0,1-1.518-3.993c.308.08,1.153.611,1.454.7.011-.471-.121-2.039-.09-2.551-1.683-1.182-3.189-2.8-3.255-4.907,1.325.06,2.475.961,3.637,1.655A18.946,18.946,0,0,1,26.237,8c2.273,1.835,2.505,5.237,2.638,7.966l.148-.007a21.729,21.729,0,0,1,1.182-3.132c1.919,1.359,1.834,5.034,1.2,7.23-1.355.385-.456,2.638-1.03,3.807l-.076-.007c-.514-3.639,2.276-7.124-.013-10.647.355,2.876-.1,5.56-.22,8.427l-.251-.124c.025-2.3.218-4.781.338-7.021l-.072.028c-.223,1.765-.355,4.3-.473,6.238l-.124.012a3.546,3.546,0,0,0-.754-1.145c.669,1.819,1.431,2.882,1.254,5.038l-.134.012c-.061-.144-.324-.97-.446-1.18-1.072-.9-2.886-1.888-4.165-2.735C26.474,22,28.164,22.6,29.331,23.828l-.119.122c-1.972-1.471-5.143-2.389-5.695-5,1.536,1.635,3.791,2.646,5.6,4.013-1.058-2.5-3.806-3.492-6.124-4.422a7.235,7.235,0,0,0,4.948,4.954c2.891.746,2.167,3.63,2.12,5.777l-.144.061a13.339,13.339,0,0,0-.45-3.071,2.669,2.669,0,0,0,.411-.926c-.1-.6-.47-.672-1-.614a.734.734,0,0,0,.355,1.371,11.611,11.611,0,0,1,.379,3.416l-.457.184.177.259c-.068.045-.112.074-.129.087-1.549-2.2-4.436-3.223-5.483-5.627a17.089,17.089,0,0,1,5.606,4.9,6.679,6.679,0,0,0-6.355-5.29c1.135,4.094,8.713,5.217,6.277,10.277a4.183,4.183,0,0,0,.3-.427s.092-.15.273-.45c.611-5.166,4.124-9.935,3.561-15.133-.608.83-1.482,1.827-1.322,2.89A7.313,7.313,0,0,0,30.7,26.163a36.142,36.142,0,0,1,2.465-7.021,29,29,0,0,1-2.2,8.545c.188-2.123,1.054-4.234,1.48-6.224a22.059,22.059,0,0,0-1.725,6.779c-.406-1.884-.738-5.522.89-6.8a1.411,1.411,0,0,0,.056-1.114C34.565,15,34.224,21.426,33.3,24.091a8.13,8.13,0,0,1,2.572,1.143,1.529,1.529,0,0,1-.566.468,12.766,12.766,0,0,1,1.2,9.158A26.36,26.36,0,0,0,40.458,34.931Zm-.771,2.433c.124-.106.529-.39.645-.486-1.408.035-3.354.159-4.977.122C34.11,39.34,38.667,38.439,39.687,37.364ZM26.229,9.132a.854.854,0,0,1,.132-.3c1.352,3.42.653,7.893.873,11.444a9.156,9.156,0,0,1,.973.818c.152-4.232.572-9.083-1.877-12.6-1.8,2.9-1.953,6.924-1.816,10.391.2.1.9.334,1.115.461-.064-3.407-.211-6.916.6-10.217Zm.125.409c-.693,3.381-.451,6.531-.429,9.942a3.68,3.68,0,0,0,.651.282C26.559,16.458,27.016,12.591,26.354,9.541ZM24.488,14a9.093,9.093,0,0,0-1.7-1.131c.274.288,1.249,1.014,1.521,1.291Zm.028-.738a9.873,9.873,0,0,0-3.441-1.682,7.817,7.817,0,0,0,3.143,4.033q.054-.423.093-.842c-.882-.951-2.5-1.785-2.87-2.967.692.013,2.658,1.683,3.016,1.872Zm4.842,2.365a6.685,6.685,0,0,0,.078,4.6c.1-1.869.334-4.328.531-6.119A10.76,10.76,0,0,0,29.358,15.624Zm-3.532,7.228a3,3,0,0,0,.276,1.606,2.415,2.415,0,0,0,.446.245c.171-.543.205-1.878-.722-1.851Zm-.477-.167c-.159-.063-.626-.5-.829-.543q-.009.6,0,1.811a3.22,3.22,0,0,0,1.109.3q0-.8-.009-1.439Zm1.885,2.264c0,.477.776,1.011,1.059,1.4a9.431,9.431,0,0,1,.01-2.144,2.512,2.512,0,0,0-1.071-.466c-.008.613-.015.759,0,1.206Zm2.091-3.385a3.479,3.479,0,0,0-.345-.8,4.21,4.21,0,0,0,.764,2.826A7.59,7.59,0,0,0,29.325,21.564Zm-.368,2.915.212,0-.21-.148Zm4.186-.167c.066.322.216,1.606.325,1.994a1.514,1.514,0,0,1,.483-.352c.09.169.4.9.522,1.107a4.993,4.993,0,0,0,.574-.256c-.5,3.306.39,6.956-1.933,9.821-1.01-.347-1.6-1.956-2.714-1.81a1.181,1.181,0,0,1,.264.24c-.17.132-.982.6-1.057.651a21.339,21.339,0,0,0,2.5,2.161c-.757,1.45-2.357,2.281-3.514,3.16a.982.982,0,0,0,.378.55c2.258-.032,3.475-3.423,5.763-2.612-.316-4.449,3.03-9.327-.177-13.6.084-.089.385-.3.463-.369C34.5,24.837,33.71,24.493,33.143,24.312Zm-.428,1.747c-.445,1.649-1.6,2.291-1.737,4.082a14,14,0,0,1,3.287-2.969c-.026-.085-.241-.459-.248-.475a2.652,2.652,0,0,1-.708.108,7.094,7.094,0,0,1-.216-1.691A6.7,6.7,0,0,0,32.715,26.059ZM22.473,12.629a.912.912,0,0,0,.319.237A.906.906,0,0,0,22.473,12.629Zm-6.2,13.005a2.392,2.392,0,0,0,2.066.411c.283.164,1,.907,1.252,1.072a5.484,5.484,0,0,1-.971,1.435c.275.308.272.365.537.475a5.463,5.463,0,0,0,1.124-1.315c1.369,1.056,2.643,2.328,4.02,3.365q.017-.936-.006-1.872c-1.061-1.034-1.892-1.658-3.051-2.694a12.842,12.842,0,0,1,.871-1.343c-.166-.284-.263-.514-.549-.479-.928,1.443-1.345,1.123-2.372-.043.247-3.717-5.225-1.743-2.921.988Zm6.27,9.4c1.743.085,5.98.078,7.668.009C27.982,34.253,24.638,34,22.547,35.03Zm-7.868,2.226c-.329-.01-1.589-.141-1.784-.157,3.277,3.02,7.318.21,11.317,1.838a2.893,2.893,0,0,0,.109-.907c-2.919-1.686-6.578-.49-9.642-.774Zm.816-.268c2.693-.1,6.1-.8,8.707.565l.1-.118c0-.2,0-.5,0-.9-3.638-2.495-8.284-.385-12.525-.948a4.493,4.493,0,0,0,3.715,1.4Zm-.2,2.232c2.11,1.47,5.3,1,7.843.942a2.465,2.465,0,0,1,.257.743,7.57,7.57,0,0,1,.824-.55,1.639,1.639,0,0,0-.018-.884c-2.743-1.473-6.489.041-9.5-.677q.2.138.594.426Zm3.783,1.3a11.686,11.686,0,0,0-1.413.016A12.453,12.453,0,0,0,21.2,41.806C21.118,40.351,20.5,40.478,19.077,40.525Zm4.218.594.1-.213-.117-.019Zm-.415-.578c-.331.042-1.488.1-1.721.12a9.109,9.109,0,0,0,1.106,1.9c.025-.074.08-.258.167-.553a4.756,4.756,0,0,1,.635.137,4.941,4.941,0,0,0,.228-1.026C22.919,41.092,22.9,40.806,22.88,40.541Zm.767,1.265-.006-.632c-.418.36-.383.863-.362,1.509.371-.172.334-.486.368-.877Zm.177.588a20.106,20.106,0,0,0,4.568-6.125l-.218-.106C27.345,38.553,23.821,39.87,23.824,42.394Zm10.4-14.153c-1.136,2.1-2.6,4.174-3.955,6.184a9.027,9.027,0,0,0,4.27-6.694,2.942,2.942,0,0,0-.315.51Zm.029,2.22a7.336,7.336,0,0,1-3.065,4.087c.56.789,1.508.294,2.489.416a9.675,9.675,0,0,0,.936-5.157l-.124-.075Q34.412,29.975,34.255,30.461Zm-1.972-.576c.389-.614,1.364-1.589,1.836-2.241a9.059,9.059,0,0,0-3.848,5C31.021,31.625,31.45,30.843,32.283,29.885ZM33.618,28.7a58.47,58.47,0,0,0-4.1,5.645l.132.155C30.987,32.5,32.334,30.673,33.618,28.7Zm-.829,6.612a2.773,2.773,0,0,0-.738.054c.084.054.753.78,1.008.8a6.026,6.026,0,0,0,.474-.863A5.6,5.6,0,0,1,32.789,35.312Zm-3.8-9.041a2.688,2.688,0,0,0,.4,2.337A5.58,5.58,0,0,0,28.994,26.271Zm-.9,1.985a5.2,5.2,0,0,0-2.29-2.023,21.348,21.348,0,0,1,2.29,2.022Zm.791.959a2.97,2.97,0,0,0-.791-.959,3.8,3.8,0,0,0,.791.959Zm.226.117-.193-.068a2.663,2.663,0,0,0,.216.329Zm-3.283-1.248c-.035,1.476.083,4.638-.072,6.09a.824.824,0,0,0,.816.1C26.143,32.718,27.536,29.023,25.832,28.084Zm-.76-.5a3.85,3.85,0,0,0-.471-.365c-.14,1.914.02,4.849,0,6.8a8.169,8.169,0,0,0,.937.246c.025-1.766.072-4.345-.012-6.292Q25.439,27.906,25.072,27.581Zm2.1,1.982c.079,1.025.028,3.676.1,4.686.135-.035.765-.162.946-.223a30.821,30.821,0,0,0-.019-4.2,3.769,3.769,0,0,0-.974-.576C27.2,29.382,27.179,29.486,27.171,29.563Zm2.3,2.205a3.35,3.35,0,0,0-.4-1.121c-.09.384-.037,1.588-.109,1.954a3.964,3.964,0,0,0,.434.364A2.466,2.466,0,0,0,29.469,31.768Zm-.206,1.482c-.208-.137-.364-.24-.466-.311q-.038.626-.035,1.223c.378-.144.383-.43.5-.912Zm-.185,2.819-.183.094q.046.356.072.781l.687-.015c-.043-.223-.572-.594-.576-.86Zm.866,1.112c-.151.005-.792.05-.987.052-.234.362-.392,1.573.286,1.505.158-.006,1.654-.146,2-.118a2.253,2.253,0,0,0-1.3-1.439Zm-2.6-1.251c-.685.033-1.426.776-2.119.8a.974.974,0,0,1,.181-.393c.138-.049.7-.338.882-.381l.043-.143a6.289,6.289,0,0,0-1.818.327c.033.7-.054,3.141.006,3.929a11.015,11.015,0,0,0,1.7-1.759c-.2.023-.892.525-1.172.447.523-.967,2.115-.815,2.469-2.069-.723.226-1.577,1.021-2.3.978.52-.882,1.6-.874,2.574-1.54L27.806,36a2.052,2.052,0,0,0-.461-.073Zm.927,1.481a1.092,1.092,0,0,0-.421.746,1.2,1.2,0,0,0,.53-.372,2.35,2.35,0,0,0-.109-.374Zm.021.878c-.457.258-1.318.572-1.336,1.213.131-.059,1.081-.548,1.34-.633Zm0,1.159a1.448,1.448,0,0,1,.027-.228c-.656.28-1.83.712-2.142,1.441.759-.448,1.636-.524,2.115-1.213Zm.746-.383c-.362.339-.263.59-.253,1.236a4.618,4.618,0,0,0,1.984-1.335,6.324,6.324,0,0,0-1.731.1Zm-2.685,2.466c.555-.238,1.318-.745,1.869-.943a4.244,4.244,0,0,0,.015-.529,8.776,8.776,0,0,0-3.876,2.69c1.29.076,3.9-.443,3.857-1.874a21.965,21.965,0,0,1-3.16,1.587c.075-.562.929-.67,1.295-.931Zm-2.158,1.7a.608.608,0,0,0-.085.4,30.2,30.2,0,0,0,4.275.087,2,2,0,0,0,.152-.583c-.8-.053-3.343,0-4.022-.017a.246.246,0,0,0-.32.118Zm3.082-.452c.6.014,1.179-.229.949-.889-.343.182-1.5.717-1.77.852q.267.009.821.037Zm7.6-3.289a3.344,3.344,0,0,0-2.021.5l.008.143c1.791.158,4.042-.021,5.274-1.406-.6.03-2.463-.018-3.029,0q.093.191.325.739c-.127.086-.438.022-.557.021Zm-2.395.978a6.8,6.8,0,0,0-2.144,1.573A10.269,10.269,0,0,0,35.7,40.452c-.994-.013-2.242.1-3.217.021Z"/><path class="e" d="M17.124,23.463c1.535-.93,2.005,2.144.3,1.863a1.029,1.029,0,0,1-.3-1.863Zm1.122.642c-.377-.859-1.465.443-.748.828a.632.632,0,0,0,.748-.828Z"/></svg>