<?xml version="1.0" encoding="utf-8"?>
<!-- Generator: Adobe Illustrator 24.1.2, SVG Export Plug-In . SVG Version: 6.00 Build 0)  -->
<svg version="1.1" id="fb9a8b3d-e092-48f2-851a-e918346e9c4f"
	 xmlns="http://www.w3.org/2000/svg" xmlns:xlink="http://www.w3.org/1999/xlink" x="0px" y="0px" viewBox="0 0 52.8 52.8"
	 style="enable-background:new 0 0 52.8 52.8;" xml:space="preserve">
<style type="text/css">
	.st0{fill:#022618;}
	.st1{fill:#5B8638;}
	.st2{fill:#325A29;}
	.st3{fill:#5A8638;}
	.st4{fill:none;stroke:#022618;stroke-linecap:round;stroke-linejoin:round;}
	.st5{fill:#FEFEFE;}
	.st6{fill:#0081D5;}
	.st7{fill:#004287;}
	.st8{fill:#063C93;}
</style>
<g>
	<g>
		<circle class="st0" cx="26.5" cy="26.4" r="26.4"/>
		<path class="st1" d="M19.3,1.1c1-0.3,2-0.5,3.1-0.7c0.8-0.1,1.6-0.2,2.4-0.3c0.1,0,5.4-0.2,9,1c0,0-0.3,0.1-0.5,0.1
			c-2.6,0-5.2,0-7.8,0c-1.9,0-3.8,0-5.7,0L19.3,1.1z"/>
		<path class="st1" d="M43.3,46.7c-1.2,1-2.4,1.9-3.7,2.6c-3.3,1.9-7,3.1-10.9,3.4c-6.8,0.6-13.6-1.5-18.9-5.9c0,0-0.1-0.1-0.1-0.1
			c0.1-0.1,0.2-0.1,0.3-0.1c0.1,0,0.2,0,0.3,0c10.8,0,21.6,0,32.5,0C42.9,46.6,43.1,46.5,43.3,46.7z"/>
		<path class="st0" d="M43.3,46.7H9.7c-0.3-0.3-0.7-0.5-0.9-0.8c0.1-0.1,0.2-0.1,0.3-0.1c11.7,0,23.3,0,35,0c0.1,0,0.2,0,0.3,0.1
			C44,46.2,43.6,46.4,43.3,46.7z"/>
		<path class="st2" d="M28.1,17.3L28.1,17.3C28,17.2,28,17.1,27.9,17C28,17.1,28.1,17.2,28.1,17.3z"/>
		<path class="st1" d="M34.3,19c5.8,0,11.6,0,17.4,0c-0.2-0.7-0.4-1.4-0.7-2.1c-0.1,0.1-0.2,0.1-0.4,0.1c-1.6,0-3.2,0-4.8,0l-35.1,0
			c-2.8,0-5.7,0-8.5,0c-0.1,0-0.2,0-0.3-0.1c-0.3,0.7-0.5,1.4-0.7,2.1l15.3,0c0,0,0,0,0,0c0,0,0,0,0,0h17.6C34.3,19,34.3,19,34.3,19
			z"/>
		<path class="st3" d="M48.7,12.3c-0.4-0.6-0.8-1.2-1.2-1.7l-11.1,0v0H18.8v0l-13.3,0c-0.5,0.5-0.9,1.1-1.2,1.7c0.1,0,0.2,0,0.4,0
			c4,0,8,0,11.9,0c0.8,0,1.5,0,2.3,0v0h11.3c0,0,0,0,0,0c1,0,2,0,2.9,0h3.4v0c4,0,8,0,12,0C48.5,12.3,48.6,12.3,48.7,12.3z"/>
		<path class="st1" d="M42.2,5.3c-0.3-0.3-0.7-0.5-1-0.8c-0.1,0.1-0.2,0-0.3,0c-2.3,0-4.6,0-6.9,0v0h-3.8c-0.1,0-0.1,0-0.2,0h-5.7v0
			c-4,0-8,0-12,0c-0.1,0-0.2,0-0.3,0c-0.4,0.2-0.7,0.5-1,0.8c0.1,0,0.2,0,0.3,0c1.9,0,3.7,0,5.6,0c2.5,0,5,0,7.5,0l9.7,0
			c2.7,0,5.4,0,8,0C42,5.3,42.1,5.3,42.2,5.3z"/>
		<path class="st1" d="M52.8,25.7c0-0.4,0-0.7,0-1.1c0-0.7-0.1-1.5-0.3-2.2c0,0.2-0.1,0.2-0.3,0.2c-0.7,0-1.5,0-2.2,0v0h-1.9
			c-3.4,0-6.9,0-10.3,0h-0.4c0,0,0,0,0,0H15.5c0,0-0.1,0-0.1,0c-3.4,0-6.8,0-10.2,0c-1.5,0-3,0-4.5,0c-0.2,0-0.3,0-0.3-0.2
			c-0.1,0.1-0.1,0.3-0.1,0.5c-0.1,1-0.2,1.9-0.2,2.9c0.1,0,0.3,0,0.4,0c3.9,0,7.8,0,11.7,0v0H50v0C50.9,25.7,51.9,25.7,52.8,25.7z"
			/>
		<path class="st1" d="M50.8,28.7L50.8,28.7l-39.8,0v0H0.3c0.1,1.3,0.3,2.5,0.6,3.7c0.1-0.1,0.2,0,0.3,0c3.8,0,7.6,0,11.5,0
			c0.1,0,0.1,0,0.2,0c0,0,0,0,0,0h27.5c3.8,0,7.6,0,11.4,0c0.1,0,0.2,0,0.3,0c0-0.1,0.1-0.2,0.1-0.3c0.3-1.1,0.4-2.3,0.5-3.4
			L50.8,28.7z"/>
		<path class="st1" d="M48.6,34.7l-37.3,0c-3.2,0-6.4,0-9.5,0c-0.1,0-0.2,0-0.3,0c0.5,1.6,1.2,3.1,2,4.6c0.1-0.1,0.2,0,0.3,0
			c3.8,0,7.6,0,11.4,0h0.3c0,0,0,0,0,0h20.9c0,0,0,0,0,0h0.4c4.1,0,8.2,0,12.4,0c0.1,0,0.2,0,0.3,0c0.8-1.5,1.5-3,2-4.6
			C51.4,34.7,49.5,34.7,48.6,34.7z"/>
		<path class="st1" d="M48.5,40.7c-4.4,0-8.9,0-13.3,0c0,0,0,0,0,0H16.5c0,0-0.1,0-0.1,0c-3.3,0-6.7,0-10,0c-0.7,0-1.4,0-2.1,0
			c0,0,0,0.1,0,0.1c1.2,1.9,2.7,3.6,4.3,5.1c0.1,0,0.3,0,0.4,0c11.6,0,23.1,0,34.7,0c0.1,0,0.3,0,0.4,0c1-0.9,1.9-1.9,2.7-2.9
			c0.6-0.7,1.2-1.5,1.6-2.3C48.6,40.7,48.6,40.7,48.5,40.7z"/>
		<g>
			<g>
				<path class="st4" d="M25.3,47.8c1.1-1.4,2-2.9,2.5-4.6c1-3.3,0.7-6.8-0.8-9.9c-0.4-0.8-0.9-1.5-1.3-2.3
					c-1.4-2.8-2.7-5.6-3.7-8.5c-1.3-3.6-1-7.6,0.9-10.9c0.7-1.4,1.6-2.6,2.7-3.8c1-1,2.1-1.7,3.4-2.2c0.7-0.4,1.5-0.5,2.3-0.5
					c0.1,0,0.2,0,0.3,0c0.1,0,0.1,0,0.2,0c-0.1,0.1-0.2,0.2-0.3,0.3c-2.3,1.9-3.9,4.5-4.6,7.4c-0.4,2-0.3,4.1,0.3,6.1
					c0.5,1.6,1.1,3.2,2,4.6c0.7,1.2,1.3,2.4,1.9,3.7c1.1,2.4,1.8,4.9,2.2,7.4c0.2,1.6,0.2,3.3-0.2,4.9c-0.3,1.4-1,2.7-1.9,3.8
					C29.7,45,28,46.4,26,47.5C25.8,47.6,25.5,47.7,25.3,47.8C25.3,47.9,25.3,47.9,25.3,47.8z"/>
				<path class="st4" d="M25.2,47.3c-0.1-0.2-0.1-0.3-0.1-0.5c0-1-0.1-2-0.4-2.9c-0.4-1.3-1-2.6-1.9-3.7c-0.4-0.6-0.9-1-1.4-1.5
					c-0.2-0.3-0.4-0.5-0.6-0.8c-0.4-0.5-0.9-1-1.3-1.6c-0.5-0.7-0.9-1.4-1.3-2.1c-0.4-0.8-0.8-1.7-1.1-2.5c-0.4-1.1-0.7-2.2-1-3.4
					c-0.2-1-0.2-2,0-3c0.2-1,0.4-2,0.8-2.9c0.5-1.1,1.1-2.1,1.9-3.1c0.4-0.6,0.9-1.1,1.5-1.6c0.1-0.1,0.2-0.2,0.3-0.2
					c0.1,0.1,0.1,0.2,0,0.4c-0.1,0.3-0.2,0.7-0.3,1c-0.1,0.3-0.1,0.7-0.1,1c-0.1,0.9-0.1,1.7,0,2.6c0,1.2,0.2,2.3,0.6,3.4
					c0.4,0.9,0.8,1.8,1.2,2.6c0.3,0.7,0.7,1.4,1.1,2.1c0.8,1.4,1.5,2.8,2.2,4.3c0.4,0.9,0.8,1.8,1.1,2.8c0.2,0.9,0.4,1.8,0.5,2.7
					c0,0.4,0.1,0.9,0,1.3c0,0.7-0.1,1.4-0.2,2c-0.1,0.7-0.4,1.4-0.6,2.1C25.9,46.4,25.6,46.9,25.2,47.3z"/>
				<path class="st4" d="M26.1,47.8c1.6-0.7,3.2-1.6,4.6-2.7c1.3-1,2.5-2.2,3.4-3.6c0.9-1.4,1.4-3,1.5-4.6c0-1.8-0.3-3.6-0.8-5.3
					c-0.4-1.3-0.9-2.6-1.4-3.8C33,27,32.5,26.4,32,25.8c-1.3-1.8-2.5-3.7-3.6-5.6c-0.4-0.8-0.6-1.7-0.7-2.5
					c-0.1-0.8-0.1-1.7-0.1-2.6c0-1,0.2-2,0.6-3c0,0,0-0.1,0.1-0.1c0.2,0.5,0.3,1,0.4,1.4c0.5,1.6,1.2,3.1,2,4.6
					c0.7,1.2,1.5,2.4,2.5,3.5c0.6,0.7,1.3,1.3,1.9,2c0.9,0.8,1.6,1.8,2.2,2.8c0.9,1.6,1.6,3.3,1.9,5.2c0.4,2.2,0.1,4.6-0.8,6.7
					c-0.7,1.5-1.6,3-2.7,4.2c-1.3,1.5-2.9,2.7-4.6,3.6C29.6,46.8,27.9,47.5,26.1,47.8C26.1,47.9,26,47.9,26.1,47.8z"/>
				<path class="st4" d="M15.2,28.1c0.1,0.1,0.1,0.2,0.1,0.3c-0.1,1-0.1,2,0,3c0.1,1,0.3,2,0.6,3c0.3,0.9,0.8,1.8,1.3,2.6
					c0.4,0.7,0.9,1.3,1.4,1.8c0.1,0.1,0.2,0.2,0.3,0.4c0.3,0.3,0.6,0.6,0.9,0.8c0.4,0.3,0.8,0.6,1.2,1c0.7,0.6,1.3,1.3,1.8,2.1
					c0.3,0.5,0.6,1.1,0.8,1.7c0.2,0.6,0.5,1.1,0.7,1.7c0.2,0.4,0.4,0.7,0.6,1.1c0.1,0.1,0,0.2,0,0.3c-0.1,0.1-0.2,0-0.3,0
					c-0.6-0.2-1.2-0.5-1.8-0.7c-0.8-0.4-1.5-0.8-2.3-1.2c-0.6-0.3-1.1-0.7-1.6-1.2c-0.3-0.2-0.6-0.4-0.9-0.6
					c-0.2-0.2-0.4-0.3-0.5-0.5c-0.3-0.4-0.7-0.7-1-1.1c-0.3-0.4-0.6-0.8-0.9-1.2c-0.5-0.7-1-1.6-1.3-2.4c-0.2-0.4-0.4-0.8-0.5-1.2
					c-0.1-0.8-0.3-1.6-0.4-2.4c-0.1-1.3,0-2.7,0.4-4C14,30.2,14.5,29.2,15.2,28.1C15.2,28.2,15.2,28.1,15.2,28.1z"/>
			</g>
			<g>
				<path class="st5" d="M25.3,47.8c1.1-1.4,2-2.9,2.5-4.6c1-3.3,0.7-6.8-0.8-9.9c-0.4-0.8-0.9-1.5-1.3-2.3
					c-1.4-2.8-2.7-5.6-3.7-8.5c-1.3-3.6-1-7.6,0.9-10.9c0.7-1.4,1.6-2.6,2.7-3.8c1-1,2.1-1.7,3.4-2.2c0.7-0.4,1.5-0.5,2.3-0.5
					c0.1,0,0.2,0,0.3,0c0.1,0,0.1,0,0.2,0c-0.1,0.1-0.2,0.2-0.3,0.3c-2.3,1.9-3.9,4.5-4.6,7.4c-0.4,2-0.3,4.1,0.3,6.1
					c0.5,1.6,1.1,3.2,2,4.6c0.7,1.2,1.3,2.4,1.9,3.7c1.1,2.4,1.8,4.9,2.2,7.4c0.2,1.6,0.2,3.3-0.2,4.9c-0.3,1.4-1,2.7-1.9,3.8
					C29.7,45,28,46.4,26,47.5C25.8,47.6,25.5,47.7,25.3,47.8C25.3,47.9,25.3,47.9,25.3,47.8z"/>
				<path class="st6" d="M25.2,47.3c-0.1-0.2-0.1-0.3-0.1-0.5c0-1-0.1-2-0.4-2.9c-0.4-1.3-1-2.6-1.9-3.7c-0.4-0.6-0.9-1-1.4-1.5
					c-0.2-0.3-0.4-0.5-0.6-0.8c-0.4-0.5-0.9-1-1.3-1.6c-0.5-0.7-0.9-1.4-1.3-2.1c-0.4-0.8-0.8-1.7-1.1-2.5c-0.4-1.1-0.7-2.2-1-3.4
					c-0.2-1-0.2-2,0-3c0.2-1,0.4-2,0.8-2.9c0.5-1.1,1.1-2.1,1.9-3.1c0.4-0.6,0.9-1.1,1.5-1.6c0.1-0.1,0.2-0.2,0.3-0.2
					c0.1,0.1,0.1,0.2,0,0.4c-0.1,0.3-0.2,0.7-0.3,1c-0.1,0.3-0.1,0.7-0.1,1c-0.1,0.9-0.1,1.7,0,2.6c0,1.2,0.2,2.3,0.6,3.4
					c0.4,0.9,0.8,1.8,1.2,2.6c0.3,0.7,0.7,1.4,1.1,2.1c0.8,1.4,1.5,2.8,2.2,4.3c0.4,0.9,0.8,1.8,1.1,2.8c0.2,0.9,0.4,1.8,0.5,2.7
					c0,0.4,0.1,0.9,0,1.3c0,0.7-0.1,1.4-0.2,2c-0.1,0.7-0.4,1.4-0.6,2.1C25.9,46.4,25.6,46.9,25.2,47.3z"/>
				<path class="st7" d="M26.1,47.8c1.6-0.7,3.2-1.6,4.6-2.7c1.3-1,2.5-2.2,3.4-3.6c0.9-1.4,1.4-3,1.5-4.6c0-1.8-0.3-3.6-0.8-5.3
					c-0.4-1.3-0.9-2.6-1.4-3.8C33,27,32.5,26.4,32,25.8c-1.3-1.8-2.5-3.7-3.6-5.6c-0.4-0.8-0.6-1.7-0.7-2.5
					c-0.1-0.8-0.1-1.7-0.1-2.6c0-1,0.2-2,0.6-3c0,0,0-0.1,0.1-0.1c0.2,0.5,0.3,1,0.4,1.4c0.5,1.6,1.2,3.1,2,4.6
					c0.7,1.2,1.5,2.4,2.5,3.5c0.6,0.7,1.3,1.3,1.9,2c0.9,0.8,1.6,1.8,2.2,2.8c0.9,1.6,1.6,3.3,1.9,5.2c0.4,2.2,0.1,4.6-0.8,6.7
					c-0.7,1.5-1.6,3-2.7,4.2c-1.3,1.5-2.9,2.7-4.6,3.6C29.6,46.8,27.9,47.5,26.1,47.8C26.1,47.9,26,47.9,26.1,47.8z"/>
				<path class="st8" d="M15.2,28.1c0.1,0.1,0.1,0.2,0.1,0.3c-0.1,1-0.1,2,0,3c0.1,1,0.3,2,0.6,3c0.3,0.9,0.8,1.8,1.3,2.6
					c0.4,0.7,0.9,1.3,1.4,1.8c0.1,0.1,0.2,0.2,0.3,0.4c0.3,0.3,0.6,0.6,0.9,0.8c0.4,0.3,0.8,0.6,1.2,1c0.7,0.6,1.3,1.3,1.8,2.1
					c0.3,0.5,0.6,1.1,0.8,1.7c0.2,0.6,0.5,1.1,0.7,1.7c0.2,0.4,0.4,0.7,0.6,1.1c0.1,0.1,0,0.2,0,0.3c-0.1,0.1-0.2,0-0.3,0
					c-0.6-0.2-1.2-0.5-1.8-0.7c-0.8-0.4-1.5-0.8-2.3-1.2c-0.6-0.3-1.1-0.7-1.6-1.2c-0.3-0.2-0.6-0.4-0.9-0.6
					c-0.2-0.2-0.4-0.3-0.5-0.5c-0.3-0.4-0.7-0.7-1-1.1c-0.3-0.4-0.6-0.8-0.9-1.2c-0.5-0.7-1-1.6-1.3-2.4c-0.2-0.4-0.4-0.8-0.5-1.2
					c-0.1-0.8-0.3-1.6-0.4-2.4c-0.1-1.3,0-2.7,0.4-4C14,30.2,14.5,29.2,15.2,28.1C15.2,28.2,15.2,28.1,15.2,28.1z"/>
			</g>
		</g>
	</g>
</g>
</svg>
