<?xml version="1.0" encoding="utf-8"?>
<!-- Generator: Adobe Illustrator 24.1.2, SVG Export Plug-In . SVG Version: 6.00 Build 0)  -->
<svg version="1.1" id="a9024a05-d063-45a1-b907-8a6d9e96f07c"
	 xmlns="http://www.w3.org/2000/svg" xmlns:xlink="http://www.w3.org/1999/xlink" x="0px" y="0px" viewBox="0 0 52.8 52.8"
	 style="enable-background:new 0 0 52.8 52.8;" xml:space="preserve">
<style type="text/css">
	.st0{fill:#01A2E6;}
	.st1{fill:#FCFEFE;}
	.st2{fill:#F9FDFE;}
	.st3{fill:#F5EB33;}
	.st4{fill:#016A3A;}
	.st5{fill:#E92228;}
	.st6{fill:#226CB0;}
	.st7{fill:#FEFFFF;}
	.st8{fill:#026A3A;}
	.st9{fill:#FEFEFF;}
</style>
<circle class="st0" cx="26.4" cy="26.4" r="26.4"/>
<path class="st1" d="M6.6,38.8c0,0.1,0.1,0.1,0.1,0.2c3,4.7,7.6,8.3,13,9.9c0.9,0.3,1.9,0.5,2.9,0.7c0.1,0,0.2,0,0.3,0.1
	c-0.2-0.3-0.4-0.4-0.6-0.7c0,0,0,0,0,0c0,0,0,0,0,0c2.7,0,5.4,0,8.2,0c0.1,0,0.1,0,0.2,0L30,49.6c0.8-0.1,1.6-0.3,2.4-0.5
	c5.7-1.5,10.7-5.2,13.9-10.2c0,0,0.1-0.1,0.1-0.1c0.4-0.6,0.7-1.3,1.1-1.9c0.6-1.2,1.1-2.4,1.4-3.6c0.3-0.9,0.5-1.9,0.7-2.8
	c0.1-0.8,0.2-1.5,0.3-2.3c0.1-0.9,0.1-1.8,0-2.6c0-0.8-0.1-1.7-0.2-2.5c-1.3-8.6-7.2-15.8-15.4-18.6c-1.1-0.4-2.2-0.7-3.3-0.9
	c-0.7-0.1-1.5-0.2-2.2-0.3c-0.4,0-0.8-0.1-1.1-0.1c-0.1,0-0.2,0-0.2-0.1c-0.1-0.3-0.2-0.5-0.3-0.8c0.1,0,0.2,0,0.3,0
	c0.8,0.1,1.5,0.1,2.3,0.2c0.7,0.1,1.4,0.2,2,0.4c1.3,0.3,2.5,0.6,3.7,1.1c6.5,2.6,11.6,7.8,14,14.3c0.4,1.1,0.7,2.3,1,3.4
	c0.1,0.6,0.2,1.3,0.3,1.9c0.2,1.3,0.2,2.7,0.2,4.1c0,1-0.1,1.9-0.3,2.9c-0.9,5.4-3.6,10.4-7.7,14.1c-2.8,2.5-6.1,4.4-9.7,5.4
	c-0.9,0.3-1.8,0.5-2.7,0.6c-0.9,0.2-1.8,0.2-2.7,0.3c-0.7,0-1.4,0.1-2.1,0c-0.8,0-1.6-0.1-2.4-0.2C13.6,49.3,5.6,42.4,3,33
	c-0.3-0.9-0.4-1.8-0.6-2.7c-0.2-1-0.2-1.9-0.3-2.9c0-0.5,0-1,0-1.5c0-0.9,0.1-1.7,0.2-2.6C3.4,14.5,9.4,6.9,17.7,3.7
	c1-0.4,2.1-0.7,3.2-1c0.7-0.2,1.4-0.3,2.1-0.4c0.8-0.1,1.7-0.2,2.5-0.2c0.1,0,0.1,0,0.2,0L25.4,3c-0.3,0-0.5,0-0.8,0.1
	c-0.8,0.1-1.7,0.2-2.5,0.3C17.5,4.2,13.1,6.6,9.7,10c-2.1,2.1-3.8,4.7-5,7.5c-0.4,1.1-0.8,2.2-1.1,3.3c-0.2,0.8-0.3,1.6-0.5,2.3
	C3.1,24.2,3,25.3,3,26.3c0,0.7,0.1,1.5,0.1,2.2c0,0.5,0.1,1,0.2,1.4c0.1,0.4,0.1,0.8,0.2,1.2c0.2,1,0.5,2,0.8,3
	c0.5,1.6,1.3,3.1,2.2,4.6C6.5,38.7,6.5,38.8,6.6,38.8z"/>
<path class="st1" d="M24.7,7.3c0-0.5,0.1-0.9,0.3-1.4c0.2-0.6,0.5-1.3,0.7-1.9c0.3-0.7,0.5-1.4,0.8-2.1L27.3,4
	c0.2,0.5,0.4,1,0.5,1.5c0.1,0.3,0.2,0.7,0.4,1c0.1,0.2,0.1,0.4,0.1,0.6l0,0.4l0,0.4l0,1c0,0.1,0,0.2,0,0.3c0,0.8,0,1.6,0,2.3
	c-0.2,0-0.5-0.1-0.7-0.1c-0.3,0-0.5-0.1-0.8-0.1l0-4.4h-0.5V7c0,0.6,0,1.3,0,1.9c0,0.7,0,1.5,0,2.2l-1.5,0.1c0-0.9,0-1.7,0-2.6
	c0-0.1,0-0.3,0-0.4c0,0,0-0.1,0-0.1C24.7,7.8,24.7,7.6,24.7,7.3z"/>
<path class="st2" d="M7.3,38.1c0.3-0.2,0.6-0.5,1-0.7c0.3-0.2,0.5-0.3,0.8-0.5c0.2-0.1,0.4-0.2,0.6-0.1c0.1,0,0.1,0.1,0.1,0.2
	c-0.1,0.3-0.3,0.6-0.5,0.9l0.7-0.1l0.4,0l0.4,0c0.6,0,1.3,0,1.9,0c0,0,0.1,0,0.1,0l1.6,0l0.4,0c0,0,0.1,0,0.1,0c1,0,1.9,0.1,2.9,0.1
	c0.8,0.1,1.6,0.1,2.4,0.3c0.8,0.1,1.6,0.3,2.4,0.6c0.6,0.2,1.1,0.4,1.7,0.7l0,0c-0.7-0.2-1.4-0.4-2.2-0.6c-0.4-0.1-0.8-0.1-1.2-0.2
	l-0.1,0l-0.2,0c-0.1,0-0.3,0-0.4-0.1c-0.6-0.1-1.1-0.1-1.7-0.1c-0.3,0-0.5,0-0.8-0.1c-0.4,0-0.8,0-1.1,0c-0.8,0-1.6,0-2.5,0
	c-0.4,0-0.9,0-1.3,0c-0.5,0-1,0-1.4,0c0,0,0,0-0.1,0l-0.3,0c-0.3,0-0.6,0-0.9,0c-0.7,0-1.4,0.1-2,0.1c-0.6,0-1.1,0.1-1.7,0.2
	C6.8,38.6,7,38.4,7.3,38.1C7.2,38.2,7.3,38.2,7.3,38.1z"/>
<path class="st2" d="M42.9,36.8c0.1-0.1,0.3-0.1,0.5,0c0.3,0.1,0.7,0.3,1,0.5c0.3,0.2,0.6,0.5,0.9,0.7c0,0,0.1,0.1,0.1,0.1
	c0,0,0,0,0,0l0.1,0.1l0.7,0.6c0,0-0.1,0-0.1,0c-0.7-0.1-1.4-0.1-2-0.2c-0.6-0.1-1.2-0.1-1.9-0.1c-0.2,0-0.4,0-0.6,0l-0.3,0
	c-0.2,0-0.5,0-0.7,0l0,0l-0.8,0c-0.4,0-0.8,0-1.2,0c-0.8,0-1.7,0-2.5,0c-0.1,0-0.2,0-0.3,0c-0.4,0-0.8,0-1.2,0.1
	c-0.4,0-0.8,0.1-1.2,0.1l-0.3,0l-0.1,0l-0.3,0l-0.3,0l-0.1,0l-0.3,0l-0.2,0l-0.1,0c0,0-0.1,0-0.1,0c-0.5,0.1-1.1,0.2-1.6,0.3
	c-0.6,0.1-1.2,0.3-1.7,0.5c0.1-0.1,0.2-0.1,0.3-0.2c0.4-0.2,0.8-0.3,1.2-0.5c0.8-0.3,1.6-0.5,2.4-0.6c0.5-0.1,1.1-0.2,1.6-0.2
	c0.4-0.1,0.9-0.1,1.3-0.1c0.5,0,1,0,1.5-0.1c0.1,0,0.1,0,0.2,0c0.9,0,1.8,0,2.7,0c0.7,0,1.4,0,2.1,0l0.4,0l1.2,0.1L42.9,37
	L42.9,36.8z"/>
<path class="st1" d="M27.8,45.4l-0.7,0.4c-0.5,0.3-1.1,0.6-1.6,1c-0.3,0.2-0.5,0.3-0.8,0.5l0-1.4l0.1-0.2l0.1,0l0,0
	c0.2-0.1,0.4-0.2,0.6-0.3c0.1,0,0.1-0.1,0.2-0.1c0.8-0.5,1.7-1,2.5-1.5c0.1,0,0.1-0.1,0.2-0.1v1.5c0,0.1,0,0.2-0.1,0.2
	C28.1,45.2,27.9,45.3,27.8,45.4z"/>
<path class="st1" d="M27.7,45.9l0.6-0.3l0,0.2c0,0.4,0,0.8,0,1.2c0,0.1-0.1,0.2-0.2,0.3c-0.6,0.3-1.2,0.7-1.8,1
	c-0.1,0.1-0.3,0.1-0.4,0.1c-0.4,0-0.7,0-1.1,0h-0.3c0-0.2,0-0.4,0-0.7c0-0.1,0.1-0.1,0.1-0.2c0.5-0.3,1-0.6,1.6-0.9
	C26.8,46.5,27.2,46.2,27.7,45.9C27.7,45.9,27.7,45.9,27.7,45.9z"/>
<path class="st2" d="M27.1,48.4l1.2-0.7v0.7C27.9,48.5,27.5,48.5,27.1,48.4z"/>
<path class="st3" d="M14,11.6c0.1-0.1,0.2-0.2,0.2-0.2c1.6-1.7,3.6-2.9,5.8-3.5c0.2-0.1,0.4-0.1,0.6-0.2c0.1,0.4,0.2,0.7,0.3,1.1
	c0,0,0,0-0.1,0c-1,0.3-1.9,0.7-2.8,1.1c-1.8,1-3.4,2.4-4.6,4.1c-0.9,1.4-1.6,2.9-2.1,4.5c-0.1,0.3-0.1,0.6-0.2,0.9L11,20.5l-0.1,0
	l0-0.1c0-0.6,0-1.2,0.1-1.8c0-0.5,0.1-1.1,0.3-1.6c0.1-0.5,0.3-1,0.4-1.5c0,0,0,0,0,0c0,0,0,0,0,0l0.3-0.7c0.1-0.1,0.1-0.2,0.2-0.3
	c0.2-0.4,0.5-0.8,0.7-1.2l0.2-0.3l0,0L14,11.6z"/>
<path class="st4" d="M20.9,8.8c-0.1-0.4-0.2-0.7-0.3-1.1c-0.1-0.3-0.1-0.6-0.2-0.9c-0.1-0.3-0.1-0.6-0.1-0.8c0.2,0,0.3,0.1,0.5,0.1
	c0.9,0.3,1.7,0.7,2.4,1.2c0,0,0,0,0,0c0.3,0.3,0.7,0.6,1,0.9c0.1,0.1,0.2,0.1,0.3,0.1c0,0.1,0,0.3,0,0.4c0,0.9,0,1.7,0,2.6
	c-0.1,0-0.3,0.1-0.4,0.1c-0.4,0.1-0.7,0.2-1.1,0.3c-0.4-0.4-0.8-0.7-1.2-1.1L21.4,10L20.9,8.8z"/>
<path class="st3" d="M24.6,8.3c-0.1,0-0.2,0-0.3-0.1c-0.3-0.3-0.7-0.6-1-0.9c0,0,0,0,0,0l1.3,0c0,0.3,0,0.6,0,0.8
	C24.7,8.2,24.6,8.2,24.6,8.3z"/>
<path class="st5" d="M23.1,11.7c0.4-0.1,0.7-0.2,1.1-0.3c0.1,0,0.3-0.1,0.4-0.1c0.5,0,1-0.1,1.5-0.1l0.5,0c0.3,0,0.5,0.1,0.8,0.1
	c0.3,0,0.5,0.1,0.7,0.1c0.7,0.2,1.4,0.4,2.1,0.7c-0.1,0.6-0.1,1.2-0.1,1.8c-0.6-0.3-1.3-0.5-2-0.6c-0.1,0-0.1,0-0.2,0
	c-0.4-0.1-0.9-0.1-1.3,0l-0.5,0.1c-0.6,0.1-1.1,0.3-1.6,0.6c-0.7,0.3-1.3,0.8-1.8,1.4c-0.4,0.6-0.7,1.2-0.9,1.9
	c-0.2,0.6-0.3,1.3-0.2,2c0,0.6,0.2,1.2,0.4,1.8c0.1,0.4,0.3,0.9,0.6,1.2c0.2,0.4,0.4,0.7,0.7,1.1c0.4,0.5,0.8,1,1.3,1.4
	c0,0,0,0.1,0,0.1c0,1.2,0,2.3,0,3.5c0,0.1,0,0.1,0,0.2c0,0-0.1,0-0.1,0c-1-0.5-1.9-1.2-2.8-2c-0.3-0.3-0.6-0.6-0.9-0.9
	c0-0.1-0.1-0.1-0.1-0.2c-0.2-0.3-0.5-0.6-0.7-0.9c-0.6-0.9-1.1-1.9-1.4-3l0-0.1l0-0.1l-0.1-0.5l0-0.3l0,0c0,0,0,0,0,0l0,0
	c0-0.3-0.1-0.6-0.1-0.9c0-0.7,0-1.4,0.1-2c0.1-0.2,0.1-0.5,0.1-0.7l0-0.1l0.1-0.2l0,0l0-0.1l0.1-0.1l0,0l0.1-0.3l0,0l0,0l0.1-0.3
	l0-0.1c0.1-0.1,0.1-0.2,0.2-0.3c0.2-0.3,0.4-0.6,0.6-1c0,0,0.1-0.1,0.1-0.2c0.4-0.5,0.9-0.9,1.4-1.3C22,12.2,22.5,11.9,23.1,11.7z"
	/>
<path class="st3" d="M31.3,9.9c-1-0.5-2-0.8-3-1.1l0-1c1.2,0.3,2.4,0.8,3.6,1.4L31.3,9.9z"/>
<path class="st6" d="M15.1,14.2c0.1-0.1,0.1-0.2,0.2-0.2c0.5-0.7,1.1-1.3,1.8-1.8c0.7-0.5,1.4-1,2.2-1.4c0.7-0.3,1.4-0.6,2.1-0.7
	c0.2,0.2,0.3,0.4,0.5,0.6c-0.2,0.1-0.3,0.2-0.5,0.3c-0.8,0.5-1.6,1.1-2.2,1.7c-0.5,0.5-1,1-1.4,1.6c-0.5,0.7-1,1.4-1.4,2.2
	c-0.3,0.6-0.5,1.1-0.6,1.7c-0.1,0.5-0.2,0.9-0.2,1.4c0,0.1,0,0.2,0,0.2c0,0.3,0,0.6,0,0.9c0,0.4,0.1,0.8,0.2,1.3
	c0.1,0.6,0.3,1.2,0.5,1.7c0.1,0.2,0.2,0.4,0.2,0.5l0.3,0.6l0.3,0.6c0,0.1,0.1,0.2,0.1,0.3c0.3,0.6,0.7,1.2,1.1,1.7
	c0.3,0.4,0.7,0.8,1,1.2c0.5,0.6,1.1,1.1,1.7,1.6l-0.2,0c0,0,0,0-0.1,0c-0.7-0.1-1.4-0.2-2.2-0.3c-0.7-0.1-1.4-0.2-2.1-0.3
	c-0.4-0.5-0.8-1.1-1.1-1.7c-0.3-0.5-0.6-1.1-0.9-1.7c-0.3-0.5-0.5-1.1-0.6-1.7c-0.1-0.2-0.1-0.5-0.2-0.7c-0.1-0.3-0.1-0.5-0.2-0.8
	l-0.1-0.7l-0.1-0.7c0-0.4,0-0.8,0-1.2c0-0.3,0.1-0.6,0.1-1c0-0.6,0.1-1.1,0.3-1.7c0.1-0.4,0.2-0.7,0.3-1.1c0.2-0.4,0.3-0.8,0.5-1.2
	c0.2-0.3,0.3-0.6,0.5-0.9C15,14.4,15.1,14.3,15.1,14.2z"/>
<path class="st4" d="M31.3,9.9l0.5-0.7C31.9,9,32,8.9,32.2,8.8c0.1-0.1,0.1-0.1,0.2-0.2l0.1,0.1l0.3,0.8l0,0.1l0.3,1.2
	c0.1,0.3,0.1,0.7,0.2,1c0,0.2,0.1,0.5,0,0.7c0,0.3-0.1,0.7-0.2,1c0,0.1,0,0.1,0,0.2c0,0-0.1,0.1-0.1,0.1c-0.1,0.2-0.1,0.4-0.2,0.5
	c-0.1,0.3-0.2,0.6-0.3,0.9c0,0.1-0.1,0.1-0.1,0.2c-0.2,0.4-0.5,0.9-0.7,1.3c0,0.1-0.1,0.2-0.1,0.2c0.3,0.5,0.5,1,0.8,1.5
	c0.2,0.3,0.3,0.7,0.4,1l0.1,0.4c-0.3-0.3-0.8-0.3-1.2-0.2c-0.2-0.4-0.3-0.8-0.4-1.1c-0.5-1.1-1.1-2.2-1.8-3.3
	c-0.3-0.5-0.7-1-1.1-1.5l0-0.5c0.1,0,0.1,0.1,0.2,0.1c0.6,0.4,1.1,0.9,1.5,1.4c0.1,0.2,0.3,0.3,0.4,0.5l-0.2-1.7
	c0-0.6,0-1.2,0.1-1.8c0.1-0.3,0.2-0.6,0.3-0.9C30.8,10.7,31,10.3,31.3,9.9z"/>
<path class="st6" d="M18.5,20.3C18.5,20.3,18.5,20.3,18.5,20.3C18.5,20.3,18.5,20.3,18.5,20.3C18.5,20.3,18.5,20.3,18.5,20.3
	L18.5,20.3z"/>
<path class="st7" d="M41.8,37c-0.2,0-0.3,0-0.5,0c-1.3,0-2.5,0-3.8,0c0,0-0.1,0-0.1,0c-0.4,0-0.9,0-1.3,0.1c-0.4,0-0.9,0-1.3,0.1
	c-0.8,0.1-1.5,0.2-2.3,0.2c-0.7,0.1-1.4,0.2-2.1,0.4c-0.6,0.2-1.3,0.4-1.9,0.6l-0.1,0l0,0l0,0v0l0,1l0,0.1c-1.1,0-2.2,0-3.2,0
	c-0.1,0-0.2,0-0.3,0c0-0.3,0-0.7,0-1c0,0,0.1,0,0.1-0.1c0.6-0.5,1.2-1,1.8-1.5c2-1.8,3.7-3.8,5-6.1c0-0.1,0.1-0.2,0.3-0.2
	c0.3,0,0.5-0.1,0.8-0.1c1.1-0.2,2.1-0.6,3.1-1l0.2,0l0.8-0.1l0.4,0.9l0.6,1.2c0.2,0.2,0.4,0.5,0.5,0.7c0,0.1,0.1,0.1,0.1,0.2
	c0.5,0.6,1,1.3,1.5,1.9c0.2,0.3,0.5,0.5,0.7,0.8l0.6,0.7l0.3,0.3l0.5,0.6C41.9,37,41.8,37,41.8,37z"/>
<path class="st2" d="M22.5,41.3l0-0.3h8.1l0,0.3l0,0.4h-8.1L22.5,41.3z"/>
<path class="st1" d="M28.3,42.3c0,0.1,0,0.3,0,0.4c0,0.1,0,0.1,0,0.2c-0.7,0.4-1.3,0.8-2,1.2c-0.5,0.3-0.9,0.5-1.4,0.8L24.7,45v-1.6
	l0.4-0.3l0.2-0.1l0,0l0,0l0,0l0.1,0l0.1-0.1l0,0l0,0l0,0l0.1,0l0.5-0.3c0.2-0.1,0.4-0.2,0.6-0.3c0.1-0.1,0.2-0.1,0.3-0.1
	c0.4,0,0.8,0,1.1,0c0.1,0,0.1,0,0.2,0L28.3,42.3z"/>
<path class="st2" d="M25.7,42.3l-0.9,0.5l-0.1,0l0-0.6l0-0.2h1.3L25.7,42.3z"/>
<path class="st2" d="M22.5,40.7V40h8.1c0,0.1,0,0.2,0,0.3c0,0.1,0,0.2,0,0.3C30.4,40.8,23.1,40.8,22.5,40.7z"/>
<path class="st8" d="M35.8,29.7c-1,0.4-2,0.8-3.1,1c-0.3,0.1-0.5,0.1-0.8,0.1c-0.1,0-0.2,0.1-0.3,0.2c-1.3,2.3-3,4.4-5,6.1
	c-0.6,0.5-1.2,1-1.8,1.5c0,0-0.1,0.1-0.1,0.1l0-0.2c0-0.5,0-0.9,0-1.4c0-0.2,0-0.4,0-0.6c0-0.1,0-0.2,0.1-0.2
	c1.4-0.9,2.7-1.9,3.8-3.1c0.7-0.8,1.3-1.7,1.9-2.6l0.7-1.4c0.2-0.4,0.4-0.8,0.5-1.3c0.2-0.5,0.3-1,0.4-1.5c0,0,0.1,0,0.1,0
	c0.3,0.1,0.7,0,0.9-0.2c0.1-0.1,0.1-0.1,0.2-0.2c0,0.4-0.1,0.7-0.2,1c-0.1,0.4-0.2,0.7-0.3,1.1L33,28c0.6-0.7,1.3-1.4,2.1-1.9
	c0.3-0.1,0.5-0.3,0.8-0.4l0,0l0,0c0.1,0,0.3-0.1,0.4-0.1c0.7-0.2,1.3-0.3,2-0.4l0.6,0h0.7c-0.1,0.2-0.2,0.4-0.3,0.5
	c-0.3,0.5-0.5,0.9-0.8,1.4c-0.2,0.3-0.4,0.5-0.6,0.8c-0.4,0.5-0.8,0.9-1.3,1.3c-0.3,0.2-0.6,0.3-0.9,0.5L35.8,29.7z"/>
<path class="st5" d="M28.2,26.1c0.4,0,0.7,0.1,1.1,0.1c0.7,0,1.3-0.1,1.9-0.3c0,0,0,0,0.1,0c0.2,0.3,0.4,0.5,0.7,0.6
	c-0.1,0.5-0.3,1-0.4,1.5c-0.1,0.4-0.3,0.8-0.5,1.3c-1,0.2-1.9,0.3-2.9,0.2c0-0.1,0-0.1,0-0.2c0-1,0-2,0-3
	C28.2,26.2,28.2,26.1,28.2,26.1z"/>
<path class="st5" d="M34.5,22.6l0.1-0.2l0.1-0.3l0-0.2c0.2-0.9,0.2-1.9,0-2.8c-0.2-0.7-0.4-1.3-0.8-2c-0.4-0.6-0.9-1.2-1.4-1.7
	c0.1-0.3,0.2-0.6,0.3-0.9c0.1-0.2,0.1-0.4,0.2-0.5c0,0,0.1-0.1,0.1-0.1c0.6,0.4,1.1,1,1.5,1.5c0.3,0.4,0.6,0.9,0.9,1.3l0.6,1.3l0,0
	l0.1,0.2l0,0l0.1,0.3l0,0l0,0l0,0.1l0,0l0,0l0,0.1l0,0.1c0,0,0,0,0,0l0,0.1l0,0.1l0,0.1c0.1,0.4,0.2,0.8,0.2,1.1
	c0.1,0.5,0.1,1,0.1,1.5c0,0.4,0,0.8-0.1,1.2c-0.1,0.7-0.2,1.4-0.5,2c-0.1,0.3-0.2,0.6-0.3,0.8l0,0l0,0c-0.3,0.1-0.5,0.3-0.8,0.4
	c-0.8,0.5-1.5,1.1-2.1,1.9l-0.2,0.2c0.1-0.4,0.2-0.7,0.3-1.1c0.1-0.3,0.2-0.7,0.2-1l0,0l0-0.1c0.2-0.2,0.3-0.5,0.2-0.8
	c0-0.2-0.1-0.3-0.1-0.5l0-0.4C33.9,23.8,34.2,23.3,34.5,22.6L34.5,22.6z"/>
<path class="st3" d="M40,25.9c0-0.1,0.1-0.3,0.1-0.4c0.1-0.9,0.1-1.7,0-2.6c-0.1-1.4-0.4-2.7-0.9-4c-0.6-1.6-1.4-3-2.4-4.4
	c-1-1.4-2.3-2.6-3.7-3.6c0,0-0.1,0-0.1-0.1c-0.1-0.4-0.2-0.8-0.3-1.2l0.3,0.2l0,0c0,0,0,0,0,0c0,0,0,0,0,0l0.1,0l0.1,0.1l0,0l0,0
	l0,0l0,0l0,0l0.3,0.2l0,0c0,0,0,0,0,0c0,0,0,0,0,0l0,0l0,0l0.4,0.3l0,0c0,0,0,0,0,0c0,0,0,0,0,0l0,0l0,0l0.6,0.5
	c0,0,0.1,0.1,0.1,0.1c0.7,0.6,1.4,1.3,2.1,2c0.3,0.4,0.7,0.8,1,1.3l0.1,0.1l0,0l0.5,0.9l0,0l0,0l0.1,0.2l0,0l0,0c0,0,0,0,0,0.1
	c1,1.7,1.7,3.6,2,5.6c0.2,0.9,0.2,1.8,0.2,2.7c0,0.9-0.1,1.8-0.3,2.7c-0.3,1.4-0.7,2.7-1.4,3.9c-0.3,0.6-0.7,1.2-1.2,1.8
	c-0.2-0.2-0.4-0.5-0.5-0.7c0.2-0.3,0.4-0.6,0.6-0.9c0.7-1.1,1.1-2.3,1.4-3.6C39.9,26.8,39.9,26.3,40,25.9z"/>
<path class="st6" d="M38.6,27.1c0,0.3-0.1,0.5-0.2,0.8c-0.2,0.6-0.4,1.2-0.7,1.7c-0.1,0.3-0.3,0.5-0.5,0.8c0,0.1-0.1,0.1-0.1,0.2
	l-0.4-0.9l-0.8,0.1l-0.1,0c0.3-0.2,0.6-0.3,0.9-0.5c0.5-0.4,0.9-0.8,1.3-1.3C38.3,27.6,38.4,27.3,38.6,27.1z"/>
<path class="st6" d="M38.4,25.2c0.1-0.4,0.2-0.8,0.2-1.2c0-0.2,0.1-0.4,0.1-0.5c0-0.5,0.1-0.9,0.1-1.4c0,0.1,0,0.2,0.1,0.3
	c0.1,0.5,0.2,1,0.1,1.6c0,0.4,0,0.8,0,1.2L38.4,25.2z"/>
<path class="st4" d="M33.5,24.3l0,0.4c0,0-0.1-0.1-0.1-0.1c-0.2-0.3-0.5-0.4-0.8-0.4c-0.1,0-0.2,0-0.2,0l-0.1-1.9
	c0.4-0.1,0.8-0.3,1-0.8c0.1,0.3,0.1,0.5,0.1,0.7C33.4,22.8,33.5,23.5,33.5,24.3C33.5,24.2,33.5,24.3,33.5,24.3z"/>
<path class="st9" d="M28.2,31.1c0,0,0-0.1,0-0.1c0-0.5,0-1,0-1.6c0,0,0-0.1,0-0.1c0-0.1,0-0.1,0-0.2c0-1,0-2,0-3c0,0,0-0.1,0-0.1
	l0-0.7v-9.3c0,0,0,0,0,0c0-0.6,0-1.3,0-1.9c0-0.1,0-0.2,0-0.3l0-0.5l0-0.2c-0.1,0-0.1,0-0.2,0c-0.4-0.1-0.9-0.1-1.3,0l0,2.3
	c0,0,0,0,0,0V25c0,0,0,0.1,0,0.1c0,2.5,0,5,0,7.5c0,0.1,0,0.2,0,0.3h-0.5c0-0.1,0-0.1,0-0.2c0-2.7,0-5.4,0-8.2c0,0,0,0,0-0.1
	c0,0,0,0,0,0v-9.1c0,0,0,0,0,0l0-2c-0.6,0.1-1.1,0.3-1.6,0.6l0,1.2c0,0,0,0,0,0v7.7c0,0,0,0,0,0c0,0.5,0,1,0,1.5c0,0.1,0,0.2,0,0.3
	c0,0,0,0.1,0,0.1c0,1.2,0,2.3,0,3.5c0,0.1,0,0.1,0,0.2c0,0.1,0,0.2,0,0.3c0,0.8,0,1.5,0,2.3c0,0.1,0,0.2,0,0.3l-2.1-0.6l-0.1,0
	l-0.1,0l-0.1,0l-0.1,0l-0.1,0l-0.1,0l-0.2,0l0,0l0,0l-0.1,0l-0.1,0l-0.1,0l-0.2,0l-0.1,0l-0.1,0l-0.1,0l-0.2,0l0,0l-0.2,0
	c0,0,0,0-0.1,0c-0.7-0.1-1.4-0.2-2.2-0.3c-0.7-0.1-1.4-0.2-2.1-0.3h-0.3c-0.4,1.3-1.1,2.6-2.1,3.7c-0.2,0.3-0.4,0.6-0.7,0.9
	c-0.3,0.4-0.7,0.8-1,1.2L11,36.9C11,37,11.1,37,11.1,37l2.4,0l0.7,0c0.5,0,0.9,0,1.4,0c0.1,0,0.1,0,0.2,0c0.6,0,1.2,0,1.8,0.1
	c0.2,0,0.4,0,0.5,0l0.5,0l0.1,0l0.5,0l0.1,0l0.3,0l0.1,0l0.2,0l0.1,0l0.2,0l0.1,0l0.2,0l0.1,0l0.2,0l0.1,0l0.2,0l0.1,0l0.1,0l0.1,0
	l0.1,0l0,0l0.2,0l0.1,0l0.1,0l0.1,0l0.1,0l0,0l0,0l0.2,0l0.2,0.1l0.1,0l0,0l0.1,0l0.2,0.1l0.1,0l0.1,0l0.1,0l0.3,0.1l0.1,0l0.3,0.1
	l0.1,0l0.3,0.1l0.1,0l0.1,0c0-0.5,0-0.9,0-1.4c0-0.2,0-0.4,0-0.6c0-0.1,0-0.2,0.1-0.2c1.4-0.9,2.7-1.9,3.8-3.1
	c0.7-0.8,1.3-1.7,1.9-2.6L28.2,31.1z"/>
<path class="st4" d="M24.7,22.8l-0.4-0.5l0.4-0.1c0,0,0,0,0.1,0c0.5-0.1,1-0.1,1.5-0.2l0.5,0c0.1,0,0.1,0,0.2,0
	c0.5,0,0.9,0.1,1.3,0.2c0.3,0.1,0.6,0.2,0.9,0.4c0.9,0.5,1.7,1.1,2.4,1.9c0,0,0.1,0.1,0.1,0.1c0.7-0.5,1.3-0.4,1.7,0.1
	c0.3,0.5,0.2,1.1-0.2,1.4c0,0,0,0,0,0c-0.2,0.2-0.5,0.2-0.8,0.2c-0.3-0.1-0.6-0.3-0.8-0.6c-0.4,0-0.8,0-1.2,0
	c-0.4,0-0.7-0.1-1.1-0.1c-0.3,0-0.6-0.1-1-0.1c-0.5-0.1-1-0.3-1.5-0.6c-0.2-0.1-0.3-0.2-0.5-0.4C25.7,23.9,25.1,23.4,24.7,22.8z"/>
<path class="st4" d="M28.2,16.1c0.6,0.3,1.1,0.8,1.6,1.3c0.6,0.7,1.2,1.4,1.6,2.3c0,0.1,0.1,0.2,0.1,0.2c0,0,0,0,0,0.1
	c0,0,0.1,0,0.1,0c0.3-0.1,0.7-0.1,1,0.1c0,0,0.1,0,0.1,0.1c0.2,0.2,0.3,0.5,0.3,0.8c0,0.6-0.5,1-1.1,1c-0.2,0-0.4-0.1-0.6-0.2
	c-0.1-0.1-0.2-0.3-0.3-0.4c0-0.1-0.1-0.1-0.2-0.2c-0.9-0.3-1.8-0.7-2.6-1.1c0,0,0,0-0.1,0c-0.5-0.3-1-0.6-1.5-0.9l-0.5-0.5
	c-0.1-0.2-0.3-0.4-0.4-0.6c-0.5-0.7-0.8-1.4-1.1-2.2l-0.3-0.8l0.3,0c0.5,0.1,1,0.2,1.5,0.3c0,0,0.1,0,0.1,0l0.5,0.1
	c0.4,0.1,0.7,0.3,1.1,0.4C27.9,16,28.1,16.1,28.2,16.1z"/>
</svg>
