<svg id="e6d3f9ba-4fc4-48af-af91-1d00c7787074" data-name="Layer 1" xmlns="http://www.w3.org/2000/svg" xmlns:xlink="http://www.w3.org/1999/xlink" viewBox="0 0 59.5834 59.58332"><defs><style>.b48d89bc-eaa9-4817-a43e-d9e3d8c9d51a{fill:none;}.af1491fd-e3ab-44d0-8a18-d2e3274f6b75{clip-path:url(#aae87f5d-d65c-4dbe-9a3f-48c46d29071b);}.b27f8be7-8a1b-4e91-9079-a8b13f06da32{fill:#d53c25;}.a2996635-d116-4ffa-94ed-ed8a8d561b9c{fill:#414042;}.f026e9b6-e375-46ae-8aaa-4d5ab19c3641{fill:#f8d829;}.b8512f41-740a-4ba6-be98-820a417c8e52{fill:#edda3a;}.f79cda43-42ef-4c5d-b643-f7c235dbb084{fill:#d04a1a;}.a7edf03f-c747-4d50-a917-29dda0b148f7{fill:#04903d;}.bf1b614a-e87c-49db-bda2-91ba47b066b4{fill:#c5570c;}.b198be66-1870-4cef-9b2c-fb3096cf2ca6{fill:#c4710c;}</style><clipPath id="aae87f5d-d65c-4dbe-9a3f-48c46d29071b"><circle class="b48d89bc-eaa9-4817-a43e-d9e3d8c9d51a" cx="29.7917" cy="29.79166" r="29.79226"/></clipPath></defs><g class="af1491fd-e3ab-44d0-8a18-d2e3274f6b75"><path class="b27f8be7-8a1b-4e91-9079-a8b13f06da32" d="M29.79179,58.97976a29.188,29.188,0,1,1,29.188-29.18848A29.22135,29.22135,0,0,1,29.79179,58.97976Z"/><path class="a2996635-d116-4ffa-94ed-ed8a8d561b9c" d="M29.79179,1.20754a28.58411,28.58411,0,1,1-28.584,28.58423,28.61645,28.61645,0,0,1,28.584-28.58423m0-1.20825A29.79236,29.79236,0,1,0,59.584,29.79177,29.79237,29.79237,0,0,0,29.79179-.00071Z"/><path class="f026e9b6-e375-46ae-8aaa-4d5ab19c3641" d="M17.82442,24.2536c-1.56634-.88072-1.2933-1.93919-.27326-3.03749,1.48752-1.60164,2.99455-3.18534,4.68141-4.97647l.35941-4.73282c1.50723,1.48816.60672,3.00686,1.32738,4.25938,3.10106-.96338,6.25-2.10041,9.75135-1.37891,2.008.93379,2.27769,2.66648,1.71974,4.65885a5.16047,5.16047,0,0,0-.402,2.11534c.30768,1.17123-.94454,1.2527-1.3487,1.92988-3.13856,3.636-6.945,6.60517-10.17564,10.1459a2.73233,2.73233,0,0,1-1.18672,1.24713,1.45939,1.45939,0,0,0-1.93691-.38288,2.44577,2.44577,0,0,1-3.15327-.39786c-.80378-4.19975,2.66925-6.1489,4.71524-8.77546a4.892,4.892,0,0,0-.622-3.04424C19.56043,21.90155,19.20663,23.82979,17.82442,24.2536Z"/><path class="b8512f41-740a-4ba6-be98-820a417c8e52" d="M33.12976,22.59334c.19335-1.02541,1.54025-.56734,1.85871-1.43186,1.36255.00125,2.72528-.01079,4.08762.00666,2.45157.03142,4.49818.83446,5.76381,3.03548a6.66175,6.66175,0,0,1-1.24942,6.17161c-4.42655,6.20255-10.46584,10.41563-17.008,14.05115-1.09044.606-2.18334,1.20752-2.92974,1.62017-.86258,1.10795-.25456,2.18762-1.01274,3.06635l-.84022-1.79931c-.96344-.76579-2.00882.34484-2.9488-.56526-.48481-2.1357,1.9628-1.60654,2.8688-3.3636a79.82511,79.82511,0,0,0,.55761-8.90034c.08339-.54364.10307-1.123.76056-1.345,1.22082,1.56248.59382,3.39506.74122,5.11145.11311,1.317-.20151,2.68417.52623,4.26431,3.18934-1.00767,5.75682-2.91508,8.30983-4.78557a37.01944,37.01944,0,0,0,9.21169-9.22913c1.81307-2.73242.691-4.77917-2.59-5.2046C37.20406,23.03228,35.05108,23.79874,33.12976,22.59334Z"/><path class="f79cda43-42ef-4c5d-b643-f7c235dbb084" d="M17.82442,24.2536a15.09889,15.09889,0,0,1,4.10963-4.56376c.6945,2.08069.26321,3.78439.37391,5.42328-2.38482,2.55525-5.21533,4.73083-5.12073,8.59053-1.4415-2.67069.49716-4.42643,1.79527-6.30428a20.86331,20.86331,0,0,1,2.15513-2.22309c.63079-.66819.53089-1.2842-.31855-1.8685C19.65668,22.87486,19.06715,24.70228,17.82442,24.2536Z"/><path class="a7edf03f-c747-4d50-a917-29dda0b148f7" d="M33.12976,22.59334c2.19426-.04376,4.40014-.24932,6.58014-.0943,3.4874.248,4.89433,2.94924,3.106,5.9392-2.95806,4.94555-7.35173,8.47466-12.09432,11.58526a24.49412,24.49412,0,0,1-7.36195,3.77873c-.58682-3.67707.08964-7.19658-.32161-10.66281.14464-1.284,1.13089-1.9353,2.01758-2.663A66.38333,66.38333,0,0,0,33.12976,22.59334Z"/><path class="b27f8be7-8a1b-4e91-9079-a8b13f06da32" d="M23.70034,18.58568c5.1465-2.88912,8.1942-3.11875,10.41618-.8386a6.17558,6.17558,0,0,1-1.9668,3.84154c-2.88005.16484-5.50105,1.50925-8.3878,2.514A20.90739,20.90739,0,0,1,23.70034,18.58568Z"/><path class="bf1b614a-e87c-49db-bda2-91ba47b066b4" d="M23.79407,29.26019c-.06293-3.17492.8165-3.97537,5.58878-5.36827A13.32805,13.32805,0,0,1,23.79407,29.26019Z"/><path class="b198be66-1870-4cef-9b2c-fb3096cf2ca6" d="M21.80175,28.6351c.49141,2.66876.49141,2.66876-2.49415,3.642A4.762,4.762,0,0,1,21.80175,28.6351Z"/></g></svg>