<svg id="a5aa085d-2e24-492d-83a1-e77420a7b4c4" data-name="Layer 1" xmlns="http://www.w3.org/2000/svg" viewBox="0 0 14.51424 29.56853"><defs><style>.b256d072-bc7d-4667-9525-9ea4368d318f{fill:none;stroke:#414042;stroke-linecap:round;stroke-linejoin:round;stroke-width:1.04px;}</style></defs><circle class="b256d072-bc7d-4667-9525-9ea4368d318f" cx="7.25712" cy="4.97324" r="4.45324"/><path class="b256d072-bc7d-4667-9525-9ea4368d318f" d="M3.95983,10.89876H10.5544A1.70725,1.70725,0,0,1,12.26165,12.606V23.84382a0,0,0,0,1,0,0H2.25258a0,0,0,0,1,0,0V12.606A1.70725,1.70725,0,0,1,3.95983,10.89876Z"/><path class="b256d072-bc7d-4667-9525-9ea4368d318f" d="M12.26165,23.84382H2.25259l.73356,4.1304a1.302,1.302,0,0,0,1.28193,1.07431h5.97808a1.302,1.302,0,0,0,1.28193-1.07431Z"/><line class="b256d072-bc7d-4667-9525-9ea4368d318f" x1="7.25712" y1="23.84382" x2="7.25712" y2="29.04853"/></svg>