<svg id="ae6872d7-81b3-4d8c-a8c3-0ead12ee31b0" data-name="Layer 1" xmlns="http://www.w3.org/2000/svg" viewBox="0 0 54.76028 32.90608"><defs><style>.e5110bf5-d246-4633-82fd-c0f2db38e2bc,.eb22ada8-8b0b-440c-9f5b-2f783295d909{fill:none;stroke:#414042;stroke-linecap:round;stroke-linejoin:round;}.e5110bf5-d246-4633-82fd-c0f2db38e2bc{stroke-width:1.04px;}.eb22ada8-8b0b-440c-9f5b-2f783295d909{stroke-width:0.75px;}</style></defs><path class="e5110bf5-d246-4633-82fd-c0f2db38e2bc" d="M3.73431,20.67045c.644-.839,1.25694-1.70994,1.89507-2.53918a4.83762,4.83762,0,0,0,.796-2.64337A18.38747,18.38747,0,0,1,8.57412,8.64209c1.43367-2.22847,3.79877-3.13253,5.99106-4.4214A14.8399,14.8399,0,0,1,20.81871,1.7331C22.56722,1.55391,24.242.99,25.96781.68638a12.75949,12.75949,0,0,1,5.09571.21725c2.43657.532,4.7565,1.43563,7.1678,2.04364,3.69225.931,7.02472,1.57415,8.90714,5.27542a18.0857,18.0857,0,0,1,1.23655,4.168c.23029.97774.56341,1.93056.75831,2.9168.17838.90264.00662,1.86989.49272,2.68235.7007,1.17111,1.7203,2.07,2.355,3.29473.85016,1.64041,1.51741,3.40087,2.25921,5.092-1.16366.96806-2.75847,1.184-4.14751,1.67058-1.81.634-3.62527,1.238-5.473,1.75458a68.89611,68.89611,0,0,1-13.8647,2.31881,63.8044,63.8044,0,0,1-9.15806.15748c-2.60924-.19772-5.12794-1.17959-7.725-1.6193a34.50735,34.50735,0,0,1-4.981-1.083,25.979,25.979,0,0,1-4.84138-2.42954C3.69426,26.941.43494,25.32622.5217,24.96365c.29981-1.25289,1.30815-2.04454,2.12012-2.95867C3.02136,21.57767,3.38247,21.12883,3.73431,20.67045Z"/><polyline class="eb22ada8-8b0b-440c-9f5b-2f783295d909" points="30.329 17.017 32.962 19.65 30.329 19.65"/><line class="eb22ada8-8b0b-440c-9f5b-2f783295d909" x1="31.64561" y1="18.33368" x2="32.9621" y2="17.01719"/><polyline class="eb22ada8-8b0b-440c-9f5b-2f783295d909" points="28.781 19.65 28.781 17.017 26.402 17.017"/><polyline class="eb22ada8-8b0b-440c-9f5b-2f783295d909" points="24.453 19.65 24.453 17.017 22.074 17.017 22.074 15.369"/><line class="eb22ada8-8b0b-440c-9f5b-2f783295d909" x1="26.40168" y1="18.77961" x2="26.40168" y2="19.65017"/><line class="eb22ada8-8b0b-440c-9f5b-2f783295d909" x1="26.25681" y1="14.95155" x2="25.94118" y2="15.6983"/><line class="eb22ada8-8b0b-440c-9f5b-2f783295d909" x1="25.28603" y1="14.54124" x2="24.97041" y2="15.28799"/><path class="e5110bf5-d246-4633-82fd-c0f2db38e2bc" d="M5.94131,18.40695c2.50428,2.6793,11.2151,3.88091,21.57632,3.88091,10.2518,0,18.88787-1.16008,21.49491-3.79626"/><circle class="e5110bf5-d246-4633-82fd-c0f2db38e2bc" cx="22.07355" cy="5.706" r="0.61605"/><circle class="e5110bf5-d246-4633-82fd-c0f2db38e2bc" cx="28.18558" cy="7.73989" r="0.61605"/><circle class="e5110bf5-d246-4633-82fd-c0f2db38e2bc" cx="33.57815" cy="5.706" r="0.61605"/></svg>