<svg id="aa203cb4-5029-4ec6-b85c-03226ecd1a5e" data-name="Layer 1" xmlns="http://www.w3.org/2000/svg" xmlns:xlink="http://www.w3.org/1999/xlink" viewBox="0 0 54.69474 39.62995"><defs><style>.ab421720-6a98-4ab7-a27b-1d6a23d3c177,.ed10ae43-b8f3-491b-a0aa-3649c9031bbe{fill:none;}.ab66ba23-7ccd-46c3-a8f6-32e67195def5{clip-path:url(#ac5a6d0f-bb76-40f9-837f-5b88beee0187);}.b71b7405-300a-41f1-8b3f-a2772e34ec66{fill:#fefefe;stroke-width:1.04px;}.b71b7405-300a-41f1-8b3f-a2772e34ec66,.ed10ae43-b8f3-491b-a0aa-3649c9031bbe{stroke:#414042;stroke-linecap:round;stroke-linejoin:round;}.ed10ae43-b8f3-491b-a0aa-3649c9031bbe{stroke-width:0.75px;}</style><clipPath id="ac5a6d0f-bb76-40f9-837f-5b88beee0187"><rect class="ab421720-6a98-4ab7-a27b-1d6a23d3c177" x="-652.98029" y="-1471.37617" width="233.75906" height="493.74709"/></clipPath></defs><circle class="b71b7405-300a-41f1-8b3f-a2772e34ec66" cx="38.18222" cy="1.93557" r="1.41557"/><path class="b71b7405-300a-41f1-8b3f-a2772e34ec66" d="M54.17474,19.48516V28.3424H41.06131L24.50163,26.71232l-1.61595-.15745-6.9105-2.7725c.13156.04883,2.39776-6.1535,2.55953-6.58863,1.17627-3.16395,2.149-6.32849,4.34356-8.97707a17.78528,17.78528,0,0,1,12.84275-6.39q.389-.01688.77858-.01681A17.66825,17.66825,0,0,1,54.17474,19.48516Z"/><path class="b71b7405-300a-41f1-8b3f-a2772e34ec66" d="M41.06131,28.3424a9.6933,9.6933,0,0,1-2.37373,4.49049c-2.57412,3.00286-6.564,5.434-9.03788,5.97743-3.63233.78659-6.17765.15728-12.18388-3.48919C11.44545,31.67449.52,31.98905.52,31.98905l15.4551-8.20671c6.80742-2.66363,22.80525,4.35832,22.80525,4.35832Z"/><polygon class="ed10ae43-b8f3-491b-a0aa-3649c9031bbe" points="30.556 19.748 32.68 19.748 31.558 22.156 30.556 19.748"/><polyline class="ed10ae43-b8f3-491b-a0aa-3649c9031bbe" points="25.131 20.952 25.131 18.528 23.584 18.528 23.584 17.643"/><polyline class="ed10ae43-b8f3-491b-a0aa-3649c9031bbe" points="27.149 18.737 28.695 18.737 28.695 21.162"/><polyline class="ed10ae43-b8f3-491b-a0aa-3649c9031bbe" points="28.695 19.98 27.149 19.98 27.149 21.162"/></svg>