<svg id="e0b621be-68ee-492b-abd8-23b3d1351983" data-name="Layer 1" xmlns="http://www.w3.org/2000/svg" xmlns:xlink="http://www.w3.org/1999/xlink" viewBox="0 0 59.5834 59.5834"><defs><style>.fc6c95fb-7219-4279-a7a4-3c5b8047a8b8{fill:none;}.af26c3eb-bde2-4b87-ad62-b7ebc3aa8672{clip-path:url(#e8996a45-93c9-4e19-a110-450f7181be7e);}.e3446c52-f062-4286-b85f-0b6a13798700{fill:#fff;}.aa7cf5ab-fcb6-41ac-be46-78aaaf510528{fill:#414042;}.b72e9846-cf53-44aa-bdc9-8a67ac756988{fill:#5c4032;}</style><clipPath id="e8996a45-93c9-4e19-a110-450f7181be7e"><circle class="fc6c95fb-7219-4279-a7a4-3c5b8047a8b8" cx="29.7917" cy="29.7917" r="29.79226"/></clipPath></defs><g class="af26c3eb-bde2-4b87-ad62-b7ebc3aa8672"><path class="e3446c52-f062-4286-b85f-0b6a13798700" d="M29.91,58.97905a29.1875,29.1875,0,1,1,29.188-29.1875A29.22051,29.22051,0,0,1,29.91,58.97905Z"/><path class="aa7cf5ab-fcb6-41ac-be46-78aaaf510528" d="M29.90975,1.20781a28.584,28.584,0,1,1-28.584,28.584,28.61645,28.61645,0,0,1,28.584-28.584m0-1.20825A29.79224,29.79224,0,1,0,59.70223,29.79179,29.79232,29.79232,0,0,0,29.90975-.00044Z"/><path class="b72e9846-cf53-44aa-bdc9-8a67ac756988" d="M29.57583,28.92412q-3.93541-.00121-7.87083-.00143c-1.48089-.00126-2.14886.79294-1.81,2.20542a1.27955,1.27955,0,0,0,1.23929.95847c1.95449.01536,3.90911.0126,5.86368.01631a.60516.60516,0,0,1,.68275.68613q.00576,3.77338.01589,7.54676c.00087.23307-.05931.32287-.3165.31951-1.90208-.02484-3.81406.07732-5.70308-.0874a11.251,11.251,0,0,1-3.57579-.4753,16.09739,16.09739,0,0,1-2.02776-1.06053,8.40713,8.40713,0,0,1-2.24089-2.4426,9.99575,9.99575,0,0,1-.86665-2.287c-.78282-1.96345-.4795-4.00966-.42586-6.02232a8.17547,8.17547,0,0,1,.68442-2.62574,6.84188,6.84188,0,0,1,1.38959-2.41295q.65963-.68576,1.36737-1.31334a4.08731,4.08731,0,0,1,1.085-.58583c.536-.23523,1.08646-.438,1.634-.64611a1.05785,1.05785,0,0,1,.33555-.05564c1.85074-.06232,3.6862-.32667,5.54727-.30087,4.16972.05782,8.341.00267,12.51067.06341a22.83066,22.83066,0,0,1,3.50693.43618,6.675,6.675,0,0,1,3.38018,1.77,6.552,6.552,0,0,1,1.59324,2.2492,19.31656,19.31656,0,0,1,.74287,2.18234,13.218,13.218,0,0,1-.44046,8.24836A12.18515,12.18515,0,0,1,44.379,37.81885a4.909,4.909,0,0,1-1.97535,1.6492,8.82531,8.82531,0,0,1-2.75732.941,71.01409,71.01409,0,0,1-7.877.24759c-.33658.004-.44435-.0863-.44217-.43262.01483-2.34854.00994-4.69722.00857-7.04585a.94084.94084,0,0,1,1.072-1.08027c1.78736.00728,3.57586-.037,5.36167.01539A1.81554,1.81554,0,0,0,39.402,30.40312a2.00342,2.00342,0,0,0-1.51637-1.47635Q33.73076,28.92047,29.57583,28.92412Z"/></g></svg>