<svg xmlns="http://www.w3.org/2000/svg" viewBox="0 0 41.74696 41.74696"><defs><style>.ae14a048-8914-48e8-b95c-2831bc87c03f{fill:none;}.ae14a048-8914-48e8-b95c-2831bc87c03f,.ee1a8909-dc42-469a-a5fd-eeb735675f44{stroke:#414042;stroke-linecap:round;stroke-linejoin:round;stroke-width:1.04px;}.ee1a8909-dc42-469a-a5fd-eeb735675f44{fill:#fefefe;}</style></defs><path class="ae14a048-8914-48e8-b95c-2831bc87c03f" d="M14.89238,4.87017c-7.41585,0-9.02585.3194-9.02585,7.73524S12.97566,26.033,20.39151,26.033s14.30894-6.01174,14.30894-13.42759S32.89986,4.87017,25.484,4.87017"/><path class="ee1a8909-dc42-469a-a5fd-eeb735675f44" d="M16.20208,7.24233l-3.29083-.602a.74121.74121,0,0,1-.60783-.7291V3.8291A.74121.74121,0,0,1,12.91125,3.1l3.29083-.602a.7412.7412,0,0,1,.87457.7291V6.51323A.7412.7412,0,0,1,16.20208,7.24233Z"/><path class="ae14a048-8914-48e8-b95c-2831bc87c03f" d="M20.39151,26.033v4.6866a5.38373,5.38373,0,0,0,5.38373,5.38373h6.88229"/><rect class="ee1a8909-dc42-469a-a5fd-eeb735675f44" x="10.398" y="12.78314" width="19.77098" height="19.77098" rx="3.6332"/><polyline class="ae14a048-8914-48e8-b95c-2831bc87c03f" points="16.847 23.016 19.154 27.291 23.72 17.641"/><path class="ee1a8909-dc42-469a-a5fd-eeb735675f44" d="M24.59418,7.24233l3.29083-.602a.74121.74121,0,0,0,.60783-.7291V3.8291A.74121.74121,0,0,0,27.885,3.1l-3.29083-.602a.7412.7412,0,0,0-.87457.7291V6.51323A.7412.7412,0,0,0,24.59418,7.24233Z"/><ellipse class="ee1a8909-dc42-469a-a5fd-eeb735675f44" cx="34.26898" cy="35.33811" rx="1.61145" ry="3.92315"/></svg>