<svg id="b8ea3bf9-a725-4e4b-9c7e-64879087a08b" data-name="Layer 1" xmlns="http://www.w3.org/2000/svg" viewBox="0 0 34.99656 34.99654"><defs><style>.a0e2946c-f313-4b6b-8382-4e62d9f7275f{fill:#fefefe;stroke:#414042;stroke-linecap:round;stroke-linejoin:round;stroke-width:1.04px;}</style></defs><ellipse class="a0e2946c-f313-4b6b-8382-4e62d9f7275f" cx="17.49828" cy="24.83855" rx="11.1028" ry="5.2631"/><ellipse class="a0e2946c-f313-4b6b-8382-4e62d9f7275f" cx="17.49828" cy="18.74853" rx="16.97828" ry="9.28991"/><ellipse class="a0e2946c-f313-4b6b-8382-4e62d9f7275f" cx="17.49828" cy="18.74853" rx="12.95711" ry="6.50765"/><path class="a0e2946c-f313-4b6b-8382-4e62d9f7275f" d="M29.80067,20.38073c0-2.69263-5.508-4.87544-12.30239-4.87544S5.1959,17.6881,5.1959,20.38073"/><path class="a0e2946c-f313-4b6b-8382-4e62d9f7275f" d="M33.22,5.93468,31.99413,4.89489,22.57555,16.0006a3.80952,3.80952,0,0,0-3.59888,1.60205,4.11032,4.11032,0,0,0-.87555,2.99853h5.9787a3.41081,3.41081,0,0,0-.09826-3.77343Z"/><path class="a0e2946c-f313-4b6b-8382-4e62d9f7275f" d="M20.51048,18.336a1.24025,1.24025,0,0,1,2.03195,1.3938"/></svg>