<svg id="b422800b-6670-474b-8f06-6bcd52fb7afd" data-name="Layer 1" xmlns="http://www.w3.org/2000/svg" viewBox="0 0 34.99654 34.99654"><defs><style>.b6fd8e66-4bda-4ba7-b68e-3c26941cf75a,.b85090cd-153b-4312-a794-4f4bac1bd37c{fill:#fefefe;stroke-linecap:round;stroke-linejoin:round;stroke-width:1.04px;}.b85090cd-153b-4312-a794-4f4bac1bd37c{stroke:#414042;}.b6fd8e66-4bda-4ba7-b68e-3c26941cf75a{stroke:#fefefe;}.ade32278-8de0-4a4d-a8af-4834463e9d20{fill:#414042;}</style></defs><circle class="b85090cd-153b-4312-a794-4f4bac1bd37c" cx="22.72461" cy="9.90808" r="3.98957"/><circle class="b85090cd-153b-4312-a794-4f4bac1bd37c" cx="22.72461" cy="9.90808" r="2.13556"/><path class="b85090cd-153b-4312-a794-4f4bac1bd37c" d="M20.24949,8.81493A2.84329,2.84329,0,0,0,16.4208,6.1414c.00359-.05861.00891-.11676.00891-.17621a2.84971,2.84971,0,1,0-5.69942,0c0,.03326.00383.06556.005.09857a2.84711,2.84711,0,1,0-1.4025,5.51836,2.84909,2.84909,0,0,0,4.36846,3.61359,2.84915,2.84915,0,0,0,4.36846-3.61359A2.84856,2.84856,0,0,0,20.24949,8.81493Z"/><line class="b85090cd-153b-4312-a794-4f4bac1bd37c" x1="13.70128" y1="7.37118" x2="13.70128" y2="15.19571"/><line class="b85090cd-153b-4312-a794-4f4bac1bd37c" x1="13.70128" y1="10.57883" x2="16.18718" y2="9.30078"/><line class="b85090cd-153b-4312-a794-4f4bac1bd37c" x1="13.70128" y1="10.57883" x2="11.21539" y2="9.30078"/><line class="b85090cd-153b-4312-a794-4f4bac1bd37c" x1="13.70128" y1="12.8816" x2="14.93729" y2="12.24614"/><line class="b85090cd-153b-4312-a794-4f4bac1bd37c" x1="13.70128" y1="12.8816" x2="12.46527" y2="12.24614"/><circle class="b6fd8e66-4bda-4ba7-b68e-3c26941cf75a" cx="8.55796" cy="14.82584" r="6.17051"/><path class="b85090cd-153b-4312-a794-4f4bac1bd37c" d="M11.207,9.0617a6.643,6.643,0,0,0-8.72,8.71983A6.08958,6.08958,0,0,0,5.89877,21.2001a6.64652,6.64652,0,0,0,8.72663-8.72675A6.08979,6.08979,0,0,0,11.207,9.0617ZM3.41463,15.13009a5.13848,5.13848,0,0,1,4.35659-5.07936l.23807,2.65177a.31955.31955,0,0,1-.192.3294,1.926,1.926,0,0,0-.38576.20258.33848.33848,0,0,1-.38134-.0134l-.9118-.638a.461.461,0,0,0-.67427.16684l-.61294,1.19148a.461.461,0,0,0,.25765.64605l1.25926.44077a.34052.34052,0,0,1,.21628.26375,1.91211,1.91211,0,0,0,.1278.40715.32046.32046,0,0,1-.09559.3722l-2.3255,1.934A5.12083,5.12083,0,0,1,3.41463,15.13009ZM8.55539,20.276a5.13209,5.13209,0,0,1-3.147-1.07639l2.13731-2.5627a2.06791,2.06791,0,0,0,.5279.2101l-.10894,1.35623a.461.461,0,0,0,.456.49793l.3331.00257a.461.461,0,0,0,.46344-.4936L9.137,17.0788a.31916.31916,0,0,1,.18884-.32145q.07833-.03165.15279-.06993a.3221.3221,0,0,1,.39221.08583l1.94939,2.33928A5.17849,5.17849,0,0,1,8.55539,20.276Zm4.32584-2.368L10.531,15.94783a.325.325,0,0,1-.0864-.3681,1.94431,1.94431,0,0,0,.07929-.27339.33755.33755,0,0,1,.21327-.25588l1.31687-.46263a.461.461,0,0,0,.25715-.64587l-.61331-1.19224a.461.461,0,0,0-.6741-.167l-.96634.67547a.31268.31268,0,0,1-.36154-.01079,1.88781,1.88781,0,0,0-.3977-.2146.32885.32885,0,0,1-.19538-.33949l.2419-2.6426A5.13312,5.13312,0,0,1,12.88123,17.908Z"/><ellipse class="ade32278-8de0-4a4d-a8af-4834463e9d20" cx="10.15659" cy="18.47177" rx="0.18466" ry="0.3395" transform="translate(-6.7818 5.92372) rotate(-24.66482)"/><ellipse class="ade32278-8de0-4a4d-a8af-4834463e9d20" cx="7.12736" cy="18.44116" rx="0.3395" ry="0.18466" transform="translate(-12.60562 17.22259) rotate(-65.33518)"/><path class="b85090cd-153b-4312-a794-4f4bac1bd37c" d="M22.23305,18.43415a4.51588,4.51588,0,0,1-6.19048,2.64507,4.57666,4.57666,0,0,1-2.67813-6.22233c1.16215-2.87642,6.99-6.50048,7.8919-6.68225C21.77455,8.927,23.3952,15.55773,22.23305,18.43415Z"/><line class="b85090cd-153b-4312-a794-4f4bac1bd37c" x1="18.95397" y1="13.89115" x2="16.04257" y2="21.07922"/><path class="b85090cd-153b-4312-a794-4f4bac1bd37c" d="M33.14788,15.8854a2.84329,2.84329,0,0,0-3.82869-2.67353c.00359-.05861.00891-.11676.00891-.17621a2.84971,2.84971,0,1,0-5.69942,0c0,.03326.00383.06556.005.09857a2.84711,2.84711,0,1,0-1.4025,5.51836,2.84909,2.84909,0,0,0,4.36846,3.61359,2.84915,2.84915,0,0,0,4.36846-3.61359A2.84856,2.84856,0,0,0,33.14788,15.8854Z"/><line class="b85090cd-153b-4312-a794-4f4bac1bd37c" x1="26.59967" y1="14.44165" x2="26.59967" y2="22.26618"/><line class="b85090cd-153b-4312-a794-4f4bac1bd37c" x1="26.59967" y1="17.6493" x2="29.08556" y2="16.37125"/><line class="b85090cd-153b-4312-a794-4f4bac1bd37c" x1="26.59967" y1="17.6493" x2="24.11377" y2="16.37125"/><line class="b85090cd-153b-4312-a794-4f4bac1bd37c" x1="26.59967" y1="19.95207" x2="27.83568" y2="19.31661"/><line class="b85090cd-153b-4312-a794-4f4bac1bd37c" x1="26.59967" y1="19.95207" x2="25.36366" y2="19.31661"/><path class="b85090cd-153b-4312-a794-4f4bac1bd37c" d="M33.61254,18.37026v.08617c0,6.68549-4.3315,11.19608-10.41813,13.42466H11.80208C5.71545,29.65251,1.384,25.14192,1.384,18.45643v-.08617Z"/></svg>