<svg id="b595dbb5-5113-478b-b62b-55b3ed46862a" data-name="Layer 1" xmlns="http://www.w3.org/2000/svg" viewBox="0 0 14.51435 29.26175"><defs><style>.bdce2704-c25d-4e0f-8d87-6f81bbea341b{fill:none;stroke:#414042;stroke-linecap:round;stroke-linejoin:round;stroke-width:1.04px;}</style></defs><circle class="bdce2704-c25d-4e0f-8d87-6f81bbea341b" cx="7.25718" cy="4.92536" r="4.40536"/><path class="bdce2704-c25d-4e0f-8d87-6f81bbea341b" d="M9.96206,10.78715H4.55229a1.288,1.288,0,0,0-1.244.95435L.56467,21.97138a1.288,1.288,0,0,0,1.244,1.62162h10.897a1.288,1.288,0,0,0,1.244-1.62162L11.20608,11.7415A1.288,1.288,0,0,0,9.96206,10.78715Z"/><path class="bdce2704-c25d-4e0f-8d87-6f81bbea341b" d="M12.2079,23.593H2.30646l.72568,4.086a1.288,1.288,0,0,0,1.26814,1.06276h5.9138A1.288,1.288,0,0,0,11.48222,27.679Z"/><line class="bdce2704-c25d-4e0f-8d87-6f81bbea341b" x1="7.25718" y1="23.593" x2="7.25718" y2="28.74175"/></svg>