<svg id="ec5ea308-2dc9-43ef-8fe0-1b3da712cd4c" data-name="Layer 1" xmlns="http://www.w3.org/2000/svg" viewBox="0 0 27.07058 27.0707"><defs><style>.e4b4e670-375f-4260-9424-9ff98ca0a2e6{fill:#fdfdfd;stroke:#414042;stroke-linecap:round;stroke-linejoin:round;stroke-width:1.04px;}</style></defs><rect class="e4b4e670-375f-4260-9424-9ff98ca0a2e6" x="8.42707" y="11.89014" width="12.22488" height="14.66056"/><path class="e4b4e670-375f-4260-9424-9ff98ca0a2e6" d="M22.51971,5.97747l-1.8021,12.77739a1.08377,1.08377,0,0,1-.94019.92619,45.4264,45.4264,0,0,1-5.2366.36706,43.20977,43.20977,0,0,1-5.24544-.36268A1.08255,1.08255,0,0,1,8.361,18.7595L6.56365,5.97747C6.15418,3.11026,7.8763.52,10.28913.52h8.49856C21.20052.52,22.92276,3.11026,22.51971,5.97747Z"/><path class="e4b4e670-375f-4260-9424-9ff98ca0a2e6" d="M7.8233,4.78875a6.97816,6.97816,0,0,0,13.435,0"/><path class="e4b4e670-375f-4260-9424-9ff98ca0a2e6" d="M9.85211,8.79578v7.74214a1.129,1.129,0,0,1-1.13238,1.12551,1.16579,1.16579,0,0,1-.21555-.0202c-.02024-.00675-.04047-.00675-.06071-.01349A5.30054,5.30054,0,0,1,4.5547,12.5211c0-1.47606-.30094-3.31062.41852-4.65773C6.15555,5.6496,9.85211,6.037,9.85211,8.79578Z"/></svg>