<?xml version="1.0" encoding="utf-8"?>
<!-- Generator: Adobe Illustrator 24.1.2, SVG Export Plug-In . SVG Version: 6.00 Build 0)  -->
<svg version="1.1" id="eae3faba-2fdf-489e-b431-74bba34873f3"
	 xmlns="http://www.w3.org/2000/svg" xmlns:xlink="http://www.w3.org/1999/xlink" x="0px" y="0px" viewBox="0 0 139.4 32.1"
	 style="enable-background:new 0 0 139.4 32.1;" xml:space="preserve">
<style type="text/css">
	.st0{fill:#FEFEFE;stroke:#414042;stroke-width:1.04;stroke-linecap:round;stroke-linejoin:round;}
	.st1{fill:none;stroke:#414042;stroke-width:1.04;stroke-linecap:round;stroke-linejoin:round;}
</style>
<path class="st0" d="M138.3,7.9L113,7.8c-0.2,0-0.4-0.1-0.5-0.3l-4.2-6.7c-0.1-0.2-0.3-0.3-0.5-0.3L85.7,1c-0.3,0-0.6,0.2-0.6,0.5
	l-0.7,5.8c0,0.3-0.3,0.5-0.6,0.5h-3.3c-0.3,0-0.6-0.3-0.6-0.6c0,0,0,0,0,0c0-0.3-0.3-0.6-0.6-0.6c0,0,0,0,0,0h0L34.8,6.9
	c-0.3,0-0.6,0.3-0.6,0.6v1.1c0,0.3-0.3,0.6-0.6,0.6c0,0,0,0,0,0H10.1c-0.3,0-0.6,0.3-0.6,0.6c0,0,0,0,0,0V11c0,0.3,0.3,0.6,0.6,0.6
	c0,0,0,0,0,0h23.4c0.3,0,0.6,0.3,0.6,0.6c0,0,0,0,0,0V14c0,0.3,0.3,0.6,0.6,0.6l44.5,2.7c0.3,0,0.6-0.2,0.6-0.6c0,0,0,0,0,0v-1.5
	c0-0.3,0.3-0.6,0.6-0.6c0,0,0,0,0,0h3.2c0.3,0,0.6,0.3,0.6,0.6c0,0,0,0,0,0v7.9c0,0.3,0.2,0.5,0.4,0.6l9.7,2.7
	c0.3,0.1,0.7-0.1,0.8-0.4c0-0.1,0-0.1,0-0.2v-3.4h9.1v-0.2c0,0.1,0,0.3,0.1,0.4l6.9,8.8c0.2,0.2,0.4,0.3,0.7,0.2l4-1.2
	c0.3-0.1,0.5-0.4,0.4-0.8c0-0.1-0.1-0.1-0.1-0.2l-6.6-8.5c-0.1-0.2-0.2-0.4-0.1-0.6l1-2.5c0.1-0.3,0.4-0.4,0.7-0.4l26.8,6.6
	c0.3,0.1,0.7-0.1,0.7-0.4c0,0,0-0.1,0-0.1v-15C138.9,8.2,138.6,7.9,138.3,7.9z M104.3,20.8l-1.3,0.8h-6.3l-1.5-0.8v-2.9
	c0-0.3,0.3-0.6,0.6-0.6c0,0,0,0,0,0h7.8c0.3,0,0.6,0.3,0.6,0.6c0,0,0,0,0,0L104.3,20.8z M106.2,7.9H88c-0.3,0-0.5-0.2-0.6-0.5
	l-0.5-3.1c-0.1-0.3,0.2-0.6,0.5-0.7c0,0,0.1,0,0.1,0h17.7c0.3,0,0.5,0.2,0.6,0.4l1,3.1c0.1,0.3-0.1,0.7-0.4,0.8
	C106.3,7.9,106.3,7.9,106.2,7.9z"/>
<path class="st0" d="M1.7,8h7.3c0.3,0,0.6,0.3,0.6,0.6v3.5c0,0.3-0.3,0.6-0.6,0.6H1.7c-0.3,0-0.6-0.3-0.6-0.6V8.6C1,8.3,1.3,8,1.7,8
	z"/>
<path class="st1" d="M101.1,17.3c0,0,2.7,2.2-0.4,4.3"/>
</svg>
