<svg id="bcc25cbb-5c94-486e-b649-784ca1c0bf2b" data-name="Layer 1" xmlns="http://www.w3.org/2000/svg" viewBox="0 0 39.47686 21.75137"><defs><style>.f86b4775-78cf-498e-8355-106d230648dc{fill:#fefefe;stroke:#414042;stroke-linecap:round;stroke-linejoin:round;stroke-width:1.04px;}</style></defs><path class="f86b4775-78cf-498e-8355-106d230648dc" d="M4.561.52,8.97033,3.23341a8.01,8.01,0,0,0,3.69048,1.17212l3.88945.247q.03991.00253.07992.00254H22.709a1.26127,1.26127,0,0,1,.81146.2957L30.509,10.82409a1.789,1.789,0,0,1,.114,2.63464c-1.21644,1.21643-1.7551.50644-3.17531-.46433L22.4726,9.59367l.48822.3355,3.0755,2.11339,1.52016,1.04461a1.71672,1.71672,0,0,1,.24124,2.66,2.04909,2.04909,0,0,1-2.428.48969q-.80506-.57555-1.61274-1.14747L19.5263,12.07925l3.219,2.28017,2.32213,1.64487c.20572.14573.35477.2247.44816.46486a2.245,2.245,0,0,1-.24726,2.34429,1.50918,1.50918,0,0,1-.97159.49362c-.98831.061-2.07011-.88542-2.86568-1.38034l-5.1698-3.21609,6.733,4.18853a1.28481,1.28481,0,0,1,.22559,1.96278,1.26122,1.26122,0,0,1-1.40857.25867L11.56051,16.51647q-.0451-.02026-.08852-.044L.52,10.48163"/><path class="f86b4775-78cf-498e-8355-106d230648dc" d="M36.04356.52l-7.064,3.39789a.73849.73849,0,0,1-.70223-.03355L26.58566,2.8615a10.1388,10.1388,0,0,0-1.7981-1.00508,5.36076,5.36076,0,0,0-6.28684,2.01212c-.61688.83833-1.33063,2.15143-.46659,3.074A1.63379,1.63379,0,0,0,20.487,6.68288c.348-.51109.51381-1.27493,1.12124-1.55715A1.773,1.773,0,0,1,23.086,5.10378l1.591.81888"/><path class="f86b4775-78cf-498e-8355-106d230648dc" d="M38.95686,12.07925c-.28193.094-13.28585,4.93312-13.28585,4.93312"/><path class="f86b4775-78cf-498e-8355-106d230648dc" d="M14.24063,16.87738a.5603.5603,0,0,1-.53262-.29577c-.0748-.14348-.11379-.30289-.181-.4504-.49983-1.096-2.68824-1.58959-3.42233-.48862l-.02713.04069-.38244-1.05171a1.43287,1.43287,0,0,0-.64413-.75919l-.31522-.17731a1.43289,1.43289,0,0,0-2.13538,1.24887v.27667a1.4329,1.4329,0,0,0,.79209,1.28162l7.11927,3.55963c.80813.40407,1.54879.73448,2.3755.08341a1.78431,1.78431,0,0,0,.55668-.69489,1.4362,1.4362,0,0,0-.30886-1.45964,3.23611,3.23611,0,0,0-1.96038-1.18142c-.54953-.06777-1.60367.15256-1.49382.9153"/></svg>