<svg id="b6684552-7c9d-4737-bcad-50a8618c63f0" data-name="Layer 1" xmlns="http://www.w3.org/2000/svg" xmlns:xlink="http://www.w3.org/1999/xlink" viewBox="0 0 43.30824 43.3533"><defs><style>.a1510c2b-c4aa-4b1e-aed6-c7f820a04bdc,.fcd9e9b2-f2eb-450c-8a06-572ff9da45ef{fill:none;}.a78ab05b-8285-4907-9fae-c4f95cce9f95{clip-path:url(#b1212f69-ae4e-4193-a651-8c58cac86fea);}.a16cb30f-11e0-41d7-9ae3-1e33e6704e5b{clip-path:url(#b032cda1-5cba-4f8b-b576-098a85677b1b);}.a1510c2b-c4aa-4b1e-aed6-c7f820a04bdc{stroke:#414042;stroke-linecap:round;stroke-linejoin:round;stroke-width:1.07px;}</style><clipPath id="b1212f69-ae4e-4193-a651-8c58cac86fea"><rect class="fcd9e9b2-f2eb-450c-8a06-572ff9da45ef" x="-460.47422" y="-1341.76298" width="233.75906" height="493.74709"/></clipPath><clipPath id="b032cda1-5cba-4f8b-b576-098a85677b1b"><rect class="fcd9e9b2-f2eb-450c-8a06-572ff9da45ef" x="-766.86841" y="-1342.82443" width="233.75906" height="493.74709"/></clipPath></defs><path class="a1510c2b-c4aa-4b1e-aed6-c7f820a04bdc" d="M.82468,22.3604,20.95953,10.26523a.9823.9823,0,0,1,1.38918,0L42.48357,22.3604a.98229.98229,0,0,1-.69459,1.67688H1.51926A.98229.98229,0,0,1,.82468,22.3604Z"/><path class="a1510c2b-c4aa-4b1e-aed6-c7f820a04bdc" d="M21.65412,9.97752V7.41009a3.43755,3.43755,0,1,0-3.43754-3.43755"/><path class="a1510c2b-c4aa-4b1e-aed6-c7f820a04bdc" d="M.82468,41.14142,20.95953,29.04625a.9823.9823,0,0,1,1.38918,0L42.48357,41.14142A.98229.98229,0,0,1,41.789,42.8183H1.51926A.98229.98229,0,0,1,.82468,41.14142Z"/><path class="a1510c2b-c4aa-4b1e-aed6-c7f820a04bdc" d="M21.65412,28.75854V26.19111a3.43755,3.43755,0,1,0-3.43754-3.43754"/></svg>