<svg id="bbe9d68d-ddde-4ae5-b327-33f3ae047d56" data-name="Layer 1" xmlns="http://www.w3.org/2000/svg" viewBox="0 0 15.23026 17.02512"><defs><style>.fea4df92-def3-4e1b-b8bc-dce2ee01aead{fill:none;stroke:#fefefe;stroke-linecap:round;stroke-linejoin:round;stroke-width:1.04px;}</style></defs><polygon class="fea4df92-def3-4e1b-b8bc-dce2ee01aead" points="9.052 16.505 0.52 12.049 4.999 1.606 11.534 5.283 9.052 16.505"/><polygon class="fea4df92-def3-4e1b-b8bc-dce2ee01aead" points="14.703 4.488 11.548 5.286 9.052 16.505 12.207 15.707 14.703 4.488"/><polygon class="fea4df92-def3-4e1b-b8bc-dce2ee01aead" points="14.71 4.49 8.175 0.813 4.999 1.606 11.534 5.283 14.71 4.49"/><path class="fea4df92-def3-4e1b-b8bc-dce2ee01aead" d="M6.72068,3.60542s.59718-2.46753,1.777-1.63653c1.35362.95343.7717,2.92716.7717,2.92716"/><path class="fea4df92-def3-4e1b-b8bc-dce2ee01aead" d="M9.8547,1.688S10.10444.19384,10.86893.58543s1.45569,1.92409,1.06866,2.45946"/><path class="fea4df92-def3-4e1b-b8bc-dce2ee01aead" d="M9.05185,16.50512a18.76317,18.76317,0,0,1,1.89974-2.36069l1.62255-8.86138"/><line class="fea4df92-def3-4e1b-b8bc-dce2ee01aead" x1="10.95159" y1="14.14443" x2="12.20743" y2="15.70693"/></svg>