<svg id="b0f8093b-97d9-47e8-a00d-e5f0821c377c" data-name="Layer 1" xmlns="http://www.w3.org/2000/svg" viewBox="0 0 16.92732 16.07906"><defs><style>.e5ae8f29-51e3-47d7-afbe-66d67c74f0d1{fill:none;stroke:#fefefe;stroke-linecap:round;stroke-linejoin:round;stroke-width:1.04px;}</style></defs><path class="e5ae8f29-51e3-47d7-afbe-66d67c74f0d1" d="M10.08354,4.283C8.63765,5.72892,1.87389,5.63692.52,4.283L.81126,10.7773c0,2.64089,3.10351,4.78176,4.49051,4.78176h0c1.387,0,4.49051-2.14087,4.49051-4.78176Z"/><path class="e5ae8f29-51e3-47d7-afbe-66d67c74f0d1" d="M3.27549,11.445s2.17607,1.87649,4.05256,0C7.32805,11.445,5.46878,15.96055,3.27549,11.445Z"/><path class="e5ae8f29-51e3-47d7-afbe-66d67c74f0d1" d="M3.91477,8.9162a1.1145,1.1145,0,0,0-1.6222,0"/><path class="e5ae8f29-51e3-47d7-afbe-66d67c74f0d1" d="M8.311,8.9162a1.1145,1.1145,0,0,0-1.6222,0"/><path class="e5ae8f29-51e3-47d7-afbe-66d67c74f0d1" d="M9.68879,11.60666a5.17031,5.17031,0,0,0,3.237.93329h0c1.35716-.28613,3.95225-3.02119,3.40745-5.60528L15.27852.52C14.162,2.23307,7.52476,3.53839,5.95244,2.61589L6.621,5.20582"/><path class="e5ae8f29-51e3-47d7-afbe-66d67c74f0d1" d="M14.42461,9.512s-2.51637-1.38721-3.96538.836C10.45923,10.348,11.347,5.546,14.42461,9.512Z"/><path class="e5ae8f29-51e3-47d7-afbe-66d67c74f0d1" d="M12.83731,5.39684a1.11449,1.11449,0,0,0,1.5873-.33466"/></svg>