<svg id="b151cd3a-fb76-437a-897a-85c6613f3bee" data-name="Layer 1" xmlns="http://www.w3.org/2000/svg" viewBox="0 0 16.94014 14.87511"><defs><style>.b0f50ac9-6f3f-4985-a0ff-9566a650374c,.f205ce55-e7f7-40e5-9247-98278e9ecbf1{fill:none;stroke:#fefefe;}.f205ce55-e7f7-40e5-9247-98278e9ecbf1{stroke-linecap:round;stroke-linejoin:round;stroke-width:1.04px;}.b0f50ac9-6f3f-4985-a0ff-9566a650374c{stroke-miterlimit:10;stroke-width:0.5px;}</style></defs><ellipse class="f205ce55-e7f7-40e5-9247-98278e9ecbf1" cx="8.47007" cy="12.64818" rx="7.95007" ry="1.70693"/><ellipse class="b0f50ac9-6f3f-4985-a0ff-9566a650374c" cx="8.47007" cy="12.64818" rx="5.57358" ry="0.69435"/><path class="f205ce55-e7f7-40e5-9247-98278e9ecbf1" d="M15.64943,9.79447c-.21253.66962-3.1507.33271-6.553-.74715C5.68753,7.96533,3.0928,6.54611,3.30534,5.87649A6.48422,6.48422,0,0,1,10.37448,1.948a6.17983,6.17983,0,0,1,1.77882.5646A6.48375,6.48375,0,0,1,15.64943,9.79447Z"/><rect class="f205ce55-e7f7-40e5-9247-98278e9ecbf1" x="10.99782" y="1.15921" width="1.05365" height="1.05365" transform="translate(1.05009 -3.40748) rotate(17.6093)"/><ellipse class="f205ce55-e7f7-40e5-9247-98278e9ecbf1" cx="11.76124" cy="0.94061" rx="0.23266" ry="1.18119" transform="matrix(0.30252, -0.95314, 0.95314, 0.30252, 7.30664, 11.86618)"/></svg>