<?xml version="1.0" encoding="utf-8"?>
<!-- Generator: Adobe Illustrator 24.1.2, SVG Export Plug-In . SVG Version: 6.00 Build 0)  -->
<svg version="1.1" id="f0fad023-d95d-431a-80fb-7fdb153a93ba"
	 xmlns="http://www.w3.org/2000/svg" xmlns:xlink="http://www.w3.org/1999/xlink" x="0px" y="0px" viewBox="0 0 36.2 36.2"
	 style="enable-background:new 0 0 36.2 36.2;" xml:space="preserve">
<style type="text/css">
	.st0{fill:none;stroke:#414042;stroke-width:1.07;stroke-linecap:round;stroke-linejoin:round;}
	.st1{fill:none;stroke:#414042;stroke-width:0.75;stroke-miterlimit:10;}
	.st2{fill:#FEFEFE;stroke:#414042;stroke-width:1.07;stroke-linecap:round;stroke-linejoin:round;}
</style>
<ellipse class="st0" cx="17.8" cy="26.1" rx="13.7" ry="2.9"/>
<ellipse class="st1" cx="17.8" cy="26.1" rx="9.6" ry="1.2"/>
<path class="st0" d="M30.1,21.2c-0.4,1.2-5.4,0.6-11.3-1.3c-5.9-1.9-10.3-4.3-9.9-5.4c2-4.8,7-7.6,12.1-6.7c1.1,0.2,2.1,0.5,3.1,1
	C28.8,10.9,31.3,16.1,30.1,21.2z"/>
<rect x="22.1" y="6.4" transform="matrix(0.3025 -0.9531 0.9531 0.3025 9.1248 27.0069)" class="st0" width="1.8" height="1.8"/>
<ellipse transform="matrix(0.3025 -0.9531 0.9531 0.3025 10.6286 26.5012)" class="st2" cx="23.4" cy="6" rx="0.4" ry="2"/>
</svg>
