<?xml version="1.0" encoding="utf-8"?>
<!-- Generator: Adobe Illustrator 24.1.2, SVG Export Plug-In . SVG Version: 6.00 Build 0)  -->
<svg version="1.1" id="bfe1add7-1340-4196-a1d8-eca543bb28e9"
	 xmlns="http://www.w3.org/2000/svg" xmlns:xlink="http://www.w3.org/1999/xlink" x="0px" y="0px" viewBox="0 0 36.2 36.2"
	 style="enable-background:new 0 0 36.2 36.2;" xml:space="preserve">
<style type="text/css">
	.st0{fill:none;stroke:#FEFEFE;stroke-width:1.07;stroke-linecap:round;stroke-linejoin:round;}
	.st1{fill:#FEFEFE;}
</style>
<path class="st0" d="M26.7,23.2h2.1c0.4,0,0.7-0.3,0.7-0.7l0,0V10.3c0-3.4-2.7-3.3-2.7-3.3"/>
<path class="st0" d="M9.5,23.2h-2c-0.4,0-0.7-0.3-0.7-0.7l0,0V10.3C6.8,6.9,9.5,7,9.5,7"/>
<path class="st0" d="M26.7,7.7v20.7c0,0.4-0.3,0.7-0.7,0.7c0,0,0,0,0,0H10.2c-0.4,0-0.7-0.3-0.7-0.7l0,0V7.7C9.5,7.3,9.8,7,10.2,7
	c0,0,0,0,0,0h3.8c0.2,0,0.4,0.1,0.5,0.2l3.2,3.2c0.3,0.3,0.7,0.3,1,0l3.2-3.2C21.9,7.1,22,7,22.2,7H26C26.4,7,26.7,7.3,26.7,7.7z"/>
<path class="st0" d="M18.1,10.9L22.7,9l-0.4-1c-0.1-0.3-0.5-0.5-0.9-0.4c-0.1,0-0.2,0.1-0.2,0.1L18.1,10.9z"/>
<path class="st0" d="M18.1,10.9l-4-1.7c-0.3-0.1-0.5-0.5-0.4-0.9c0,0,0,0,0,0L13.8,8c0.1-0.3,0.5-0.5,0.9-0.4c0.1,0,0.2,0.1,0.2,0.1
	L18.1,10.9z"/>
<line class="st0" x1="18.1" y1="10.9" x2="18.1" y2="29.1"/>
<path class="st0" d="M20.9,13.2h3.4c0.3,0,0.5,0.2,0.5,0.5V17c0,0.3-0.2,0.5-0.5,0.5h-3.4c-0.3,0-0.5-0.2-0.5-0.5v-3.4
	C20.4,13.4,20.6,13.2,20.9,13.2z"/>
<path class="st0" d="M11.9,13.2h2.9c0.4,0,0.7,0.3,0.7,0.7v2.9c0,0.4-0.3,0.7-0.7,0.7h-2.9c-0.4,0-0.7-0.3-0.7-0.7v-2.9
	C11.2,13.5,11.6,13.2,11.9,13.2z"/>
<circle class="st1" cx="16.8" cy="14.4" r="0.5"/>
<circle class="st1" cx="16.8" cy="18.5" r="0.5"/>
<circle class="st1" cx="16.8" cy="22" r="0.5"/>
<circle class="st1" cx="16.8" cy="25.4" r="0.5"/>
</svg>
