<svg id="b34f7b18-d23e-4805-b4f2-60d1b9b0393b" data-name="Layer 1" xmlns="http://www.w3.org/2000/svg" xmlns:xlink="http://www.w3.org/1999/xlink" viewBox="0 0 16.16027 13.91805"><defs><style>.b30d508c-0ea5-4289-a8f3-9b0463c3f326{fill:none;}.f8a0f166-dac2-4c5c-864b-c89c479a2edb{clip-path:url(#ea3dab50-1efa-498a-bf15-3e396cf84808);}.a917100c-c898-4886-8a64-80134507ed39{clip-path:url(#ab1800ac-d4e7-4224-8bb0-4c9095473487);}.a30c8fb7-cc3a-4d03-8f08-6811f22bedc9{fill:url(#ae0ec224-a832-4c5c-b464-c9344cb744f9);}.ac7041cb-fd23-4bf4-bf27-3412cf09cd31{fill:url(#a480062e-1157-4d59-9a5d-694946fd6b71);}.a9b3bb0f-beb5-47ec-b6f9-6dc99a83d9e5{fill:url(#bee0c979-4884-4ad8-8487-3f63e9a4b9d3);}</style><clipPath id="ea3dab50-1efa-498a-bf15-3e396cf84808"><rect class="b30d508c-0ea5-4289-a8f3-9b0463c3f326" x="-724.20818" y="-1585.1702" width="233.75906" height="493.74709"/></clipPath><clipPath id="ab1800ac-d4e7-4224-8bb0-4c9095473487"><rect class="b30d508c-0ea5-4289-a8f3-9b0463c3f326" x="-398.53952" y="-1586.23165" width="233.75906" height="493.74709"/></clipPath><linearGradient id="ae0ec224-a832-4c5c-b464-c9344cb744f9" x1="5.43168" y1="12.96862" x2="5.43168" y2="5.98073" gradientUnits="userSpaceOnUse"><stop offset="0.00505" stop-color="#0168ff"/><stop offset="0.99242" stop-color="#01a2e6"/></linearGradient><linearGradient id="a480062e-1157-4d59-9a5d-694946fd6b71" x1="12.46275" y1="12.96862" x2="12.46275" y2="5.98073" xlink:href="#ae0ec224-a832-4c5c-b464-c9344cb744f9"/><linearGradient id="bee0c979-4884-4ad8-8487-3f63e9a4b9d3" x1="3.17659" y1="12.96862" x2="3.17659" y2="5.98073" xlink:href="#ae0ec224-a832-4c5c-b464-c9344cb744f9"/></defs><path class="a30c8fb7-cc3a-4d03-8f08-6811f22bedc9" d="M5.83809,8.96393l2.35955-4.1764.00734.013-.0051-.01683.206-.36451.7356-1.2827L9.136,3.12675l1.07791-1.90791A.817.817,0,0,0,8.7914.415L8.19764,1.466,7.60389.415a.817.817,0,0,0-1.42253.8038l1.078,1.90791L3.96141,8.96393H.81688a.81689.81689,0,0,0,0,1.63377H3.03835l-.01077.01906,1.88091-.00758L4.915,10.5977h5.94842a7.10967,7.10967,0,0,0-.33689-1.63377Z"/><path class="ac7041cb-fd23-4bf4-bf27-3412cf09cd31" d="M15.34339,8.96393H12.434L9.14911,3.15A8.69839,8.69839,0,0,0,8.76523,5.792l1.79212,3.17189h-.02106l.937,1.63377h.0071l1.64142,2.9052a.817.817,0,1,0,1.42253-.8038L13.3571,10.5977h1.98629a.81689.81689,0,0,0,0-1.63377Z"/><path class="a9b3bb0f-beb5-47ec-b6f9-6dc99a83d9e5" d="M1.85107,12.6991a.817.817,0,1,0,1.42253.8038l1.3343-2.3616a12.071,12.071,0,0,0-1.596-.49685Z"/></svg>