<svg id="bade29ed-a2f7-457a-a950-ca97ffdbdb3e" data-name="Layer 1" xmlns="http://www.w3.org/2000/svg" xmlns:xlink="http://www.w3.org/1999/xlink" viewBox="0 0 14.09313 14.29269"><defs><style>.b779027f-e3af-47a7-899e-c52f8a1b0e77,.e4652b61-d81b-49c8-8361-d5679a1a8662{fill:none;}.b7f776f1-b542-4b20-aff7-1e6dec2f7944{clip-path:url(#af2781a8-db9b-410f-b99c-a939c78bc878);}.b54aecb8-69ed-4839-a1bc-067afd70d7cf{clip-path:url(#f270bc6d-75cd-4314-ab4a-655c84513259);}.fdd833c0-6d6c-4788-92d6-6e8bc7b06dc7{fill:#fff;}.b779027f-e3af-47a7-899e-c52f8a1b0e77{stroke:#fff;stroke-linecap:round;stroke-linejoin:round;stroke-width:3px;}</style><clipPath id="af2781a8-db9b-410f-b99c-a939c78bc878"><rect class="e4652b61-d81b-49c8-8361-d5679a1a8662" x="-722.49267" y="-1449.8466" width="233.75906" height="493.74709"/></clipPath><clipPath id="f270bc6d-75cd-4314-ab4a-655c84513259"><rect class="e4652b61-d81b-49c8-8361-d5679a1a8662" x="-396.82401" y="-1450.90805" width="233.75906" height="493.74709"/></clipPath></defs><path class="fdd833c0-6d6c-4788-92d6-6e8bc7b06dc7" d="M3.30407,0H4.47715a.567.567,0,0,1,.567.567V4.46261a.567.567,0,0,1-.567.567H.58151a.567.567,0,0,1-.567-.567V3.28953A3.28953,3.28953,0,0,1,3.30407,0Z"/><path class="fdd833c0-6d6c-4788-92d6-6e8bc7b06dc7" d="M12.35307,9.26311h1.17309a.567.567,0,0,1,.567.567v3.89565a.567.567,0,0,1-.567.567H9.63051a.567.567,0,0,1-.567-.567V12.55264a3.28953,3.28953,0,0,1,3.28953-3.28953Z" transform="translate(23.15667 23.5558) rotate(180)"/><path class="b779027f-e3af-47a7-899e-c52f8a1b0e77" d="M1.5,3.34342c0,9.73305,8.29564,9.445,8.29564,9.445"/></svg>