<?xml version="1.0" encoding="utf-8"?>
<!-- Generator: Adobe Illustrator 24.1.2, SVG Export Plug-In . SVG Version: 6.00 Build 0)  -->
<svg version="1.1" id="e6c54418-e74b-450f-89bd-cd33c26edede"
	 xmlns="http://www.w3.org/2000/svg" xmlns:xlink="http://www.w3.org/1999/xlink" x="0px" y="0px" viewBox="0 0 36.2 36.2"
	 style="enable-background:new 0 0 36.2 36.2;" xml:space="preserve">
<style type="text/css">
	.st0{fill:none;stroke:#FEFEFE;stroke-width:1.07;stroke-linecap:round;stroke-linejoin:round;}
	.st1{fill:none;stroke:#FEFEFE;stroke-width:2;stroke-linecap:round;stroke-linejoin:round;}
</style>
<path class="st0" d="M15.4,5.8H21c0.3,0,0.6,0.3,0.6,0.6v3.5l0,0h-6.8l0,0V6.4C14.8,6.1,15.1,5.8,15.4,5.8z"/>
<path class="st0" d="M8,9.9h20.2c1.3,0,2.3,1,2.3,2.3v13.4c0,1.3-1,2.3-2.3,2.3H8c-1.3,0-2.3-1-2.3-2.3V12.2C5.7,10.9,6.7,9.9,8,9.9
	z"/>
<line class="st1" x1="14.8" y1="18.9" x2="21.6" y2="18.9"/>
<line class="st1" x1="18.2" y1="15.5" x2="18.2" y2="22.3"/>
</svg>
