<?xml version="1.0" encoding="utf-8"?>
<!-- Generator: Adobe Illustrator 24.1.2, SVG Export Plug-In . SVG Version: 6.00 Build 0)  -->
<svg version="1.1" id="e6d2dfcf-f5d3-4cb9-b2d5-4c814031153e"
	 xmlns="http://www.w3.org/2000/svg" xmlns:xlink="http://www.w3.org/1999/xlink" x="0px" y="0px" viewBox="0 0 36.2 36.2"
	 style="enable-background:new 0 0 36.2 36.2;" xml:space="preserve">
<style type="text/css">
	.st0{fill:none;stroke:#FEFEFE;stroke-width:1.07;stroke-linecap:round;stroke-linejoin:round;}
</style>
<polyline class="st0" points="20.2,13.5 20.2,13.5 20.2,28.4 9.7,28.4 9.7,21.7 "/>
<polyline class="st0" points="9.7,13.8 9.7,13.5 10.1,13.5 "/>
<polyline class="st0" points="30.6,13.5 30.6,28.4 20.2,28.4 20.2,13.5 "/>
<polyline class="st0" points="28.7,12.8 30.6,12.6 30.6,27.5 20.2,28.4 20.2,13.5 "/>
<polygon class="st0" points="28.6,26.2 20.2,28.4 20.2,13.5 28.6,11.3 "/>
<polyline class="st0" points="10.7,12.7 9.7,12.6 9.7,13.8 "/>
<polyline class="st0" points="9.7,22 9.7,27.5 20.2,28.4 20.2,13.5 14.3,13 "/>
<path class="st0" d="M9.8,21.5l-0.7,0.7c-1.2,1.2-3.1,1.2-4.3,0c0,0,0,0,0,0L4,21.4l-0.9-0.9c-1.2-1.2-1.2-3.1,0-4.3c0,0,0,0,0,0
	l0.7-0.7"/>
<path class="st0" d="M9.8,17.4c1,1.4,1.2,3,0.4,3.8c-1,1-3.1,0.4-4.8-1.2c-1.7-1.7-2.2-3.8-1.2-4.8c0.8-0.8,2.4-0.6,3.9,0.4"/>
<path class="st0" d="M13.4,10.2l1.7,1.7l0,0l-6.7,6.7c-0.2,0.2-0.5,0.2-0.7,0l-1-1c-0.2-0.2-0.2-0.5,0-0.7L13.4,10.2
	C13.4,10.2,13.4,10.2,13.4,10.2z"/>
<path class="st0" d="M20.2,11.2l-0.7,0.7c-1.2,1.2-3.1,1.2-4.3,0c0,0,0,0,0,0L14.3,11l-0.9-0.9c-1.2-1.2-1.2-3.1,0-4.3c0,0,0,0,0,0
	l0.7-0.7"/>
<ellipse transform="matrix(0.7071 -0.7071 0.7071 0.7071 -0.3963 14.6695)" class="st0" cx="17.5" cy="7.8" rx="2.5" ry="4.3"/>
</svg>
