<?xml version="1.0" encoding="utf-8"?>
<!-- Generator: Adobe Illustrator 24.1.2, SVG Export Plug-In . SVG Version: 6.00 Build 0)  -->
<svg version="1.1" id="e6d2dfcf-f5d3-4cb9-b2d5-4c814031153e"
	 xmlns="http://www.w3.org/2000/svg" xmlns:xlink="http://www.w3.org/1999/xlink" x="0px" y="0px" viewBox="0 0 36.2 36.2"
	 style="enable-background:new 0 0 36.2 36.2;" xml:space="preserve">
<style type="text/css">
	.st0{clip-path:url(#SVGID_2_);}
	.st1{fill:#FEFEFE;stroke:#414042;stroke-width:1.07;stroke-linecap:round;stroke-linejoin:round;}
	.st2{fill:none;stroke:#414042;stroke-width:1.07;stroke-linecap:round;stroke-linejoin:round;}
	.st3{clip-path:url(#SVGID_4_);}
	.st4{fill:#FEFEFE;}
	.st5{fill:#414042;}
	.st6{fill:#01A2E6;}
	.st7{fill:none;stroke:#01A2E6;stroke-width:2;stroke-linecap:round;stroke-linejoin:round;}
</style>
<g>
	<defs>
		<rect id="SVGID_1_" x="-463.9" y="-1331.9" width="233.8" height="493.7"/>
	</defs>
	<clipPath id="SVGID_2_">
		<use xlink:href="#SVGID_1_"  style="overflow:visible;"/>
	</clipPath>
	<g class="st0">
		<polygon class="st1" points="12.1,3.5 -5.7,0.5 -3.8,-20.7 10,-17.9 		"/>
		<polygon class="st1" points="15.2,-21.2 10,-17.9 12.1,3.5 17.3,0.3 		"/>
		<polygon class="st1" points="12.6,41.7 -5.2,38.7 -3.3,17.4 10.5,20.2 		"/>
		<polygon class="st1" points="15.7,16.9 10.6,20.2 12.6,41.7 17.8,38.4 		"/>
		<polygon class="st1" points="15.8,16.9 1.9,14.2 -3.3,17.4 10.5,20.2 		"/>
		<path class="st2" d="M0.1,20l0.3-1.2c0.2-1.8,1.6-3.1,3.4-3.1l0,0c1.9,0,3.4,1.5,3.4,3.4c0,0.1,0,0.1,0,0.2l-0.2,2"/>
		<path class="st2" d="M5.3,15.2L5.6,14c0.2-1.8,1.6-3.1,3.4-3.1l0,0c1.9,0,3.4,1.5,3.4,3.4c0,0.1,0,0.1,0,0.2l-0.2,2"/>
	</g>
</g>
<g>
	<defs>
		<rect id="SVGID_3_" x="-138.2" y="-1333" width="233.8" height="493.7"/>
	</defs>
	<clipPath id="SVGID_4_">
		<use xlink:href="#SVGID_3_"  style="overflow:visible;"/>
	</clipPath>
	<g class="st3">
		<rect x="-138.6" y="-1333" class="st4" width="233.8" height="1690.5"/>
		<rect x="-138.6" y="-25.9" class="st5" width="233.8" height="383.5"/>
		<path class="st6" d="M2.3,21.9c0.2-1.1,0.5-2.2,0.9-3.3c0.4,0.1,0.7,0.1,1.1,0.1c1,0,1.6-0.6,1.6-1.7v-6.7H2.7V6.8h11
			c1.3-0.1,2.5,0.4,3.5,1.3c0.9,0.9,1.3,2.2,1.2,3.5v10.1L14.6,22v-9.9c0-0.5-0.1-0.9-0.4-1.3c-0.3-0.3-0.8-0.5-1.2-0.5H9.7v7.3
			c0.1,1.2-0.3,2.5-1.1,3.4c-1,0.8-2.2,1.2-3.5,1.1C4.1,22.2,3.2,22.1,2.3,21.9z"/>
		<path class="st6" d="M23.7,10.3h-2.7V6.8h6.6v14.9L23.7,22V10.3z"/>
		<path class="st6" d="M37.1,10.3h-6.8V6.8h13.3l-0.4,3.5H41v11.4L37.1,22L37.1,10.3z"/>
		<line class="st7" x1="68.8" y1="32.6" x2="34.7" y2="32.6"/>
		<line class="st7" x1="19.8" y1="32.6" x2="19.8" y2="32.6"/>
		<line class="st7" x1="24.2" y1="32.6" x2="30.2" y2="32.6"/>
	</g>
</g>
<rect x="9.7" y="13.5" class="st1" width="10.5" height="14.9"/>
<rect x="20.2" y="13.5" class="st1" width="10.5" height="14.9"/>
<polygon class="st1" points="30.6,27.5 20.2,28.4 20.2,13.5 30.6,12.6 "/>
<polygon class="st1" points="28.6,26.2 20.2,28.4 20.2,13.5 28.6,11.3 "/>
<polygon class="st1" points="9.7,27.5 20.2,28.4 20.2,13.5 9.7,12.6 "/>
<path class="st1" d="M4.8,22.2L4,21.4l-0.9-0.9c-1.2-1.2-1.2-3.1,0-4.3c0,0,0,0,0,0l0.7-0.7l6,6l-0.7,0.7C7.9,23.4,6,23.4,4.8,22.2
	C4.8,22.2,4.8,22.2,4.8,22.2z"/>
<ellipse transform="matrix(0.7071 -0.7071 0.7071 0.7071 -10.7104 10.3972)" class="st1" cx="7.2" cy="18.1" rx="2.5" ry="4.3"/>
<path class="st1" d="M13.4,10.2l1.7,1.7l0,0l-6.7,6.7c-0.2,0.2-0.5,0.2-0.7,0l-1-1c-0.2-0.2-0.2-0.5,0-0.7L13.4,10.2
	C13.4,10.2,13.4,10.2,13.4,10.2z"/>
<path class="st1" d="M15.1,11.9L14.3,11l-0.9-0.9c-1.2-1.2-1.2-3.1,0-4.3c0,0,0,0,0,0l0.7-0.7l6,6l-0.7,0.7
	C18.3,13.1,16.3,13.1,15.1,11.9C15.1,11.9,15.1,11.9,15.1,11.9z"/>
<ellipse transform="matrix(0.7071 -0.7071 0.7071 0.7071 -0.3963 14.6695)" class="st1" cx="17.5" cy="7.8" rx="2.5" ry="4.3"/>
</svg>
