<svg id="bacb3548-a9c7-4dc9-ab7b-f4d399dc89f0" data-name="Layer 1" xmlns="http://www.w3.org/2000/svg" viewBox="0 0 16.94014 14.87511"><defs><style>.aa266299-7ab0-46c9-8ab8-403cee2ecdf0,.bdda1771-9ca7-4e70-a2e1-1d31e6cf5d02{fill:none;stroke:#414042;}.aa266299-7ab0-46c9-8ab8-403cee2ecdf0{stroke-linecap:round;stroke-linejoin:round;stroke-width:1.04px;}.bdda1771-9ca7-4e70-a2e1-1d31e6cf5d02{stroke-miterlimit:10;stroke-width:0.5px;}</style></defs><ellipse class="aa266299-7ab0-46c9-8ab8-403cee2ecdf0" cx="8.47007" cy="12.64818" rx="7.95007" ry="1.70693"/><ellipse class="bdda1771-9ca7-4e70-a2e1-1d31e6cf5d02" cx="8.47007" cy="12.64818" rx="5.57358" ry="0.69435"/><path class="aa266299-7ab0-46c9-8ab8-403cee2ecdf0" d="M15.64943,9.79447c-.21253.66962-3.1507.33271-6.553-.74715C5.68753,7.96533,3.0928,6.54611,3.30534,5.87649A6.48422,6.48422,0,0,1,10.37448,1.948a6.17983,6.17983,0,0,1,1.77882.5646A6.48375,6.48375,0,0,1,15.64943,9.79447Z"/><rect class="aa266299-7ab0-46c9-8ab8-403cee2ecdf0" x="10.99782" y="1.15921" width="1.05365" height="1.05365" transform="translate(1.05009 -3.40748) rotate(17.6093)"/><ellipse class="aa266299-7ab0-46c9-8ab8-403cee2ecdf0" cx="11.76124" cy="0.94061" rx="0.23266" ry="1.18119" transform="matrix(0.30252, -0.95314, 0.95314, 0.30252, 7.30664, 11.86618)"/></svg>