<svg id="f0299e3e-8354-4ca4-a128-16529ed2302d" data-name="Layer 1" xmlns="http://www.w3.org/2000/svg" viewBox="0 0 16.49481 14.95783"><defs><style>.a3a568ee-6211-4a7f-a880-e13142b69367{fill:none;stroke:#414042;stroke-linecap:round;stroke-linejoin:round;stroke-width:1.04px;}</style></defs><path class="a3a568ee-6211-4a7f-a880-e13142b69367" d="M7.24336,7.35154a3.20544,3.20544,0,0,0-.75863-2.05872V4.95136C6.48473,3.59611,5.3861.52,4.03085.52S1.577,3.59611,1.577,4.95136v.28625A3.208,3.208,0,0,0,.77276,7.35154L.53256,9.093a1.31424,1.31424,0,0,0,1.30192,1.49382H6.21612a1.31426,1.31426,0,0,0,1.29817-1.5192Z"/><line class="a3a568ee-6211-4a7f-a880-e13142b69367" x1="4.02533" y1="7.92102" x2="4.02533" y2="14.43783"/><path class="a3a568ee-6211-4a7f-a880-e13142b69367" d="M15.97481,10.207c0-1.05774-.85746-5.62006-1.91519-5.62006S12.14443,9.14925,12.14443,10.207a1.91519,1.91519,0,1,0,3.83038,0Z"/><line class="a3a568ee-6211-4a7f-a880-e13142b69367" x1="14.05962" y1="10.58682" x2="14.05962" y2="14.43783"/><line class="a3a568ee-6211-4a7f-a880-e13142b69367" x1="4.02533" y1="14.43783" x2="15.97481" y2="14.43783"/></svg>