<svg id="a8436778-52e5-43bf-b927-3520d28aff92" data-name="Layer 1" xmlns="http://www.w3.org/2000/svg" xmlns:xlink="http://www.w3.org/1999/xlink" viewBox="0 0 19.31274 19.5717"><defs><style>.ad7c0f4a-7602-47c3-b3d8-b54955e9f423,.b3ab1cf4-3349-487b-967f-3c005deab86f{fill:none;}.e5b85dc3-0dd8-44bb-b4c9-d9a43620c877{clip-path:url(#bd4d758f-a6d9-4904-a198-fd57fcbb4a4c);}.ad7c0f4a-7602-47c3-b3d8-b54955e9f423{stroke:#414042;stroke-linecap:round;stroke-linejoin:round;stroke-width:1.07px;}</style><clipPath id="bd4d758f-a6d9-4904-a198-fd57fcbb4a4c"><rect class="b3ab1cf4-3349-487b-967f-3c005deab86f" x="-464.7808" y="-1524.04105" width="233.75906" height="493.74709"/></clipPath></defs><path class="ad7c0f4a-7602-47c3-b3d8-b54955e9f423" d="M18.77774,4.85934c0,.285,0,.56977-.013.85457V4.7947A.1163.1163,0,0,1,18.77774,4.85934Z"/><path class="ad7c0f4a-7602-47c3-b3d8-b54955e9f423" d="M18.76478,4.7947v.91921c-.013.285-.02592.5568-.05184.82864.013.013,0,.013,0,.02592a13.47968,13.47968,0,0,1-3.8453,9.02421,13.07357,13.07357,0,0,1-8.41573,3.43106.48509.48509,0,0,1-.1424.013H4.79462A4.25483,4.25483,0,0,1,.535,14.777V13.26211a.72675.72675,0,0,1,.725-.73793H6.30951a.73764.73764,0,0,1,.738.73793v1.82576a8.9993,8.9993,0,0,0,5.153-2.31761,9.30561,9.30561,0,0,0,2.55058-5.72275H12.659a.735.735,0,0,1-.725-.73792V1.26012A.72387.72387,0,0,1,12.659.535h1.84611a4.24288,4.24288,0,0,1,4.23379,3.936A1.36513,1.36513,0,0,1,18.76478,4.7947Z"/><path class="ad7c0f4a-7602-47c3-b3d8-b54955e9f423" d="M18.76478,5.71391v.59568a.50748.50748,0,0,1-.05184.233C18.73886,6.27071,18.75182,5.99887,18.76478,5.71391Z"/></svg>