<svg id="a5a45214-f8e2-491d-935d-cafe8b486b66" data-name="Layer 1" xmlns="http://www.w3.org/2000/svg" xmlns:xlink="http://www.w3.org/1999/xlink" viewBox="0 0 12.81607 14.63338"><defs><style>.bc6688c8-fe91-4d3d-a4b3-6edc34c84aad{fill:none;}.b20b4157-f848-4806-8b60-f2719034e1a0{clip-path:url(#ebc05999-13d9-408a-83b4-b3aebd49a648);}.af5e52d4-a651-4911-8877-52dd1a8b9b5a{clip-path:url(#b5830bc4-e59f-4a7f-96b4-23211f4e8a20);}.bab888c5-35ad-45d7-a856-9a7ab6936d45{fill:#00bbe7;}.fb4642a2-5587-4aaa-aeab-bc88e921600c{clip-path:url(#b4eef45e-362b-4a78-8402-6259fa8c82bb);}.a0e0573c-1100-4177-ae84-4cb1dc716c0d{fill:#ee5b5b;}.a761846f-9773-45b3-a83c-f748b4da65aa{fill:#eebd78;}.b91d4e04-281f-4b4b-8380-1ac4d72d9d07{fill:#1aa36d;}</style><clipPath id="ebc05999-13d9-408a-83b4-b3aebd49a648"><rect class="bc6688c8-fe91-4d3d-a4b3-6edc34c84aad" x="-617.78343" y="-1579.85916" width="233.75906" height="493.74709"/></clipPath><clipPath id="b5830bc4-e59f-4a7f-96b4-23211f4e8a20"><rect class="bc6688c8-fe91-4d3d-a4b3-6edc34c84aad" x="-292.11477" y="-1580.92061" width="233.75906" height="493.74709"/></clipPath><clipPath id="b4eef45e-362b-4a78-8402-6259fa8c82bb"><path class="bc6688c8-fe91-4d3d-a4b3-6edc34c84aad" d="M12.38264,6.51959,1.4.17874A.93331.93331,0,0,0,0,.987v12.6817a.93331.93331,0,0,0,1.4.80827L12.38264,8.13613A.93331.93331,0,0,0,12.38264,6.51959Z"/></clipPath></defs><path class="bab888c5-35ad-45d7-a856-9a7ab6936d45" d="M12.38264,6.51959,1.4.17874A.93331.93331,0,0,0,0,.987v12.6817a.93331.93331,0,0,0,1.4.80827L12.38264,8.13613A.93331.93331,0,0,0,12.38264,6.51959Z"/><g class="fb4642a2-5587-4aaa-aeab-bc88e921600c"><polygon class="a0e0573c-1100-4177-ae84-4cb1dc716c0d" points="0.27 15.127 11.773 2.582 18.105 8.251 0.27 15.127"/><polygon class="a761846f-9773-45b3-a83c-f748b4da65aa" points="0 -0.63 13.263 12.596 18.105 5.313 0 -0.63"/><polygon class="b91d4e04-281f-4b4b-8380-1ac4d72d9d07" points="-0.881 -0.919 7.688 7.037 11.313 3.084 -0.881 -0.919"/></g></svg>