<svg id="b1569f15-d8bb-435a-9dd6-1d6e73defdb3" data-name="Layer 1" xmlns="http://www.w3.org/2000/svg" viewBox="0 0 15.92707 15.92702"><defs><style>.fbc5a543-1f79-4e3f-ab28-07a835e3e91e,.fd1c51df-6e8b-4073-beac-77d8360a7ecb{fill:#fff;}.fd1c51df-6e8b-4073-beac-77d8360a7ecb{stroke:#414042;stroke-linecap:round;stroke-linejoin:round;stroke-width:1.28367px;}.bcb4fb07-6fab-4213-83c0-fb48e5553edc{fill:#414042;}</style></defs><rect class="fd1c51df-6e8b-4073-beac-77d8360a7ecb" x="0.64183" y="1.42911" width="11.60914" height="8.25539"/><rect class="fd1c51df-6e8b-4073-beac-77d8360a7ecb" x="3.56562" y="4.43889" width="11.60914" height="8.25539"/><path class="fbc5a543-1f79-4e3f-ab28-07a835e3e91e" d="M12.39874,14.56186a.86234.86234,0,0,1-.81006-.56933L10.4002,10.71616a.8618.8618,0,0,1,.80762-1.15625,1.27282,1.27282,0,0,1,.29541.05273L14.782,10.8021a.86005.86005,0,0,1,.31494,1.417c-.00342.00391-.12842.125-.26807.26172l.06445.06445a.84905.84905,0,0,1,.001,1.19629l-.36523.36524a.84758.84758,0,0,1-1.19629,0l-.06494-.06543c-.13575.13867-.2544.26171-.25489.26171A.85989.85989,0,0,1,12.39874,14.56186Z"/><path class="bcb4fb07-6fab-4213-83c0-fb48e5553edc" d="M11.20806,10.13828a.28814.28814,0,0,1,.0979.01758l3.27881,1.189a.2832.2832,0,0,1,.10352.46631s-.68311.66284-.67286.6731l.46924.46924a.26928.26928,0,0,1,0,.38037l-.36377.36352a.26876.26876,0,0,1-.38037,0l-.46924-.46924h-.00024c-.01978,0-.67261.6731-.67261.6731a.28295.28295,0,0,1-.46631-.10376l-1.18921-3.27881a.28417.28417,0,0,1,.26514-.38037m0-1.15552A1.43943,1.43943,0,0,0,9.85625,10.911L11.046,14.1915a1.44314,1.44314,0,0,0,1.353.94824,1.4264,1.4264,0,0,0,.9292-.34106,1.42636,1.42636,0,0,0,1.60986-.28442l.36328-.363a1.42878,1.42878,0,0,0,.28345-1.61108,1.437,1.437,0,0,0-.605-2.281l-3.28-1.18945a1.43818,1.43818,0,0,0-.4917-.08692Z"/></svg>