<svg id="ef3d19af-5fe2-467c-8387-6c327f680fdc" data-name="Layer 1" xmlns="http://www.w3.org/2000/svg" viewBox="0 0 18.33366 16.46298"><defs><style>.bea0a612-fe47-4b61-a2a8-be204def158f{fill:none;stroke:#414042;stroke-linecap:round;stroke-linejoin:round;stroke-width:1.04px;}</style></defs><path class="bea0a612-fe47-4b61-a2a8-be204def158f" d="M8.59959,7.76185A2.30036,2.30036,0,0,1,9.5239,7.3495,4.92643,4.92643,0,0,0,7.66331.51991,4.93818,4.93818,0,0,1,.52,6.14857a4.91971,4.91971,0,0,0,.88513,1.7522,4.8547,4.8547,0,0,0,3.2334,1.79834A2.52955,2.52955,0,0,1,6.581,8.88588a2.76532,2.76532,0,0,1,.95532.17211A2.5162,2.5162,0,0,1,8.59959,7.76185Z"/><path class="bea0a612-fe47-4b61-a2a8-be204def158f" d="M17.81366,11.53363a2.61415,2.61415,0,0,0-2.39237-2.5995,2.60232,2.60232,0,0,0-4.58535-1.34947A2.5973,2.5973,0,0,0,7.445,9.088a2.62317,2.62317,0,1,0-.4454,5.01984,2.602,2.602,0,0,0,4.56127.80329,2.60363,2.60363,0,0,0,4.13955-.806A2.62238,2.62238,0,0,0,17.81366,11.53363Z"/></svg>