<svg id="ac236664-793e-402f-baaf-d3570f647c94" data-name="Layer 1" xmlns="http://www.w3.org/2000/svg" viewBox="0 0 14.5546 14.5546"><defs><style>.ad86f31f-d694-4e1b-beb1-8fec4e91a22c{fill:none;stroke:#fefefe;stroke-linecap:round;stroke-linejoin:round;stroke-width:1.04px;}</style></defs><path class="ad86f31f-d694-4e1b-beb1-8fec4e91a22c" d="M6.00216,12.87981l-.51493.51492a2.18465,2.18465,0,0,1-3.08956,0l-.6189-.6189-.6189-.6189a2.18465,2.18465,0,0,1,0-3.08956l.51493-.51493"/><path class="ad86f31f-d694-4e1b-beb1-8fec4e91a22c" d="M4.64115,8.55189C3.61,7.86021,2.50541,7.72183,1.936,8.29129c-.711.711-.3186,2.256.87637,3.451s2.74,1.58733,3.451.87636c.53942-.53942.44372-1.559-.15578-2.54149"/><path class="ad86f31f-d694-4e1b-beb1-8fec4e91a22c" d="M5.792,4.31909H7.56053a0,0,0,0,1,0,0v6.79259a.35136.35136,0,0,1-.35136.35136H6.14337a.35136.35136,0,0,1-.35136-.35136V4.31909a0,0,0,0,1,0,0Z" transform="translate(7.53526 -2.4096) rotate(45)"/><path class="ad86f31f-d694-4e1b-beb1-8fec4e91a22c" d="M13.41906,5.4629l-.51493.51493a2.18465,2.18465,0,0,1-3.08956,0l-.6189-.6189L8.57677,4.74a2.18465,2.18465,0,0,1,0-3.08956l.51493-.51493"/><ellipse class="ad86f31f-d694-4e1b-beb1-8fec4e91a22c" cx="11.51653" cy="3.03807" rx="1.82054" ry="3.05991" transform="translate(1.22488 9.03325) rotate(-45)"/></svg>