<svg id="ebb61989-7fbf-4a09-9626-8c0dd4462f71" data-name="Layer 1" xmlns="http://www.w3.org/2000/svg" viewBox="0 0 15.23026 17.02512"><defs><style>.f9807f8e-b185-401f-b862-614a8e0e8609{fill:none;stroke:#414042;stroke-linecap:round;stroke-linejoin:round;stroke-width:1.04px;}</style></defs><polygon class="f9807f8e-b185-401f-b862-614a8e0e8609" points="9.052 16.505 0.52 12.049 4.999 1.606 11.534 5.283 9.052 16.505"/><polygon class="f9807f8e-b185-401f-b862-614a8e0e8609" points="14.703 4.488 11.548 5.286 9.052 16.505 12.207 15.707 14.703 4.488"/><polygon class="f9807f8e-b185-401f-b862-614a8e0e8609" points="14.71 4.49 8.175 0.813 4.999 1.606 11.534 5.283 14.71 4.49"/><path class="f9807f8e-b185-401f-b862-614a8e0e8609" d="M6.72068,3.60542s.59718-2.46753,1.777-1.63653c1.35362.95343.7717,2.92716.7717,2.92716"/><path class="f9807f8e-b185-401f-b862-614a8e0e8609" d="M9.8547,1.688S10.10444.19384,10.86893.58543s1.45569,1.92409,1.06866,2.45946"/><path class="f9807f8e-b185-401f-b862-614a8e0e8609" d="M9.05185,16.50512a18.76317,18.76317,0,0,1,1.89974-2.36069l1.62255-8.86138"/><line class="f9807f8e-b185-401f-b862-614a8e0e8609" x1="10.95159" y1="14.14443" x2="12.20743" y2="15.70693"/></svg>