<?xml version="1.0" encoding="utf-8"?>
<!-- Generator: Adobe Illustrator 24.1.2, SVG Export Plug-In . SVG Version: 6.00 Build 0)  -->
<svg version="1.1" id="eec34212-0779-48a8-a6b9-5c1bf35d567c"
	 xmlns="http://www.w3.org/2000/svg" xmlns:xlink="http://www.w3.org/1999/xlink" x="0px" y="0px" viewBox="0 0 36.2 36.2"
	 style="enable-background:new 0 0 36.2 36.2;" xml:space="preserve">
<style type="text/css">
	.st0{fill:none;stroke:#FEFEFE;stroke-width:1.07;stroke-linecap:round;stroke-linejoin:round;}
</style>
<polygon class="st0" points="19.7,32.2 4.6,24.4 12.5,5.9 24,12.4 "/>
<polygon class="st0" points="29.6,11 24.1,12.4 19.7,32.2 25.2,30.8 "/>
<polygon class="st0" points="29.6,11 18.1,4.5 12.5,5.9 24,12.4 "/>
<path class="st0" d="M15.5,9.5c0,0,1.1-4.4,3.1-2.9C21,8.3,20,11.8,20,11.8"/>
<path class="st0" d="M21.1,6.1c0,0,0.4-2.6,1.8-1.9c1.3,0.7,2.7,3.2,2,4.2"/>
<path class="st0" d="M19.7,32.2c0.1-0.6,3.4-4.2,3.4-4.2L26,12.4"/>
<line class="st0" x1="23" y1="28.1" x2="25.2" y2="30.8"/>
</svg>
