<?xml version="1.0" encoding="utf-8"?>
<!-- Generator: Adobe Illustrator 24.1.2, SVG Export Plug-In . SVG Version: 6.00 Build 0)  -->
<svg version="1.1" id="af69381d-cf90-4ba3-8820-c79385ea8d43"
	 xmlns="http://www.w3.org/2000/svg" xmlns:xlink="http://www.w3.org/1999/xlink" x="0px" y="0px" viewBox="0 0 36.2 36.2"
	 style="enable-background:new 0 0 36.2 36.2;" xml:space="preserve">
<style type="text/css">
	.st0{clip-path:url(#SVGID_2_);}
	.st1{fill:#FEFEFE;}
	.st2{fill:none;stroke:#414042;stroke-width:1.07;stroke-linecap:round;stroke-linejoin:round;}
	.st3{fill:#FEFEFE;stroke:#414042;stroke-width:1.07;stroke-linecap:round;stroke-linejoin:round;}
</style>
<g>
	<defs>
		<rect id="SVGID_1_" x="27.7" y="-1333.7" width="233.8" height="493.7"/>
	</defs>
	<clipPath id="SVGID_2_">
		<use xlink:href="#SVGID_1_"  style="overflow:visible;"/>
	</clipPath>
	<g class="st0">
		<rect x="27.3" y="-1567.3" class="st1" width="233.8" height="1648.9"/>
	</g>
</g>
<polygon class="st2" points="22.6,3.8 25.8,9.4 29.1,15 22.6,15 16.1,15 19.4,9.4 "/>
<polygon class="st2" points="22.6,19.1 19.4,13.5 16.1,7.9 22.6,7.9 29.1,7.9 25.8,13.5 "/>
<path class="st3" d="M4,17.5l10.6,4.7C14.5,22.2,9.4,24.3,4,17.5z"/>
<path class="st3" d="M10.4,11.4l4.2,10.8C14.5,22.2,16.9,17.2,10.4,11.4z"/>
<path class="st3" d="M14.8,22.3l3,2.9l1.9,1.1c0.9,0.7,2,1.1,3.2,1.2c1.7-0.1,3-1.7,2.8-3.4c-0.1-1-0.7-1.9-1.6-2.4
	c-1.5-0.8-3.5-0.2-4.3,1.3c-0.1,0.2-0.2,0.5-0.3,0.7c-1.4-0.8-2.7-1.5-4.1-2.3L14.8,22.3z"/>
<circle class="st3" cx="22.6" cy="24.4" r="1.4"/>
<path class="st3" d="M14.8,22.3l2.9,3l1.1,1.9c0.7,0.9,1.1,2,1.2,3.2c-0.1,1.7-1.7,3-3.4,2.8c-1-0.1-1.9-0.7-2.4-1.6
	c-0.8-1.5-0.2-3.5,1.3-4.3c0.2-0.1,0.5-0.2,0.7-0.3c-0.8-1.4-1.5-2.7-2.3-4.1L14.8,22.3z"/>
<circle class="st3" cx="16.9" cy="30.1" r="1.4"/>
</svg>
