<?xml version="1.0" encoding="utf-8"?>
<!-- Generator: Adobe Illustrator 24.1.2, SVG Export Plug-In . SVG Version: 6.00 Build 0)  -->
<svg version="1.1" id="eec4b52d-78a3-49cd-9543-58c4648d8bc0"
	 xmlns="http://www.w3.org/2000/svg" xmlns:xlink="http://www.w3.org/1999/xlink" x="0px" y="0px" viewBox="0 0 36.2 36.2"
	 style="enable-background:new 0 0 36.2 36.2;" xml:space="preserve">
<style type="text/css">
	.st0{fill:#FEFEFE;}
	.st1{fill:none;stroke:#FEFEFE;stroke-width:0.9829;stroke-linecap:round;stroke-linejoin:round;}
</style>
<path class="st0" d="M24.5,23.4c0,0.1-0.1,0.1-0.1,0.2H13c0-0.1,0-0.1-0.1-0.2c-0.3,0.1-0.6,0.2-1,0.2c0.1,0.2,0.1,0.5,0.1,0.8v0.1
	h13.1c0-0.4,0.1-0.7,0.2-1C25.1,23.5,24.8,23.5,24.5,23.4z"/>
<path class="st0" d="M32.8,8.1H9.2c-1,0-1.8,0.8-1.8,1.8v4.8H3.2c-0.9,0-1.6,0.7-1.6,1.6v6.6c0,0.9,0.7,1.6,1.6,1.6h3.7
	c0-0.4,0.1-0.8,0.3-1.2c-0.3-0.1-0.6-0.1-0.9-0.2c0,0-0.1,0-0.1,0c-0.1,0.2-0.1,0.3-0.2,0.5H3.2c-0.3,0-0.6-0.3-0.6-0.6v-6.6
	c0-0.3,0.3-0.6,0.6-0.6h5.2V9.9c0-0.4,0.3-0.8,0.8-0.8l23.6,0.1c0.4,0,0.8,0.4,0.8,0.8v12.8c0,0.4-0.4,0.8-0.8,0.8h-1.5
	c0-0.1-0.1-0.3-0.2-0.4c-0.2,0.1-0.5,0.2-0.7,0.3c0.1,0.3,0.2,0.7,0.2,1h2.1c1,0,1.8-0.8,1.8-1.8V9.9C34.7,8.9,33.8,8.1,32.8,8.1z"
	/>
<path class="st0" d="M9.5,22c1.4,0,2.6,1.1,2.6,2.6c0,1.4-1.1,2.6-2.6,2.6S7,25.9,7,24.5l0,0C7,23.1,8.1,22,9.5,22 M9.5,20.9
	c-2,0-3.6,1.6-3.6,3.6s1.6,3.6,3.6,3.6s3.6-1.6,3.6-3.6l0,0C13.1,22.5,11.5,20.9,9.5,20.9L9.5,20.9z"/>
<path class="st0" d="M27.9,22c1.4,0,2.6,1.1,2.6,2.6c0,1.4-1.1,2.6-2.6,2.6c-1.4,0-2.6-1.1-2.6-2.6S26.5,22,27.9,22 M27.9,20.9
	c-2,0-3.6,1.6-3.6,3.6s1.6,3.6,3.6,3.6s3.6-1.6,3.6-3.6l0,0C31.5,22.5,29.9,20.9,27.9,20.9z"/>
<path class="st0" d="M31.5,11.2v3.6H14.1v-3.6H31.5 M31.9,10.3H13.6c-0.3,0-0.5,0.2-0.5,0.5l0,0v4.5c0,0.3,0.2,0.5,0.5,0.5l0,0h18.3
	c0.3,0,0.5-0.2,0.5-0.5v-4.5C32.4,10.5,32.2,10.3,31.9,10.3L31.9,10.3z"/>
<path class="st0" d="M10,11.2v3.6H8.4v-3.6H10 M10.4,10.3H8c-0.3,0-0.6,0.3-0.6,0.6v4.3c0,0.3,0.3,0.6,0.6,0.6h2.4
	c0.3,0,0.6-0.3,0.6-0.6l0,0v-4.3C11,10.5,10.7,10.3,10.4,10.3z"/>
<line class="st1" x1="28.8" y1="24" x2="30.3" y2="23.1"/>
<circle class="st1" cx="27.9" cy="24.5" r="0.7"/>
<line class="st1" x1="10.1" y1="24.9" x2="12" y2="26.1"/>
<circle class="st1" cx="9.5" cy="24.5" r="0.7"/>
</svg>
