<svg id="a521826f-5b6b-415e-b12d-44365bc42fb9" data-name="Layer 1" xmlns="http://www.w3.org/2000/svg" viewBox="0 0 143.29669 124.77653"><defs><style>.ab8c884f-cd98-4035-88d9-fb735b5263f6{fill:#ee8322;}.ba34905b-182f-48bb-b65a-cbc0609db39d{fill:#f1ce2c;}.f243d7b2-61fa-427e-b38e-4d14f7e459df{fill:#f2ce2c;}.f25ffdf0-f5a5-4900-b383-0b2c60571182{fill:#424142;}.e128777e-cd8f-468d-ba79-bfe20d1d62cd{fill:#ef8b23;}.bc32603f-035c-462c-bfeb-95ca1f9f634b{fill:#ef8625;}.b06f53f3-1d32-4bea-ba1d-d4db30347233{fill:#f09030;}.b4c0c254-4a15-49cc-b425-284f526a8094{fill:#ef8c23;}.a9b7ba5d-1a90-4600-bbf2-a56974560231{fill:#f09632;}.ee90a21b-8494-4a67-8457-92fafc09d5e8{fill:#f09433;}.a6aa73a0-6044-43ed-8e9a-7f24094551ac{fill:#f08f2f;}.e70940b3-4b8f-4f99-92d0-e8c5dfd8b495{fill:#f09e25;}.b58454c5-531c-422c-9923-1193e6c4abc0{fill:#ef9024;}.b249f5cd-f7e8-4940-90e4-7ddb21eec79d{fill:#ef9824;}.bb01f832-0fdc-4f13-9545-b4890533f100{fill:#f1ab27;}.fd6ddc01-dc6a-43f1-bbf3-bccae054b823{fill:#f6b880;}.a5ae8eb1-6306-4abb-9bbb-b6223ab1a9a1{fill:#ee8522;}</style></defs><path class="ab8c884f-cd98-4035-88d9-fb735b5263f6" d="M130.75364,93.632a6.43931,6.43931,0,0,0,.94026,1.06478,20.23549,20.23549,0,0,1-1.6451,2.13788c-.9904,1.2037-2.01951,2.37566-3.03605,3.5578q-1.36546,1.58789-2.84165,3.07394c-.59488.60128-1.15713,1.23371-1.77674,1.81292-1.05335.98467-2.071,2.00509-3.16448,2.94979-.85129.73547-1.69428,1.48151-2.572,2.18435-1.16159.93014-2.34164,1.83625-3.57133,2.679-.90868.62273-1.81683,1.24343-2.75193,1.82633-1.22566.764-2.47133,1.489-3.74969,2.16352-.77089.40678-1.53961.81749-2.3269,1.19q-2.70627,1.28054-5.52077,2.30549a64.44152,64.44152,0,0,1-6.79471,2.04152,65.92781,65.92781,0,0,1-8.619,1.52686,98.59129,98.59129,0,0,1-21.02332.14092,75.58247,75.58247,0,0,1-9.178-1.52529c-1.88109-.44169-3.72129-1.003-5.56163-1.5843a54.168,54.168,0,0,1-6.57443-2.653,58.15956,58.15956,0,0,1-5.21228-2.82032,61.57778,61.57778,0,0,1-5.25516-3.5304c-1.28541-.96-2.532-1.9747-3.76953-3.00094a114.77053,114.77053,0,0,1-9.35284-8.85152c-1.224-1.27159-2.43317-2.55812-3.5904-3.89237-.405-.467-.84124-.90747-1.27169-1.35184-.21539-.22232-.25844-.40856.01114-.6284.24876-.20285.46954-.44.69894-.6585-.07619-.245-.26888-.1534-.40766-.15408-1.40447-.007-2.809-.005-4.21349-.00376a6.97791,6.97791,0,0,1-1.57344-.178A2.47124,2.47124,0,0,1,5.171,91.80229q-.78528-2.16751-1.55724-4.33986c-.44723-1.25366-.88569-2.51046-1.335-3.76337C1.55815,81.68964.82062,79.6862.11319,77.67219a2.10556,2.10556,0,0,1,.603-2.213,7.28728,7.28728,0,0,1,2.70827-1.71564c.42711-.17046.84516-.37158,1.284-.5032A13.69533,13.69533,0,0,1,9.01817,72.842c.37045.0088.447.2089.44346.54012-.01353,1.26579-.0054,2.53182-.00488,3.79775.00007.1611-.00062.32234.00562.48326a.285.285,0,0,0,.3031.30367c.1839.00751.36813.00909.55222.00911,4.46679.00046,8.93366-.01208,13.40028.0156a1.04067,1.04067,0,0,0,1.09436-.69544c1.03251-2.12572,2.27718-4.13425,3.47807-6.167.61815-1.04635,1.18544-2.12261,1.78591-3.17957.39681-.69843.81233-1.38624,1.21844-2.0794.61379-1.04763,1.23442-2.09134,1.83745-3.14512.46777-.81742.92675-1.64049,1.36521-2.4739A12.65323,12.65323,0,0,0,35.91625,56.175a7.33807,7.33807,0,0,0-.53515-3.8538A27.996,27.996,0,0,0,33.488,48.57549c-.96122-1.61564-1.86406-3.26592-2.8003-4.89653-.61685-1.07431-1.255-2.13634-1.8718-3.2107-.94777-1.651-1.86267-3.32134-2.83509-4.95759-.65678-1.10513-1.28835-2.21887-1.84594-3.37834a4.27257,4.27257,0,0,1,.1107-4.15679,5.817,5.817,0,0,1,1.53774-1.908,4.88909,4.88909,0,0,1,2.17937-.79338A21.16268,21.16268,0,0,1,31.8179,25.037q7.52909-.0065,15.05814.00093a31.37639,31.37639,0,0,0,4.68317-.285,7.17913,7.17913,0,0,0,4.04-2.06545,16.45993,16.45993,0,0,0,2.61527-3.523c1.24239-2.14227,2.50158-4.27485,3.7357-6.42185,1.10833-1.92817,2.21327-3.85789,3.34151-5.77478C65.95345,5.8435,66.56,4.684,67.27959,3.59526A14.57452,14.57452,0,0,1,69.216,1.19768a4.07479,4.07479,0,0,1,5.05011-.559,9.01143,9.01143,0,0,1,1.97079,1.98825,28.52446,28.52446,0,0,1,2.06465,3.328c.35581.669.773,1.30517,1.15255,1.96186.67624,1.16983,1.34255,2.34539,2.01769,3.51586.39028.6766.794,1.34545,1.18407,2.02218.67481,1.17076,1.33035,2.35281,2.01817,3.51582a33.16649,33.16649,0,0,0,3.24788,5.01452A7.64483,7.64483,0,0,0,93.099,24.809c1.51519.1444,3.0286.2289,4.54942.22768q7.35638-.00588,14.71276-.00129a17.70352,17.70352,0,0,1,4.85665.54642,4.25347,4.25347,0,0,1,2.714,2.27174,4.68228,4.68228,0,0,1,.22454,3.55186,15.13539,15.13539,0,0,1-1.41288,3.20166c-1.14546,2.03982-2.32958,4.05791-3.49264,6.08789-1.17466,2.05019-2.31876,4.11835-3.52379,6.15047q-1.03623,1.74749-1.99429,3.53575a11.57557,11.57557,0,0,0-1.44432,4.06333,6.63832,6.63832,0,0,0-.00443,1.58117,13.25958,13.25958,0,0,0,1.78811,4.88132c1.07177,1.92329,2.20889,3.809,3.29951,5.72067,1.01177,1.7735,2.03777,3.53879,3.05164,5.311.83137,1.45325,1.67379,2.90026,2.49516,4.35912A12.727,12.727,0,0,1,119.499,77.546a.63433.63433,0,0,0,.68935.4368c.52832-.02559,1.05881-.00651,1.58838-.00651q5.52593,0,11.05183-.00008c.18419,0,.36865-.00748.55254-.00028.29663.01166.40889-.13389.40614-.41924-.00661-.69044-.0014-1.381-.00108-2.07151.00031-.71353.01171-1.4273-.00406-2.14048-.00784-.35476.13862-.49.485-.5043a11.64091,11.64091,0,0,1,6.767,1.47808,6.11074,6.11074,0,0,1,1.83214,1.52967,1.91465,1.91465,0,0,1,.27426,1.95968c-.7975,1.88422-1.40649,3.83618-2.094,5.7581-.65667,1.83572-1.3819,3.64882-1.94872,5.5177-.23952.78975-.55615,1.55473-.8097,2.34286a2.89315,2.89315,0,0,1-2.731,2.14727c-1.335.10523-2.66906.02422-4.003.05748C131.32616,93.6369,131.098,93.632,130.75364,93.632Z"/><path class="ba34905b-182f-48bb-b65a-cbc0609db39d" d="M80.8672,82.76834a4.06065,4.06065,0,0,0,1.36708-2.81454,1.17542,1.17542,0,0,1,.22084-.70187,5.60584,5.60584,0,0,1,2.17-2.0708,7.08686,7.08686,0,0,1,2.72985-.63741c4.45963-.2818,8.92434-.07869,13.38649-.12295a10.84115,10.84115,0,0,0,2.45136-.31973,3.5103,3.5103,0,0,0,2.2883-2.83528,5.98431,5.98431,0,0,0-.592-2.58254c-.74912-1.47481-1.64643-2.86336-2.42869-4.3152-.91482-1.6978-1.95343-3.32152-2.87638-5.01264-.581-1.06465-1.22774-2.0919-1.752-3.18953a6.59064,6.59064,0,0,1-.67878-3.056,5.95977,5.95977,0,0,1,.49727-2.13346,15.93345,15.93345,0,0,1,1.04372-2.01907c.76195-1.27688,1.47733-2.58146,2.22161-3.869.91738-1.587,1.8623-3.15831,2.76026-4.7561.47132-.83863.94091-1.67923,1.3798-2.53751a4.675,4.675,0,0,0,.37138-3.4695,2.7298,2.7298,0,0,0-1.25689-1.5003,5.32659,5.32659,0,0,0-2.69577-.6807c-4.48249-.28307-8.97034-.0708-13.4554-.12873a11.34265,11.34265,0,0,1-2.18023-.27c-.30188-.063-.44684-.2113-.42843-.51515.053-.87562-.136-1.73765-.13324-2.61328a27.00829,27.00829,0,0,0-.3544-3.41635c-.06519-.52269-.13992-1.04449-.19013-1.56862a2.45128,2.45128,0,0,0-.241-.89144C83.41,26.42047,82.61961,28.19271,81.597,29.886a4.06334,4.06334,0,0,1-.857-1.13046c-1.21814-2.152-2.41749-4.31451-3.70518-6.42636a1.29644,1.29644,0,0,1-.17528-.72535c.00819-.43709-.00532-.87461.00348-1.31168.02639-1.31134-.1382-2.60817-.23923-3.91175a21.61413,21.61413,0,0,0-.75009-4.04913,20.38006,20.38006,0,0,0-2.26711-5.44063,21.692,21.692,0,0,0-1.4346-2.0058,8.5438,8.5438,0,0,0-1.2712,1.89825c-.517,1.32145-1.26549,2.54007-1.72,3.88992a25.98915,25.98915,0,0,0-1.24617,5.60586c-.14131,1.35551-.32769,2.70477-.48018,4.05841l.00129-.00265c-.08.07581-.05523.20707-.14656.27691a7.01969,7.01969,0,0,0-.89249,1.45652,12.557,12.557,0,0,0-1.05192,1.85444.29072.29072,0,0,1-.48637.16812,1.351,1.351,0,0,1-.233-.1451,10.78672,10.78672,0,0,0-2.96612-1.83906,9.20367,9.20367,0,0,0-1.39175-.5865c-.45123-.13037-.4854-.11645-.63156.34949a9.50284,9.50284,0,0,0-.455,2.14968,13.00146,13.00146,0,0,0,.49745,5.17708,9.09569,9.09569,0,0,0,.9424,1.75607.60923.60923,0,0,1-.01956.80642,5.53822,5.53822,0,0,1-2.38643,1.80309,9.485,9.485,0,0,1-3.05177.4465c-3.70671.00707-7.41352.01955-11.1201-.00249a30.13284,30.13284,0,0,0-3.16444.16262,3.48077,3.48077,0,0,0-2.95372,2.14038,3.5791,3.5791,0,0,0,.25832,3.415c.37289.73382.7986,1.44459,1.22408,2.15358.47068.78431.91049,1.59013,1.36913,2.38388,1.00976,1.74757,1.97226,3.523,3.00718,5.25525.44707.74834.862,1.51351,1.28688,2.27246a6.76861,6.76861,0,0,1,1.10511,3.70046,6.44575,6.44575,0,0,1-.61615,2.51836c-.72663,1.48827-1.58733,2.90182-2.3943,4.3456-.65962,1.18017-1.40765,2.307-2.03379,3.50821-.55121,1.05748-1.20627,2.06031-1.78841,3.10239a10.87967,10.87967,0,0,0-1.66641,3.965,2.647,2.647,0,0,0,.79211,2.31672,3.29233,3.29233,0,0,0,1.868.941,20.32986,20.32986,0,0,0,2.808.23042c3.75273-.009,7.5055-.00114,11.25825-.005a12.2001,12.2001,0,0,1,3.59838.51349,5.17162,5.17162,0,0,1,2.62845,1.9989,56.12889,56.12889,0,0,1,2.95118,4.80554c.67609,1.11055,1.35356,2.23092,1.92226,3.40971.288.597.67984,1.14395,1.02526,1.7132.04773.07867.10607.15175.14676.23373.61352,1.23628.722.8967-.38062,1.56354a13.38338,13.38338,0,0,1-1.39994.87194.93874.93874,0,0,0-.43149.68261,15.93225,15.93225,0,0,0-.31973,4.69885c.51312-.35833.93765-.64481,1.35127-.94629.48156-.351.951-.71854,1.43082-1.072.21419-.15777.34145-.08416.364.17358.01.11429.00574.23.00575.345q.00039,2.83091-.00109,5.66181c-.00137.7039-.03621.73227-.74436.74082a1.7265,1.7265,0,0,0-.3446.00351c-.83614.18529-1.2469-.29248-1.61277-.94693-.7606-1.36052-1.56768-2.6966-2.32675-4.05663-.8272-1.48206-1.69666-2.93958-2.53688-4.41343-.66753-1.17091-1.37107-2.32533-2.14079-3.43974a11.72152,11.72152,0,0,0-2.49715-2.72362,7.44859,7.44859,0,0,0-2.71286-1.278,23.65115,23.65115,0,0,0-6.01986-.54918c-5.15717.00705-10.31441.01484-15.47149-.00694a15.85077,15.85077,0,0,1-3.61432-.41748,3.33077,3.33077,0,0,1-2.43108-4.681,25.62024,25.62024,0,0,1,2.494-4.97411c.8026-1.38957,1.63264-2.7643,2.39619-4.175.39437-.72863.81645-1.44136,1.24883-2.14324.69716-1.13173,1.33729-2.29716,2.00107-3.44571.82457-1.42676,1.71183-2.82473,2.40505-4.32509a16.465,16.465,0,0,0,.95036-2.28708,8.877,8.877,0,0,0,.269-4.27664,14.96516,14.96516,0,0,0-1.52757-3.81349c-1.08929-2.14952-2.36266-4.1977-3.55037-6.29309-.8829-1.55763-1.818-3.08557-2.7135-4.63618-.9751-1.68847-1.91354-3.3983-2.90382-5.07769a21.36035,21.36035,0,0,1-1.16724-2.33435,3.217,3.217,0,0,1,.08853-2.92245,7.07449,7.07449,0,0,1,.76143-1.30553,4.4,4.4,0,0,1,3.02531-1.2866,39.51182,39.51182,0,0,1,5.58155-.13028c4.58142-.02785,9.16348.01964,13.74444-.03439a17.56272,17.56272,0,0,0,4.30724-.40165,8.59449,8.59449,0,0,0,4.43279-2.74953,32.87066,32.87066,0,0,0,3.22575-4.85391c.65326-1.10466,1.324-2.19981,1.94547-3.32216.52186-.94252,1.05414-1.87776,1.60631-2.80273.5296-.88715,1.03592-1.78821,1.55-2.68457.7406-1.29131,1.44641-2.604,2.22792-3.87a14.32847,14.32847,0,0,1,2.413-3.25156A4.013,4.013,0,0,1,71.41747.84741a3.00511,3.00511,0,0,1,2.8016.7737,11.56881,11.56881,0,0,1,2.31616,2.89c.70724,1.18133,1.39546,2.37408,2.08687,3.56483.45985.792.9054,1.59227,1.3668,2.38332.936,1.60472,1.885,3.20191,2.81648,4.80924.98875,1.70613,1.9062,3.45352,2.9711,5.1156a17.12827,17.12827,0,0,0,1.83875,2.46872,8.3103,8.3103,0,0,0,5.32282,2.73739,114.58309,114.58309,0,0,0,11.57882.2711c3.03884.025,6.0781-.0062,9.11705.01082a12.75871,12.75871,0,0,1,3.72127.60322,2.92821,2.92821,0,0,1,1.46,1.11347,4.8369,4.8369,0,0,1,.83292,2.02209,3.007,3.007,0,0,1-.19053,1.3528,12.41047,12.41047,0,0,1-.58889,1.61717,31.5145,31.5145,0,0,1-1.89485,3.511c-.67318,1.11711-1.26129,2.28523-1.9242,3.40887-.41955.71112-.89873,1.38864-1.26559,2.13-.56939,1.15064-1.31789,2.19742-1.90006,3.3422-.39467.77608-.9154,1.48726-1.32775,2.25537a31.56791,31.56791,0,0,0-2.79028,5.74057,7.91082,7.91082,0,0,0-.00894,4.60336,22.42042,22.42042,0,0,0,2.31206,4.97942q1.66064,2.855,3.31783,5.712c1.0114,1.74661,2.02991,3.4893,3.02257,5.24652a47.4842,47.4842,0,0,1,2.41192,4.48565,8.40806,8.40806,0,0,1,.54414,1.77548,3.89051,3.89051,0,0,1-2.366,4.09885,7.14653,7.14653,0,0,1-2.0212.37969c-.82019.078-1.64231.166-2.4739.1642-5.75571-.01248-11.51178-.0322-17.267.02511A10.81767,10.81767,0,0,0,89.993,85.669a7.70516,7.70516,0,0,0-2.28428,1.84851q-.62977.77511-1.22029,1.57776c-.405.55132-.7483,1.14944-1.0989,1.73879q-1.12451,1.89027-2.22693,3.79364c-.6095,1.05332-1.20048,2.11732-1.80424,3.174-.353.61773-.68511,1.25038-1.08154,1.83939-.37306.5543-.62738,1.16983-.98266,1.73206a.78652.78652,0,0,1-.72118.43342c-.41437-.00409-.82881-.00315-1.24321-.00169-.30914.00109-.47261-.1399-.46658-.45885.003-.161-.00135-.3222-.00143-.4833-.00159-3.59042.0258-7.18123-.02357-10.771a4.14789,4.14789,0,0,1,.745-2.58187c.53466-.75037.85281-1.62137,1.34391-2.39572.08312-.07444.05358-.20695.14335-.278l-.0018.0035A7.31668,7.31668,0,0,1,80.8672,82.76834Z"/><path class="f243d7b2-61fa-427e-b38e-4d14f7e459df" d="M56.56312,108.03584c-.2805,0-.56674.01058-.85184-.00277a.50624.50624,0,0,0-.58317.44836c-.20362.82328-.432,1.64045-.65153,2.45981-.1009.37669-.18424.75971-.31226,1.12707-.11341.32534-.00661.44666.30757.53409.72959.203,1.46458.379,2.203.54549a5.71432,5.71432,0,0,1,.98571.30726.72082.72082,0,0,1,.44737,1.00116,3.34631,3.34631,0,0,1-2.74556,2.39817,6.63592,6.63592,0,0,1-.95043.14761.45589.45589,0,0,0-.49366.45605c-.06385.63806-.144,1.27451-.20773,1.91257-.03062.30668.08922.41769.40546.36181a8.36858,8.36858,0,0,0,4.48918-1.90644,5.8843,5.8843,0,0,0,1.2739-1.69111,7.25179,7.25179,0,0,0,.77913-2.55621,1.90025,1.90025,0,0,0-1.489-2.35856,15.90251,15.90251,0,0,0-1.98766-.55569c-.30378-.04936-.40459-.17888-.32557-.46172.16055-.57458.33652-1.14516.483-1.72324.06483-.25584.206-.31661.446-.31331a4.57049,4.57049,0,0,1,1.15191.19729,34.10759,34.10759,0,0,0,4.39824.78415,50.9862,50.9862,0,0,0,5.6798.54333,2.086,2.086,0,0,1,1.073.43571,4.74349,4.74349,0,0,0,3.26946.46522,2.5468,2.5468,0,0,0,1.15919-.58526,1.52943,1.52943,0,0,1,.889-.319c1.53813-.03249,3.06467-.19411,4.59254-.37836,1.8899-.22793,3.77657-.45722,5.63907-.85987,1.18809-.25687,2.36851-.541,3.54629-.84332,1.91551-.49166,3.75369-1.20911,5.61024-1.86835.94694-.33626,1.8241-.864,2.75117-1.26239,1.14341-.4914,2.2024-1.13463,3.2898-1.72895a34.41012,34.41012,0,0,0,3.25933-2.059,50.071,50.071,0,0,0,5.64507-4.61415,54.25719,54.25719,0,0,0,4.02416-4.34913c.96582-1.13783,1.86517-2.32454,2.73116-3.534a40.00911,40.00911,0,0,0,2.45583-3.81131c.04473-.08031.08545-.16321.13524-.24024.34311-.53088.39524-.54209.85845-.07134,1.581,1.60673,3.17942,3.19666,4.76921,4.79421q2.09179,2.102,4.21217,4.17928.68919.6723,1.36032,1.363c.34627.357.37288.46005.05349.80617-.4227.45805-.76552.97566-1.16462,1.44857-1.03449,1.22574-2.06988,2.45179-3.14128,3.64509-1.75093,1.95015-3.53683,3.87121-5.46683,5.6459a76.79612,76.79612,0,0,1-6.87639,5.72141c-1.3568.98316-2.719,1.95946-4.15313,2.81877-1.53087.91729-3.083,1.80019-4.69143,2.58967-1.547.75931-3.11217,1.4667-4.70852,2.108a53.48688,53.48688,0,0,1-5.07063,1.75691,62.91577,62.91577,0,0,1-6.95368,1.65686c-1.69275.2869-3.3845.60369-5.09764.77493-1.16446.11635-2.33459.16583-3.49647.28433a101.89094,101.89094,0,0,1-11.92494.22658,31.00318,31.00318,0,0,1-4.45565-.34819c-.63306-.102-1.28034-.07558-1.922-.14349-1.37174-.14513-2.71117-.48185-4.078-.631-1.62594-.17739-3.17082-.73325-4.78313-.96468a3.21378,3.21378,0,0,1-.53525-.13066c-2.18151-.71084-4.39894-1.3031-6.5319-2.17449-1.3993-.57168-2.79812-1.14483-4.16274-1.78877-1.24227-.5862-2.43717-1.27464-3.64145-1.93884-1.487-.82016-2.90588-1.75074-4.31437-2.69836-1.314-.88405-2.55891-1.85742-3.814-2.82117-1.33023-1.02149-2.60252-2.10877-3.86578-3.207-1.47042-1.27836-2.86413-2.64094-4.278-3.98169C19.94753,101.86,18.7619,100.587,17.5474,99.343c-1.34411-1.37676-2.59174-2.8475-3.88819-4.27112-.18653-.2048-.23923-.35555-.00524-.56989.82929-.75967,1.64252-1.53683,2.46615-2.30273.28449-.26455.58881-.5079.87163-.77416,1.004-.94517,1.97817-1.92357,3.00974-2.83739,1.13383-1.00437,2.16547-2.11653,3.32832-3.08938.38526-.32232.72476-.69948,1.08305-1.05372.19985-.1976.4319-.25433.56643.02123a19.73786,19.73786,0,0,0,1.122,1.64773c.19388.31368.16893.56611-.13526.75929-.60335.38316-1.11238.885-1.68407,1.30737-.40554.29961-.80267.61063-1.20953.90841-.27306.19985-.25174.4123-.04684.637.651.714,1.188,1.51745,1.78811,2.27141.52979.6656.48416.98957-.21582,1.46272a3.25774,3.25774,0,0,1-3.33717.17927c-.37828-.16723-.74272-.36639-1.10973-.55814a.4138.4138,0,0,0-.56112.05551c-.48125.524-.967,1.04385-1.44474,1.571-.12736.14057-.04523.251.0918.329a8.08859,8.08859,0,0,0,5.40294,1.17174,7.242,7.242,0,0,0,3.835-2.14861,1.72909,1.72909,0,0,0,.36177-2.14477,12.27954,12.27954,0,0,0-1.41368-2.02975c-.29733-.40326-.31783-.44772.066-.76173.24832-.20315.50432-.39688.75369-.59878.231-.187.42412-.22508.6309.05688a43.07963,43.07963,0,0,0,2.98186,3.59607,46.20636,46.20636,0,0,0,4.12439,4.06837c.73391.62319,1.45465,1.262,2.1936,1.87913.91548.76454,1.87435,1.47168,2.859,2.14621.64391.44108,1.28072.8921,1.95242,1.28983,1.08046.63976,2.13142,1.32958,3.2689,1.87226.76612.36551,1.49916.79451,2.275,1.14686,1.6524.7504,3.32573,1.43723,5.04157,2.03275,1.25919.437,2.52037.85389,3.81606,1.16577C56.47046,107.79892,56.56715,107.83059,56.56312,108.03584Z"/><path class="f25ffdf0-f5a5-4900-b383-0b2c60571182" d="M65.38809,40.79745a.08046.08046,0,0,0-.08986-.04093.3867.3867,0,0,1-.19116-.10945l-.00612-.00255c-.06424-.09386-.19534-.06344-.267-.14353l-.00009-.00005c-.07137-.08415-.20625-.05472-.27068-.15128l.00763.00548c-.05842-.03121-.09909-.0857-.156-.11886l-.00739-.00471c-.06105-.09761-.19044-.06166-.26392-.135l-.04853-.02907-.05644.00387a2.611,2.611,0,0,1-1.2769-.81327c-.59221-.50494-1.25264-.92515-1.81652-1.466-.11079-.10625-.23379-.25277-.41518-.1678-.15205.07123-.10777.23979-.11737.36911a18.59215,18.59215,0,0,0,.16319,5.22241,8.00848,8.00848,0,0,0,2.22865,3.97128,18.18439,18.18439,0,0,0,3.36124,2.61634c.34849.2203.68427.461,1.03583.676a.54916.54916,0,0,1,.26875.51965c-.00056,1.51878.00457,3.03759-.00436,4.5563-.00211.35731-.08881.41415-.41925.27428-.71791-.30386-1.43366-.61479-2.13726-.95012a27.04929,27.04929,0,0,1-4.03786-2.34332,5.18894,5.18894,0,0,0-1.09343-.70614,8.63958,8.63958,0,0,0-.14015,1.93567,11.71287,11.71287,0,0,0,.69584,2.94088,11.0618,11.0618,0,0,0,1.73119,3.18262,9.06336,9.06336,0,0,0,.8801.9609,23.27842,23.27842,0,0,0,4.11014,3.32268.55274.55274,0,0,1,.3163.55613c-.00934.13742-.001.276-.001.4141,0,3.38273-.0103,6.76553.01153,10.14812a1.09912,1.09912,0,0,1-.54923,1.06816c-1.19311.76933-2.356,1.58537-3.53508,2.37663a7.08669,7.08669,0,0,1-.9059.625.36242.36242,0,0,1-.52409-.12485c-.17764-.24012-.36964-.47075-.53286-.72024a5.99953,5.99953,0,0,0-4.17267-2.6566,13.564,13.564,0,0,0-2.40353-.20345c-3.47593.00127-6.95195.015-10.42774-.00756a18.66432,18.66432,0,0,1-3.50846-.2084,3.03337,3.03337,0,0,1-1.53223-.55533,2.03209,2.03209,0,0,1-.76582-2.08177,7.32874,7.32874,0,0,1,.56936-1.62065c.53066-1.093,1.17553-2.12369,1.75981-3.18689.67392-1.22632,1.42844-2.40475,2.08015-3.64476.60831-1.15744,1.2985-2.273,1.97817-3.3915a18.39151,18.39151,0,0,0,1.74546-3.50229,6.029,6.029,0,0,0-.151-4.57078,31.47518,31.47518,0,0,0-1.76674-3.34135c-.88227-1.47368-1.70749-2.98144-2.5624-4.47159-.68481-1.19366-1.3912-2.37516-2.06218-3.57647a25.91781,25.91781,0,0,1-1.51566-2.85985,2.67884,2.67884,0,0,1,1.7237-3.5069,9.96628,9.96628,0,0,1,2.6707-.2729q5.86977-.01666,11.73957-.016a13.61245,13.61245,0,0,0,3.48708-.41526,5.13416,5.13416,0,0,0,2.27908-1.3655,4.45918,4.45918,0,0,0,.85155-.94266c.3.01489.38983.22794.52128.37145a28.70252,28.70252,0,0,0,3.97819,3.59126,6.11871,6.11871,0,0,0,.75108.6029,1.39685,1.39685,0,0,1,.78345,1.51325c-.05921.91665-.01092,1.84-.017,2.76046a1.481,1.481,0,0,1-.07073.70834c-.44082-.04175-.75767-.39937-1.17739-.49257a1.89077,1.89077,0,0,1-.4583-.25386l-.00224-.00117C65.58959,40.83076,65.4697,40.8573,65.38809,40.79745Z"/><path class="f25ffdf0-f5a5-4900-b383-0b2c60571182" d="M81.48112,49.84488a3.40527,3.40527,0,0,0-.01746,2.3677,9.30043,9.30043,0,0,1-.01795,4.16766c-.0221.11187-.02936.22669-.044.34375-.24365.01335-.2327-.18817-.28694-.31551-.46855-1.1001-.86455-2.22764-1.24293-3.361a2.25171,2.25171,0,0,1,.13013-1.86473c.66543-1.23042,1.30078-2.47713,1.96733-3.70693a34.67071,34.67071,0,0,0,2.43427-5.31537,17.28131,17.28131,0,0,0,.98268-5.61365c-.00107-.52921.00494-1.05873.0227-1.5876.01336-.398.05951-.44906.45649-.366a23.68855,23.68855,0,0,0,4.74934.25526c3.15384.02,6.30786.00707,9.46182.00525a13.25739,13.25739,0,0,1,3.07568.36656,2.47212,2.47212,0,0,1,1.65906,2.6126,7.03352,7.03352,0,0,1-.6295,1.88712c-.75176,1.47127-1.60166,2.88625-2.43867,4.30913-.61569,1.04665-1.21208,2.10465-1.81609,3.15817-.75307,1.31351-1.53072,2.61384-2.24769,3.94677a15.08232,15.08232,0,0,0-1.06706,2.376,6.47938,6.47938,0,0,0,.41663,4.82555c.5193,1.17608,1.2159,2.26006,1.84728,3.37835.58576,1.03751,1.2152,2.05033,1.77515,3.1034.431.81059.93464,1.58226,1.3851,2.383.77466,1.377,1.61972,2.71609,2.27372,4.15871a5.48371,5.48371,0,0,1,.28767.77488,2.51416,2.51416,0,0,1-1.87439,3.21838,13.95361,13.95361,0,0,1-3.56624.294c-3.33788.02868-6.67616.01-10.01429.01H87.01326c-.03155-.15921.12586-.19757.23311-.26083A18.65262,18.65262,0,0,0,90.80189,72.942a8.66446,8.66446,0,0,0,1.78157-2.4255,15.38581,15.38581,0,0,0,1.47289-6.46946,15.62193,15.62193,0,0,0-.25713-3.32963c-.20086-.075-.24372.055-.28531.15008a15.40232,15.40232,0,0,1-2.24758,3.44513,23.7234,23.7234,0,0,1-2.40348,2.64516c-.38819.35567-.79592.69149-1.20932,1.01793a22.01055,22.01055,0,0,0-3.1018,3.18982c-.36853.43685-.75848.855-1.08812,1.32358-.37248.23756-.37755-.124-.35155-.27489a7.37644,7.37644,0,0,1,.49962-2.3,8.53992,8.53992,0,0,0,.05878-2.88168A2.54333,2.54333,0,0,1,84.28725,64.98a8.81747,8.81747,0,0,1,1.21257-1.20851,14.413,14.413,0,0,0,3.78683-5.66357,27.65857,27.65857,0,0,0,1.69357-5.16131,12.78887,12.78887,0,0,0,.16186-2.26753,16.76759,16.76759,0,0,0-.66-5.658,1.32767,1.32767,0,0,0-.13819-.22243,4.5027,4.5027,0,0,0-.82331,1.31075,29.63272,29.63272,0,0,1-1.51694,2.615c-.53856.87991-1.27,1.61976-1.7641,2.52674-.4632.03224-.40418-.33241-.43809-.60072a2.04744,2.04744,0,0,0-2.55135-1.85646c-.08779.02847-.17685.05442-.26318.08673a6.24508,6.24508,0,0,0-.62663.29178c-.0457.03-.093.05817-.13876.08781-.02092.01692-.04347.03213-.06436.04888-.03915.03588-.08053.0695-.121.10375a2.95951,2.95951,0,0,1-.23849.2015.64752.64752,0,0,0-.19073.11581.14989.14989,0,0,0-.09047.07817Z"/><path class="f25ffdf0-f5a5-4900-b383-0b2c60571182" d="M68.39892,108.76573a1.20006,1.20006,0,0,1-.71605.048c-1.58325-.124-3.15743-.32332-4.73131-.53688a50.48685,50.48685,0,0,1-7.60514-1.63432c-1.49791-.44492-2.97149-.9463-4.43341-1.49557a49.13365,49.13365,0,0,1-5.67934-2.61179,45.84484,45.84484,0,0,1-4.39946-2.68594,46.32154,46.32154,0,0,1-4.00605-3.03115c-1.19875-1.02533-2.34025-2.11767-3.5026-3.18524-.117-.10742-.19431-.2571-.30731-.36987-.15351-.15317-.07467-.25241.018-.40788a8.1201,8.1201,0,0,1,1.056-1.17643c1.52832-1.71026,3.087-3.3934,4.63675-5.0845.29407-.32089.57745-.654.86085-.98122a1.042,1.042,0,0,1,.87926-.40815c2.163.0122,4.326.00791,6.489.02a23.783,23.783,0,0,1,3.5122.14955,9.35219,9.35219,0,0,1,3.882,1.29893,8.30807,8.30807,0,0,1,2.02837,1.93657,43.19729,43.19729,0,0,1,2.63074,4.17893c.9193,1.56062,1.82422,3.12976,2.73823,4.69339.95975,1.64187,1.8873,3.30252,2.82913,4.95485a.768.768,0,0,0,.07271.11706,2.51054,2.51054,0,0,1,.5836,1.9158c-.04095.49489-.00117.52018.50689.53658a.59158.59158,0,0,1,.54085.33521c.50724.81854.96726,1.665,1.49835,2.47041A3.02687,3.02687,0,0,1,68.39892,108.76573Z"/><path class="f25ffdf0-f5a5-4900-b383-0b2c60571182" d="M98.83967,85.20843c1.28888,0,2.578.01354,3.86651-.00761a1.21668,1.21668,0,0,1,1.02365.43613q1.57035,1.7788,3.19774,3.50663c1.28315,1.37064,2.51487,2.78928,3.78066,4.17637.22727.249.24585.3663-.01367.65036-.9145,1.0009-1.92262,1.90409-2.92618,2.80405a40.551,40.551,0,0,1-3.54448,2.81632c-.91572.65277-1.84277,1.28836-2.7977,1.87681-1.13019.69645-2.29152,1.34252-3.48725,1.92807-.90683.444-1.81193.88951-2.7453,1.27342a40.25744,40.25744,0,0,1-5.44924,1.91061c-.51257.12921-1.011.31383-1.52226.449A64.18773,64.18773,0,0,1,76.448,108.8439a.462.462,0,0,1-.06894.00287c-.15424-.01206-.3517.08584-.45235-.06189-.13409-.19681.06374-.34133.16873-.47677.66363-.856,1.12988-1.83424,1.70517-2.74481.22519-.35644.42361-.6421.90592-.552.26971.05041.37017-.118.35385-.371-.00445-.06882-.00122-.13815-.0059-.20694a3.248,3.248,0,0,1,.52511-1.93929c1.0922-1.85575,2.16106-3.72607,3.242-5.58916,1.0924-1.88292,2.16122-3.77887,3.27783-5.64841a25.36206,25.36206,0,0,1,1.90267-2.85474,7.66119,7.66119,0,0,1,4.921-2.88546,24.12483,24.12483,0,0,1,3.77611-.30762C97.41271,85.207,98.12618,85.2084,98.83967,85.20843Z"/><path class="ba34905b-182f-48bb-b65a-cbc0609db39d" d="M79.056,77.66143a.6576.6576,0,0,1-.31862-.799,11.56629,11.56629,0,0,0,.04992-4.50633A6.89454,6.89454,0,0,0,76.11607,68.09a3.3148,3.3148,0,0,1-.24727-.23482c-.0241-.13149.01742-.19649.16065-.15847l1.733.71781a6.3255,6.3255,0,0,0-1.34363-1.77934,27.75989,27.75989,0,0,0-4.75474-3.95513c-1.39736-.95817-2.86886-1.80789-4.27267-2.75717a51.62005,51.62005,0,0,1-4.564-3.16153,6.33051,6.33051,0,0,1-1.37547-1.70654,12.555,12.555,0,0,1-.77156-1.45746c-.04214-.10228-.13655-.20629-.04932-.315.09135-.11385.20847-.05274.30964.00241,1.02715.55982,2.0477,1.13209,3.082,1.67829.76938.40627,1.5767.74391,2.32958,1.17731.71813.41341,1.51233.6682,2.20868,1.11763.59938.38684,1.29732.57138,1.89544.97433a25.75815,25.75815,0,0,1,3.64087,3.03951,36.74408,36.74408,0,0,1,3.88842,4.63349c.28329.38874.52284.80936.78207,1.21561a.93756.93756,0,0,0,.38975.41224.19329.19329,0,0,0,.16387-.23146c-.14959-.8581-.11939-1.7344-.29892-2.59287a14.14333,14.14333,0,0,0-.66547-1.65714c-.08207-.24133-.30043-.19526-.46859-.16659a1.86716,1.86716,0,0,1-2.08021-1.75163,2.29367,2.29367,0,0,1,.86721-2.269,1.66259,1.66259,0,0,1,2.23331.37185,2.24761,2.24761,0,0,1,.51414,2.53953,1.81469,1.81469,0,0,0,.01169,1.65151c.39872.79785.68243,1.65313,1.01543,2.4838.37609.42217.33352.99057.519,1.47947a2.65135,2.65135,0,0,1,.07444.41318c.01468.13835.06493.269.09172.40468.05207.24134.06728.488.09957.716a11.77665,11.77665,0,0,0-.02135-7.02313c-.20147-.60183-.65214-1.11743-.6252-1.79715a13.20029,13.20029,0,0,0-.99513-2.18567,51.27742,51.27742,0,0,0-3.19225-5.37629,25.10463,25.10463,0,0,0-4.12358-4.78512,23.4599,23.4599,0,0,0-3.2479-2.17889c-1.6512-1.03038-3.3768-1.935-5.01222-2.99391a8.42661,8.42661,0,0,1-3.01149-3.82619c.67523.20347,1.10858.58343,1.62656.77333a2.779,2.779,0,0,1,1.06637.5643l.15252.13808a1.03222,1.03222,0,0,1,.15164.12127.33912.33912,0,0,0,.11494.02241.44373.44373,0,0,1,.16127.12495l.00106.00083a.95613.95613,0,0,0,.13669.11793.6886.6886,0,0,0,.40238.16439q.07634.056.15038.115a.413.413,0,0,0,.12434.0237,1.31981,1.31981,0,0,1,.155.12353l.00552.00477a.57881.57881,0,0,0,.12956.1203c1.59281.94751,3.22424,1.83674,4.76765,2.85881a31.6327,31.6327,0,0,1,4.58018,3.28A11.03173,11.03173,0,0,1,76.603,49.4975c.12995.21315.32888.383.47658.58684a23.88923,23.88923,0,0,1,2.52475,4.40154c.72693,1.65382,1.49241,3.2956,2.09047,5.00563.16366.468.38637.91526.61546,1.45025a8.70055,8.70055,0,0,0,.56959-1.92837,16.44492,16.44492,0,0,1,1.122-3.09925,15.46162,15.46162,0,0,1,2.06977-3.32131,27.2416,27.2416,0,0,0,1.79373-2.60627c.40022-.66839.8496-1.3082,1.29414-1.94892a10.60877,10.60877,0,0,1,.97481-1.488c.16686.04369.1126.18379.09224.27157a36.35272,36.35272,0,0,1-2.15978,6.94747c-.46325,1.01713-.81459,2.09158-1.23355,3.13374-.69327,1.72448-1.41222,3.44008-2.04722,5.186-.4546,1.24985-1.01245,2.45986-1.40051,3.73558a4.32605,4.32605,0,0,0-.11167,2.03892c.09289.54078.137,1.08994.20276,1.63536a9.89031,9.89031,0,0,1-.261,2.21764,1.984,1.984,0,0,1-.27277.69525c-.13371.80951-.51607,1.54387-.70656,2.33623-.14508.162.00942.39472-.1319.55756l-.00034.00059c-.12647.39026-.0886.82849-.2569,1.05383.07571-.12733.1206-.45571.3918-.64313l.0002.00074c.08645-.07113.06015-.2.14054-.27424l-.00031.00023a.939.939,0,0,0,.12448-.14367c.397-.72271.80434-1.43768,1.27272-2.11916a14.36692,14.36692,0,0,1,2.3715-2.83542c.88328-.76451,1.67436-1.63615,2.49875-2.46783,1.01781-1.02679,2.03584-2.05359,3.03752-3.096a10.41541,10.41541,0,0,1,1.14385-1.181,2.7077,2.7077,0,0,1-.31167,1.19338,21.92045,21.92045,0,0,1-3.14136,5.86821,8.10343,8.10343,0,0,1-1.473,1.52469c-.46346.34327-.84874.82525-1.29591,1.21835-.93121.81863-1.84486,1.658-2.79294,2.45648a7.69393,7.69393,0,0,0-1.58728,2.22951c-.216.377-.43009.75507-.67522,1.18565l-1.526-.93082A1.66253,1.66253,0,0,1,79.056,77.66143Z"/><path class="f243d7b2-61fa-427e-b38e-4d14f7e459df" d="M10.89225,92.83864c-.87459-.00041-1.74931-.00915-2.62372.00351a3.1174,3.1174,0,0,1-1.14673-.20466,1.77539,1.77539,0,0,1-1.20518-1.12071c-.52889-1.5881-1.141-3.14771-1.66359-4.73963-.35779-1.08994-.82955-2.14276-1.18068-3.23455-.39359-1.22384-.89276-2.40866-1.28045-3.63311-.13176-.41613-.034-.54142.365-.42008a17.61337,17.61337,0,0,0,5.25618.52536c5.0864-.01573,10.17287-.00553,15.25931-.00553.13809,0,.27622-.00185.41427.00037.67441.01088.71214.03017.69624.7021a3.09763,3.09763,0,0,0,.54531,2.01946c.23313.31275.14646.57122-.13851.83648-1.32849,1.23653-2.63567,2.49592-3.96041,3.73653-.80168.75078-1.62118,1.48215-2.38082,2.27723-.15652.16382-.36857.27325-.53549.42871-.83695.77959-1.68025,1.55313-2.494,2.35648a1.50667,1.50667,0,0,1-1.165.47825C12.73379,92.82505,11.81287,92.839,10.89225,92.83864Z"/><path class="f243d7b2-61fa-427e-b38e-4d14f7e459df" d="M129.62424,80.00923c2.50771,0,5.01557-.01643,7.52305.00687a14.27518,14.27518,0,0,0,3.74365-.4726,3.036,3.036,0,0,1,.40046-.09527c.24018-.02834.35593.067.26235.31966-.09557.258-.19916.51307-.29219.772-.65907,1.83455-1.34409,3.66043-1.96518,5.50778-.46788,1.39168-.98166,2.76513-1.488,4.14218-.12627.3434-.20714.70327-.31423,1.054a1.80791,1.80791,0,0,1-1.31041,1.37324,5.48451,5.48451,0,0,1-1.42105.226c-1.40328-.01133-2.807-.018-4.21.00366a1.55829,1.55829,0,0,1-1.21814-.50641q-4.5486-4.57011-9.126-9.11157c-.35989-.35835-.60464-.67677-.31614-1.25149a4.30245,4.30245,0,0,0,.312-1.47081c.04115-.39946.23548-.51082.58534-.49761.16082.00608.32206.00053.48311.00053Q125.44857,80.0092,129.62424,80.00923Z"/><path class="f243d7b2-61fa-427e-b38e-4d14f7e459df" d="M71.05889,7.086a4.98615,4.98615,0,0,0,.69287-.84524c.07282-.08539.12529-.2121.26307-.15411.12114.051.12928.18014.13243.29614.00437.16087.00332.32192.00332.48289q.00021,18.4557.00019,36.91141a.9443.9443,0,0,1-.00083.13784c-.02862.19188.1.44611-.14943.55315-.20114.08633-.32751-.12178-.47745-.21362q-1.81977-1.11456-3.63476-2.23694c-.16084-.23036-.07809-.49128-.07828-.73591-.00527-7.1282.055-14.25715-.03429-21.38424a30.48307,30.48307,0,0,1,.98559-8.01152A17.58426,17.58426,0,0,1,70.597,7.58727,1.22929,1.22929,0,0,1,71.05889,7.086Z"/><path class="f243d7b2-61fa-427e-b38e-4d14f7e459df" d="M118.01429,84.41382c-.52577.82791-1.025,1.67422-1.58407,2.47906-.69226.99663-1.39885,1.98755-2.16462,2.92773a30.27137,30.27137,0,0,1-2.2202,2.70575c-.41031.39947-.57441.40927-.95539-.00343-1.83237-1.98495-3.66711-3.96777-5.48454-5.9663-.26081-.28679-.48588-.60837-.768-.87953-.099-.09513-.21623-.20108-.16564-.35276.06206-.18618.24156-.18674.40219-.19281.16084-.00608.32208-.00257.48313-.00258q3.55483-.00012,7.10967-.00092a10.94919,10.94919,0,0,0,5.24185-.83006Z"/><path class="f243d7b2-61fa-427e-b38e-4d14f7e459df" d="M84.2504,26.438c-.28208,1.25679-.55239,2.45941-.82186,3.66222-.66143,2.95218-1.37878,5.89334-1.9644,8.86049q-.61156,3.09858-1.035,6.23783c-.16613,1.22487-.41773,2.438-.62153,3.658-.102.61064-.04057,1.23564-.17924,1.848-.10508.46408-.12671.947-.19138,1.46925-.33363-.18374-.31233-.49473-.359-.736-.2869-1.4845-.55212-2.97328-.81194-4.46282a4.76149,4.76149,0,0,1-.03286-.75768c-.01109-.94212-.147-1.87312-.23305-2.80882a8.36737,8.36737,0,0,1-.01674-1.65439,25.8376,25.8376,0,0,1,.5216-4.15452,8.47258,8.47258,0,0,1,.55425-1.4815c.72745-1.48132,1.37006-3.00111,2.12125-4.47336.85633-1.67832,1.783-3.31344,2.71392-4.94845A.4388.4388,0,0,1,84.2504,26.438Z"/><path class="f243d7b2-61fa-427e-b38e-4d14f7e459df" d="M26.14106,84.435a14.15112,14.15112,0,0,0,5.42094.69364q3.10239.00129,6.20477.00114a1.33121,1.33121,0,0,1,.90577.18359,6.35409,6.35409,0,0,1-.93895,1.1366c-1.15087,1.20732-2.237,2.47231-3.35106,3.71245-.59765.66532-1.19412,1.33221-1.8105,1.98-.3228.33922-.40494.33738-.71185-.02455-.85588-1.00933-1.74047-1.99335-2.56686-3.0293-.729-.91386-1.41874-1.85646-2.13-2.7828-.42386-.552-.76945-1.16411-1.15023-1.74918Z"/><path class="f243d7b2-61fa-427e-b38e-4d14f7e459df" d="M70.90729,77.51843c-.82914-.33214-1.65326-.67774-2.48964-.99057a.75676.75676,0,0,1-.55782-.82262c.01488-3.44972.00823-6.89954.00852-10.34931,0-.09193-.00011-.18413.00625-.27574.0186-.26781.1828-.28975.38615-.21241a2.03118,2.03118,0,0,1,.302.16432,17.21905,17.21905,0,0,0,3.08159,1.66458c.4605.15874.51311.51059.51181.93618-.01036,3.38075-.00659,6.76155-.00715,10.14234A.97385.97385,0,0,1,70.90729,77.51843Z"/><path class="f25ffdf0-f5a5-4900-b383-0b2c60571182" d="M78.25524,51.29125l-.21259-.20677-.04062-.05216-.12043-.22058-.02892-.03692a.88006.88006,0,0,0-.24138-.377l-.03462-.03621a4.74466,4.74466,0,0,1-.70223-3.01021c.02379-7.52193.01259-15.044.01259-22.566v-.74782c.24631-.09257.30089.09665.37405.22215.74963,1.28619,1.51766,2.56257,2.23016,3.86916.45009.82535.954,1.617,1.41782,2.433a.63946.63946,0,0,1,.03564.65155c-.50092,1.00538-.98518,2.022-1.5126,3.01063a15.805,15.805,0,0,0-1.61932,5.162,31.64874,31.64874,0,0,0,.073,8.86864q.19239,1.4694.38849,2.93832A.05916.05916,0,0,1,78.25524,51.29125Z"/><path class="f243d7b2-61fa-427e-b38e-4d14f7e459df" d="M129.627,79.18539q-4.4203.00011-8.84059-.001c-.20653-.00011-.41359-.00945-.61935-.02687a.18037.18037,0,0,1-.1677-.18525.17729.17729,0,0,1,.16183-.18907c.20571-.01793.41295-.02535.61956-.02541q6.49229-.002,12.98458-.00122c.837-.00009.83822-.00141.839-.81582.00112-1.21978-.00329-2.43958.00179-3.65933.00268-.639.01014-.62133.666-.64258a10.35739,10.35739,0,0,1,6.09845,1.80842,2.9428,2.9428,0,0,1,.78606.76806,1.59139,1.59139,0,0,1-.863,2.39407,12.11466,12.11466,0,0,1-3.7239.58422C134.92236,79.16609,132.2746,79.1853,129.627,79.18539Z"/><path class="f243d7b2-61fa-427e-b38e-4d14f7e459df" d="M14.05647,79.17371c-3.03633,0-6.07272.01063-9.10895-.00586a9.48609,9.48609,0,0,1-3.026-.59072,1.55368,1.55368,0,0,1-.59043-2.58068,6.81627,6.81627,0,0,1,2.10252-1.40926,10.071,10.071,0,0,1,4.53632-.94888c.62856-.00059.642.00875.64442.66615.00449,1.21873-.001,2.43749.00219,3.65622.002.78322.01476.79535.82326.79555q6.90082.00168,13.80165.0012c.20671,0,.4136.006.62.01633a.18162.18162,0,0,1,.18761.1644.19086.19086,0,0,1-.19488.2271c-.20589.01553-.413.01929-.61965.01936q-4.58906.00164-9.1781.00074Z"/><path class="f243d7b2-61fa-427e-b38e-4d14f7e459df" d="M72.85214,77.93266c1.22441-.29315,2.38523-.781,3.57446-1.18082a1.01383,1.01383,0,0,1,1.01085.13306,4.67529,4.67529,0,0,0,1.19354.775,1.3621,1.3621,0,0,1,.15743.12572l.00268.00134a1.903,1.903,0,0,1,.94814.71166l1.59607,1.18877H62.88165c-.05021-.17731.08963-.24675.19727-.31821,1.31522-.87318,2.64081-1.731,3.94468-2.62076a.76908.76908,0,0,1,.82445-.07636c.82843.33615,1.669.64243,2.507.95479a1.14,1.14,0,0,0,.27246.03208c.3722.12555.81094.07471,1.102.41545l.00592-.00048a.86648.86648,0,0,0,.70264.001l-.00066.001C72.54449,77.93816,72.74017,78.05652,72.85214,77.93266Z"/><path class="f243d7b2-61fa-427e-b38e-4d14f7e459df" d="M75.72441,92.241c-1.70089,1.60054-3.67952,2.76642-5.38238,4.32535.89334-.23747,1.79227-.456,2.67849-.71768a17.19389,17.19389,0,0,1,2.72549-.679.46189.46189,0,0,1-.23954.55049,35.30778,35.30778,0,0,1-3.26793,2.156,16.10716,16.10716,0,0,0-2.74732,1.86469c.68385-.17459,1.22251-.291,1.748-.45069,1.07386-.32647,2.14058-.67638,3.21044-1.016a.43077.43077,0,0,1,.1337-.03052c.267.00595.63058-.134.75838.14819.11526.25446-.22472.43279-.40718.56387-.66957.48108-1.37948.90569-2.05579,1.37792a5.53683,5.53683,0,0,1-1.671.78474,4.77715,4.77715,0,0,1-1.77541.13807c-.67773-.06154-.8687-.28788-.87014-.96379-.00336-1.58726.01166-3.17472-.0114-4.76166a1.16943,1.16943,0,0,1,.56488-1.08745,9.21084,9.21084,0,0,1,3.40851-1.5731c.83068-.16869,1.64665-.41075,2.46725-.62732A.98016.98016,0,0,1,75.72441,92.241Z"/><path class="f243d7b2-61fa-427e-b38e-4d14f7e459df" d="M77.04372,105.05781a4.207,4.207,0,0,1-.65853,1.34789,15.23094,15.23094,0,0,1-1.48419,2.14818,7.21157,7.21157,0,0,1-.94916.89291,1.69326,1.69326,0,0,1-1.14908.39665c-.321-.01846-.644-.00252-.96612-.00273a3.24236,3.24236,0,0,1-2.39449-1.18808,19.76854,19.76854,0,0,1-2.0889-3.06352c-.282-.44448-.21055-.58385.28332-.58477q4.59032-.00852,9.18068.00021A1.1633,1.1633,0,0,1,77.04372,105.05781Z"/><path class="f243d7b2-61fa-427e-b38e-4d14f7e459df" d="M60.21292,21.96342c.5391.1992,1.044.34054,1.508.566A11.18081,11.18081,0,0,1,65.027,24.84174,5.14777,5.14777,0,0,1,66.31,26.853a15.69823,15.69823,0,0,1,.63917,3.083c.12584,1.297.158,2.60373.35469,3.89408a1.5984,1.5984,0,0,1,.00675.27532c-.00265.11635-.01212.24876-.15858.2577-.09089.00555-.155-.08486-.19919-.16974C66.00132,32.364,64.904,30.6155,63.922,28.80546c-1.21209-2.23413-2.56761-4.38633-3.72943-6.64731C60.18382,22.14111,60.19627,22.11318,60.21292,21.96342Z"/><path class="f243d7b2-61fa-427e-b38e-4d14f7e459df" d="M78.6509,84.834a4.38683,4.38683,0,0,0-1.14336.96927,43.62979,43.62979,0,0,1-4.51648,3.2546c-.94808.64331-1.878,1.31443-2.8413,1.93392-.65365.42035-1.28846.87158-1.97643,1.24123-.36143.1942-.67649.47281-1.024.69543-.21671.13884-.46218.25162-.6874.01384-.19942-.21054-.07645-.42779.023-.63618a5.06188,5.06188,0,0,1,2.74294-2.56781,11.01324,11.01324,0,0,0,1.70656-.8854c1.0824-.69149,2.23107-1.27594,3.27314-2.031a25.78842,25.78842,0,0,0,3.78587-3.18811,3.86665,3.86665,0,0,1,2.24529-1.242c.17946-.02912.36366-.11217.487.105A5.4675,5.4675,0,0,1,78.925,84.55738h-.0001c-.04534.0463-.09414.08922-.13635.13861l-.00112.00111A1.11555,1.11555,0,0,0,78.6509,84.834Z"/><path class="f243d7b2-61fa-427e-b38e-4d14f7e459df" d="M72.14873,55.98833c0,.71172.01159,1.4237-.005,2.135-.008.341-.16564.41865-.43118.2156a32.49546,32.49546,0,0,0-3.40669-2.06167.75138.75138,0,0,1-.44606-.75388c.02226-1.21641.00816-2.43349.00885-3.6503a3.1889,3.1889,0,0,1,.01048-.3438c.01938-.17767.12219-.23641.28509-.16294a2.6952,2.6952,0,0,1,.30046.16589,20.62994,20.62994,0,0,0,3.11826,1.72149.81765.81765,0,0,1,.57754.94445c-.04068.59415-.00973,1.1932-.00973,1.79013Z"/><path class="f243d7b2-61fa-427e-b38e-4d14f7e459df" d="M85.70263,51.2764a2.084,2.084,0,0,1-1.83088,1.63448c-.30084.04351-.39745.17265-.37616.44729a3.88333,3.88333,0,0,1-.343,1.53045,21.48809,21.48809,0,0,0-.78037,3.13114.4805.4805,0,0,1-.18921.37648,1.10732,1.10732,0,0,1-.33017-1.24278c.29514-1.13638.4349-2.29569.61485-3.45019a1.644,1.644,0,0,0-.4276-1.62873,1.57683,1.57683,0,0,1-.36829-1.78444c.06638-.17039.1134-.34833.16931-.5228.01108-.03055.02216-.06112.03287-.09195a1.28446,1.28446,0,0,1,.31728-.38984c1.27094-.81752,2.38347-.72443,3.22374.28874A1.53458,1.53458,0,0,1,85.70263,51.2764Z"/><path class="f25ffdf0-f5a5-4900-b383-0b2c60571182" d="M80.59192,65.48068a4.55618,4.55618,0,0,0-.548-1.54625,3.36428,3.36428,0,0,1-.23414-2.34926,2.78847,2.78847,0,0,0-.88049-2.86789,2.10988,2.10988,0,0,0-1.7303-.49191c-.51958.06671-.53107.05663-.534-.46734-.00616-1.10327-.0012-2.2066.00185-3.30991a1.54525,1.54525,0,0,1,.04359-.23845c.27594.08806.37649.32073.49713.52532.76738,1.30153,1.53838,2.601,2.29244,3.91028.30852.53567.57782,1.09393.865,1.64192a.70024.70024,0,0,1,.18992.16261c.0288.05376.05753.10642.08967.15845a2.12788,2.12788,0,0,1,.11779.27561,9.71753,9.71753,0,0,1,.76957,6.22595c-.35447.422-.47931.4151-.65007-.04783A7.08636,7.08636,0,0,1,80.59192,65.48068Z"/><path class="f243d7b2-61fa-427e-b38e-4d14f7e459df" d="M75.80522,84.78536a1.96235,1.96235,0,0,1-.5951.62322,31.01472,31.01472,0,0,1-2.87987,1.87255c-.70094.42839-1.42517.81877-2.12473,1.24929a5.85837,5.85837,0,0,1-1.03434.54122c-.31765.11675-.57614.01135-.58091-.26628a4.52275,4.52275,0,0,1-.05553-1.56284.95034.95034,0,0,1,.53267-.65758,15.0655,15.0655,0,0,1,2.74034-.8968,6.13243,6.13243,0,0,0,.8603-.22887,23.22317,23.22317,0,0,1,2.85322-.74622A.27191.27191,0,0,1,75.80522,84.78536Z"/><path class="f25ffdf0-f5a5-4900-b383-0b2c60571182" d="M63.185,80.95034a9.33681,9.33681,0,0,1,1.38305.89934c.82318.49912,1.6042,1.06742,2.40778,1.59935a.58192.58192,0,0,1,.32531.49173c.00193,1.41819.001,2.83638-.081,4.28086-.78981-1.14628-1.45823-2.34336-2.141-3.532-.68529-1.193-1.379-2.38127-2.069-3.5716C62.99,80.98041,63.0487,80.92492,63.185,80.95034Z"/><path class="f243d7b2-61fa-427e-b38e-4d14f7e459df" d="M74.21155,82.53842a1.3909,1.3909,0,0,1-.69787.91421c-.84175.51369-1.68148,1.03078-2.52725,1.53776-.5876.35223-1.18282.69183-1.77661,1.03362-.48923.28157-.63464.21394-.746-.33692a3.59328,3.59328,0,0,1,.14209-1.28975c.02235-.14325.16268-.21365.28852-.27624a4.36012,4.36012,0,0,1,.9476-.40037,33.98217,33.98217,0,0,0,3.43967-.98041A3.38794,3.38794,0,0,1,74.21155,82.53842Z"/><path class="e128777e-cd8f-468d-ba79-bfe20d1d62cd" d="M71.0589,7.086a2.28553,2.28553,0,0,1-.17572.44563,17.97321,17.97321,0,0,0-2.21644,5.31205,23.92285,23.92285,0,0,0-.51192,2.9741,45.52788,45.52788,0,0,0-.28643,6.25447q.01621,9.52422.00466,19.04848c0,.29893.00978.59786.01513.89679-.26564-.2154-.14857-.51431-.14885-.77425Q67.729,31.682,67.734,22.12064V19.13937c-.2846.43556.04425.88323-.27945,1.19791a34.79946,34.79946,0,0,1,.81782-7.13788,19.4497,19.4497,0,0,1,1.7731-4.95649c.26923-.4964.34692-1.10347.85548-1.45965A.33393.33393,0,0,0,71.0589,7.086Z"/><path class="f25ffdf0-f5a5-4900-b383-0b2c60571182" d="M67.44025,22.2409q.0724,3.45511-.03707,6.92087a3.66353,3.66353,0,0,1-.4195-1.407,6.98093,6.98093,0,0,0-1.03-2.45318.66832.66832,0,0,1-.00837-.80717c.38768-.64591.73227-1.31755,1.10185-1.97454a2.49183,2.49183,0,0,1,.25085-.31675Z"/><path class="bc32603f-035c-462c-bfeb-95ca1f9f634b" d="M80.49255,60.58194l-.09127-.229.03031-.08467.15656-.164a11.44985,11.44985,0,0,1,.64739,9.42536,3.90052,3.90052,0,0,1-.24985-1.39561c-.06631-.08312-.03883-.20286-.11085-.28375l-.03333-.40719c-.04426-.11984.06163-.20593.11529-.1467.32977.36409.37211.07779.43853-.17535a7.15543,7.15543,0,0,1,.05642-.887,8.27095,8.27095,0,0,0-.508-4.42985c-.14147-.38509-.27931-.77152-.41882-1.15734Z"/><path class="f25ffdf0-f5a5-4900-b383-0b2c60571182" d="M78.70056,66.26989a13.56593,13.56593,0,0,0-1.71486-2.24107.76494.76494,0,0,1-.14072-.58455c.01118-.19286.11473-.29747.31226-.26987.27114.03788.54113.08511.81024.13562a.237.237,0,0,1,.19139.17757,10.30752,10.30752,0,0,1,.62891,2.57373A1.53124,1.53124,0,0,1,78.70056,66.26989Z"/><path class="b06f53f3-1d32-4bea-ba1d-d4db30347233" d="M85.70263,51.2764a2.07421,2.07421,0,0,0-.765-1.93836,2.04946,2.04946,0,0,0-2.2403-.21966,4.50764,4.50764,0,0,0-.576.36174,2.70121,2.70121,0,0,1-.29164.28522l.01123.00191-.17623-.02744-.0068-.06874a.79363.79363,0,0,1,.36414-.3666l.04472-.0391.104-.0952.0212-.02152a1.3446,1.3446,0,0,1,.78242-.39389l.03881-.03343a2.18213,2.18213,0,0,1,2.966,1.76791c.02732.26165-.13652.61654.26033.76187C86.07434,51.5511,85.88482,51.3359,85.70263,51.2764Z"/><path class="b4c0c254-4a15-49cc-b425-284f526a8094" d="M78.925,84.55738q.90036-1.03033,1.80075-2.06062a.27568.27568,0,0,0,.14139.27152,1.97474,1.97474,0,0,1-.55709.75143c-.47533.38269-.73738.965-1.24151,1.31994A.30962.30962,0,0,0,78.925,84.55738Z"/><path class="a9b7ba5d-1a90-4600-bbf2-a56974560231" d="M82.94276,72.41116c.11151-.59888.1901-1.20653.34649-1.79347.09909-.37185-.06768-.781.18736-1.11938.02.14673-.01766.31223.13507.41593a11.74357,11.74357,0,0,1-.34324,2.2992c-.029.15351-.08565.33682.19519.27574C83.22072,72.92544,83.10752,72.49625,82.94276,72.41116Z"/><path class="f25ffdf0-f5a5-4900-b383-0b2c60571182" d="M83.89672,54.44947a1.48815,1.48815,0,0,0-.01817-1.17411.59992.59992,0,0,1,.15063-.06166c.79721-.0444.83979.01552.48515.74131-.14842.30376-.32565.59345-.48978.88953C83.6752,54.812,83.86373,54.60561,83.89672,54.44947Z"/><path class="ee90a21b-8494-4a67-8457-92fafc09d5e8" d="M81.39533,67.12111a.88533.88533,0,0,1-.02021.33068c-.1028.209-.24129.39228-.384.015-.03345-.08841-.08933-.07959-.14945-.02369a5.924,5.924,0,0,1-.39173-1.53191c.15938-.1066.10695-.283.142-.43052.27.60152.32208,1.2708.55752,1.88148C81.31721,67.34194,81.30486,67.18331,81.39533,67.12111Z"/><path class="a6aa73a0-6044-43ed-8e9a-7f24094551ac" d="M63.69856,40.09586a1.70955,1.70955,0,0,1-1.06644-.56427c.2488.00607.19007-.13327.12951-.27347a4.76479,4.76479,0,0,1,1.27687.81328Z"/><path class="e70940b3-4b8f-4f99-92d0-e8c5dfd8b495" d="M82.23886,75.71624a2.33691,2.33691,0,0,1-.62454,1.15138,3.90566,3.90566,0,0,1,.48963-1.56208C82.11282,75.4543,82.07469,75.61847,82.23886,75.71624Z"/><path class="b58454c5-531c-422c-9923-1193e6c4abc0" d="M79.73924,78.49861a2.45089,2.45089,0,0,1-.94818-.71163.2707.2707,0,0,0,.265-.12561,2.78956,2.78956,0,0,1,.96868.68393A.29726.29726,0,0,0,79.73924,78.49861Z"/><path class="b249f5cd-f7e8-4940-90e4-7ddb21eec79d" d="M71.72944,78.07437a2.66869,2.66869,0,0,1-1.1019-.4155c.10983-.01378.22026-.02653.2798-.14046a3.153,3.153,0,0,0,1.24167.25692C72.08345,77.97908,71.81166,77.8939,71.72944,78.07437Z"/><path class="f25ffdf0-f5a5-4900-b383-0b2c60571182" d="M83.89672,54.44947c.0497.12941-.04319.30491.12783.39507a1.67841,1.67841,0,0,1-.33794.7272A2.8277,2.8277,0,0,1,83.89672,54.44947Z"/><path class="bb01f832-0fdc-4f13-9545-b4890533f100" d="M76.02945,67.69675l-.1605.15842c-.20848-.131-.46069-.20612-.61179-.51312A1.31006,1.31006,0,0,1,76.02945,67.69675Z"/><path class="fd6ddc01-dc6a-43f1-bbf3-bccae054b823" d="M63.185,80.95034l-.17485.16768a.41784.41784,0,0,1-.10212-.08252c-.056-.087-.18052-.186-.07662-.28461.103-.09779.19777.02478.2795.09064A.45017.45017,0,0,1,63.185,80.95034Z"/><path class="b249f5cd-f7e8-4940-90e4-7ddb21eec79d" d="M72.438,78.07491a.48615.48615,0,0,1-.7026-.00108Q72.08666,78.07443,72.438,78.07491Z"/><path class="a6aa73a0-6044-43ed-8e9a-7f24094551ac" d="M65.66151,40.9187a.58931.58931,0,0,1,.45825.25388A.39132.39132,0,0,1,65.66151,40.9187Z"/><path class="e70940b3-4b8f-4f99-92d0-e8c5dfd8b495" d="M82.1043,75.305c.00974-.19393-.05034-.40438.13193-.55753C82.22971,74.94211,82.30155,75.15533,82.1043,75.305Z"/><path class="b249f5cd-f7e8-4940-90e4-7ddb21eec79d" d="M72.85214,77.93266c-.10361.14813-.26162.13872-.41481.14322C72.5314,77.90032,72.69616,77.92918,72.85214,77.93266Z"/><path class="f243d7b2-61fa-427e-b38e-4d14f7e459df" d="M78.25524,51.29125l-.0228-.05594.04175-.043c.109.04895.10255.14157.07684.22993-.0188.06462-.06888.06486-.09312.00093A.394.394,0,0,1,78.25524,51.29125Z"/><path class="a6aa73a0-6044-43ed-8e9a-7f24094551ac" d="M65.38809,40.79745a.26413.26413,0,0,1,.27118.12008A.2672.2672,0,0,1,65.38809,40.79745Z"/><path class="b4c0c254-4a15-49cc-b425-284f526a8094" d="M79.0704,84.83619a.32308.32308,0,0,1-.14337.27793A.26655.26655,0,0,1,79.0704,84.83619Z"/><path class="a6aa73a0-6044-43ed-8e9a-7f24094551ac" d="M64.834,40.501a.29844.29844,0,0,1,.267.14353A.26519.26519,0,0,1,64.834,40.501Z"/><path class="a6aa73a0-6044-43ed-8e9a-7f24094551ac" d="M64.5632,40.34966a.31211.31211,0,0,1,.27069.15128A.24952.24952,0,0,1,64.5632,40.34966Z"/><path class="a6aa73a0-6044-43ed-8e9a-7f24094551ac" d="M64.1435,40.09659a.23976.23976,0,0,1,.26393.135A.27689.27689,0,0,1,64.1435,40.09659Z"/><path class="e128777e-cd8f-468d-ba79-bfe20d1d62cd" d="M67.30922,20.61154a.3131.3131,0,0,1,.14658-.27688A.26276.26276,0,0,1,67.30922,20.61154Z"/><path class="e70940b3-4b8f-4f99-92d0-e8c5dfd8b495" d="M82.3796,75.44274a.27752.27752,0,0,1-.14053.27425A.27752.27752,0,0,1,82.3796,75.44274Z"/><path class="b4c0c254-4a15-49cc-b425-284f526a8094" d="M78.65089,84.834l.13654-.13695Z"/><path class="a6aa73a0-6044-43ed-8e9a-7f24094551ac" d="M65.24874,41.048l-.15483-.12359Z"/><path class="b58454c5-531c-422c-9923-1193e6c4abc0" d="M78.78842,77.78561l-.15729-.12576Z"/><path class="a6aa73a0-6044-43ed-8e9a-7f24094551ac" d="M65.10707,40.64707a.19.19,0,0,1,.19112.10946A.20808.20808,0,0,1,65.10707,40.64707Z"/><polygon class="f243d7b2-61fa-427e-b38e-4d14f7e459df" points="77.853 50.775 77.891 50.776 77.882 50.812 77.853 50.775"/><path class="a6aa73a0-6044-43ed-8e9a-7f24094551ac" d="M64.41668,40.62133,64.28,40.50339Z"/><polygon class="f243d7b2-61fa-427e-b38e-4d14f7e459df" points="77.577 50.362 77.615 50.362 77.612 50.398 77.58 50.394 77.577 50.362"/><path class="a6aa73a0-6044-43ed-8e9a-7f24094551ac" d="M64.27893,40.50257q-.08044-.06255-.16108-.125A.19776.19776,0,0,1,64.27893,40.50257Z"/><path class="a6aa73a0-6044-43ed-8e9a-7f24094551ac" d="M64.41481,40.23628a.163.163,0,0,1,.156.11887Z"/><polygon class="f243d7b2-61fa-427e-b38e-4d14f7e459df" points="81.481 49.845 81.478 49.808 81.517 49.808 81.514 49.842 81.481 49.845"/><path class="a6aa73a0-6044-43ed-8e9a-7f24094551ac" d="M64.00272,40.35521l-.15153-.12132Z"/><path class="f243d7b2-61fa-427e-b38e-4d14f7e459df" d="M81.65793,49.67107a.1008.1008,0,0,1,.007.06887l-.05838-.00932.00536-.04772Z"/><path class="f243d7b2-61fa-427e-b38e-4d14f7e459df" d="M80.43159,60.26831a.12571.12571,0,0,1-.02992.08523l-.04444-.019.00755-.04785A.058.058,0,0,1,80.43159,60.26831Z"/><path class="b4c0c254-4a15-49cc-b425-284f526a8094" d="M78.78856,84.696l.13635-.13861Z"/><path class="e70940b3-4b8f-4f99-92d0-e8c5dfd8b495" d="M82.50377,75.2993l-.12448.14367Z"/><path class="a6aa73a0-6044-43ed-8e9a-7f24094551ac" d="M65.38382,41.17305l-.12963-.1203Z"/><polygon class="f243d7b2-61fa-427e-b38e-4d14f7e459df" points="78.002 51.032 78.047 51.041 78.043 51.085 78.003 51.074 78.002 51.032"/><path class="a6aa73a0-6044-43ed-8e9a-7f24094551ac" d="M64.96944,40.90076l-.15027-.11509Z"/><path class="ab8c884f-cd98-4035-88d9-fb735b5263f6" d="M42.8804,105.79476a4.57083,4.57083,0,0,1-.45492,1.95852c-.26972.78094-.57266,1.55036-.85043,2.32862a1.89192,1.89192,0,0,0,.91383,2.17586,2.87518,2.87518,0,0,0,3.76649-.35939,5.81986,5.81986,0,0,0,1.117-1.39022.97558.97558,0,0,0,.04529-1.10293c-.13914-.20582-.08313-.34525.05335-.54659a9.55658,9.55658,0,0,1,1.2776-1.23983c.25064-.25448.43872-.1921.66151.12528.0922.13134.17308.27189.27551.39457a2.13331,2.13331,0,0,1,.23369,2.48714,12.32161,12.32161,0,0,1-2.86215,3.48191,5.71228,5.71228,0,0,1-2.88372,1.22156,4.055,4.055,0,0,1-1.56573-.17927,4.70672,4.70672,0,0,1-2.65683-1.85561,3.19226,3.19226,0,0,1-.537-1.82248,10.74444,10.74444,0,0,1,.7854-4.02579c.07349-.19306.13873-.38958.22-.57928.1697-.39638.28108-.76192-.12092-1.11756-.23778-.21034-.12838-.48609.09353-.65382.46174-.349.84316-.78084,1.267-1.16837.20836-.19053.35034-.21078.56288.03189A1.8915,1.8915,0,0,1,42.8804,105.79476Z"/><path class="ab8c884f-cd98-4035-88d9-fb735b5263f6" d="M123.09178,95.19493c-1.39042,0-2.67714.00366-3.96383-.00134a15.59548,15.59548,0,0,1-2.383-.31283.69988.69988,0,0,1-.659-.67535c-.03442-.34038-.12218-.67524-.18365-1.013-.10188-.55989-.08122-.60948.50215-.479a16.47846,16.47846,0,0,0,3.76933.26883.979.979,0,0,0,.69713-.11411,8.48619,8.48619,0,0,0-2.11447-3.8496,6.23242,6.23242,0,0,1,1.45159-.84893.55427.55427,0,0,1,.72519.17926,9.82337,9.82337,0,0,1,1.429,2.18372,6.06671,6.06671,0,0,1,.80543,2.03737.4437.4437,0,0,0,.52584.42191c.43535-.02893.87593-.01083,1.30644-.0699a.5756.5756,0,0,1,.6463.25863c.27256.42363.60251.80569.86021,1.24338a.47819.47819,0,0,1-.03143.60473c-.7879,1.18381-1.57583,2.36812-2.33242,3.57194-.28023.44587-.52461.91449-.82351,1.3513-.17984.26283-.35274.26051-.55747.05574-.43892-.439-.86842-.88757-1.31446-1.31913a.40937.40937,0,0,1-.07344-.54646c.33774-.73291.85484-1.358,1.2208-2.07316C122.7289,95.80622,122.8858,95.55508,123.09178,95.19493Z"/><path class="ab8c884f-cd98-4035-88d9-fb735b5263f6" d="M103.8184,103.88984c0-.29869-.015-.59839.0051-.89571.01426-.21086.13322-.34064.3729-.27553.221.06.44245.11861.66232.18256,1.1882.34559,2.374.69978,3.56477,1.03611.57279.1618.67364.09654.61566-.49008a6.94034,6.94034,0,0,0-.742-2.41676c-.52984-1.06012-.545-.911.58156-1.14582,1.07636-.22432,1.07238-.20275,1.54115.82067a10.11425,10.11425,0,0,1,.945,3.70733c.02206.42611.28919.47611.56544.55874.65884.197,1.32722.36272,1.98355.56735.52735.1644.59841.268.48127.80016-.08.36349-.07894.72883-.131,1.09063-.06123.42584-.1855.49482-.59959.37246q-1.94609-.57505-3.89035-1.15631c-.30473-.09062-.66633-.284-.91157-.04339-.24551.24083-.07129.606.03484.90706a12.91652,12.91652,0,0,0,1.09889,2.4401,4.00721,4.00721,0,0,1,.22068.429c.09016.19917.07046.351-.18013.41533-.42172.10822-.845.2144-1.25822.35009a.43559.43559,0,0,1-.57188-.21994,9.12623,9.12623,0,0,1-.96035-1.82518,11.677,11.677,0,0,1-.76757-2.19983c-.23714-1.45157-.1582-1.01746-1.378-1.57627-.12456-.05707-.26676-.07663-.38926-.137-.28347-.13967-.72359-.051-.85507-.34621a2.51681,2.51681,0,0,1-.02514-.94944Z"/><path class="ab8c884f-cd98-4035-88d9-fb735b5263f6" d="M27.26188,104.18906c.11781-.81878.20076-1.75605.33089-2.68461A11.00683,11.00683,0,0,1,27.7696,99.726c.06424-.20878-.05673-.35049-.31643-.29566a2.36859,2.36859,0,0,0-.77784.23653,17.0198,17.0198,0,0,0-2.49512,1.70317c-.29742.25652-.37464.21827-.52336-.13869-.15862-.38069-.33174-.75633-.51888-1.12382a.42486.42486,0,0,1,.14-.59056,15.2694,15.2694,0,0,1,2.91367-2.04623,4.47009,4.47009,0,0,1,1.278-.49732.71091.71091,0,0,0,.6568-.67507c.06158-.521.19576-1.03286.24-1.55959.03951-.47072.17465-.61887.63908-.63638.439-.01653.86547-.10493,1.29861-.15089.302-.032.41827.10866.37472.41036-.16682,1.15551-.333,2.31121-.48488,3.46874a6.38143,6.38143,0,0,0-.04273.96414c.00768.35735.12621.44657.488.34809a7.78161,7.78161,0,0,0,1.86833-.87347c.33571-.197.64528-.43872.965-.66254.35048-.24532.41984-.2296.596.16753.07429.16746.12394.34566.19379.51527.45154,1.09643.46091,1.11053-.57125,1.72163a11.24912,11.24912,0,0,1-3.31007,1.4793.721.721,0,0,0-.62393.77765c-.01614.62093-.1635,1.2259-.17548,1.84976-.01273.66194-.13054.73021-.78706.74213a8.00727,8.00727,0,0,0-.89379.04285C27.29952,104.98176,27.23789,104.93351,27.26188,104.18906Z"/><path class="ab8c884f-cd98-4035-88d9-fb735b5263f6" d="M116.518,105.781a15.99656,15.99656,0,0,1-1.31313-1.74672c-.184-.25237-.09152-.4918.18272-.70257a7.65006,7.65006,0,0,0,1.5391-1.56552,1.29729,1.29729,0,0,0,.19049-1.23476,4.16977,4.16977,0,0,0-1.41372-1.91131,1.13483,1.13483,0,0,0-1.51992.05947c-.3901.31572-.75127.66689-1.13373.99243a3.20529,3.20529,0,0,1-.557.4035.86825.86825,0,0,1-1.2864-.42275c-.19625-.41444-.37863-.83583-.55459-1.25936-.14529-.34976-.10562-.48374.25-.5485a2.03882,2.03882,0,0,0,1.03246-.6392,7.93566,7.93566,0,0,1,1.3816-1.23511,2.22846,2.22846,0,0,1,2.163-.13712,6.41937,6.41937,0,0,1,2.07689,1.76163,5.26329,5.26329,0,0,1,1.20609,2.33909c.291-.05836.383-.30643.57929-.42117.33113-.19356.41734-.18659.65219.17086.27667.42114.60815.80119.85621,1.24635.2693.48322.307.47376-.05.81824q-2.02944,1.95818-4.06859,3.90633A1.2785,1.2785,0,0,1,116.518,105.781Z"/><path class="ab8c884f-cd98-4035-88d9-fb735b5263f6" d="M71.7112,122.12229c-1.25123.02133-1.14348-.06581-1.037-1.10055.11274-1.09567.0234-2.19871.2103-3.29031a6.84535,6.84535,0,0,0,.01885-1.5139.9697.9697,0,0,0-1.02861-.9867c-.83091.01819-1.64392-.15847-2.47179-.149a2.28633,2.28633,0,0,1-1.46635-.507c-.1715-.135-.28438-.28427-.16766-.53044.23575-.49715.45067-1.0042.6726-1.50787.11618-.26368.24216-.40451.57635-.24168a3.79964,3.79964,0,0,0,1.61043.288,17.61322,17.61322,0,0,1,2.26437.13434,1.85732,1.85732,0,0,1,1.25081.65,3.68928,3.68928,0,0,1,.87865,3.19766,1.08324,1.08324,0,0,0-.03279.27272c.05152,1.379-.2076,2.74629-.15356,4.12521.0036.09176.001.18392-.00253.27575-.03171.82463-.10161.89181-.91516.88409C71.84915,122.122,71.78016,122.12256,71.7112,122.12229Z"/><path class="ab8c884f-cd98-4035-88d9-fb735b5263f6" d="M92.61544,109.56973c0-.2432-.001-.38126.00021-.51931.00213-.23779.11713-.35741.3484-.26512a.9416.9416,0,0,0,.79673-.10673c.70053-.35075,1.47366-.52706,2.15413-.92013a2.854,2.854,0,0,1,3.9226,1.11942,10.28573,10.28573,0,0,1,.83193,1.80969c.25706.75791.6537,1.46794.97954,2.2033.26009.587.48717,1.18922.76351,1.76817.14036.294.08823.50447-.17838.62955-.43526.20421-.89.36672-1.33542.54967-.21954.0902-.28506-.06807-.35356-.2154-.22214-.47777-.44068-.95721-.66108-1.43579-.48938-1.06265-.85751-2.17766-1.39181-3.22088-.07336-.14326-.14257-.28936-.22614-.42657a.902.902,0,0,0-1.27925-.43392c-.69855.28991-1.39237.59395-2.07313.92309a3.17539,3.17539,0,0,1-1.668.32425c-.29535-.023-.47347-.137-.50035-.45032C92.70421,110.42316,92.65242,109.94455,92.61544,109.56973Z"/><path class="ab8c884f-cd98-4035-88d9-fb735b5263f6" d="M84.59552,112.34221c0-.13783-.002-.2757.00032-.4135.0127-.76383.01367-.77175.76454-.7138a2.59158,2.59158,0,0,0,1.01149-.17429c.69873-.22912,1.423-.35872,2.12307-.56847a2.72807,2.72807,0,0,1,3.28226,1.69163,14.05467,14.05467,0,0,1,.85442,2.96689,12.14491,12.14491,0,0,0,.44637,1.58611c.149.52862.27682,1.06358.439,1.588a.42758.42758,0,0,1-.3358.61993c-.41889.11959-.84117.22789-1.25751.35563a.27629.27629,0,0,1-.40226-.23757c-.11453-.60742-.37076-1.17157-.47018-1.79108a19.39256,19.39256,0,0,0-.60108-2.184c-.10645-.37458-.201-.75285-.31775-1.12417a1.0868,1.0868,0,0,0-1.56638-.85259c-.7288.20418-1.45986.40241-2.18047.63282a2.74755,2.74755,0,0,1-1.08926.0964c-.55651-.04734-.71106-.23283-.71605-.78869-.00207-.22972-.00035-.45948-.00035-.68922Z"/><path class="ab8c884f-cd98-4035-88d9-fb735b5263f6" d="M39.42459,103.88592a3.16592,3.16592,0,0,1-.71166,1.869c-1.06543,1.48971-2.17411,2.94847-3.26183,4.42229-.43572.59041-.46.6066-1.01914.20021-.36587-.26592-.88186-.49685-1.01831-.86054-.14842-.39555.41791-.70252.66791-1.0388.6962-.9364,1.30116-1.94052,2.08646-2.81318a4.84722,4.84722,0,0,0,.63074-.97922.85769.85769,0,0,0-.23983-1.223c-.42344-.34918-.89078-.64468-1.3317-.97331a2.81884,2.81884,0,0,1-.99344-1.2061c-.10389-.26008-.12159-.48908.14009-.66817.49076-.33588.97893-.67554,1.471-1.00947.24562-.16668.43141-.1296.51552.17842a1.70163,1.70163,0,0,0,.70046.82587c.40856.33081.82988.64924,1.26787.93962A2.50133,2.50133,0,0,1,39.42459,103.88592Z"/><path class="ab8c884f-cd98-4035-88d9-fb735b5263f6" d="M83.02146,121.38176c-.26506-.48239-.25123-1.04372-.57189-1.56507a10.26806,10.26806,0,0,1-.983,1.65629c-.08746.10451-.14327.23821-.23933.33223-.2434.23822-.43155.21986-.61223-.06667-.23223-.36824-.44351-.74964-.66789-1.12292-.28441-.47312-.29363-.51.10352-.95148a8.899,8.899,0,0,0,1.45411-1.9875,1.35261,1.35261,0,0,0,.11129-.98989,6.55076,6.55076,0,0,1-.21273-1.21567c-.02925-.52711-.30159-.76585-.83741-.79886a2.01967,2.01967,0,0,1-.94177-.14535c-.25636-.14665-.43752-.29415-.33483-.65186.145-.50506.21806-1.03028.34632-1.54074.10407-.41418.183-.45806.569-.33989a1.99416,1.99416,0,0,0,1.00322.07444,1.84689,1.84689,0,0,1,1.72107,1.24276,16.64983,16.64983,0,0,1,.822,3.32632,12.07231,12.07231,0,0,0,.56763,2.25971c.1946.49365.24286,1.02445.41969,1.52023.087.244.0257.41644-.21864.482A13.65317,13.65317,0,0,1,83.02146,121.38176Z"/><path class="ab8c884f-cd98-4035-88d9-fb735b5263f6" d="M78.24809,120.11064c0,.437-.00216.874.00086,1.311.00164.2372-.06953.39145-.3425.41445-1.03258.087-2.01254.44313-3.03146.6042-.48891.07731-.47459.08581-.50839-.41876-.04032-.60186.18992-1.17959.13482-1.78139-.02092-.22847.13614-.31914.33028-.37069.266-.07064.5281-.15773.79642-.21739a.47092.47092,0,0,0,.40379-.54584A10.7999,10.7999,0,0,0,76,117.866a16.79855,16.79855,0,0,1-.13-1.92144.918.918,0,0,0-.637-.88592c-1.007-.40859-.99929-.42579-.68729-1.4476q.15065-.4933.2939-.98888a.39234.39234,0,0,1,.52827-.30106,6.12722,6.12722,0,0,1,1.83779.76128,1.85675,1.85675,0,0,1,.5931,1.06537,3.629,3.629,0,0,1,.13939.81212c.063.96137.10229,1.92428.16229,2.88588A17.80276,17.80276,0,0,1,78.24809,120.11064Z"/><path class="ab8c884f-cd98-4035-88d9-fb735b5263f6" d="M53.35772,110.55116a2.1842,2.1842,0,0,1-.17747.90119q-.52026,1.49046-1.05233,2.97682c-.20174.56106-.30265.60779-.90867.641-.37546.02056-.72209-.12736-1.0903-.12915-.33174-.00163-.37077-.1686-.27515-.45341.24086-.71736.484-1.43331.78854-2.12674a2.34358,2.34358,0,0,0,.24286-1.13088c-.014-.18622-.01034-.38129-.18118-.49667-.294-.19855-.235-.38885-.03719-.62167.38531-.45348.75177-.92292,1.13024-1.38228a.28354.28354,0,0,1,.42462-.075A2.31956,2.31956,0,0,1,53.35772,110.55116Z"/><path class="ab8c884f-cd98-4035-88d9-fb735b5263f6" d="M42.60235,110.98348c.29241-.709.78958-1.20154,1.10472-1.81574a1.35889,1.35889,0,0,0-.05861-1.60114.4736.4736,0,0,1,.07335-.7563c.38951-.353.75074-.73729,1.14067-1.08984.35605-.322.41817-.33035.728.012a3.0638,3.0638,0,0,1,.68212,3.18134,8.92572,8.92572,0,0,1-1.40264,2.263.47608.47608,0,0,1-.49508.17074A6.124,6.124,0,0,1,42.60235,110.98348Z"/><path class="ab8c884f-cd98-4035-88d9-fb735b5263f6" d="M95.941,112.32761c.17782-.01062.24939.11338.29676.24338.36118.99115.9005,1.90616,1.23051,2.91218a10.84985,10.84985,0,0,0,.495,1.0604c.19881.438.19663.44455-.24792.67679-.30545.15959-.61575.31044-.92829.45574-.51669.24022-.62774.23619-.81486-.32176-.24222-.72233-.608-1.384-.89266-2.08368-.181-.44479-.367-.88776-.562-1.32653-.06894-.15506-.13028-.29162.00437-.44156a10.321,10.321,0,0,1,1.29512-1.13215A.39.39,0,0,1,95.941,112.32761Z"/><path class="ab8c884f-cd98-4035-88d9-fb735b5263f6" d="M68.14443,117.78238a32.20855,32.20855,0,0,0-.15487,3.57539c-.01059.49917-.20127.62984-.712.53905a7.20713,7.20713,0,0,0-1.1006-.04988c-.25843-.00627-.37718-.11624-.3667-.37785a5.55619,5.55619,0,0,1,.03151-.9627,8.508,8.508,0,0,0,.10119-1.578c.00712-.20679.00005-.41409.00827-.62081.04513-1.13537.10573-1.2053,1.21413-1.425.989-.196.989-.196.97912.83079C68.14424,117.73639,68.14443,117.75938,68.14443,117.78238Z"/><path class="ab8c884f-cd98-4035-88d9-fb735b5263f6" d="M88.8647,119.70536c.05189.30907-.06052.45622-.303.5115-.44466.10137-.88988.201-1.33187.31308-.30912.0784-.3497-.16617-.40525-.34585-.19573-.63318-.4073-1.26553-.53857-1.91325-.1047-.51663-.23106-1.02377-.378-1.52837-.15638-.537-.12205-.67684.33033-.99346a11.729,11.729,0,0,1,1.06075-.62933.25357.25357,0,0,1,.393.14684C87.99689,116.79178,88.61758,118.2335,88.8647,119.70536Z"/><polygon class="f243d7b2-61fa-427e-b38e-4d14f7e459df" points="82.067 49.265 82.022 49.305 82.028 49.266 82.067 49.265"/><polygon class="f243d7b2-61fa-427e-b38e-4d14f7e459df" points="82.192 49.149 82.17 49.171 82.165 49.141 82.192 49.149"/><polygon class="f243d7b2-61fa-427e-b38e-4d14f7e459df" points="83.013 48.721 82.974 48.755 82.981 48.721 83.013 48.721"/><path class="a5ae8eb1-6306-4abb-9bbb-b6223ab1a9a1" d="M76.48613,61.31c.20823-.11129.397.04281.597.05136a1.66155,1.66155,0,0,0,1.34594-.57167c.12274-.132.21055-.34639.43374-.219a.50044.50044,0,0,1,.23663.5885,1.66974,1.66974,0,0,1-1.47667,1.14021A1.3142,1.3142,0,0,1,76.48613,61.31Z"/><path class="ee90a21b-8494-4a67-8457-92fafc09d5e8" d="M80.87484,67.85035a.274.274,0,0,1,.11095.28368A.28377.28377,0,0,1,80.87484,67.85035Z"/><path class="a5ae8eb1-6306-4abb-9bbb-b6223ab1a9a1" d="M82.54266,51.36869a.32.32,0,0,1,.3018-.05581,1.49527,1.49527,0,0,0,1.72354-.49056c.123-.141.22281-.40054.4847-.24431a.55875.55875,0,0,1,.22291.60787,1.31,1.31,0,0,1-1.0586,1.0416C83.25085,52.322,83.02615,52.26624,82.54266,51.36869Z"/><path class="ab8c884f-cd98-4035-88d9-fb735b5263f6" d="M81.82973,49.76534a.41688.41688,0,0,1,.29147-.28522A.30048.30048,0,0,1,81.82973,49.76534Z"/><polygon class="f243d7b2-61fa-427e-b38e-4d14f7e459df" points="80.493 60.582 80.534 60.603 80.525 60.647 80.485 60.627 80.493 60.582"/></svg>