<svg id="ba2aebe2-2621-4f35-a12a-5f6f48f97e66" data-name="Layer 1" xmlns="http://www.w3.org/2000/svg" xmlns:xlink="http://www.w3.org/1999/xlink" viewBox="0 0 36.23357 36.23357"><defs><style>.ef4a8173-7baf-4555-8adc-3dce19e80a7e{fill:none;}.ae06b6e9-5f95-4a5e-8d92-4616a9aeb315{clip-path:url(#a497b782-4846-4868-89aa-ee26c1540215);}.b69a935f-8b61-4de3-b58b-2eea45c2f5d2{clip-path:url(#fb5a0a69-90f6-43c1-aefa-bdd3eb50a2ae);}.a12e0f09-ba74-45d0-9eb5-57938daa2cc0,.b185a85a-6f55-4f37-a524-8c0bc097cda3{fill:#fefefe;}.a5a99e97-1c13-4fc2-9e9d-152ee856d353{fill:#414042;}.b568ac4d-f864-48ce-a69b-bd61fac29539{fill:#01a2e6;}.b83a4f7d-a084-4bb8-8103-24003fef6761{clip-path:url(#a5272441-6017-48e3-89fd-7cdc0b697157);}.b185a85a-6f55-4f37-a524-8c0bc097cda3{stroke:#414042;stroke-linecap:round;stroke-linejoin:round;stroke-width:1.07px;}</style><clipPath id="a497b782-4846-4868-89aa-ee26c1540215"><rect class="ef4a8173-7baf-4555-8adc-3dce19e80a7e" x="-719.92293" y="-1332.73509" width="233.75906" height="493.74709"/></clipPath><clipPath id="fb5a0a69-90f6-43c1-aefa-bdd3eb50a2ae"><rect class="ef4a8173-7baf-4555-8adc-3dce19e80a7e" x="-87.86008" y="-1332.73509" width="233.75906" height="493.74709"/></clipPath><clipPath id="a5272441-6017-48e3-89fd-7cdc0b697157"><rect class="ef4a8173-7baf-4555-8adc-3dce19e80a7e" x="-394.25427" y="-1333.79654" width="233.75906" height="493.74709"/></clipPath></defs><g class="b69a935f-8b61-4de3-b58b-2eea45c2f5d2"><rect class="a12e0f09-ba74-45d0-9eb5-57938daa2cc0" x="-88.25912" y="-1566.33712" width="233.75906" height="1648.91947"/><path class="a5a99e97-1c13-4fc2-9e9d-152ee856d353" d="M3.646-4.22219l.19971-.68945h1.25V.56883H3.646Zm2.02,1.7207a1.4042,1.4042,0,0,0,1.00977-.46093,2.44269,2.44269,0,0,0,.3999-1.35938L7.206-6.062H3.72556V-7.14211H8.75584L8.706-6.21242,8.59568-4.70071q-.15966,3.249-2.81982,3.2793Z"/><path class="b568ac4d-f864-48ce-a69b-bd61fac29539" d="M58.926,14.83494a1.58249,1.58249,0,0,1,1.58057,1.58081V33.69431A1.58255,1.58255,0,0,1,58.926,35.27537H-1.68484a1.58265,1.58265,0,0,1-1.58105-1.58106V16.41575a1.5826,1.5826,0,0,1,1.58105-1.58081H58.926m0-.85571H-1.68484a2.43688,2.43688,0,0,0-2.437,2.43652V33.69431a2.43693,2.43693,0,0,0,2.437,2.43677H58.926a2.43652,2.43652,0,0,0,2.43653-2.43677V16.41575A2.43646,2.43646,0,0,0,58.926,13.97923Z"/><path class="b568ac4d-f864-48ce-a69b-bd61fac29539" d="M14.0886,28.50633a10.80011,10.80011,0,0,1,.38379-1.40137,3.86387,3.86387,0,0,0,.47949.03613q.67091,0,.6709-.71973V23.57078H14.2927v-1.498h4.708a1.98712,1.98712,0,0,1,1.47949.53906,2.03872,2.03872,0,0,1,.53321,1.498v4.33691l-1.64161.10743v-4.2168a.79583.79583,0,0,0-.1914-.55762.6792.6792,0,0,0-.52735-.209H17.26341v3.127a1.98929,1.98929,0,0,1-.4668,1.47363,2.09065,2.09065,0,0,1-1.49805.45508A6.02516,6.02516,0,0,1,14.0886,28.50633Z"/><path class="b568ac4d-f864-48ce-a69b-bd61fac29539" d="M23.241,23.57078H22.06712v-1.498h2.81543v6.374l-1.6416.10743Z"/><path class="b568ac4d-f864-48ce-a69b-bd61fac29539" d="M29.01536,23.57078H26.116v-1.498h5.70312l-.168,1.498H30.657v4.876l-1.6416.10743Z"/><path class="b568ac4d-f864-48ce-a69b-bd61fac29539" d="M33.95091,23.57078H32.77708v-1.498h2.81543v6.374l-1.6416.10743Z"/></g><path class="b185a85a-6f55-4f37-a524-8c0bc097cda3" d="M24.10358,23.25181H28.7685a.67757.67757,0,0,0,.67757-.67757v-12.241c0-3.43427-2.7454-3.2653-2.7454-3.2653-2.43,0-3.27465,1.78469-3.27465,4.21473V22.57424A.67756.67756,0,0,0,24.10358,23.25181Z"/><path class="b185a85a-6f55-4f37-a524-8c0bc097cda3" d="M12.13,23.25181H7.46507a.67757.67757,0,0,1-.67757-.67757v-12.241c0-3.43427,2.7454-3.2653,2.7454-3.2653,2.43,0,3.27466,1.78469,3.27466,4.21473V22.57424A.67757.67757,0,0,1,12.13,23.25181Z"/><path class="b185a85a-6f55-4f37-a524-8c0bc097cda3" d="M26.66422,7.74414v20.7451a.67757.67757,0,0,1-.67757.67757H10.1515a.67757.67757,0,0,1-.67757-.67757V7.74414a.67757.67757,0,0,1,.67757-.67757h3.7722a.6776.6776,0,0,1,.47911.19845l3.18744,3.18741a.67756.67756,0,0,0,.958.00023l3.19106-3.18787a.67754.67754,0,0,1,.47887-.19822h3.76849A.67757.67757,0,0,1,26.66422,7.74414Z"/><path class="b185a85a-6f55-4f37-a524-8c0bc097cda3" d="M18.07,10.93124l4.67536-1.91745-.422-1.01283a.67757.67757,0,0,0-1.10455-.21849Z"/><path class="b185a85a-6f55-4f37-a524-8c0bc097cda3" d="M18.07,10.93124,14.025,9.27234a.67758.67758,0,0,1-.36834-.88752l.16-.38386a.67757.67757,0,0,1,1.10455-.21849Z"/><line class="b185a85a-6f55-4f37-a524-8c0bc097cda3" x1="18.06996" y1="10.93124" x2="18.06996" y2="29.167"/><rect class="b185a85a-6f55-4f37-a524-8c0bc097cda3" x="20.40764" y="13.22212" width="4.30584" height="4.30584" rx="0.47605"/><rect class="b185a85a-6f55-4f37-a524-8c0bc097cda3" x="11.24168" y="13.22212" width="4.30584" height="4.30584" rx="0.69258"/><circle class="a5a99e97-1c13-4fc2-9e9d-152ee856d353" cx="16.79187" cy="14.41593" r="0.4604"/><circle class="a5a99e97-1c13-4fc2-9e9d-152ee856d353" cx="16.79187" cy="18.58145" r="0.4604"/><circle class="a5a99e97-1c13-4fc2-9e9d-152ee856d353" cx="16.79187" cy="22.03591" r="0.4604"/><circle class="a5a99e97-1c13-4fc2-9e9d-152ee856d353" cx="16.79187" cy="25.49444" r="0.4604"/></svg>