<?xml version="1.0" encoding="utf-8"?>
<!-- Generator: Adobe Illustrator 24.1.2, SVG Export Plug-In . SVG Version: 6.00 Build 0)  -->
<svg version="1.1" id="e6c54418-e74b-450f-89bd-cd33c26edede"
	 xmlns="http://www.w3.org/2000/svg" xmlns:xlink="http://www.w3.org/1999/xlink" x="0px" y="0px" viewBox="0 0 36.2 36.2"
	 style="enable-background:new 0 0 36.2 36.2;" xml:space="preserve">
<style type="text/css">
	.st0{clip-path:url(#SVGID_2_);}
	.st1{fill:#FEFEFE;stroke:#414042;stroke-width:1.07;stroke-linecap:round;stroke-linejoin:round;}
	.st2{clip-path:url(#SVGID_4_);}
	.st3{fill:#FEFEFE;}
	.st4{fill:#414042;}
	.st5{fill:#01A2E6;}
	.st6{fill:none;stroke:#414042;stroke-width:1.07;stroke-linecap:round;stroke-linejoin:round;}
	.st7{fill:none;stroke:#414042;stroke-width:2;stroke-linecap:round;stroke-linejoin:round;}
</style>
<g>
	<defs>
		<rect id="SVGID_1_" x="-467.6" y="-1427.8" width="233.8" height="493.7"/>
	</defs>
	<clipPath id="SVGID_2_">
		<use xlink:href="#SVGID_1_"  style="overflow:visible;"/>
	</clipPath>
	<g class="st0">
		<path class="st1" d="M-1.5,13.7L-2.2,13l-0.7-0.7c-1-1-1-2.6,0-3.6l0.6-0.6l5,5L2,13.7C1.1,14.7-0.5,14.7-1.5,13.7z"/>
		<ellipse transform="matrix(0.7071 -0.7071 0.7071 0.7071 -7.1711 3.3353)" class="st1" cx="0.4" cy="10.3" rx="2.1" ry="3.5"/>
		<polygon class="st1" points="39.2,17.6 29.4,17.6 27.6,13.4 37.4,13.4 		"/>
		<polygon class="st1" points="33.1,6.2 31.8,6.2 32.9,15.2 34.2,15.2 		"/>
		<circle class="st1" cx="32.7" cy="6.8" r="2.1"/>
		<rect x="29.4" y="17.6" class="st1" width="9.8" height="2.5"/>
		<polygon class="st1" points="27.6,13.5 29.4,17.6 29.4,20.1 27.6,16 		"/>
		<polygon class="st1" points="6.2,26.8 0.8,26.5 0.8,18.8 6.2,19.3 		"/>
		<polygon class="st1" points="6.2,26.8 11.6,26.5 11.6,18.8 6.2,19.3 		"/>
		<path class="st1" d="M4.5,27.8H0.8v-1h5.4C6.2,27.7,5.4,27.8,4.5,27.8z"/>
		<path class="st1" d="M7.8,27.8h3.7v-1H6.2C6.2,27.7,6.9,27.8,7.8,27.8z"/>
	</g>
</g>
<g>
	<defs>
		<rect id="SVGID_3_" x="-141.9" y="-1428.9" width="233.8" height="493.7"/>
	</defs>
	<clipPath id="SVGID_4_">
		<use xlink:href="#SVGID_3_"  style="overflow:visible;"/>
	</clipPath>
	<g class="st2">
		<rect x="-142.3" y="-1428.9" class="st3" width="233.8" height="1690.5"/>
		<rect x="-142.3" y="-121.9" class="st4" width="233.8" height="383.5"/>
		<path class="st5" d="M1,18.8h1.5l0.5,4.5c0.6,0,1.1-0.2,1.5-0.6c0.3-0.4,0.5-0.9,0.4-1.5v-0.3c0-0.3-0.1-0.5-0.2-0.8
			c-0.2-0.2-0.5-0.3-0.7-0.3l-0.5,0l0.1-1.1l0.6,0c0.6,0,1.1,0.2,1.5,0.6c0.4,0.4,0.6,0.9,0.6,1.5l0,0.3c0.1,1-0.3,2-1.1,2.6
			c-1,0.6-2.2,1-3.4,0.9L1,18.8z"/>
		<path class="st5" d="M6.9,21.7L7.1,21h1.3v5.5H6.9V21.7z M8.9,23.4c0.4,0,0.8-0.2,1-0.5c0.3-0.4,0.4-0.9,0.4-1.4l0.1-1.7H7v-1.1h5
			l0,0.9l-0.1,1.5c-0.1,2.2-1,3.3-2.8,3.3L8.9,23.4z"/>
		<path class="st5" d="M13,20l-0.1-1.2h1.4l0.1,1.2v1.6l0,0.6L13,22.4L13,20z"/>
		<path class="st5" d="M15.6,20l-0.1-1.2h1.4L17,20v1.6l0,0.6l-1.4,0.3L15.6,20z"/>
		<path class="st5" d="M18.2,20l-0.1-1.2h1.4l0.1,1.2v4.5h-1.4V20z"/>
		<path class="st5" d="M23.1,20.6c0-0.5-0.2-0.7-0.7-0.7h-2v-1.1h2.3c0.5,0,0.9,0.1,1.3,0.5c0.3,0.4,0.5,0.9,0.5,1.4v3.8h-1.5V20.6z
			"/>
		<path class="st5" d="M25.6,23.4h2c0.3,0,0.7-0.1,0.9-0.4c0.2-0.3,0.3-0.7,0.3-1v-0.7c0-0.4-0.1-0.7-0.3-1
			c-0.2-0.3-0.5-0.4-0.8-0.4H27l-0.2,0.8c0,0.1,0,0.2,0,0.3c0,0.1,0,0.3,0.1,0.4c0.1,0.1,0.3,0.2,0.5,0.2l-0.2,0.9
			c-0.5,0-0.9-0.1-1.3-0.4c-0.3-0.3-0.4-0.6-0.4-1c0-0.1,0-0.3,0-0.4l0.4-1.8H28c0.6,0,1.2,0.2,1.6,0.7c0.4,0.5,0.6,1.2,0.6,1.9V22
			c0,0.7-0.2,1.4-0.6,1.9c-0.4,0.5-1.1,0.7-1.7,0.7h-2.4V23.4z"/>
		<path class="st5" d="M31.1,21.8l0.2-0.7h1.3v3.4h-1.5V21.8z M34.4,20.6c0-0.5-0.2-0.7-0.7-0.7h-2.6v-1.1h3c0.5,0,0.9,0.1,1.3,0.5
			c0.3,0.4,0.5,0.9,0.5,1.4v3.8h-1.5V20.6z"/>
	</g>
</g>
<path class="st6" d="M15.4,5.8H21c0.3,0,0.6,0.3,0.6,0.6v3.5l0,0h-6.8l0,0V6.4C14.8,6.1,15.1,5.8,15.4,5.8z"/>
<path class="st1" d="M8,9.9h20.2c1.3,0,2.3,1,2.3,2.3v13.4c0,1.3-1,2.3-2.3,2.3H8c-1.3,0-2.3-1-2.3-2.3V12.2C5.7,10.9,6.7,9.9,8,9.9
	z"/>
<line class="st7" x1="14.8" y1="18.9" x2="21.6" y2="18.9"/>
<line class="st7" x1="18.2" y1="15.5" x2="18.2" y2="22.3"/>
</svg>
