<svg id="a2d40241-f32a-4091-9de4-0df3c42f5cab" data-name="Layer 1" xmlns="http://www.w3.org/2000/svg" viewBox="0 0 29.76395 29.76406"><defs><style>.b1459c10-3852-4b0a-8fbf-bda48d8e2151{fill:none;}.b1459c10-3852-4b0a-8fbf-bda48d8e2151,.b958e5a6-d189-4ad6-8845-4ace25419fdb{stroke:#414042;stroke-linecap:round;stroke-linejoin:round;stroke-width:1.04px;}.b958e5a6-d189-4ad6-8845-4ace25419fdb{fill:#fdfdfd;}</style></defs><rect class="b1459c10-3852-4b0a-8fbf-bda48d8e2151" x="2.98757" y="5.51672" width="26.25638" height="16.29706" rx="1.58"/><rect class="b958e5a6-d189-4ad6-8845-4ace25419fdb" x="0.52" y="7.95028" width="26.25638" height="16.29706" rx="1.58"/><rect class="b1459c10-3852-4b0a-8fbf-bda48d8e2151" x="3.23448" y="10.62138" width="7.51843" height="7.51843"/><circle class="b1459c10-3852-4b0a-8fbf-bda48d8e2151" cx="6.99369" cy="13.61056" r="1.4285"/><path class="b1459c10-3852-4b0a-8fbf-bda48d8e2151" d="M6.33188,15.69423H7.65551a.974.974,0,0,1,.974.974v1.47162a0,0,0,0,1,0,0H5.35792a0,0,0,0,1,0,0V16.66819A.974.974,0,0,1,6.33188,15.69423Z"/><line class="b1459c10-3852-4b0a-8fbf-bda48d8e2151" x1="24.05921" y1="11.02146" x2="15.53806" y2="11.02146"/><line class="b1459c10-3852-4b0a-8fbf-bda48d8e2151" x1="24.05921" y1="14.3806" x2="15.53806" y2="14.3806"/><line class="b1459c10-3852-4b0a-8fbf-bda48d8e2151" x1="24.05921" y1="17.73974" x2="15.53806" y2="17.73974"/><line class="b1459c10-3852-4b0a-8fbf-bda48d8e2151" x1="24.05921" y1="21.09888" x2="15.53806" y2="21.09888"/></svg>