<svg id="e43e5a2a-5d8c-4685-bf6f-e71f71fd4435" data-name="Layer 1" xmlns="http://www.w3.org/2000/svg" xmlns:xlink="http://www.w3.org/1999/xlink" viewBox="0 0 23.52275 23.52934"><defs><style>.fcd5668e-d18c-4ecc-8f75-8447e6db00eb{fill:none;}.bd073275-0a1a-4f2b-837c-24a2697d0a5c{clip-path:url(#b2c1a4e1-ca73-46c1-ab4b-8277d8ae4e56);}.baf7e6b9-a027-4436-a3c5-2df21f72e29c{fill:#0f9bd8;}.e6f34ac2-7ce8-493f-9be7-d01abd99c53c{fill:#11a0db;}.fc8e5715-506b-4ed6-b56f-9ce8e372fc0c{fill:#fcfefe;}.a7a82b56-2220-4426-a6c4-53ef17786762{fill:#f9fdfe;}.ae2b8336-b984-47c3-9b21-b7f91f927548{fill:#0ca3dd;}.a254ac67-162d-4d27-b38c-84634a996252{fill:#f5eb33;}.e40e97c2-dc01-4c6c-97a4-458d73f15819{fill:#016a3a;}.eee7799c-0a0f-4630-88cd-3034e1961c90{fill:#e92228;}.f2defb81-71ae-4c78-8efe-d1dda21ea048{fill:#0ba6df;}.aa5e10ca-2da3-417b-91ac-ec74f5d9ded5{fill:#0ba5de;}.aca66abb-f72f-42e4-b646-f32805d3cd2e{fill:#04aae2;}.e9a0b35b-b7dc-4a95-94e3-6e2dbcd0909b{fill:#05ade3;}.f0a100e2-245e-44f1-8d99-ba68761ae62e{fill:#11a3dd;}.a4f1e7f9-0a88-46e4-adb4-89ae438347c1{fill:#0ca6df;}.bba8e7b3-1410-4549-ac6e-2f5caebada2f{fill:#05a8e1;}.a4f35ef1-35e1-4ddf-b478-6202500f6b81{fill:#06aee4;}.a5763529-9104-49bd-9eda-9271f1986a34{fill:#226cb0;}.fa537e8c-8eb4-4514-a311-9c89e29f714f{fill:#fefeff;}.ab5269e6-51c4-4011-b8d4-9deed3c1232b{fill:#03b4e6;}.b3f55f19-6c75-4064-a89f-719ceef966ef{fill:#05b2e5;}.a644587b-ec8f-4264-a175-1d25cb6e73d5{fill:#08b9e7;}.f17703c3-c1f6-4b98-8d1a-232c780b8f2e{fill:#04ade4;}.bbc783ac-802b-40f3-8772-1781c3c69b07{fill:#06a9e1;}.b4b48ee7-b0e6-43f3-8a8d-2f8e1beaed08{fill:#feffff;}.a4160e0a-3833-4834-bc90-d708ddcac3a0{fill:#0ca4de;}.abd7e4a3-8655-4612-abda-cebf031e98ff{fill:#026a3a;}.a202fcac-b320-4a21-a6b9-896279218015{fill:#06a5df;}.e87d3028-f972-4875-a4c6-ec5fae3f1cdc{fill:#06b0e3;}</style><clipPath id="b2c1a4e1-ca73-46c1-ab4b-8277d8ae4e56"><rect class="fcd5668e-d18c-4ecc-8f75-8447e6db00eb" x="161.70356" y="-1229.3086" width="233.75906" height="493.74709"/></clipPath></defs><path class="baf7e6b9-a027-4436-a3c5-2df21f72e29c" d="M11.76191,23.52932A11.76466,11.76466,0,1,1,11.77493,0a11.54543,11.54543,0,0,1,8.33222,3.491,11.41755,11.41755,0,0,1,3.41258,8.5763A11.75,11.75,0,0,1,11.76191,23.52932Zm8.58242-6.50221-.02561-.02534a.01547.01547,0,0,1-.01514-.008.38719.38719,0,0,0,.08182-.07518c.09012-.15117.18347-.30126.26092-.459.137-.279.26621-.56191.39331-.84559a7.7146,7.7146,0,0,0,.32532-.89318c.05057-.16468.10315-.32931.1418-.497.06019-.2611.11322-.524.16168-.78759.03041-.16533.04876-.333.06893-.5.01153-.09555.01571-.192.02349-.288.013-.161.0377-.322.03733-.483a9.55152,9.55152,0,0,0-.03785-1.31425c-.02961-.21081-.03552-.42509-.06828-.63528-.03649-.234-.08688-.46624-.13911-.69746a10.59477,10.59477,0,0,0-.39937-1.32634c-.03934-.10682-.07681-.21494-.12531-.31766-.12678-.26849-.25587-.536-.39058-.80058-.08136-.15978-.17288-.31454-.26373-.46927-.06275-.10687-.13022-.21113-.199-.31425-.12056-.18066-.23761-.36417-.36765-.53786-.12572-.16794-.26363-.327-.40047-.48632-.15493-.18035-.31185-.35919-.47344-.53355-.07949-.08576-.17414-.15727-.25731-.23988a8.959,8.959,0,0,0-.74967-.64983,8.40131,8.40131,0,0,0-1.05781-.72308c-.34463-.19682-.70559-.36513-1.0602-.54432a2.13737,2.13737,0,0,0-.22745-.1A10.91574,10.91574,0,0,0,14.465,2.09658c-.18706-.04646-.37234-.101-.56075-.14087-.21492-.04548-.43215-.08043-.64894-.11655-.12526-.02087-.25139-.03725-.3776-.05151-.09909-.0112-.19895-.01537-.29837-.02387-.14717-.01257-.29426-.0262-.44137-.03938L11.7751.778l-.36119.94886a.6043.6043,0,0,0-.0623-.00192c-.1888.013-.37769.02505-.56626.04079-.15422.01286-.309.02433-.4618.04745-.1731.02618-.34453.06373-.51636.098a7.83144,7.83144,0,0,0-.88288.21375c-.09508.03076-.18931.06408-.28416.09554-.1143.03792-.2307.07028-.34286.11368-.1963.076-.39151.15516-.58444.23929-.186.08109-.37191.16358-.55164.25739-.20477.10686-.40635.221-.60256.34281-.22836.14181-.45208.29157-.67284.445a6.8,6.8,0,0,0-.587.457c-.18726.16318-.38259.31695-.55514.4966-.06718.06995-.13916.13537-.20509.20643-.13793.14867-.27549.29781-.409.45044-.09746.11142-.1933.225-.28084.3442q-.26612.36249-.52133.73291c-.08007.11633-.14884.24056-.22059.36247-.08755.14876-.17963.29541-.25746.4492q-.1591.31441-.29858.63869c-.10764.25041-.21635.50143-.3034.75934-.09577.2837-.17324.57406-.24767.86434-.0546.21294-.09427.4299-.1352.6461-.02682.14166-.03764.28647-.06691.42753a3.97422,3.97422,0,0,0-.07355.74846,11.2513,11.2513,0,0,0,.036,1.57443c.018.14322.02155.2886.04557.43065.04521.26751.0943.53469.153.79952a9.32276,9.32276,0,0,0,.34662,1.17994c.1112.30439.24587.60065.37972.89616.08266.18248.1801.35858.277.53421.07313.13263.15585.26.2343.38967-.01174.01192-.023.0244-.0353.03569q-.14953.137-.29941.27369l.00174-.00132a.765.765,0,0,1-.04969-.06464,10.32641,10.32641,0,0,1-.96547-2.04065,9.85467,9.85467,0,0,1-.364-1.33838c-.0345-.17606-.06921-.35238-.09389-.53-.02946-.212-.05516-.425-.07009-.63846-.0227-.32435-.05052-.64958-.04757-.97417a10.43284,10.43284,0,0,1,.10751-1.44724c.05257-.3522.11629-.70175.202-1.0467a10.34794,10.34794,0,0,1,.49049-1.48443A10.51793,10.51793,0,0,1,8.248,1.88105a10.3411,10.3411,0,0,1,1.62929-.435,9.88307,9.88307,0,0,1,1.10909-.14116c.11-.00719.21982-.01593.33737-.02451l.15231-.40549c-.045,0-.07574-.00143-.10627.00022a9.90083,9.90083,0,0,0-1.11467.10213c-.3198.05391-.64091.10369-.95706.1748A10.25246,10.25246,0,0,0,7.85313,1.596,10.92033,10.92033,0,0,0,.95525,10.38052a10.29311,10.29311,0,0,0-.08372,1.16886c-.0041.21789.00934.43606.01186.65414a9.41608,9.41608,0,0,0,.12283,1.28884,10.04339,10.04339,0,0,0,.26369,1.22422,10.78184,10.78184,0,0,0,1.05578,2.50668,10.907,10.907,0,0,0,8.01687,5.36516c.349.04655.702.07083,1.054.08421.30739.01169.61592-.0057.92393-.01117a9.01208,9.01208,0,0,0,1.20546-.12263,10.1445,10.1445,0,0,0,1.21334-.26524,10.92986,10.92986,0,0,0,6.5468-5.15931,10.74968,10.74968,0,0,0,1.24886-3.56095,10.36049,10.36049,0,0,0,.13531-1.29806,9.96845,9.96845,0,0,0-.07555-1.82312c-.04327-.29012-.07882-.582-.13727-.86911a10.47192,10.47192,0,0,0-.43908-1.543A10.93971,10.93971,0,0,0,15.7646,1.62165,10.22342,10.22342,0,0,0,14.11025,1.121c-.30053-.06281-.603-.12127-.90737-.1594-.3358-.04208-.67477-.05893-1.01243-.08586-.03887-.0031-.0782-.00042-.129-.00042.04881.12976.09261.24217.13306.35577a.08228.08228,0,0,0,.0865.05718c.169.0107.33855.01828.50648.03869.32886.04.65919.07476.98452.13529a9.91823,9.91823,0,0,1,1.48812.40309,10.49633,10.49633,0,0,1,6.90039,8.35124,9.95738,9.95738,0,0,1,.10961,1.1343c.01253.394.004.79-.021,1.18345-.02156.34054-.07033.68016-.12272,1.01775a9.18645,9.18645,0,0,1-.29737,1.26948,9.64755,9.64755,0,0,1-.644,1.61616c-.15036.29146-.32028.57281-.4814.85872l-.05333.00047Z"/><path class="e6f34ac2-7ce8-493f-9be7-d01abd99c53c" d="M20.65041,17.29688l.05333-.00048c-.01132.02124-.02136.04329-.03413.06362a10.50459,10.50459,0,0,1-6.212,4.57166,10.71311,10.71311,0,0,1-1.086.22525l.3-.30949c-.04173-.00228-.06487-.00466-.088-.00464q-1.82883.00144-3.65765.00357l-.00613.00658-.00429.01075c.08111.09829.18645.176.27594.29574l-.15439-.02538a10.21373,10.21373,0,0,1-1.29023-.29969,10.5325,10.5325,0,0,1-5.83707-4.42784,1.00914,1.00914,0,0,1-.04654-.09155l-.00174.00132c.24643-.02683.4925-.05777.73939-.07943.302-.02649.60468-.04626.90721-.06679.13736-.00932.27508-.01345.41263-.01994a.15922.15922,0,0,0,.0186.04684c.1294.15214.25309.30993.39166.45331a9.2138,9.2138,0,0,0,.87045.82832c.23678.18837.4799.36969.72906.54128.19566.13474.40282.25335.60876.37241a4.90432,4.90432,0,0,0,.448.23353c.23593.10564.47693.2.716.29859a5.89129,5.89129,0,0,0,.87464.27968c.24725.05927.49552.11585.74557.16136a3.34614,3.34614,0,0,0,.64542.06826l.00779.64892.3634-.21312L12.072,20.44c-.00187.038.014.05891.05432.05593l.22444-.01661a.37012.37012,0,0,1-.04012.03182q-.28487.16939-.57028.33785-.352.20851-.7038.41748c-.02865.01706-.0636.02907-.063.07366.00121.0955.00037.191.00037.29554h.115c.16249,0,.325-.0024.48745.00116a.31437.31437,0,0,0,.17559-.04821c.26048-.15638.52138-.3121.784-.46485a.13016.13016,0,0,0,.07512-.13032c-.0031-.1865.00128-.37313.00272-.55971a.18527.18527,0,0,0,.06.01422c.17039-.01956.34157-.03533.51041-.06444.17911-.03087.35511-.07947.53393-.11242a6.01553,6.01553,0,0,0,.80539-.22414c.24176-.08041.47747-.17923.71478-.27264.10582-.04165.21165-.0848.31285-.13633.181-.0922.36122-.18673.53689-.28868.19054-.1106.37892-.22572.5619-.34833.15992-.10715.31424-.2234.46523-.34295a5.68832,5.68832,0,0,0,.58334-.49343c.07128-.074.14434-.14627.21787-.218a6.3339,6.3339,0,0,0,.57022-.61414,1.81644,1.81644,0,0,0,.11229-.18221c.0892.00534.17845.00978.26757.01619.27819.02.55652.03852.83444.06181.30513.02557.60986.056.91486.08323C20.62675,17.31243,20.63882,17.302,20.65041,17.29688Zm-8.59355,4.327a2.21841,2.21841,0,0,0,.54444-.00525v-.31785Z"/><path class="fc8e5715-506b-4ed6-b56f-9ce8e372fc0c" d="M2.86325,17.315a1.00914,1.00914,0,0,0,.04654.09155,10.5325,10.5325,0,0,0,5.83707,4.42784,10.21373,10.21373,0,0,0,1.29023.29969l.15439.02538c-.08949-.11972-.19483-.19745-.27594-.29574l.00429-.01075.00613-.00658q1.82882-.00216,3.65765-.00357c.02313,0,.04627.00236.088.00464l-.3.30949a10.71311,10.71311,0,0,0,1.086-.22525,10.52884,10.52884,0,0,0,6.212-4.57166c.01277-.02033.02281-.04238.03413-.06362.16112-.28591.331-.56726.4814-.85872a9.64755,9.64755,0,0,0,.644-1.61616,9.18645,9.18645,0,0,0,.29737-1.26948c.05239-.33759.10116-.67721.12272-1.01775.02493-.39348.03349-.78946.021-1.18345a9.95738,9.95738,0,0,0-.10961-1.1343A10.51175,10.51175,0,0,0,15.26014,1.8653,9.91823,9.91823,0,0,0,13.772,1.46221c-.32533-.06053-.65566-.09533-.98452-.13529-.16793-.02041-.33749-.028-.50648-.03869a.08228.08228,0,0,1-.0865-.05718c-.04045-.1136-.08425-.226-.13306-.35577.05079,0,.09012-.00268.129.00042.33766.02693.67663.04378,1.01243.08586.30438.03813.60684.09659.90737.1594a10.22342,10.22342,0,0,1,1.65435.50069,10.94138,10.94138,0,0,1,6.25373,6.39841,10.47192,10.47192,0,0,1,.43908,1.543c.05845.28712.094.579.13727.86911a9.96845,9.96845,0,0,1,.07555,1.82312,10.36049,10.36049,0,0,1-.13531,1.29806,10.88634,10.88634,0,0,1-3.44937,6.315,10.91042,10.91042,0,0,1-4.34629,2.40523,10.1445,10.1445,0,0,1-1.21334.26524,9.01208,9.01208,0,0,1-1.20546.12263c-.308.00547-.61654.02286-.92393.01117-.352-.01338-.705-.03766-1.054-.08421a10.91935,10.91935,0,0,1-9.07265-7.87184,10.04339,10.04339,0,0,1-.26369-1.22422,9.41608,9.41608,0,0,1-.12283-1.28884c-.00252-.21808-.016-.43625-.01186-.65414a10.29311,10.29311,0,0,1,.08372-1.16886A10.9292,10.9292,0,0,1,7.85313,1.596,10.25246,10.25246,0,0,1,9.29806,1.152c.31615-.07111.63726-.12089.95706-.1748A9.90083,9.90083,0,0,1,11.36979.8751c.03053-.00165.06122-.00022.10627-.00022l-.15231.40549c-.11755.00858-.22741.01732-.33737.02451A9.88307,9.88307,0,0,0,9.87729,1.446a10.47833,10.47833,0,0,0-5.585,2.96019A10.47587,10.47587,0,0,0,2.07251,7.75034,10.34794,10.34794,0,0,0,1.582,9.23477c-.08567.345-.14939.6945-.202,1.0467a10.43284,10.43284,0,0,0-.10751,1.44724c-.003.32459.02487.64982.04757.97417.01493.21344.04063.42645.07009.63846.02468.17759.05939.35391.09389.53a9.85467,9.85467,0,0,0,.364,1.33838,10.32641,10.32641,0,0,0,.96547,2.04065A.765.765,0,0,0,2.86325,17.315Z"/><path class="e6f34ac2-7ce8-493f-9be7-d01abd99c53c" d="M12.138,1.7244c.14711.01318.2942.02681.44137.03938.09942.0085.19928.01267.29837.02387.12621.01426.25234.03064.3776.05151.21679.03612.434.07107.64894.11655.18841.03986.37369.09441.56075.14087a10.91574,10.91574,0,0,1,1.11593.37873,2.13737,2.13737,0,0,1,.22745.1c.35461.17919.71557.3475,1.0602.54432a8.40131,8.40131,0,0,1,1.05781.72308,8.959,8.959,0,0,1,.74967.64983c.08317.08261.17782.15412.25731.23988.16159.17436.31851.3532.47344.53355.13684.1593.27475.31838.40047.48632.13.17369.24709.3572.36765.53786.06882.10312.13629.20738.199.31425.09085.15473.18237.30949.26373.46927.13471.26457.2638.53209.39058.80058.0485.10272.086.21084.12531.31766a10.59477,10.59477,0,0,1,.39937,1.32634c.05223.23122.10262.46341.13911.69746.03276.21019.03867.42447.06828.63528a9.55152,9.55152,0,0,1,.03785,1.31425c.00037.161-.02428.322-.03733.483-.00778.096-.012.19245-.02349.288-.02017.167-.03852.33472-.06893.5-.04846.26356-.10149.52649-.16168.78759-.03865.16766-.09123.33229-.1418.497a7.7146,7.7146,0,0,1-.32532.89318c-.1271.28368-.25631.56661-.39331.84559-.07745.15772-.1708.30781-.26092.459a.38726.38726,0,0,1-.0818.07517c-.02222-.016-.04468-.03174-.06667-.04809-.14112-.10493-.27976-.2134-.42389-.314a1.4199,1.4199,0,0,0-.43023-.22076.26744.26744,0,0,0-.21919.01762c-.02-.06717.04212-.09764.06632-.14443.1364-.26367.276-.52567.41385-.78859a6.54,6.54,0,0,0,.36621-.88927,7.33385,7.33385,0,0,0,.27173-.986c.04426-.2224.08961-.44489.12295-.66905.02475-.16641.03237-.33547.04509-.50353.01507-.199.035-.39816.03874-.59751.00345-.186-.01073-.37238-.01889-.55851-.00558-.12737-.00685-.25553-.023-.38168-.0279-.21792-.06616-.43451-.09957-.65173a7.62231,7.62231,0,0,0-.25316-1.06387,7.72777,7.72777,0,0,0-.46835-1.194c-.10628-.21343-.2195-.42368-.337-.63118-.09172-.162-.18736-.3229-.29465-.47483-.15094-.21376-.3115-.421-.47329-.62674-.10423-.13259-.21443-.261-.32862-.3851-.1078-.11719-.22733-.22353-.33638-.33963a5.7163,5.7163,0,0,0-.68482-.616c-.25372-.19509-.51658-.37972-.78582-.55277a7.2975,7.2975,0,0,0-.68614-.3856c-.24356-.12163-.49456-.22939-.74652-.333a8.3992,8.3992,0,0,0-1.86159-.50218,3.4175,3.4175,0,0,0-.51194-.05686,1.0807,1.0807,0,0,0-.03256-.27588c-.06038-.14307-.11216-.28981-.16609-.43555C12.29875,2.16511,12.21862,1.94465,12.138,1.7244Z"/><path class="e6f34ac2-7ce8-493f-9be7-d01abd99c53c" d="M3.19622,17.00692c-.07845-.1297-.16117-.257-.2343-.38967-.09686-.17563-.1943-.35173-.277-.53421-.13385-.29551-.26852-.59177-.37972-.89616a9.32276,9.32276,0,0,1-.34662-1.17994c-.05872-.26483-.10781-.532-.153-.79952-.024-.14205-.02759-.28743-.04557-.43065a11.2513,11.2513,0,0,1-.036-1.57443,3.97422,3.97422,0,0,1,.07355-.74846c.02927-.14106.04009-.28587.06691-.42753.04093-.2162.0806-.43316.1352-.6461.07443-.29028.1519-.58064.24767-.86434.08705-.25791.19576-.50893.3034-.75934q.13917-.32376.29858-.63869c.07783-.15379.16991-.30044.25746-.4492.07175-.12191.14052-.24614.22059-.36247q.255-.37041.52133-.73291c.08754-.11923.18338-.23278.28084-.3442.1335-.15263.27106-.30177.409-.45044.06593-.07106.13791-.13648.20509-.20643.17255-.17965.36788-.33342.55514-.4966a6.8,6.8,0,0,1,.587-.457c.22076-.15346.44448-.30322.67284-.445.19621-.12184.39779-.236.60256-.34281.17973-.09381.36566-.1763.55164-.25739.19293-.08413.38814-.16332.58444-.23929.11216-.0434.22856-.07576.34286-.11368.09485-.03146.18908-.06478.28416-.09554a7.83144,7.83144,0,0,1,.88288-.21375c.17183-.03427.34326-.07182.51636-.098.15284-.02312.30758-.03459.4618-.04745.18857-.01574.37746-.02777.56626-.04079a.604.604,0,0,1,.06229.00192c-.10493.28423-.20571.57008-.31621.85212a1.28041,1.28041,0,0,0-.12476.60991l-.59949.01372A4.05915,4.05915,0,0,0,9.288,2.6806c-.0738-.0222-.14893-.04-.22986-.06149a1.43982,1.43982,0,0,0,.03035.3729c.02173.1319.04525.26351.068.39524-.0867.02237-.174.04265-.26.06743a5.62337,5.62337,0,0,0-2.59732,1.572c-.03521.03753-.07308.07256-.10972.10875-.01038-.05435-.03956-.0494-.0731-.02165-.08757.07243-.1794.14063-.26054.21974a9.30212,9.30212,0,0,0-.81286.857c-.18606.23435-.3571.48066-.53324.72281-.0566.07781-.111.15756-.16128.23956-.07022.11448-.1385.23036-.20249.34841-.09528.17579-.1916.3514-.27721.532-.07973.16815-.14778.34195-.21772.51458-.06087.15025-.12766.29926-.17331.45427q-.13119.44554-.23948.89771c-.0516.21695-.08938.43762-.12357.65814-.02366.15258-.03276.30758-.04466.46178-.01561.20238-.03408.40487-.039.60761-.00376.15468.01168.30982.01846.46476.00707.16186.01041.324.02205.4855.01061.14729.0258.29457.047.44068.01972.13583.05355.26957.075.4052a6.33293,6.33293,0,0,0,.21914.89188,6.75684,6.75684,0,0,0,.41364,1.08243q.17928.35028.36.6998c.03583.06938.07344.13783.11581.21716l-.12028.0376.00033.01462.11219.02615a.56459.56459,0,0,0-.28913.06269c-.12621.07017-.25315.14054-.37179.22242C3.48344,16.7817,3.34157,16.89682,3.19622,17.00692Z"/><path class="fc8e5715-506b-4ed6-b56f-9ce8e372fc0c" d="M10.97294,3.18887a1.28028,1.28028,0,0,1,.12475-.60991c.1105-.282.21128-.56789.31621-.85212L11.7751.778l.36285.94642c.08067.22025.1608.44071.24221.66069.05393.14574.10571.29248.16609.43555a1.0807,1.0807,0,0,1,.03256.27588l-.00007.16613-.00164.16587L12.58,3.8654c-.002.03782-.0055.07563-.00563.11345q-.00173.52332-.00245,1.04663c-.11169-.01936-.223-.04117-.33516-.05741-.11548-.01673-.23175-.028-.34767-.04171l-.00287-1.9653h-.21411v.10925q0,.43043-.00018.86085-.00092.49259-.00306.98516l-.691.05611c-.00072-.381-.00065-.762-.00291-1.14294-.00039-.06538-.01068-.1307-.0164-.196a.3113.3113,0,0,0,.01515-.06654C10.9747,3.44091,10.97343,3.31489,10.97294,3.18887Z"/><path class="a7a82b56-2220-4426-a6c4-53ef17786762" d="M3.19622,17.00692c.14535-.1101.28722-.22522.43714-.32869.11864-.08188.24558-.15225.37179-.22242a.56462.56462,0,0,1,.28915-.06269.09779.09779,0,0,1,.06637.09088,1.37725,1.37725,0,0,1-.22928.39166l.33378-.02441L4.66008,16.84l.15716-.00747q.42707-.008.85411-.01625c.02048-.0004.04091-.00356.06136-.00544l.72409-.00121.16824.00311c.0137.00169.02735.00426.04109.00494.42794.021.856.0389,1.28378.06336A9.65227,9.65227,0,0,1,9.028,17.011a7.729,7.729,0,0,1,1.08582.25872,3.594,3.594,0,0,1,.75178.316l-.02021.00056a6.56982,6.56982,0,0,0-.9771-.24949c-.17168-.03183-.34557-.05176-.51847-.07707l-.05753-.00885-.08746-.01238c-.05762-.00923-.11493-.02183-.1729-.02713q-.38016-.0348-.76064-.0659c-.11665-.00968-.2334-.01957-.3503-.02421-.16846-.00669-.3371-.00869-.50566-.0127-.36884-.00568-.73768-.01469-1.10653-.01573-.19976-.00056-.39955.01249-.59933.01939q-.32407.01087-.64813.02227c-.00926.00034-.01824.00828-.02735.01268l-.11325.003c-.13755.00649-.27527.01062-.41263.01994-.30253.02053-.60518.0403-.90721.06679-.24689.02166-.493.0526-.73939.07943q.14974-.1368.29941-.27369C3.17324,17.03132,3.18448,17.01884,3.19622,17.00692Z"/><path class="a7a82b56-2220-4426-a6c4-53ef17786762" d="M19.16362,16.42854a.26744.26744,0,0,1,.21919-.01762,1.4199,1.4199,0,0,1,.43023.22076c.14413.10062.28277.20909.42389.314.022.01635.04445.03207.06667.04809a.01554.01554,0,0,0,.01516.008l.02557.0253.30608.26977c-.01159.00511-.02366.01555-.03471.01456-.305-.02723-.60973-.05766-.91486-.08323-.27792-.02329-.55625-.04181-.83444-.06181-.08912-.00641-.17837-.01085-.26757-.01619l-.13382-.003-.323-.019-.00027,0-.37321-.01652c-.17567-.00481-.35135-.01394-.527-.01354-.37217.00086-.74433.00668-1.11649.01047-.05167-.00126-.10346-.00544-.155-.00325-.17575.00746-.35153.015-.527.02658-.18207.012-.36384.02867-.54574.04329l-.12885.01353-.058.00647-.11334.01389-.11518.0069-.05073.01349-.11619.00893-.08653.01274-.05865.00869a.18368.18368,0,0,0-.04121-.00207c-.23785.04131-.47654.07856-.71307.12646a5.17494,5.17494,0,0,0-.77751.21553,1.20109,1.20109,0,0,1,.15028-.08953c.17812-.07469.35615-.1507.53838-.21423a6.8222,6.8222,0,0,1,1.09325-.27145c.24454-.042.491-.07376.73737-.10412.19867-.02449.39812-.04486.59782-.05827.22416-.01506.449-.01984.67349-.03022a.83942.83942,0,0,0,.092-.01416c.4-.00061.80007-.00349,1.20008-.00111.31364.00188.62724.01027.94086.01577l.17638.00766.53654.03654-.21712-.37193Z"/><path class="e6f34ac2-7ce8-493f-9be7-d01abd99c53c" d="M20.34433,17.02711l-.02557-.0253Z"/><path class="ae2b8336-b984-47c3-9b21-b7f91f927548" d="M18.465,17.14725l.1338.003a1.81644,1.81644,0,0,1-.11229.18221,6.3339,6.3339,0,0,1-.57022.61414c-.07353.07176-.14659.14406-.21787.218a5.68832,5.68832,0,0,1-.58334.49343c-.151.11955-.30531.2358-.46523.34295-.183.12261-.37136.23773-.5619.34833-.17567.102-.35584.19648-.53689.28868-.1012.05153-.207.09468-.31285.13633-.23731.09341-.473.19223-.71478.27264a6.01553,6.01553,0,0,1-.80539.22414c-.17882.03295-.35482.08155-.53393.11242-.16884.02911-.34.04488-.51041.06444a.18527.18527,0,0,1-.06-.01422l-.01232-.08954-.2507.13512-.22444.01661c-.04036.003-.05619-.01789-.05432-.05593l.307-.182c.05794.05984.13293.03384.19581.02629.22467-.027.44824-.06381.6716-.10072.15894-.02626.31777-.0546.475-.08958.11707-.02605.23079-.06682.34716-.09646a9.63818,9.63818,0,0,0,.92-.30835,5.02651,5.02651,0,0,0,.481-.21721,7.02381,7.02381,0,0,0,.8301-.46475c.04-.0268.08732-.04294.126-.07117.22524-.16424.45236-.32622.672-.4977.17072-.13328.33759-.27285.4951-.42137.18573-.17513.36149-.36106.53762-.54606a2.07532,2.07532,0,0,0,.21682-.26241A.11857.11857,0,0,1,18.465,17.14725Z"/><path class="fc8e5715-506b-4ed6-b56f-9ce8e372fc0c" d="M12.379,20.258l-.307.182-.73188.42953-.3634.21312-.00779-.64892.02246-.10726.02519-.019.01956-.00941.24968-.14529c.03006-.01689.06045-.0332.09011-.05075q.56556-.33465,1.131-.66942c.03007-.01778.06155-.03317.10669-.05734v.68423a.09164.09164,0,0,1-.05421.08757C12.497,20.17972,12.43888,20.22061,12.379,20.258Z"/><path class="ae2b8336-b984-47c3-9b21-b7f91f927548" d="M10.99135,20.32646l-.02246.10726a3.34614,3.34614,0,0,1-.64542-.06826c-.25-.04551-.49832-.10209-.74557-.16136a5.89129,5.89129,0,0,1-.87464-.27968c-.23908-.09859-.48008-.19295-.716-.29859a4.90432,4.90432,0,0,1-.448-.23353c-.20594-.11906-.4131-.23767-.60876-.37241-.24916-.17159-.49228-.35291-.72906-.54128a9.2138,9.2138,0,0,1-.87045-.82832c-.13857-.14338-.26226-.30117-.39166-.45331a.15922.15922,0,0,1-.0186-.04684l.11329-.003c.04536.00667.09222-.00873.12929.04281a5.56312,5.56312,0,0,0,.49788.56273,6.77339,6.77339,0,0,0,.79312.70975c.2345.18016.47471.35379.72069.51788a7.4336,7.4336,0,0,0,.8196.45871,9.14481,9.14481,0,0,0,.93236.3923,7.59855,7.59855,0,0,0,1.02176.28976c.17454.03752.34949.07436.52566.10282.18639.03011.37445.04989.56178.07419l-.01967.00944Z"/><path class="fc8e5715-506b-4ed6-b56f-9ce8e372fc0c" d="M12.35072,20.47931l.2507-.13512.01232.08954c-.00144.18658-.00582.37321-.00272.55971a.13016.13016,0,0,1-.07512.13032c-.26262.15275-.52352.30847-.784.46485a.31437.31437,0,0,1-.17559.04821c-.16241-.00356-.325-.00117-.48745-.00116h-.115c0-.10452.00084-.2-.00037-.29554-.00056-.04459.03439-.0566.063-.07366q.35154-.20932.7038-.41748.28515-.1689.57028-.33785A.37012.37012,0,0,0,12.35072,20.47931Z"/><path class="a7a82b56-2220-4426-a6c4-53ef17786762" d="M12.05686,21.62389l.54444-.3231v.31785A2.21841,2.21841,0,0,1,12.05686,21.62389Z"/><path class="ae2b8336-b984-47c3-9b21-b7f91f927548" d="M19.16362,16.42854l-.00628.07621c-.071-.00417-.10338.05036-.13709.09632-.04679.06378-.08522.13364-.13016.19887a.216.216,0,0,1-.05217.0402l-.17638-.00766-.00057-.01585a.08977.08977,0,0,1,.00689-.03c.11615-.175.23777-.34661.34834-.52507.11813-.19064.2341-.38351.336-.58306.10827-.212.203-.43132.296-.65065q.11318-.2667.20737-.54132c.05669-.16584.1013-.33586.14957-.50452a6.98677,6.98677,0,0,0,.23658-1.23472c.00816-.08214.01458-.16445.02276-.24659a3.57444,3.57444,0,0,0,.03667-.3793c-.00223-.26931.00851-.53829-.01326-.8084-.01908-.23667-.03868-.473-.06814-.70851-.01875-.14988-.03861-.30015-.06926-.4479-.04046-.19505-.08835-.38879-.13981-.58129-.04888-.1828-.09813-.36629-.16227-.544-.089-.2466-.18228-.49257-.29153-.73065-.12819-.27936-.26685-.55478-.41692-.823a5.746,5.746,0,0,0-.48083-.73583c-.14207-.18183-.27665-.3699-.42555-.54589-.127-.15013-.2702-.28656-.4052-.43-.04244-.0451-.07714-.09826-.123-.13926q-.21952-.19641-.44518-.386c-.11582-.09769-.232-.19548-.35354-.28575a7.724,7.724,0,0,0-.79088-.52746c-.09606-.05445-.1878-.117-.28581-.16746a7.73994,7.73994,0,0,0-.8556-.39749c-.22014-.08134-.43724-.17279-.66144-.24078-.25653-.07778-.51858-.13821-.77986-.19919-.167-.039-.33654-.0681-.50582-.09641-.1489-.02492-.299-.04257-.4486-.06343l.00007-.16613a3.4175,3.4175,0,0,1,.51194.05686,8.3992,8.3992,0,0,1,1.86159.50218c.252.10356.503.21132.74652.333a7.2975,7.2975,0,0,1,.68614.3856c.26924.173.5321.35768.78582.55277a5.7163,5.7163,0,0,1,.68482.616c.109.1161.22858.22244.33638.33963.11419.12413.22439.25251.32862.3851.16179.20579.32235.413.47329.62674.10729.15193.20293.31279.29465.47483.11746.2075.23068.41775.337.63118a7.72777,7.72777,0,0,1,.46835,1.194,7.62231,7.62231,0,0,1,.25316,1.06387c.03341.21722.07167.43381.09957.65173.01615.12615.01742.25431.023.38168.00816.18613.02234.37252.01889.55851-.0037.19935-.02367.39846-.03874.59751-.01272.16806-.02034.33712-.04509.50353-.03334.22416-.07869.44665-.12295.66905a7.33385,7.33385,0,0,1-.27173.986,6.54,6.54,0,0,1-.36621.88927c-.13785.26292-.27745.52492-.41385.78859C19.20574,16.3309,19.14363,16.36137,19.16362,16.42854Z"/><path class="a254ac67-162d-4d27-b38c-84634a996252" d="M6.18942,5.13539c.03664-.03619.07451-.07122.10972-.10875a5.62337,5.62337,0,0,1,2.59732-1.572c.086-.02478.1733-.04506.26-.06742l.13255.47607a.19617.19617,0,0,1-.02832.013,6.217,6.217,0,0,0-1.23391.507A5.76575,5.76575,0,0,0,5.96944,6.201a6.56942,6.56942,0,0,0-.93072,2.00221c-.03682.13254-.06374.26784-.09523.40186l-.085.50027-.0426.00095L4.8154,9.06275c.0081-.27586.01144-.552.02572-.82751a3.64358,3.64358,0,0,1,.11586-.713c.05706-.22313.12752-.44283.1921-.664a.00931.00931,0,0,0,.00453-.01485l.12119-.29579c.02461-.04857.0482-.09769.074-.14561q.151-.28017.30319-.55971l.08-.11964.00084.00225Z"/><path class="e40e97c2-dc01-4c6c-97a4-458d73f15819" d="M9.289,3.86332l-.13256-.47606c-.02276-.13174-.04628-.26335-.068-.39525a1.43982,1.43982,0,0,1-.03035-.3729c.08093.02152.15606.03929.22986.06149a4.05915,4.05915,0,0,1,1.08546.522.07167.07167,0,0,0,.01116.01687c.15339.12889.30775.25663.46.38678a.11383.11383,0,0,0,.11389.02721c.00572.06534.016.13066.0164.196.00226.381.00219.762.0029,1.14291-.06636.01741-.13323.0331-.199.05262-.165.049-.32947.09978-.49416.14984l-.55819-.48239-.211-.26671Z"/><path class="ae2b8336-b984-47c3-9b21-b7f91f927548" d="M6.18942,5.13539q-.2283.29474-.45662.58941L5.732,5.7226l-.08.11964a.37751.37751,0,0,0-.08535.05059c-.07953.08146-.15765.16463-.2314.25132-.12048.14162-.24241.28254-.354.43107-.13439.17888-.26579.35974-.38658.54925a7.16086,7.16086,0,0,0-.3764.64278c-.12052.24116-.23891.484-.34372.73222-.09775.23151-.18229.46911-.26165.7077-.06079.18278-.10686.37065-.15483.55745-.02991.11644-.05327.2347-.07579.35287-.027.14169-.05019.28412-.07465.42629-.0169.09823-.03931.196-.04843.295-.01831.19875-.03975.39813-.0408.59735-.00174.32819.01056.65649.01947.98467a2.20156,2.20156,0,0,0,.02226.26735c.03064.20372.07085.406.09937.61a6.796,6.796,0,0,0,.24377,1.0025c.074.24737.16636.48987.26225.72986.07664.19184.16658.37878.25859.56393.08434.1697.17379.33744.27116.5.108.18035.22907.35288.34138.53075.03826.0606.06721.12707.10041.19086l-.01984.01655L4.66,16.84l-.05114-.00463a.93737.93737,0,0,0-.171-.31378c-.01446-.02049-.05091-.02548-.07722-.03761a.09779.09779,0,0,0-.06637-.09088L4.18209,16.367l-.00033-.01462.12028-.0376c-.04237-.07933-.08-.14778-.11581-.21716q-.18056-.34961-.36-.6998a6.75684,6.75684,0,0,1-.41364-1.08243,6.33293,6.33293,0,0,1-.21914-.89188c-.02143-.13563-.05526-.26937-.075-.4052-.02121-.14611-.0364-.29339-.047-.44068-.01164-.16152-.015-.32364-.02205-.4855-.00678-.15494-.02222-.31008-.01846-.46476.00493-.20274.0234-.40523.039-.60761.0119-.1542.021-.3092.04466-.46178.03419-.22052.072-.44119.12357-.65814q.10745-.45185.23948-.89771c.04565-.155.11244-.304.17331-.45427.06994-.17263.138-.34643.21772-.51458.08561-.18055.18193-.35616.27721-.532.064-.118.13227-.23393.20249-.34841.0503-.082.10468-.16175.16128-.23956.17614-.24215.34718-.48846.53324-.72281a9.30212,9.30212,0,0,1,.81286-.857c.08114-.07911.173-.14731.26054-.21974C6.14986,5.086,6.179,5.081,6.18942,5.13539Z"/><path class="a254ac67-162d-4d27-b38c-84634a996252" d="M10.95854,3.63345a.11383.11383,0,0,1-.11389-.02721c-.1523-.13015-.30666-.25789-.46-.38678a.07167.07167,0,0,1-.01116-.01687l.59949-.01372c.0005.126.00177.252.00076.378A.3113.3113,0,0,1,10.95854,3.63345Z"/><path class="eee7799c-0a0f-4630-88cd-3034e1961c90" d="M10.28471,5.17486c.16469-.05006.32917-.10082.49416-.14984.06574-.01952.13261-.03521.199-.05262l.691-.05607.22021.01c.11592.01368.23219.025.34767.04171.11214.01624.22347.03805.33516.05741a5.01165,5.01165,0,0,1,.94621.3165,5.23783,5.23783,0,0,0-.03786.81094,3.97062,3.97062,0,0,0-.90212-.26609c-.03044-.00447-.0608-.00968-.09134-.0133a2.17686,2.17686,0,0,0-.60358-.00749l-.21131.03579a1.94253,1.94253,0,0,0-.70317.24727,2.35592,2.35592,0,0,0-.80636.63938,2.538,2.538,0,0,0-.41859.83909,2.3106,2.3106,0,0,0-.09662.88079,3.32871,3.32871,0,0,0,.15948.78955,2.25692,2.25692,0,0,0,.24887.55514c.10357.15791.19888.32207.31264.47227a2.98587,2.98587,0,0,0,.60443.60644c.0012.0137.00345.0274.00346.0411q.00028.78582-.0001,1.57164c0,.02387-.00443.04774-.00679.07162-.0126-.00528-.02567-.00964-.03772-.016a5.59407,5.59407,0,0,1-1.238-.88909c-.13242-.12486-.2566-.25846-.38454-.38807-.02032-.02757-.0404-.05532-.061-.08269-.10371-.13786-.21254-.27219-.31042-.41407a4.34242,4.34242,0,0,1-.6141-1.34844l-.01246-.0242-.00532-.03741L8.2496,9.181,8.23226,9.039l.00333-.00582-.00787-.01041L8.22144,9.0004c-.01222-.14079-.02922-.28136-.03567-.42241a3.5029,3.5029,0,0,1,.056-.9077c.024-.11085.04469-.22244.06689-.33369l.01651-.04037.02251-.08405.00155-.00255.01981-.05907.02325-.06223.00645-.0187.05473-.13107.00619-.00506-.00224-.00728.06114-.12764.01118-.02323c.02588-.04851.04946-.09842.07805-.14528.08771-.1438.17733-.28644.26621-.42953.02089-.02237.0432-.04359.06246-.06728a3.00449,3.00449,0,0,1,.61065-.56881A3.91587,3.91587,0,0,1,10.28471,5.17486Z"/><path class="e6f34ac2-7ce8-493f-9be7-d01abd99c53c" d="M12.57874,3.26265c.14958.02086.2997.03851.4486.06343.16928.02831.33879.05743.50582.09641.26128.061.52333.12141.77986.19919.2242.068.4413.15944.66144.24078a7.73994,7.73994,0,0,1,.8556.39749c.098.0505.18975.113.28581.16746a7.724,7.724,0,0,1,.79088.52746c.12156.09027.23772.18806.35354.28575q.22518.18993.44518.386c.04582.041.08052.09416.123.13926.135.14347.27817.2799.4052.43.1489.176.28348.36406.42555.54589a5.746,5.746,0,0,1,.48083.73583c.15007.26821.28873.54363.41692.823.10925.23808.20256.484.29153.73065.06414.17775.11339.36124.16227.544.05146.1925.09935.38624.13981.58129.03065.14775.05051.298.06926.4479.02946.23547.04906.47184.06814.70851.02177.27011.011.53909.01326.8084a3.57444,3.57444,0,0,1-.03667.3793c-.00818.08214-.0146.16445-.02276.24659a6.98677,6.98677,0,0,1-.23658,1.23472c-.04827.16866-.09288.33868-.14957.50452q-.09369.27413-.20737.54132c-.09306.21933-.18776.43863-.296.65065-.10192.19955-.21789.39242-.336.58306-.11057.17846-.23219.35-.34834.52507a.08977.08977,0,0,0-.00689.03l-.19844-.00618c.0553-.07723.09309-.1385.13971-.19207a.14064.14064,0,0,0,.03814-.11248c.02-.00972.07223.01423.046-.04392a.53.53,0,0,0,.07775-.08169c.12459-.2026.25487-.40239.36688-.61188a6.65364,6.65364,0,0,0,.38318-.80374c.09031-.242.18652-.48223.26437-.72823.06846-.2163.121-.43821.1696-.66.04332-.19774.07044-.399.10691-.59828a2.79539,2.79539,0,0,0,.04409-.41013c.006-.17513.02609-.34974.03755-.52474.00407-.06208.002-.12468.00042-.187-.00642-.25889-.01082-.51788-.022-.77657-.00489-.1129-.02309-.22534-.03765-.33768-.01281-.09879-.028-.19732-.04388-.29567-.02468-.1525-.04457-.30614-.078-.45676-.04536-.20457-.0993-.40735-.154-.60971-.03229-.11954-.068-.23867-.11118-.35465-.06737-.18106-.13618-.36207-.21554-.53806-.12075-.2678-.23844-.53827-.3805-.79482a8.60211,8.60211,0,0,0-.5824-.904,8.82674,8.82674,0,0,0-.63513-.7617,8.05942,8.05942,0,0,0-.90786-.83186,7.86723,7.86723,0,0,0-.95524-.65417c-.2413-.14061-.49265-.26548-.746-.38344-.22494-.10474-.45846-.19117-.68908-.28346a.76939.76939,0,0,0-.12-.0275l-.048-.05529c-.02933.0278-.05453.05-.07779.07407-.054.05589-.107.11269-.1604.16912a7.16812,7.16812,0,0,0-1.59536-.60558Z"/><path class="f2defb81-71ae-4c78-8efe-d1dda21ea048" d="M13.518,5.342a5.011,5.011,0,0,0-.94617-.31649q.00109-.5233.00245-1.04663c.00013-.03782.00367-.07563.00561-.11345a5.96234,5.96234,0,0,1,1.36315.48295,2.95249,2.95249,0,0,0-.30078.57787C13.59364,5.06221,13.559,5.20322,13.518,5.342Z"/><path class="a254ac67-162d-4d27-b38c-84634a996252" d="M13.94308,4.34835a5.96234,5.96234,0,0,0-1.36315-.48295l-.00283-.43688a7.16821,7.16821,0,0,1,1.59536.60557Z"/><path class="aa5e10ca-2da3-417b-91ac-ec74f5d9ded5" d="M11.889,4.92636l-.22021-.01q.00157-.4926.003-.98517.00078-.43043.00018-.86085V2.96106h.21411Z"/><path class="f2defb81-71ae-4c78-8efe-d1dda21ea048" d="M12.61361,20.05953V19.3753c-.04514.02417-.07662.03956-.10669.05734q-.56566.33444-1.131.66942c-.02966.01755-.06005.03386-.09011.05073-.02622-.01039-.052-.02229-.07875-.03079-.04216-.01336-.09743-.00223-.11265-.06328.204-.123.40739-.24713.61228-.36867.29438-.17463.58989-.34737.88492-.52091.01726.01261.03441.03552.0518.03571a.69.69,0,0,0,.11144-.01745c.18993-.02988.38253-.04814.56923-.09175.27117-.06334.54151-.13448.80582-.22166.25173-.083.49863-.18327.74134-.29027.19253-.08489.37852-.18612.56185-.28992.17371-.09835.34294-.20536.509-.31621.1602-.10691.316-.22077.46973-.33691.11519-.087.22664-.17953.33477-.27523.08133-.072.15474-.15288.2477-.24584-.05215-.00594-.07792-.01118-.10375-.01142-.10384-.001-.20778.00223-.3115-.00142a.13589.13589,0,0,0-.13154.06059.42867.42867,0,0,1-.09566.09458c-.17879.13439-.36019.26532-.53891.3998a4.86848,4.86848,0,0,1-.67728.41795c-.14076.07357-.2843.14276-.43047.20479-.22807.09681-.45718.19213-.69015.27615-.1746.063-.35493.11116-.5347.1583-.11938.0313-.24353.04419-.36331.07422a4.01168,4.01168,0,0,0-.50319.1023l-.01107-.09474c-.03056-.002-.05752-.00525-.08448-.00532-.16907-.00047-.33817.00143-.5072-.00118a.26329.26329,0,0,0-.14591.041c-.08231.04965-.16715.09511-.25092.14231-.00918-.051-.04991-.0544-.08983-.06145-.03534-.00624-.07-.01611-.105-.02438l.12134-.09134h-.56011l-.01183.07433c-.06831-.00692-.13705-.011-.20485-.02135-.14593-.0222-.293-.04051-.43667-.07324q-.38736-.08821-.76636-.2096a7.314,7.314,0,0,1-.97862-.3922c-.152-.07385-.298-.16006-.44564-.24267-.09027-.05052-.18153-.10027-.26686-.15841-.15943-.10862-.31788-.21916-.471-.33641-.12-.09192-.2335-.19282-.34507-.295a.11936.11936,0,0,0-.08917-.0384c-.12115.00119-.24233-.00016-.36348.00122a.356.356,0,0,0-.07285.02156c.07512.06533.141.11476.19753.17321a4.42766,4.42766,0,0,0,.596.49424c.17293.12541.35128.24389.532.35789a5.688,5.688,0,0,0,.83.44367,8.48772,8.48772,0,0,0,1.09991.39224,7.76689,7.76689,0,0,0,1.14314.21764c.07432.00822.1471.03032.22059.046l-.1774.117v.729c-.13559-.02024-.27081-.04352-.40685-.06013A7.30607,7.30607,0,0,1,9.505,19.82124c-.2651-.07322-.525-.16742-.783-.26364a7.26816,7.26816,0,0,1-.95527-.44672c-.21132-.116-.42006-.23838-.62077-.37173-.19462-.12931-.37705-.27691-.56566-.41535a5.0536,5.0536,0,0,1-.60118-.52023c-.058-.05861-.12538-.108-.18378-.16624-.056-.05583-.1053-.11823-.15846-.17691-.07869-.08687-.15884-.17243-.2366-.26011a.25022.25022,0,0,1-.02556-.067c.07577-.00173.14007-.00155.20415-.00523.0437-.0025.08709-.01037.13062-.01585.19978-.0069.39957-.02.59933-.01939.36885.001.73769.01,1.10652.01573a.42207.42207,0,0,0,.0699.09791c.13553.10579.27262.20995.41375.30807.10175.07074.21217.12889.31628.19642a6.01331,6.01331,0,0,0,1.04887.51539c.14079.05646.28386.10842.42887.15271a2.93216,2.93216,0,0,0,.29153.0593l.01.19859h3.60763l.00922-.19889c.1513-.04476.30518-.08245.45325-.13614.17137-.06215.33959-.1341.50562-.20961.19742-.08979.3964-.17841.5851-.28459a5.8916,5.8916,0,0,0,.81409-.54331c.05555-.0448.14-.06849.15564-.1558.37216-.00379.74432-.00961,1.11649-.01047.17565-.0004.35133.00873.527.01354a.52748.52748,0,0,0,.08733.01618c.09525.00194.19058.00048.28588.00034l.00027,0a.22708.22708,0,0,1-.026.07525c-.09779.11583-.19365.234-.3.34174-.16256.16471-.33132.32348-.50092.481a3.59148,3.59148,0,0,1-.2991.25425c-.22379.16631-.44709.33434-.68074.486-.234.15187-.478.28875-.72209.42427a4.24662,4.24662,0,0,1-.43037.20515c-.27064.11262-.541.22786-.81813.32236a7.1038,7.1038,0,0,1-.7178.1942c-.251.05709-.50464.105-.75929.14208A.43861.43861,0,0,1,12.61361,20.05953Z"/><path class="aca66abb-f72f-42e4-b646-f32805d3cd2e" d="M16.125,17.10862c-.0156.08731-.10009.111-.15564.1558a5.8916,5.8916,0,0,1-.81409.54331c-.1887.10618-.38768.1948-.5851.28459-.166.07551-.33425.14746-.50562.20961-.14807.05369-.30195.09138-.45325.13614l-.01041-.1166H9.99322l-.0087.1169a2.93216,2.93216,0,0,1-.29153-.0593c-.145-.04429-.28808-.09625-.42887-.15271A6.01331,6.01331,0,0,1,8.21525,17.711c-.10411-.06753-.21453-.12568-.31628-.19642-.14113-.09812-.27822-.20228-.41375-.30807a.42207.42207,0,0,1-.0699-.09791c.16857.004.33721.006.50567.0127.1169.00464.23365.01453.3503.02421q.38043.03158.76064.0659c.058.0053.11528.0179.17289.02713l.08747.01238.05753.00885a.45145.45145,0,0,0,.25511.14778c.22629.08081.458.14736.68949.21249a4.2506,4.2506,0,0,0,1.00443.16713,6.47452,6.47452,0,0,0,1.20986-.03039q.34161-.05263.6784-.12448a5.34021,5.34021,0,0,0,.87389-.2835.16583.16583,0,0,0,.10881-.08889l.05866-.00868.08652-.01275.11623-.00893.05069-.01349.11522-.00691.1133-.01388.058-.00647.12884-.01353c.1819-.01462.36367-.0313.54574-.04329.17551-.01155.35129-.01912.527-.02658C16.02157,17.10318,16.07336,17.10736,16.125,17.10862ZM9.99536,18.18176c.26769.02332,3.53064.0125,3.61166-.01275,0-.04983.00038-.10145-.00011-.15307-.00048-.05027-.00185-.10053-.00284-.151H9.99536Z"/><path class="e9a0b35b-b7dc-4a95-94e3-6e2dbcd0909b" d="M14.16981,17.25988a.16583.16583,0,0,1-.10881.08889,5.34021,5.34021,0,0,1-.87389.2835q-.33746.07167-.6784.12448a6.47452,6.47452,0,0,1-1.20986.03039A4.2506,4.2506,0,0,1,10.29442,17.62c-.23153-.06513-.4632-.13168-.68949-.21249a.45145.45145,0,0,1-.25511-.14778c.1729.02531.34679.04524.51847.07707a6.56982,6.56982,0,0,1,.9771.24949l.04083.01616.00442-.00624-.025-.01048a3.594,3.594,0,0,0-.75178-.316A7.729,7.729,0,0,0,9.028,17.011,9.65227,9.65227,0,0,0,7.94991,16.881c-.42773-.02446-.85584-.04241-1.28378-.06336-.01374-.00068-.02739-.00325-.04109-.00494.007-.04836-.02944-.07261-.05509-.10451-.05288-.06578-.102-.13458-.15265-.20215l.56535-.00252c.26622.00921.53247.01754.79863.02819.07929.00317.15833.01285.23748.01955l.2048.01671.04472.00415.2268.01621.06427.00482.14142.01668.04591.00517.10379.01424.0416.0059.10353.015.06242.004.10008.018.02483.00365.09782.01776.02725.00474.09966.01541.02465.00426.04256.01489.06162.00669.06132.01475.02169.00473.09806.01759.02773.00718.055.01373.02707.00454.04424.01322.00959,0,.00827.00485.09547.01955.09184.02449.04208.01438.02025.00544.06082.01608.10554.02685.0381.01537.02429.00535.042.01407.14495.04647.05665.01795.13054.0457.04072.0151.12569.048.03613.01581.02537.00255.01778.0792.00416.448a.53928.53928,0,0,0,.07091.00926q.7144.00082,1.42882-.00025a.43512.43512,0,0,0,.07916-.01466l.00778-.04751.0595-.02758a5.17494,5.17494,0,0,1,.77751-.21553c.23653-.0479.47522-.08515.71307-.12646A.18368.18368,0,0,1,14.16981,17.25988Z"/><path class="f0a100e2-245e-44f1-8d99-ba68761ae62e" d="M5.70947,17.11223c-.04353.00548-.08692.01335-.13062.01585-.06408.00368-.12838.0035-.20415.00523a.25022.25022,0,0,0,.02556.067c.07776.08768.15791.17324.2366.26011.05316.05868.10251.12108.15846.17691.0584.05828.12576.10763.18378.16624a5.0536,5.0536,0,0,0,.60118.52023c.18861.13844.371.286.56566.41535.20071.13335.40945.25569.62077.37173a7.26816,7.26816,0,0,0,.95527.44672c.258.09622.5179.19042.783.26364a7.30607,7.30607,0,0,0,1.05819.21966c.136.01661.27126.03989.40685.06013l.12436-.04231c.01522.061.07049.04992.11265.06328.0268.0085.05253.0204.07875.03079l-.24968.14531c-.18726-.02429-.37532-.04407-.56171-.07418-.17617-.02846-.35112-.0653-.52566-.10282A7.59855,7.59855,0,0,1,8.927,19.83134a9.14481,9.14481,0,0,1-.93236-.3923,7.4336,7.4336,0,0,1-.8196-.45871c-.246-.16409-.48619-.33772-.72069-.51788a6.77339,6.77339,0,0,1-.79312-.70975A5.56312,5.56312,0,0,1,5.16332,17.19c-.03707-.05154-.08393-.03614-.12929-.04281.00907-.00438.01805-.01232.02731-.01266Q5.38539,17.12262,5.70947,17.11223Z"/><path class="a4f1e7f9-0a88-46e4-adb4-89ae438347c1" d="M4.81724,16.83254l.01984-.01655a.6821.6821,0,0,0,.241-.02c-.04084-.0561-.07518-.10113-.10713-.14779-.03-.04387-.0755-.08052-.07108-.14182l1.081-.0191a.31186.31186,0,0,0,.10043.17187,1.41971,1.41971,0,0,1,.08683.13482c-.11234.00064-.22471.00022-.337.00259a.7761.7761,0,0,0-.09849.0143c-.02045.00188-.04088.005-.06136.00544Q5.2443,16.82475,4.81724,16.83254Z"/><path class="bba8e7b3-1410-4549-ac6e-2f5caebada2f" d="M6.16821,16.794a1.41971,1.41971,0,0,0-.08683-.13482.31192.31192,0,0,1-.10044-.17188l.31256.00132.1238.01753c.05066.06755.09977.13635.15265.20213.02565.0319.062.05615.05509.10451l-.16824-.00311Z"/><path class="e6f34ac2-7ce8-493f-9be7-d01abd99c53c" d="M4.36067,16.484c.02631.01213.06276.01712.07722.03761a.93727.93727,0,0,1,.171.3138l-.14371.01584-.33378.02441A1.37725,1.37725,0,0,0,4.36067,16.484Z"/><path class="e9a0b35b-b7dc-4a95-94e3-6e2dbcd0909b" d="M6.16821,16.794l.28859.01568-.72409.00121a.7761.7761,0,0,1,.09849-.0143C5.9435,16.79418,6.05587,16.7946,6.16821,16.794Z"/><path class="f0a100e2-245e-44f1-8d99-ba68761ae62e" d="M4.46517,16.85125l.14371-.01584L4.66,16.84Z"/><path class="e9a0b35b-b7dc-4a95-94e3-6e2dbcd0909b" d="M9.29229,17.25089l-.08747-.01238Z"/><path class="f0a100e2-245e-44f1-8d99-ba68761ae62e" d="M10.8656,17.58574l.025.01048-.00442.00624-.04083-.01616Z"/><path class="a4f35ef1-35e1-4ddf-b478-6202500f6b81" d="M12.638,17.5998l-.0595.02758.005-.45966.009-.01145L12.6,17.152l.05311-.01987a5.56878,5.56878,0,0,1,.83359-.27358,7.116,7.116,0,0,1,.9611-.1966q.513-.06287,1.02778-.11152c.19582-.01831.393-.02288.58961-.0319.2-.00918.40014-.01624.60021-.02423l.10916.02388a2.40042,2.40042,0,0,1-.18682.20093.98149.98149,0,0,0-.06714.09872.83942.83942,0,0,1-.092.01416c-.22449.01038-.44933.01516-.67349.03022-.1997.01341-.39915.03378-.59782.05827-.24635.03036-.49283.06209-.73737.10412a6.8222,6.8222,0,0,0-1.09325.27145c-.18223.06353-.36026.13954-.53838.21423A1.20109,1.20109,0,0,0,12.638,17.5998Z"/><path class="f0a100e2-245e-44f1-8d99-ba68761ae62e" d="M12.61361,20.05953a.43861.43861,0,0,0,.274-.005c.25465-.037.5083-.085.75929-.14208a7.1038,7.1038,0,0,0,.7178-.1942c.27716-.0945.54749-.20974.81813-.32236a4.24662,4.24662,0,0,0,.43037-.20515c.244-.13552.48812-.2724.72209-.42427.23365-.15168.45695-.31971.68074-.486a3.59148,3.59148,0,0,0,.2991-.25425c.1696-.15754.33836-.31631.50092-.481.10632-.10772.20218-.22591.3-.34174a.22708.22708,0,0,0,.026-.07525l.323.019a.11863.11863,0,0,0-.11771.06131,2.07532,2.07532,0,0,1-.21682.26241c-.17613.185-.35189.37093-.53762.54606-.15751.14852-.32438.28809-.4951.42137-.21967.17148-.44679.33346-.672.4977-.03872.02823-.08608.04437-.126.07117a7.02381,7.02381,0,0,1-.8301.46475,5.02651,5.02651,0,0,1-.481.21721,9.63818,9.63818,0,0,1-.92.30835c-.11637.02964-.23009.07041-.34716.09646-.1572.035-.316.06332-.475.08958-.22336.03691-.44693.07376-.6716.10072-.06288.00755-.13787.03355-.19581-.02629.05992-.03741.118-.0783.18044-.11092A.09164.09164,0,0,0,12.61361,20.05953Z"/><path class="a4f1e7f9-0a88-46e4-adb4-89ae438347c1" d="M16.5206,16.81782a.98149.98149,0,0,1,.06714-.09872,2.40042,2.40042,0,0,0,.18682-.20093l-.10915-.02388a.5147.5147,0,0,1,.06135-.00718q.85384-.00018,1.70769.0013c.06866.00021.13729.0114.20593.01749a.14064.14064,0,0,1-.03814.11248c-.04662.05357-.08441.11484-.13971.19207l.19844.00618.00057.01585c-.31362-.0055-.62722-.01389-.94086-.01577C17.32067,16.81433,16.92063,16.81721,16.5206,16.81782Z"/><path class="e6f34ac2-7ce8-493f-9be7-d01abd99c53c" d="M18.83792,16.84014a.216.216,0,0,0,.05217-.0402c.04494-.06523.08337-.13509.13016-.19887.03371-.046.06612-.10049.13708-.09632l.21713.37193Z"/><path class="f0a100e2-245e-44f1-8d99-ba68761ae62e" d="M18.14173,17.12821c-.0953.00014-.19063.0016-.28588-.00034a.52748.52748,0,0,1-.08733-.01618Z"/><path class="e9a0b35b-b7dc-4a95-94e3-6e2dbcd0909b" d="M14.89727,17.17524l-.12884.01353Z"/><path class="e9a0b35b-b7dc-4a95-94e3-6e2dbcd0909b" d="M14.71043,17.19524l-.1133.01388Z"/><path class="e9a0b35b-b7dc-4a95-94e3-6e2dbcd0909b" d="M14.315,17.23845l-.08652.01275Z"/><path class="e9a0b35b-b7dc-4a95-94e3-6e2dbcd0909b" d="M14.48191,17.216l-.05069.01349Z"/><path class="f0a100e2-245e-44f1-8d99-ba68761ae62e" d="M10.99135,20.32646l.02515-.01891Z"/><path class="bba8e7b3-1410-4549-ac6e-2f5caebada2f" d="M4.85852,9.10537l.085-.50027a.56377.56377,0,0,0,.07065-.08629c.09947-.18527.18591-.37834.29607-.55686.14466-.23441.30352-.46042.46317-.68514a3.99066,3.99066,0,0,1,.49739-.59347c.01506-.01429.029-.02975.0437-.0444.11454-.114.22861-.22857.34487-.34082.0083-.008.03284.00079.04982.00177-.02795.0476-.0562.095-.08381.14283-.07938.13745-.16594.2714-.23584.41353-.08673.17633-.16657.35683-.23631.54049a3.9231,3.9231,0,0,0-.14882.484,4.37242,4.37242,0,0,0-.1317.7614c-.0082.14408-.03022.28752-.03512.43161-.00621.18316-.00138.36669-.00132.55006-.02025.02058-.04912.03757-.05943.06229a4.31429,4.31429,0,0,0-.2307.82424c-.03878.19492-.05256.3947-.08743.59054a3.41873,3.41873,0,0,0-.03937.63873c.00087.08308-.00246.16626.00075.24922.00492.12727.00617.25539.02275.38134.02867.21771.06229.43511.10441.65058.03625.18544.08636.36822.13242.55166a1.3677,1.3677,0,0,0,.04976.13349c.02655-.09245.02318-.09133.002-.15468-.03693-.11063-.07432-.22156-.10194-.33471-.02271-.09307-.0271-.19051-.04779-.2842a.41712.41712,0,0,1-.00012-.27679.33035.33035,0,0,1-.05394-.08148c-.036-.13172-.00192-.27168-.04386-.40341a.03633.03633,0,0,1,.00422-.02.42759.42759,0,0,0-.007-.22313.83171.83171,0,0,1-.0079-.29618,1.00318,1.00318,0,0,0,.02811-.27595c-.00612-.09561.03792-.19009.00343-.28563-.002-.00553.00244-.01334.0038-.02011.02448-.12105.04931-.242.073-.36324.00394-.02016.0016-.04147.00454-.06191a1.65433,1.65433,0,0,1,.05234-.3224,1.349,1.349,0,0,0,.07356-.30883.05227.05227,0,0,1,.07188-.05109c.03.00654.06079.00967.09123.01433l.04127.29136a.06384.06384,0,0,0-.0752.05507c-.0236.09342-.05178.18633-.06638.28125a5.44888,5.44888,0,0,0-.08753.66368c-.00584.1923-.0283.384-.03745.57634a1.53987,1.53987,0,0,0,.01888.19459q.01179.14389.02016.28808c.01193.1993.05006.3948.07861.59186a4.61724,4.61724,0,0,0,.20737.79741c.09784.2933.22824.57573.34925.87465-.02564.02327-.06057.05584-.09643.08735-.07916.06957-.07921.09049.00111.15981-.09843.12861-.194.25956-.296.38527-.1521.18745-.30876.37119-.46348.55652-.06879-.00468-.08684-.065-.11193-.11063-.11788-.21459-.23267-.43091-.34639-.64775a6.14018,6.14018,0,0,1-.36-.88128,6.00866,6.00866,0,0,1-.21464-.8189c-.03708-.19587-.07906-.39054-.09927-.58911-.008-.07865-.01436-.15747-.02232-.23613a3.41141,3.41141,0,0,1-.03611-.36884,6.116,6.116,0,0,1,.01667-.7976c.02227-.15979.02273-.32258.04414-.48253q.043-.32148.10415-.64049a7.225,7.225,0,0,1,.28912-1.00292c.01618-.04642.02139-.10387.08282-.12077l.00052.04357.00671.09216.03022-.00029ZM6.043,14.451a.28588.28588,0,0,0,.08818.20723l.03276-.09433Zm-.11168-.24829a.22892.22892,0,0,0,.09133.19647C5.98968,14.32714,6.02223,14.24143,5.93129,14.2027Zm-.14168-.36318a.28158.28158,0,0,0,.07991.21492A.28656.28656,0,0,0,5.78961,13.83952Z"/><path class="aa5e10ca-2da3-417b-91ac-ec74f5d9ded5" d="M4.8154,9.06275c-.06143.0169-.06664.07435-.08282.12077a7.225,7.225,0,0,0-.28912,1.00292q-.06158.31845-.10415.64049c-.02141.15995-.02187.32274-.04414.48253a6.116,6.116,0,0,0-.01667.7976,3.41141,3.41141,0,0,0,.03611.36884c.008.07866.01432.15748.02232.23613.02021.19857.06219.39324.09927.58911a6.00866,6.00866,0,0,0,.21464.8189,6.14018,6.14018,0,0,0,.36.88128c.11372.21684.22851.43316.34639.64775.02509.04566.04314.106.11193.11062l-.60688.70522a.64618.64618,0,0,1-.07026-.07293,5.68388,5.68388,0,0,1-.44878-.756c-.14085-.28439-.27239-.57422-.39129-.86843a7.15551,7.15551,0,0,1-.32169-1.03584A7.51017,7.51017,0,0,1,3.44457,12.625c-.01627-.19533-.03854-.391-.03894-.58659-.00053-.26558-.01235-.53106.0137-.79745.01735-.17748.01938-.357.04618-.53418.02877-.1901.04952-.382.0904-.56955a9.90855,9.90855,0,0,1,.27422-1.0264,7.72357,7.72357,0,0,1,.302-.76948,7.30412,7.30412,0,0,1,.67241-1.21226c.12782-.17959.25787-.35762.38408-.53833a.08776.08776,0,0,1,.08616-.04322l-.12117.29578-.00455.01486c-.06458.22121-.135.44091-.1921.664a3.64358,3.64358,0,0,0-.11586.713C4.82684,8.51078,4.8235,8.78689,4.8154,9.06275Z"/><path class="a4f1e7f9-0a88-46e4-adb4-89ae438347c1" d="M6.70916,6.29989c-.017-.001-.04152-.00978-.04982-.00177-.11626.11225-.23033.22678-.34487.34082-.01471.01465-.02864.03011-.0437.0444a3.99066,3.99066,0,0,0-.49739.59347c-.15965.22472-.31851.45073-.46317.68514-.11016.17852-.1966.37159-.29607.55686a.56429.56429,0,0,1-.07064.08629c.03148-.134.0584-.26932.09522-.40186A6.56942,6.56942,0,0,1,5.96944,6.201,5.76575,5.76575,0,0,1,8.0268,4.3833a6.217,6.217,0,0,1,1.23391-.507.19617.19617,0,0,0,.02832-.013l.22651.56245a3.90726,3.90726,0,0,0-.94481.3308,4.73473,4.73473,0,0,0-.97023.61116,4.79321,4.79321,0,0,0-.79868.82211C6.77306,6.22813,6.74015,6.26329,6.70916,6.29989Z"/><path class="f0a100e2-245e-44f1-8d99-ba68761ae62e" d="M5.2748,6.54756a.08776.08776,0,0,0-.08616.04322c-.12621.18071-.25626.35874-.38408.53833a7.30412,7.30412,0,0,0-.67241,1.21226,7.72357,7.72357,0,0,0-.302.76948,9.90855,9.90855,0,0,0-.27422,1.0264c-.04088.18751-.06163.37945-.0904.56955-.0268.17715-.02883.3567-.04618.53418-.02605.26639-.01423.53187-.0137.79745.0004.19556.02267.39126.03894.58659a7.51017,7.51017,0,0,0,.18573,1.10674A7.15551,7.15551,0,0,0,3.952,14.7676c.1189.29421.25044.584.39129.86843a5.68388,5.68388,0,0,0,.44878.756.64618.64618,0,0,0,.07026.07293c-.02361.0466.01673.03519.0376.04146-.00442.0613.04105.098.07108.14182.032.04666.06629.09169.10713.14779a.6821.6821,0,0,1-.241.02c-.0332-.06379-.06215-.13026-.10041-.19086-.11231-.17787-.23333-.3504-.34138-.53075-.09737-.16251-.18682-.33025-.27116-.5-.092-.18515-.182-.37209-.25859-.56393-.09589-.24-.18827-.48249-.26225-.72986a6.796,6.796,0,0,1-.24377-1.0025c-.02852-.204-.06873-.40629-.09937-.61a2.20156,2.20156,0,0,1-.02226-.26735c-.00891-.32818-.02121-.65648-.01947-.98467.001-.19922.02249-.3986.0408-.59735.00912-.099.03153-.19675.04843-.295.02446-.14217.04764-.2846.07465-.42629.02252-.11817.04588-.23643.07579-.35287.048-.1868.094-.37467.15483-.55745.07936-.23859.1639-.47619.26165-.7077.10481-.24823.2232-.49106.34372-.73222a7.16086,7.16086,0,0,1,.3764-.64278c.12079-.18951.25219-.37037.38658-.54925.11158-.14853.23351-.28945.354-.43107.07375-.08669.15187-.16986.2314-.25132A.37751.37751,0,0,1,5.652,5.84224q-.15168.27981-.30319.55971C5.323,6.44987,5.29941,6.499,5.2748,6.54756Z"/><path class="e6f34ac2-7ce8-493f-9be7-d01abd99c53c" d="M4.85852,9.10537l-.00567.09282-.03022.00029-.00671-.09216Z"/><path class="e6f34ac2-7ce8-493f-9be7-d01abd99c53c" d="M5.14908,6.8582l.00455-.01486A.00933.00933,0,0,1,5.14908,6.8582Z"/><path class="e6f34ac2-7ce8-493f-9be7-d01abd99c53c" d="M5.732,5.7226l.00082.0022Z"/><path class="a5763529-9104-49bd-9eda-9271f1986a34" d="M6.70916,6.29989c.031-.0366.0639-.07176.09266-.11a4.79321,4.79321,0,0,1,.79868-.82211,4.73473,4.73473,0,0,1,.97023-.61116,3.90726,3.90726,0,0,1,.94481-.3308l.211.2667c-.07221.04082-.14557.0797-.2164.12275a6.2393,6.2393,0,0,0-1.00572.76067,5.79745,5.79745,0,0,0-.63678.69424,4.93319,4.93319,0,0,0-.61433,1.00508,4.687,4.687,0,0,0-.26923.781,2.40277,2.40277,0,0,0-.09136.63233.74859.74859,0,0,0-.018.11061c-.00226.1277.003.25561-.00178.38317a1.9976,1.9976,0,0,0,.07647.56011c.066.26308.15407.52077.23716.77933.02709.08428.06806.1641.10268.246l.1221.27161.12742.26888c.01646.0379.03012.07734.04984.11346a6.09908,6.09908,0,0,0,.49262.77648c.14594.19177.29906.37914.46157.557a5.21877,5.21877,0,0,0,.76469.69488l-.08209-.00077a.17152.17152,0,0,1-.031.00065c-.32316-.05081-.64572-.10583-.96955-.15195-.31721-.04518-.63571-.08136-.95364-.12148a5.3866,5.3866,0,0,1-.5146-.73939c-.14-.24573-.26429-.50065-.39033-.75408a5.071,5.071,0,0,1-.28107-.74421c-.034-.10822-.05882-.21944-.08558-.32983-.02911-.12007-.05564-.24076-.08329-.36118L5.875,9.95646l-.03876-.33263c-.00007-.18337-.0049-.3669.00131-.55006.0049-.14409.02692-.28753.03512-.43161a4.37242,4.37242,0,0,1,.1317-.7614,3.9231,3.9231,0,0,1,.14882-.484c.06974-.18366.14958-.36416.23631-.54049.0699-.14213.15646-.27608.23584-.41353C6.653,6.39492,6.68121,6.34749,6.70916,6.29989Z"/><path class="bba8e7b3-1410-4549-ac6e-2f5caebada2f" d="M7.25332,7.27522a4.93124,4.93124,0,0,1,.61429-1.00508,5.79745,5.79745,0,0,1,.63678-.69424,6.2393,6.2393,0,0,1,1.00572-.76067c.07083-.04305.14419-.08193.2164-.12275l.5582.48238a3.91587,3.91587,0,0,0-.73757.38959,3.00449,3.00449,0,0,0-.61065.56881c-.01926.02369-.04157.04491-.06246.06728-.03971-.05023-.08083-.02151-.1189.00042-.11354.06538-.227.131-.33839.2s-.22242.13877-.32937.21423c-.09264.06536-.182.136-.268.20991-.15367.132-.30246.2697-.4564.40138A.41972.41972,0,0,1,7.25332,7.27522Z"/><path class="fa537e8c-8eb4-4514-a311-9c89e29f714f" d="M7.27112,13.17652c.31793.04012.63643.0763.95364.12148.32383.04612.64639.10114.96955.15195a.17127.17127,0,0,0,.031-.00065l.0822.01728.00824.00211.07274.01611.02741.0042.05471.0135.02973.007.07454.01493.04357.00786.03969.01225.065.00832.00639.00559.00789-.00221.08214.02.04716.01234.02307.00566.03879.01313.03215.00542.04822.01032.02528.00927.941.25439v-.11216q0-.51222-.00036-1.02445c-.00007-.04468-.00375-.08936-.00575-.134.00236-.02388.00677-.04775.00679-.07162q.00055-.78582.0001-1.57164c0-.0137-.00226-.0274-.00347-.0411.00086-.05174.00212-.10348.00253-.15523q.00258-.326.00475-.652a6.12785,6.12785,0,0,0,.69494.76834c-.00086.01034-.00247.02068-.00247.031q-.0005,1.82916-.00048,3.65832c0,.02669.00408.05339.00664.08476h.20914v-.12671q-.00007-1.67327,0-3.34653c0-.045.00268-.08991.00411-.13486a2.5339,2.5339,0,0,0,.67939.25089l.006.30659c-.00109.01721-.00311.03441-.00312.05162q-.00027.66846.00015,1.33692c0,.02388.0043.04776.0066.07164a.39751.39751,0,0,0-.00654.051q-.00069.35148-.00014.70294a.47742.47742,0,0,0,.00578.05176l.98912-.256a6.63464,6.63464,0,0,1-.84053,1.15393,7.35675,7.35675,0,0,1-1.6918,1.40612.10541.10541,0,0,0-.06188.10634c.0036.08287.00151.166.00085.249q-.00243.30587-.00576.61173l-.02537-.00256-.03613-.01581-.1257-.048-.04071-.0151-.13054-.04571-.05665-.01794-.145-.04647-.042-.01407-.02429-.00535-.0381-.01537L10.2,16.90012l-.06082-.01608-.02026-.00544-.04207-.01438L9.985,16.83973l-.09548-.01955-.00827-.00485-.0096,0-.04423-.01322-.02706-.00455-.055-.01372-.02773-.00718-.09806-.01759-.02169-.00473-.06132-.01475-.06162-.00669-.04256-.01489-.02465-.00426L9.308,16.69838l-.02724-.00474-.09783-.01776-.02482-.00365-.10009-.018-.06243-.004-.10352-.015-.04161-.0059-.10378-.01424-.0459-.00517-.14143-.01668-.06427-.00482-.2268-.01621L8.22357,16.568l-.20481-.01671c-.07915-.0067-.15819-.01638-.23748-.01955-.26616-.01065-.53241-.019-.79865-.02819a.41694.41694,0,0,0-.07035-.01246c-.20625-.00163-.41252-.00188-.61878-.00253l-.31256-.00132-1.081.01911c-.02087-.00627-.06121.00514-.0376-.04146l.60688-.70522c.15472-.18532.31138-.36906.46348-.55651.102-.12571.19754-.25666.296-.38527a4.71266,4.71266,0,0,0,.9285-1.64139Z"/><path class="e40e97c2-dc01-4c6c-97a4-458d73f15819" d="M13.94308,4.34835l.22938-.31426c.05342-.05642.10645-.11322.16041-.16911.02326-.02408.04846-.04627.07779-.07407l.048.05529.1263.37356.01871.05193.13054.53333c.02488.1557.05345.31093.07339.46726a1.466,1.466,0,0,1,.01966.3282c-.01511.14937-.0557.2961-.08338.44434a.38545.38545,0,0,0,.00125.07879.29058.29058,0,0,0-.03813.05619c-.03078.08043-.05725.16251-.08779.243-.05126.13516-.10441.26961-.15676.40435-.01377.02359-.0286.04662-.04116.07084-.10313.19884-.20556.398-.30888.59677-.02184.042-.04644.08256-.06231.1106.11746.23232.2319.44878.33689.66974.07078.149.12823.30425.19165.45671l.04215.16143a.5611.5611,0,0,0-.527-.07524c-.06843-.17519-.12841-.34058-.197-.50229A7.89922,7.89922,0,0,0,13.09055,6.859a5.04534,5.04534,0,0,0-.51178-.64977l-.00154-.23642a.95538.95538,0,0,1,.09736.05753,4.82977,4.82977,0,0,1,.68665.64237c.06543.07341.129.14847.20051.231l-.08155-.75077a5.2404,5.2404,0,0,1,.03788-.81095c.0409-.13876.07556-.27977.12422-.41576A2.95249,2.95249,0,0,1,13.94308,4.34835Z"/><path class="ab5269e6-51c4-4011-b8d4-9deed3c1232b" d="M9.72313,13.55284l-.065-.00832-.0397-.01225-.04357-.00786-.07454-.01493-.02973-.007L9.41589,13.489l-.0274-.0042-.07275-.01611-.00823-.00211a.07855.07855,0,0,0-.0001-.01651,5.21877,5.21877,0,0,1-.76469-.69488c-.16251-.17784-.31563-.36521-.46157-.557a6.09908,6.09908,0,0,1-.49262-.77648c-.01972-.03612-.03338-.07556-.04984-.11346a.077.077,0,0,0,.04275-.08571,1.62023,1.62023,0,0,1,.07911-.48516c.04832-.18194.11009-.36092.17608-.53742A4.191,4.191,0,0,1,8.206,9.476a.10068.10068,0,0,1,.09954-.05981l.00532.03741.01246.0242a4.34242,4.34242,0,0,0,.6141,1.34844c.09788.14188.20671.27621.31042.41407.0206.02737.04068.05512.061.08269a2.42262,2.42262,0,0,0-.04442.55546,3.04292,3.04292,0,0,0,.05869.41806,2.15091,2.15091,0,0,0,.24109.65724,2.08556,2.08556,0,0,0,.42143.56.12984.12984,0,0,1,.04858.11867l-.02525-.00924-.04825-.01035-.03215-.00542-.03879-.01313-.02307-.00566-.04716-.01234-.08211-.02Z"/><path class="b3f55f19-6c75-4064-a89f-719ceef966ef" d="M10.05548,9.85305a2.25692,2.25692,0,0,1-.24887-.55514,3.32871,3.32871,0,0,1-.15948-.78955,2.3106,2.3106,0,0,1,.09662-.88079,2.538,2.538,0,0,1,.41859-.83909,2.35592,2.35592,0,0,1,.80636-.63938l.005.53989-.114.00611.12263.38056c-.00242.04123-.00694.08246-.007.1237q-.00068,1.0308-.00055,2.0616c0,.03786-.00284.07573-.00436.11359a1.40007,1.40007,0,0,0-.29152.08765c-.17325.09546-.33541.211-.50246.31775C10.13675,9.80531,10.09583,9.82873,10.05548,9.85305Z"/><path class="a4f35ef1-35e1-4ddf-b478-6202500f6b81" d="M7.28917,10.76778c-.03462-.08186-.07559-.16168-.10268-.246-.08309-.25856-.17114-.51625-.23716-.77933a1.9976,1.9976,0,0,1-.07647-.56011c.00474-.12756-.00048-.25547.00178-.38317a.74476.74476,0,0,1,.01808-.11061c.02017-.01112.0466-.01742.05943-.03415.088-.11476.16967-.23445.25987-.34738A6.51168,6.51168,0,0,1,7.728,7.701c.08878-.0869.17906-.17285.27445-.25227.09777-.0814.2023-.15473.30489-.2302.00975-.00717.02678-.00445.04042-.00632l-.02251.08405-.01651.04037c-.0222.11125-.04286.22284-.06689.33369a3.5029,3.5029,0,0,0-.056.9077c.00645.141.02345.28162.03567.42241-.06238-.00414-.08963.0412-.12085.08338a4.41025,4.41025,0,0,0-.47137.80224c-.07816.17216-.1396.35214-.2034.53045-.02534.07081-.0322.14812-.05606.21961C7.35362,10.68442,7.3607,10.75171,7.28917,10.76778Z"/><path class="a644587b-ec8f-4264-a175-1d25cb6e73d5" d="M10.03422,13.63238a.12984.12984,0,0,0-.04858-.11867,2.08556,2.08556,0,0,1-.42143-.56,2.15091,2.15091,0,0,1-.24109-.65724,3.04292,3.04292,0,0,1-.05869-.41806,2.42262,2.42262,0,0,1,.04442-.55546c.12794.12961.25212.26321.38454.38807a5.59407,5.59407,0,0,0,1.238.88909c.01205.00633.02512.01069.03772.016.002.04468.00568.08936.00575.134q.00077.51224.00036,1.02445v.11216Z"/><path class="f17703c3-c1f6-4b98-8d1a-232c780b8f2e" d="M8.34771,7.21218c-.01364.00187-.03067-.00085-.04042.00632-.10259.07547-.20712.1488-.30489.2302-.09539.07942-.18567.16537-.27445.25227a6.51168,6.51168,0,0,0-.51593.6061c-.0902.11293-.1719.23262-.25987.34738-.01283.01673-.03926.023-.05943.03415a2.4015,2.4015,0,0,1,.09133-.63233,4.687,4.687,0,0,1,.26923-.781.4194.4194,0,0,0,.10964-.04874c.15394-.13168.30273-.26938.4564-.40138.086-.0739.17541-.14455.268-.20991.10695-.07546.218-.14529.32937-.21423s.22485-.13462.33839-.2c.03807-.02193.07919-.05065.1189-.00042-.08888.14309-.1785.28573-.26621.42953-.02859.04686-.05217.09677-.078.14528l-.01119.02323-.06114.12763a.017.017,0,0,0-.00395.01235l-.05472.13107a.02117.02117,0,0,0-.00646.0187l-.02325.06223-.01981.05907Z"/><path class="a644587b-ec8f-4264-a175-1d25cb6e73d5" d="M10.05548,9.85305c.04035-.02432.08127-.04774.121-.0731.167-.10675.32921-.22229.50246-.31775a1.40007,1.40007,0,0,1,.29152-.08765l.00352.45536-.16064.05239.16653.24218q-.00234.326-.00475.652c-.00041.05175-.00167.10349-.00253.15523a2.98607,2.98607,0,0,1-.60442-.60644C10.25436,10.17512,10.15905,10.011,10.05548,9.85305Z"/><path class="fc8e5715-506b-4ed6-b56f-9ce8e372fc0c" d="M12.57723,5.97285l.00154.23644c-.00163.03791-.00457.07579-.00468.11369q-.0012.42-.00146.84c-.06762-.03187-.134-.06673-.20311-.095-.1607-.06575-.3227-.12832-.48417-.19218L11.88318,5.866a2.17686,2.17686,0,0,1,.60358.00749c.03054.00362.0609.00883.09134.0133Z"/><path class="a7a82b56-2220-4426-a6c4-53ef17786762" d="M10.97366,6.689l-.005-.53989a1.94252,1.94252,0,0,1,.70318-.24727l.00152.91233a.26158.26158,0,0,1-.04113-.00128Q11.30289,6.75138,10.97366,6.689Z"/><path class="b3f55f19-6c75-4064-a89f-719ceef966ef" d="M7.28917,10.76778c.07153-.01607.06445-.08336.08059-.1317.02386-.07149.03072-.1488.05606-.21961.0638-.17831.12524-.35829.2034-.53045a4.41025,4.41025,0,0,1,.47137-.80224c.03122-.04218.05847-.08752.12085-.08338l.00627.02231a.01079.01079,0,0,0,.00455.01627L8.2496,9.181a1.89665,1.89665,0,0,0-.12721.17509,6.77332,6.77332,0,0,0-.36282.67369,4.20859,4.20859,0,0,0-.20233.57488c-.03023.11268-.05252.22749-.08232.3403-.00969.03667-.00672.08733-.06365.09439Z"/><path class="bbc783ac-802b-40f3-8772-1781c3c69b07" d="M12.57723,5.97285l.00087-.086a3.97062,3.97062,0,0,1,.90212.26609l.08153.75078c-.07151-.08248-.13508-.15754-.20051-.23095a4.82977,4.82977,0,0,0-.68665-.64237A.95538.95538,0,0,0,12.57723,5.97285Z"/><path class="a4f35ef1-35e1-4ddf-b478-6202500f6b81" d="M7.41127,11.03939c.05693-.00706.054-.05772.06365-.09439.0298-.11281.05209-.22762.08232-.3403a4.20859,4.20859,0,0,1,.20233-.57488,6.77332,6.77332,0,0,1,.36282-.67369A1.89665,1.89665,0,0,1,8.2496,9.181l.056.23514A.10068.10068,0,0,0,8.206,9.476a4.191,4.191,0,0,0-.36938.724c-.066.1765-.12776.35548-.17608.53742a1.62023,1.62023,0,0,0-.07911.48516.077.077,0,0,1-.04275.08571Z"/><path class="e9a0b35b-b7dc-4a95-94e3-6e2dbcd0909b" d="M11.6734,6.81416l-.00152-.91233.2113-.03579.00218,1.00972Z"/><path class="e6f34ac2-7ce8-493f-9be7-d01abd99c53c" d="M8.34926,7.20963l.01981-.05907Z"/><path class="baf7e6b9-a027-4436-a3c5-2df21f72e29c" d="M8.30869,7.3366l.01651-.04037Z"/><path class="e6f34ac2-7ce8-493f-9be7-d01abd99c53c" d="M8.32333,9.47779l-.01246-.0242Z"/><path class="baf7e6b9-a027-4436-a3c5-2df21f72e29c" d="M8.39232,7.08833a.02117.02117,0,0,1,.00646-.0187Z"/><path class="e6f34ac2-7ce8-493f-9be7-d01abd99c53c" d="M8.4535,6.93856a.017.017,0,0,1,.00395-.01235l.00224.00729Z"/><path class="a5763529-9104-49bd-9eda-9271f1986a34" d="M8.51859,6.79858l.01119-.02323Z"/><path class="a5763529-9104-49bd-9eda-9271f1986a34" d="M8.23226,9.039a.01079.01079,0,0,1-.00455-.01627l.00788.01045Z"/><path class="b4b48ee7-b0e6-43f3-8a8d-2f8e1beaed08" d="M18.64038,16.5059c-.06864-.00609-.13727-.01728-.20593-.01749q-.85383-.00252-1.70769-.0013a.5147.5147,0,0,0-.06135.00718c-.20008.008-.4002.01505-.60022.02423-.19663.009-.39379.01359-.58961.0319q-.51462.04812-1.02778.11152a7.116,7.116,0,0,0-.9611.1966,5.56878,5.56878,0,0,0-.83359.27358L12.6,17.152l-.00747.00428-.009.00272v.00873l-.005.45966-.00778.0475q-.72729.00043-1.45459.0011c-.04143.00006-.08287.003-.1243.00456l-.00415-.448a.448.448,0,0,0,.052-.03314c.26412-.22289.53549-.43789.7902-.67109a11.42131,11.42131,0,0,0,2.24556-2.73985.13248.13248,0,0,1,.11484-.07136c.11985-.013.2402-.02655.35818-.05055a6.813,6.813,0,0,0,1.394-.45233l.08052-.013.36066-.02762.16478.4195.28877.54654.23581.33532a.8067.8067,0,0,0,.05214.08759c.22169.28564.44285.57173.66756.855.09819.12377.20423.24132.30671.3617l.24835.29336.12414.14216.21448.24728C18.71261,16.52013,18.66041,16.49618,18.64038,16.5059Z"/><path class="a4160e0a-3833-4834-bc90-d708ddcac3a0" d="M18.68635,16.462l-.21448-.24728c.042.00033.058-.03084.076-.06115.08113-.13642.16859-.2694.24344-.40915.13043-.2435.266-.48547.3764-.73816a7.72275,7.72275,0,0,0,.44486-1.32216c.03705-.15747.0804-.31418.105-.47369.03669-.23756.0582-.47742.08824-.71605a4.82,4.82,0,0,0,.04059-.64941c-.00067-.06927.00021-.13856-.0002-.20784-.00039-.06578.002-.13184-.00314-.19727-.01052-.13355-.0262-.2667-.038-.40016-.00882-.09942-.008-.20019-.02365-.2984-.039-.24425-.07546-.48957-.13081-.73036-.05859-.25489-.133-.50651-.20929-.75689a5.85725,5.85725,0,0,0-.36337-.91225c-.139-.27807-.282-.5553-.44315-.82078a7.83561,7.83561,0,0,0-.48341-.696c-.15912-.20755-.33082-.40664-.50979-.59745a6.00107,6.00107,0,0,0-.66283-.626c-.10564-.08292-.20288-.17678-.31042-.257-.14352-.107-.29068-.20969-.44116-.30667-.1796-.11575-.36143-.22873-.54773-.3332-.17756-.09957-.36075-.18948-.544-.27839a2.20755,2.20755,0,0,0-.55042-.20655l-.12629-.37356a.76953.76953,0,0,1,.12.0275c.23062.09229.46414.17872.68908.28346.25335.118.5047.24283.746.38344a7.86723,7.86723,0,0,1,.95524.65417,8.05942,8.05942,0,0,1,.90786.83186,8.82674,8.82674,0,0,1,.63513.7617,8.60211,8.60211,0,0,1,.5824.904c.14206.25655.25975.527.3805.79482.07936.176.14817.357.21554.53806.04316.116.07889.23511.11118.35465.05465.20236.10859.40514.154.60971.0334.15062.05329.30426.078.45676.01591.09835.03107.19688.04388.29567.01456.11234.03276.22478.03765.33768.01121.25869.01561.51768.022.77657.00155.0623.00365.1249-.00042.187-.01146.175-.0316.34961-.03755.52474a2.79539,2.79539,0,0,1-.04409.41013c-.03647.19929-.06359.40054-.10691.59828-.0486.22184-.10114.44375-.1696.66005-.07785.246-.17406.48625-.26437.72823a6.65364,6.65364,0,0,1-.38318.80374c-.112.20949-.24229.40928-.36688.61188A.53.53,0,0,1,18.68635,16.462Z"/><path class="bba8e7b3-1410-4549-ac6e-2f5caebada2f" d="M11.14742,19.25506c-.07349-.01569-.14627-.03779-.22059-.046a7.76689,7.76689,0,0,1-1.14314-.21764,8.48772,8.48772,0,0,1-1.09991-.39224,5.688,5.688,0,0,1-.83-.44367c-.18071-.114-.35906-.23248-.532-.35789a4.42766,4.42766,0,0,1-.596-.49424c-.05654-.05845-.12241-.10788-.19753-.17321a.356.356,0,0,1,.07285-.02156c.12115-.00138.24233,0,.36348-.00122a.11936.11936,0,0,1,.08917.0384c.11157.10217.22505.20307.34507.295.15311.11725.31156.22779.471.33641.08533.05814.17659.10789.26686.15841.14762.08261.29367.16882.44564.24267a7.314,7.314,0,0,0,.97862.3922q.37953.12092.76636.2096c.14368.03273.29074.051.43667.07324.0678.01032.13654.01443.20485.02135l.00153.24732.04.0084.40907-.23871c.035.00827.06969.01814.105.02438.03992.007.08065.01048.08982.06145l-.24614.14755-.02517.015-.006.00342-.00988.00616-.06379.03752-.02428.01523-.006.00346-.01.00634Z"/><path class="bba8e7b3-1410-4549-ac6e-2f5caebada2f" d="M12.61383,18.89545a4.01168,4.01168,0,0,1,.50319-.1023c.11978-.03.24393-.04292.36331-.07422.17977-.04714.3601-.09533.5347-.1583.233-.084.46208-.17934.69015-.27615.14617-.062.28971-.13122.43047-.20479a4.86848,4.86848,0,0,0,.67728-.41795c.17872-.13448.36012-.26541.53891-.3998a.42867.42867,0,0,0,.09566-.09458.13589.13589,0,0,1,.13154-.06059c.10372.00365.20766.00045.3115.00142.02583.00024.0516.00548.10375.01142-.093.093-.16637.17387-.2477.24584-.10813.0957-.21958.18819-.33477.27523-.15371.11614-.30953.23-.46973.33691-.16609.11085-.33532.21786-.509.31621-.18333.1038-.36932.205-.56185.28992-.24271.107-.48961.20724-.74134.29027-.26431.08718-.53465.15832-.80582.22166-.1867.04361-.3793.06187-.56923.09175a.69.69,0,0,1-.11144.01745c-.01739-.00019-.03454-.0231-.0518-.03571a.65865.65865,0,0,0,.01718-.08832C12.61257,19.01916,12.61238,18.95725,12.61383,18.89545Z"/><path class="a7a82b56-2220-4426-a6c4-53ef17786762" d="M9.98452,18.43837l.0087-.1169h3.6077l.01041.1166-.00922.19889H9.99448Z"/><path class="fc8e5715-506b-4ed6-b56f-9ce8e372fc0c" d="M12.61383,18.89545c-.00145.0618-.00126.12371-.00507.18537a.65865.65865,0,0,1-.01718.08832c-.295.17354-.59054.34628-.88492.52091-.20489.12154-.40824.24569-.61228.36867L10.97,20.101v-.729l.1774-.117.07557-.0429.00705.00067.00293-.007.006-.00346.02428-.01524.06377-.03747.00695.00072.003-.00692.006-.00342.02517-.015.24614-.14755c.08378-.0472.16862-.09266.25093-.14231a.26329.26329,0,0,1,.14591-.041c.169.00261.33813.00071.5072.00118.027.00007.05392.00331.08448.00532Z"/><path class="a7a82b56-2220-4426-a6c4-53ef17786762" d="M11.41939,18.89166l-.40907.2387-.04-.00839-.00153-.24732.01183-.07433h.56011Z"/><path class="a7a82b56-2220-4426-a6c4-53ef17786762" d="M9.99536,18.18176V17.865h3.60871c.001.05044.00236.1007.00284.151.00049.05162.00011.10324.00011.15307C13.526,18.19426,10.26305,18.20508,9.99536,18.18176Z"/><path class="abd7e4a3-8655-4612-abda-cebf031e98ff" d="M15.94248,13.21417a6.81331,6.81331,0,0,1-1.394.45235c-.118.024-.23833.03755-.35818.05055a.13248.13248,0,0,0-.11484.07136,11.42131,11.42131,0,0,1-2.24556,2.73985c-.25471.2332-.52608.4482-.7902.67109a.448.448,0,0,1-.052.03314l-.01779-.07919q.00294-.30585.00576-.61172c.00066-.083.00275-.16616-.00085-.249a.10541.10541,0,0,1,.06188-.10634,7.35675,7.35675,0,0,0,1.6918-1.40612,6.63474,6.63474,0,0,0,.8405-1.15387l.31673-.62945c.07445-.18924.15819-.37546.22089-.56851.07122-.21931.12364-.44472.18423-.66747a.57616.57616,0,0,1,.06167.00723.5037.5037,0,0,0,.41027-.09385c.03361-.02321.065-.04956.09749-.07447a1.76934,1.76934,0,0,1-.08114.466c-.0362.15675-.08483.31063-.13462.48945l.06935-.08641a3.39785,3.39785,0,0,1,.95348-.83309c.11613-.06692.239-.12211.35882-.18266l.01591-.02166-.00107.00115c.05608-.01346.11313-.02377.16806-.04089a4.51937,4.51937,0,0,1,.9128-.17283l.27172-.01722h.29508c-.0433.08752-.07544.1592-.11329.22773-.11518.20855-.23255.41589-.34907.62369-.08373.11328-.16609.2276-.25145.33963a2.43312,2.43312,0,0,1-.58032.58489c-.126.08281-.26525.14562-.39851.21745Z"/><path class="f0a100e2-245e-44f1-8d99-ba68761ae62e" d="M10.99185,17.68054c.04143-.00159.08287-.0045.1243-.00456q.72731-.00093,1.45459-.0011a.43429.43429,0,0,1-.07916.01467q-.71441.00135-1.42882.00025A.53928.53928,0,0,1,10.99185,17.68054Z"/><path class="a4f1e7f9-0a88-46e4-adb4-89ae438347c1" d="M6.2935,16.48858c.20626.00065.41253.0009.61878.00253a.41694.41694,0,0,1,.07035.01246l-.56533.00252Z"/><path class="f0a100e2-245e-44f1-8d99-ba68761ae62e" d="M8.26828,16.57217l.2268.01621Z"/><path class="f0a100e2-245e-44f1-8d99-ba68761ae62e" d="M8.01876,16.55131l.20481.01671Z"/><path class="f0a100e2-245e-44f1-8d99-ba68761ae62e" d="M8.55935,16.5932l.14143.01668Z"/><path class="f0a100e2-245e-44f1-8d99-ba68761ae62e" d="M9.8895,16.82018l.09548.01955Z"/><path class="f0a100e2-245e-44f1-8d99-ba68761ae62e" d="M8.74668,16.61505l.10378.01424Z"/><path class="f0a100e2-245e-44f1-8d99-ba68761ae62e" d="M8.89207,16.63519l.10352.015Z"/><path class="f0a100e2-245e-44f1-8d99-ba68761ae62e" d="M9.058,16.65424l.10009.018Z"/><path class="f0a100e2-245e-44f1-8d99-ba68761ae62e" d="M9.18293,16.67588l.09783.01776Z"/><path class="f0a100e2-245e-44f1-8d99-ba68761ae62e" d="M9.308,16.69838l.09966.01541Z"/><path class="f0a100e2-245e-44f1-8d99-ba68761ae62e" d="M9.6195,16.75911l.09806.01759Z"/><path class="f0a100e2-245e-44f1-8d99-ba68761ae62e" d="M9.74529,16.78388l.055.01372Z"/><path class="f0a100e2-245e-44f1-8d99-ba68761ae62e" d="M9.53649,16.73963l.06132.01475Z"/><path class="f0a100e2-245e-44f1-8d99-ba68761ae62e" d="M10.13914,16.884l.06082.01608Z"/><path class="f0a100e2-245e-44f1-8d99-ba68761ae62e" d="M10.55481,17.00823l.05665.01794Z"/><path class="f0a100e2-245e-44f1-8d99-ba68761ae62e" d="M9.43231,16.71805l.04256.01489Z"/><path class="f0a100e2-245e-44f1-8d99-ba68761ae62e" d="M9.8274,16.80215l.04423.01322Z"/><path class="f0a100e2-245e-44f1-8d99-ba68761ae62e" d="M10.07681,16.86422l.04207.01438Z"/><path class="f0a100e2-245e-44f1-8d99-ba68761ae62e" d="M10.3055,16.927l.0381.01537Z"/><path class="f0a100e2-245e-44f1-8d99-ba68761ae62e" d="M10.36789,16.94769l.042.01407Z"/><path class="f0a100e2-245e-44f1-8d99-ba68761ae62e" d="M10.742,17.07188l.04071.0151Z"/><path class="f0a100e2-245e-44f1-8d99-ba68761ae62e" d="M10.90841,17.135l.03613.01581Z"/><path class="f0a100e2-245e-44f1-8d99-ba68761ae62e" d="M12.6,17.152l.05311-.01987Z"/><path class="f0a100e2-245e-44f1-8d99-ba68761ae62e" d="M12.58352,17.16772V17.159l.009-.00272Z"/><path class="f17703c3-c1f6-4b98-8d1a-232c780b8f2e" d="M7.27112,13.17652h-.114a4.71266,4.71266,0,0,1-.9285,1.64139c-.08032-.06932-.08027-.09024-.00111-.15981.03586-.03151.07079-.06408.09643-.08735-.121-.29892-.25141-.58135-.34925-.87465a4.61724,4.61724,0,0,1-.20737-.79741c-.02855-.19706-.06668-.39256-.07861-.59186q-.00862-.14412-.02016-.28808a1.53987,1.53987,0,0,1-.01888-.19459c.00915-.19229.03161-.384.03745-.57634a5.44888,5.44888,0,0,1,.08753-.66368c.0146-.09492.04278-.18783.06638-.28125a.06384.06384,0,0,1,.0752-.05507c.02764.12043.05417.24112.08328.36119.02676.11039.05154.22161.08558.32983a5.071,5.071,0,0,0,.28107.74421c.126.25343.25031.50835.39033.75408A5.3866,5.3866,0,0,0,7.27112,13.17652Z"/><path class="f17703c3-c1f6-4b98-8d1a-232c780b8f2e" d="M5.83625,9.62383l.03876.33263c-.03046-.00466-.06122-.00779-.09125-.01433a.05227.05227,0,0,0-.07188.05109,1.349,1.349,0,0,1-.07356.30883,1.65433,1.65433,0,0,0-.05234.3224c-.00294.02044-.0006.04175-.00454.06191-.02372.1212-.04855.24219-.073.36324-.00136.00677-.0058.01458-.0038.02011.03449.09554-.00955.19-.00343.28563a1.00318,1.00318,0,0,1-.02811.27595.83171.83171,0,0,0,.0079.29618.42759.42759,0,0,1,.007.22313.03633.03633,0,0,0-.00422.02c.04194.13173.0079.27169.04386.40341a.33035.33035,0,0,0,.05394.08148.41712.41712,0,0,0,.00012.27679c.02069.09369.02508.19113.04779.2842.02762.11315.065.22408.10194.33471.02115.06335.02452.06223-.002.15468a1.3677,1.3677,0,0,1-.04976-.13349c-.04606-.18344-.09617-.36622-.13242-.55166-.04212-.21547-.07574-.43287-.10441-.65058-.01658-.12595-.01783-.25407-.02275-.38134-.00321-.083.00012-.16614-.00075-.24922a3.41873,3.41873,0,0,1,.03937-.63873c.03487-.19584.04865-.39562.08743-.59054a4.31429,4.31429,0,0,1,.2307-.82424C5.78712,9.6614,5.816,9.64441,5.83625,9.62383Z"/><path class="f17703c3-c1f6-4b98-8d1a-232c780b8f2e" d="M6.043,14.451l.12094.1129-.03276.09433A.28588.28588,0,0,1,6.043,14.451Z"/><path class="f17703c3-c1f6-4b98-8d1a-232c780b8f2e" d="M5.93129,14.2027c.09094.03873.05839.12444.09133.19647A.22892.22892,0,0,1,5.93129,14.2027Z"/><path class="f17703c3-c1f6-4b98-8d1a-232c780b8f2e" d="M5.78961,13.83952a.28656.28656,0,0,1,.07991.21492A.28158.28158,0,0,1,5.78961,13.83952Z"/><path class="f0a100e2-245e-44f1-8d99-ba68761ae62e" d="M9.30741,13.45007a.07855.07855,0,0,1,.0001.01651L9.2253,13.4493Z"/><path class="e40e97c2-dc01-4c6c-97a4-458d73f15819" d="M10.97982,10.12448l-.16653-.24218.16064-.05239a.14466.14466,0,0,0,.03062.00247q.33469-.044.66929-.08875l.21156-.00344a.669.669,0,0,0,.07148.00875,2.56813,2.56813,0,0,1,.6.09027,4.1803,4.1803,0,0,1,.42085.17073,4.2401,4.2401,0,0,1,1.05607.84535.45493.45493,0,0,1,.04432.06431c.31-.209.58572-.18559.75155.0585a.458.458,0,0,1-.113.64326.45124.45124,0,0,1-.36417.08039.48252.48252,0,0,1-.34468-.26606c-.17841-.0061-.351-.00857-.52318-.01888q-.24267-.01452-.48444-.043c-.14354-.01678-.286-.0424-.429-.06411a2.53478,2.53478,0,0,1-.67942-.25088l-.217-.166A6.12785,6.12785,0,0,1,10.97982,10.12448Z"/><path class="ab5269e6-51c4-4011-b8d4-9deed3c1232b" d="M12.57114,11.30971c.143.02171.28547.04733.429.06411q.24146.02825.48444.043c.17215.01031.34477.01278.52318.01888a.48252.48252,0,0,0,.34468.26606.45124.45124,0,0,0,.36417-.08039.458.458,0,0,0,.113-.64326c-.16583-.24409-.44154-.26745-.75155-.0585a.45493.45493,0,0,0-.04432-.06431,4.2401,4.2401,0,0,0-1.05607-.84535,4.17952,4.17952,0,0,0-.42086-.17073.73622.73622,0,0,0,.01663-.1088c.00169-.26612.0013-.53226.00156-.79839a.14737.14737,0,0,1,.03014.00747c.386.18691.78072.35316,1.182.50412a.156.156,0,0,1,.07688.07605.65306.65306,0,0,0,.14972.1816.46534.46534,0,0,0,.7432-.35695.50752.50752,0,0,0-.14725-.375c.03706-.02048.05706-.04345.0111-.076l-.04211-.16142a.12363.12363,0,0,1,.11416.03113c.11007.12239.23.237.33.367.12507.1626.2351.33686.34934.5076.02632.03934.05079.074.104.06964l-.02158.08284L15.37943,9.8c.00882.05011-.03479.10461.03469.1359l-.037.10386c-.02766.005-.05354.01079-.0182.04267a2.13234,2.13234,0,0,1-.43.7264.22886.22886,0,0,1-.006-.041,5.33375,5.33375,0,0,0-.06853-.92954c-.0146-.101-.03814-.20074-.06247-.32624a.57468.57468,0,0,1-.44008.3368l.0604.8654c.03173.00312.06557.00548.09915.00991a.50407.50407,0,0,1,.35184.19767c.01659.02192.03594.04174.054.06253a1.7849,1.7849,0,0,1,.05924.22512.53008.53008,0,0,1-.10335.36527l-.015.0258.00211-.00084c-.03244.02491-.06388.05126-.09749.07447a.5037.5037,0,0,1-.41027.09385.56626.56626,0,0,0-.06165-.00719.60329.60329,0,0,1-.3163-.26473l-.03432.01035a2.3866,2.3866,0,0,1-.86993.14707c-.1646-.00472-.32877-.02434-.49314-.03724Z"/><path class="eee7799c-0a0f-4630-88cd-3034e1961c90" d="M12.57718,11.6163c.16437.0129.32854.03252.49314.03724a2.3866,2.3866,0,0,0,.86993-.14707l.03432-.01035a.60329.60329,0,0,0,.3163.26473c-.06061.22271-.113.44812-.18425.66743-.0627.193-.14644.37927-.22093.5685a4.47761,4.47761,0,0,1-1.30488.0797c-.0023-.02388-.00658-.04776-.0066-.07164q-.0006-.66846-.00015-1.33692C12.57407,11.65071,12.57609,11.63351,12.57718,11.6163Z"/><path class="a644587b-ec8f-4264-a175-1d25cb6e73d5" d="M11.67476,10.89282l.217.166c-.0014.04494-.00407.0899-.00408.13485q-.00028,1.67326,0,3.34653v.12671h-.20914c-.00256-.03137-.00664-.05807-.00664-.08476q-.00015-1.82916.00048-3.65832C11.67229,10.9135,11.6739,10.90316,11.67476,10.89282Z"/><path class="a644587b-ec8f-4264-a175-1d25cb6e73d5" d="M12.58081,13.07648a4.47761,4.47761,0,0,0,1.30488-.0797l-.31669.62946c-.32821.0849-.65644.16987-.98909.256a.47742.47742,0,0,1-.00578-.05176q-.0005-.35147.00014-.70294A.39751.39751,0,0,1,12.58081,13.07648Z"/><path class="a644587b-ec8f-4264-a175-1d25cb6e73d5" d="M9.50033,13.50948l.07454.01493Z"/><path class="a644587b-ec8f-4264-a175-1d25cb6e73d5" d="M9.31574,13.46869l.07275.01611Z"/><path class="a644587b-ec8f-4264-a175-1d25cb6e73d5" d="M9.41589,13.489l.05471.01351Z"/><path class="a644587b-ec8f-4264-a175-1d25cb6e73d5" d="M9.96072,13.61278l.04825.01036Z"/><path class="a644587b-ec8f-4264-a175-1d25cb6e73d5" d="M9.88978,13.59424l.03879.01313Z"/><path class="a644587b-ec8f-4264-a175-1d25cb6e73d5" d="M9.81955,13.57624l.04716.01234Z"/><path class="a644587b-ec8f-4264-a175-1d25cb6e73d5" d="M9.61844,13.53227l.0397.01226Z"/><path class="a644587b-ec8f-4264-a175-1d25cb6e73d5" d="M9.72313,13.55285l.01431.0034-.00792.00218Z"/><path class="eee7799c-0a0f-4630-88cd-3034e1961c90" d="M15.3771,10.03973l.037-.10386.04062-.14576.02158-.08284a2.58279,2.58279,0,0,0-.00951-1.23858,3.01113,3.01113,0,0,0-.36333-.875,2.95877,2.95877,0,0,0-.641-.76648c.05235-.13474.1055-.26919.15676-.40435.03054-.08053.057-.16261.08779-.243a.286.286,0,0,1,.0382-.05614,4.17647,4.17647,0,0,1,.68912.682c.14732.18536.28023.38217.41957.57387l.28566.56119.00681.01848.03313.08462.009.018.05737.15224-.00156.00781.00688.00475.01827.05241-.00292.0065.00514.00542.00429.02329.01228.02427a.03272.03272,0,0,0,.00349.01876l.01884.06247.0093.04015.00961.02447c.03268.16917.0759.33715.0954.50783a5.91771,5.91771,0,0,1,.04194.66168,4.52045,4.52045,0,0,1-.04714.51578,3.61731,3.61731,0,0,1-.22249.89134c-.04825.1253-.10389.24775-.15618.37149l.00107-.00114-.01591.02166c-.1198.06055-.24269.11574-.35882.18266a3.39785,3.39785,0,0,0-.95348.83309l-.06935.08641c.04979-.17882.09842-.3327.13462-.48945a1.76934,1.76934,0,0,0,.08114-.466l-.00211.00084.015-.0258a.53008.53008,0,0,0,.10335-.36527,1.78622,1.78622,0,0,0-.05925-.22517l.0117-.17552a2.13234,2.13234,0,0,0,.43-.7264Z"/><path class="bba8e7b3-1410-4549-ac6e-2f5caebada2f" d="M15.85394,7.37956c-.13934-.1917-.27225-.38851-.41957-.57387a4.17647,4.17647,0,0,0-.68912-.682.38115.38115,0,0,1-.00132-.07884c.02768-.14824.06827-.295.08338-.44434a1.466,1.466,0,0,0-.01966-.3282c-.01994-.15633-.04851-.31156-.0734-.46726a.58608.58608,0,0,1,.05441.02954,6.89279,6.89279,0,0,1,1.66517,1.59158A7.83321,7.83321,0,0,1,17.50727,8.3924a6.57771,6.57771,0,0,1,.39823,1.80337,6.15533,6.15533,0,0,1-.01851,1.15074c-.00656.05759-.02068.11432-.0313.17144a.29315.29315,0,0,1-.06713-.20968c-.00839-.10623-.00616-.21412-.0242-.31858-.03971-.22987-.08284-.45956-.13641-.68652a5.36761,5.36761,0,0,0-.29-.87126c-.05677-.13321-.11255-.26728-.17839-.39605-.06265-.12251-.14048-.23716-.207-.35781a4.94514,4.94514,0,0,0-.76713-1.02134c-.03313-.03473-.05934-.0762-.09331-.11C16.02255,7.47763,15.96638,7.388,15.85394,7.37956Z"/><path class="a254ac67-162d-4d27-b38c-84634a996252" d="M17.85569,11.518c.01062-.05712.02474-.11385.0313-.17144a6.15533,6.15533,0,0,0,.01851-1.15074,6.57771,6.57771,0,0,0-.39823-1.80337,7.83321,7.83321,0,0,0-1.05344-1.96626,6.89279,6.89279,0,0,0-1.66517-1.59158.58608.58608,0,0,0-.05441-.02954l-.13049-.53328.13238.07233.01614.01135a.01038.01038,0,0,0,.0131.00709l.02816.01825.0434.02641.02.014.00248.00524.00579.00022.00209.00678.00658-.0008.1527.09863.01752.0131a.00728.00728,0,0,0,.00946.00714l.00144.00631.00582-.00116.17341.12011.018.01451a.00716.00716,0,0,0,.01013.0056l.00117.00563.00529-.00065.26962.20555c.0171.01666.03311.03464.05147.04979a6.98766,6.98766,0,0,1,.91815.89728c.15511.18513.30039.37849.4501.56815l.0279.04309.01276.01468.24434.38317-.00133.0061.00649.00209.05694.09557-.00115.00646.00668.00239a.19168.19168,0,0,0,.01063.029A7.96941,7.96941,0,0,1,18.23607,9.514a6.72933,6.72933,0,0,1,.10474,1.19672,6.20107,6.20107,0,0,1-.122,1.20529,6.4271,6.4271,0,0,1-.62183,1.751,4.527,4.527,0,0,1-.524.80795l-.2358-.33538c.08906-.13517.18373-.267.26622-.40611A5.77316,5.77316,0,0,0,17.744,12.137C17.79326,11.93357,17.81913,11.72447,17.85569,11.518Z"/><path class="a202fcac-b320-4a21-a6b9-896279218015" d="M14.73614,4.34407l-.13238-.07233-.01875-.052a2.20763,2.20763,0,0,1,.55041.20655c.18326.08891.36645.17882.544.27839.1863.10447.36813.21745.54773.3332.15048.097.29764.19966.44116.30667.10754.08019.20478.17405.31042.257a6.00107,6.00107,0,0,1,.66283.626c.179.19081.35067.3899.50979.59745a7.83561,7.83561,0,0,1,.48341.696c.16119.26548.30415.54271.44315.82078a5.85725,5.85725,0,0,1,.36337.91225c.07628.25038.1507.502.20929.75689.05535.24079.0918.48611.13081.73036.01568.09821.01483.199.02365.2984.01183.13346.02751.26661.038.40016.00515.06543.00275.13149.00314.19727.00041.06928-.00047.13857.0002.20784a4.82,4.82,0,0,1-.04059.64941c-.03.23863-.05155.47849-.08824.71605-.02463.15951-.068.31622-.105.47369a7.72275,7.72275,0,0,1-.44486,1.32216c-.11035.25269-.246.49466-.3764.73816-.07485.13975-.16231.27273-.24344.40915-.018.03031-.03394.06148-.076.06115l-.12414-.14216a.31049.31049,0,0,1,.0197-.05843c.07341-.12819.15327-.25239.22677-.3808a6.853,6.853,0,0,0,.45937-.95817c.03685-.09641.07166-.19362.10667-.29074.0419-.11626.0896-.231.123-.34966.054-.19212.10552-.38551.14486-.581a5.16278,5.16278,0,0,0,.10912-.62925c.01054-.14.04551-.27815.05727-.41816.01442-.17165.0207-.34436.02167-.51666.00075-.13414-.0121-.26835-.01875-.40253-.00716-.14455-.01132-.28933-.022-.43362-.01091-.14735-.01966-.29568-.04458-.441-.03829-.22319-.08321-.44571-.13712-.66562-.05567-.22716-.11816-.45326-.1911-.67541-.072-.21938-.15166-.43733-.24487-.64844-.10157-.23006-.21833-.45379-.3366-.67595a5.16834,5.16834,0,0,0-.26594-.44374c-.11471-.17154-.23713-.33823-.36217-.50248a5.37391,5.37391,0,0,0-.37685-.46526c-.2148-.22486-.44607-.4339-.66773-.6523a4.79063,4.79063,0,0,0-.69636-.551c-.20849-.14044-.42323-.27166-.6364-.405a.26542.26542,0,0,0-.07722-.01991l-.26959-.20552-.0065-.005a.00714.00714,0,0,1-.01011-.0056l-.018-.01451-.17338-.12007-.00729-.00519a.00726.00726,0,0,1-.00944-.00713l-.01754-.01311-.15267-.09859-.0087-.006-.00579-.00022-.00246-.00523-.02-.014-.0434-.0264-.02816-.01826a.01034.01034,0,0,1-.01307-.00708A.02554.02554,0,0,0,14.73614,4.34407Z"/><path class="e87d3028-f972-4875-a4c6-ec5fae3f1cdc" d="M14.4625,6.82719a2.95877,2.95877,0,0,1,.641.76648,3.01113,3.01113,0,0,1,.36333.875,2.58279,2.58279,0,0,1,.00951,1.23858c-.05325.00434-.07772-.0303-.104-.06964-.11424-.17074-.22427-.345-.34934-.5076-.1-.13-.22-.24465-.33-.367a.12363.12363,0,0,0-.11416-.03113c-.06346-.15247-.12091-.30776-.19169-.45672-.105-.221-.21943-.43742-.33689-.66974.01587-.028.04047-.0686.06231-.1106.10332-.19873.20575-.39793.30888-.59677C14.4339,6.87381,14.44873,6.85078,14.4625,6.82719Z"/><path class="e87d3028-f972-4875-a4c6-ec5fae3f1cdc" d="M14.62084,8.89328c.046.0326.026.05557-.011.076-.0148-.00873-.03036-.01644-.04443-.02628a.48008.48008,0,0,0-.43456-.06389l-.066.01959a.31322.31322,0,0,1-.02069-.03c-.01892-.03688-.03779-.07381-.05554-.11125a4.06479,4.06479,0,0,0-.69709-1.023,3.11354,3.11354,0,0,0-.71883-.5715q.00063-.42.00146-.83995c.00011-.0379.003-.07578.00468-.11369a5.04377,5.04377,0,0,1,.51178.64975,7.89922,7.89922,0,0,1,.80624,1.45671c.06863.16171.12861.3271.197.50229A.5611.5611,0,0,1,14.62084,8.89328Z"/><path class="e40e97c2-dc01-4c6c-97a4-458d73f15819" d="M12.57263,7.16293a3.11354,3.11354,0,0,1,.71883.5715,4.06479,4.06479,0,0,1,.69709,1.023c.01775.03744.03662.07437.05554.11125a.31322.31322,0,0,0,.02069.03l.066-.01959a.48008.48008,0,0,1,.43456.06389c.01407.00984.02963.01755.04443.02628a.50782.50782,0,0,1,.14719.375.46534.46534,0,0,1-.7432.35695.65306.65306,0,0,1-.14972-.1816.156.156,0,0,0-.07688-.07605c-.40128-.151-.796-.31721-1.182-.50412a.14489.14489,0,0,0-.03012-.00743,5.671,5.671,0,0,1-.68172-.40881L11.67721,8.308c-.06306-.08568-.12794-.1701-.18884-.25728a4.772,4.772,0,0,1-.50609-.97509l-.12263-.38056.114-.00611q.32928.06208.65861.12389a.26158.26158,0,0,0,.04113.00128l.212.0616c.16146.06385.32346.12642.48416.19217C12.43862,7.0962,12.505,7.13106,12.57263,7.16293Z"/><path class="a7a82b56-2220-4426-a6c4-53ef17786762" d="M10.98228,7.07566a4.772,4.772,0,0,0,.50609.97509c.0609.08718.12578.1716.18885.25732a.34867.34867,0,0,0-.00469.04094q.00039.69731.00131,1.39462-.33462.04452-.66929.08875a.14466.14466,0,0,1-.03062-.00247l-.00352-.45536c.00152-.03786.00435-.07573.00436-.11359q.00042-1.0308.00055-2.0616C10.97534,7.15812,10.97986,7.11689,10.98228,7.07566Z"/><path class="bbc783ac-802b-40f3-8772-1781c3c69b07" d="M17.30524,6.96731l-.05693-.09555-.00517-.00821-.24433-.38316A.02632.02632,0,0,0,16.986,6.4657l-.0279-.04309a.12009.12009,0,0,1,.11545.05391c.18992.21419.38269.426.56829.64384a4.50906,4.50906,0,0,1,.28722.37786c.09312.13606.17757.27831.26111.42061.09963.16973.20176.33865.28952.51455a7.3232,7.3232,0,0,1,.46289,1.17306c.03451.1154.06759.23167.09243.34942.04754.22529.0858.45254.13332.67783a3.5174,3.5174,0,0,1,.07123.67615,8.55928,8.55928,0,0,1-.0374,1.34577c-.01958.13592-.03232.273-.05727.40792-.03126.169-.07313.336-.10816.50431a4.82433,4.82433,0,0,1-.23424.7821c-.07571.19271-.15751.38323-.24292.57186-.06691.14779-.13991.29313-.21682.436s-.16193.28111-.24341.42139c-.10248-.12038-.20852-.23793-.30671-.3617-.22471-.28326-.44587-.56935-.66756-.855a.8067.8067,0,0,1-.05214-.08759,4.52634,4.52634,0,0,0,.524-.8079,6.4271,6.4271,0,0,0,.62183-1.751,6.20107,6.20107,0,0,0,.122-1.20529A6.72933,6.72933,0,0,0,18.23607,9.514,7.96941,7.96941,0,0,0,17.3214,7.0052a.19112.19112,0,0,1-.01062-.029Z"/><path class="e9a0b35b-b7dc-4a95-94e3-6e2dbcd0909b" d="M17.85569,11.518c-.03656.20652-.06243.41562-.11172.619a5.77316,5.77316,0,0,1-.64061,1.59646c-.08249.13908-.17716.27094-.26622.40611l-.28875-.54653a.60829.60829,0,0,0,.05872-.07124c.07135-.11827.14319-.23637.21-.35721a4.38242,4.38242,0,0,0,.32262-.7622,1.01094,1.01094,0,0,0,.08657-.34943c.11652-.2078.23389-.41514.34907-.62369.03785-.06853.07-.14021.11329-.22773H17.3936c.00685-.18588.01514-.37172.02015-.55765a2.89486,2.89486,0,0,0-.05947-.698c-.00977-.04485-.01661-.09034-.02481-.13553-.02534.21548-.04171.42785-.06237.6398-.008.08181-.0236.16306-.03932.24388-.03408.17513-.07047.34981-.10591.52467a4.51937,4.51937,0,0,0-.9128.17283c-.05493.01712-.112.02743-.16806.04089.05229-.12375.10793-.2462.15618-.3715a3.61731,3.61731,0,0,0,.22249-.89134,4.52045,4.52045,0,0,0,.04714-.51578,5.91771,5.91771,0,0,0-.04194-.66168c-.0195-.17068-.06272-.33866-.09539-.50782l-.00962-.02448-.00929-.04014-.01885-.06248a.03271.03271,0,0,1-.00349-.01875L16.276,8.31423l-.00429-.02329a.01655.01655,0,0,0-.00222-.01192l-.01827-.05241a.01749.01749,0,0,0-.00532-.01256l-.05736-.15223-.009-.018-.03313-.08461-.00681-.01849-.28566-.56119c.11244.00846.16861.09807.23816.16719.034.03376.06018.07523.09331.11a4.94514,4.94514,0,0,1,.76713,1.02134c.06654.12065.14437.2353.207.35781.06584.12877.12162.26284.17839.39605a5.36761,5.36761,0,0,1,.29.87126c.05357.227.0967.45665.13641.68652.018.10446.01581.21235.0242.31858A.29315.29315,0,0,0,17.85569,11.518Z"/><path class="a4f1e7f9-0a88-46e4-adb4-89ae438347c1" d="M18.09938,15.77918c.08148-.14028.16656-.27862.24341-.42139s.14991-.2882.21682-.436c.08541-.18863.16721-.37915.24292-.57186a4.82433,4.82433,0,0,0,.23424-.7821c.035-.16832.0769-.33532.10816-.50431.025-.13489.03769-.272.05727-.40792a8.55928,8.55928,0,0,0,.0374-1.34577,3.5174,3.5174,0,0,0-.07123-.67615c-.04752-.22529-.08578-.45254-.13332-.67783-.02484-.11775-.05792-.234-.09243-.34942a7.3232,7.3232,0,0,0-.46289-1.17306c-.08776-.1759-.18989-.34482-.28952-.51455-.08354-.1423-.168-.28455-.26111-.42061a4.50906,4.50906,0,0,0-.28722-.37786c-.1856-.21788-.37837-.42965-.56829-.64384a.12009.12009,0,0,0-.11545-.05391c-.14971-.18966-.295-.383-.4501-.56815a6.98766,6.98766,0,0,0-.91815-.89728c-.01836-.01515-.03437-.03313-.05147-.04979a.26573.26573,0,0,1,.07723.01992c.21317.13337.42791.26459.6364.405a4.79063,4.79063,0,0,1,.69636.551c.22166.2184.45293.42744.66773.6523a5.37391,5.37391,0,0,1,.37685.46526c.125.16425.24746.33094.36217.50248a5.16834,5.16834,0,0,1,.26594.44374c.11827.22216.235.44589.3366.67595.09321.21111.17283.42906.24487.64844.07294.22215.13543.44825.1911.67541.05391.21991.09883.44243.13712.66562.02492.14529.03367.29362.04458.441.01069.14429.01485.28907.022.43362.00665.13418.0195.26839.01875.40253-.001.1723-.00725.345-.02167.51666-.01176.14-.04673.27813-.05727.41816a5.16278,5.16278,0,0,1-.10912.62925c-.03934.19552-.09086.38891-.14486.581-.03337.1187-.08107.2334-.123.34966-.035.09712-.06982.19433-.10667.29074a6.853,6.853,0,0,1-.45937.95817c-.0735.12841-.15336.25261-.22677.3808a.31049.31049,0,0,0-.0197.05843Z"/><path class="a5763529-9104-49bd-9eda-9271f1986a34" d="M17.22631,12.053a1.01094,1.01094,0,0,1-.08657.34943,4.38242,4.38242,0,0,1-.32262.7622c-.06682.12084-.13866.23894-.21.35721a.60829.60829,0,0,1-.05872.07124l-.16478-.4195-.36065.02761-.02693-.00622c.13326-.07183.27246-.13464.39851-.21745a2.43312,2.43312,0,0,0,.58032-.58489C17.06022,12.28056,17.14258,12.16624,17.22631,12.053Z"/><path class="f0a100e2-245e-44f1-8d99-ba68761ae62e" d="M15.996,13.19493l.02693.00622-.08053.013Z"/><path class="f0a100e2-245e-44f1-8d99-ba68761ae62e" d="M10.97032,19.122l.04.00839Z"/><path class="a644587b-ec8f-4264-a175-1d25cb6e73d5" d="M11.3681,19.125l-.02517.015Z"/><polygon class="a644587b-ec8f-4264-a175-1d25cb6e73d5" points="11.337 19.143 11.334 19.15 11.327 19.15 11.337 19.143"/><path class="a644587b-ec8f-4264-a175-1d25cb6e73d5" d="M11.26326,19.18708l-.02428.01524Z"/><polygon class="a644587b-ec8f-4264-a175-1d25cb6e73d5" points="11.233 19.206 11.23 19.213 11.223 19.212 11.233 19.206"/><path class="a5763529-9104-49bd-9eda-9271f1986a34" d="M17.12187,11.21876c.03544-.17486.07183-.34954.10591-.52467.01572-.08082.03135-.16207.03932-.24388.02066-.21195.037-.42432.06237-.6398.0082.04519.015.09068.02481.13553a2.89486,2.89486,0,0,1,.05947.698c-.005.18593-.0133.37177-.02015.55765Z"/><path class="e9a0b35b-b7dc-4a95-94e3-6e2dbcd0909b" d="M16.02617,11.453l.01591-.02166Z"/><path class="fc8e5715-506b-4ed6-b56f-9ce8e372fc0c" d="M11.89335,8.52325a5.671,5.671,0,0,0,.68172.40881c-.00028.26609.00011.53223-.00158.79835a.73622.73622,0,0,1-.01663.1088,2.568,2.568,0,0,0-.6-.09027.67315.67315,0,0,1-.07146-.00873q.001-.52615.00217-1.05232C11.88777,8.633,11.89135,8.57813,11.89335,8.52325Z"/><path class="ab5269e6-51c4-4011-b8d4-9deed3c1232b" d="M11.89335,8.52325c-.002.05488-.00558.10975-.00576.16464q-.00169.52616-.00217,1.05231l-.21158.00343q-.00076-.6973-.00131-1.39462a.34867.34867,0,0,1,.00469-.04094Z"/><path class="e40e97c2-dc01-4c6c-97a4-458d73f15819" d="M14.92894,10.8088l-.0117.17552c-.01807-.02074-.03742-.04056-.054-.06248a.50407.50407,0,0,0-.35184-.19767c-.03358-.00443-.06742-.00679-.09915-.00991l-.0604-.8654a.57468.57468,0,0,0,.44008-.3368c.02433.1255.04787.22522.06247.32624a5.33375,5.33375,0,0,1,.06853.92954A.22886.22886,0,0,0,14.92894,10.8088Z"/><path class="e87d3028-f972-4875-a4c6-ec5fae3f1cdc" d="M15.45474,9.79011l-.04062.14576c-.06948-.03129-.02587-.08579-.03469-.1359Z"/><path class="e87d3028-f972-4875-a4c6-ec5fae3f1cdc" d="M15.3771,10.03973l-.0182.04267C15.32356,10.05052,15.34944,10.04474,15.3771,10.03973Z"/><path class="abd7e4a3-8655-4612-abda-cebf031e98ff" d="M14.87314,11.57476l-.015.0258Z"/><path class="a5763529-9104-49bd-9eda-9271f1986a34" d="M16.29173,8.35726l.01885.06248Z"/><path class="a5763529-9104-49bd-9eda-9271f1986a34" d="M16.1396,7.94075l.00681.01849Z"/><path class="a5763529-9104-49bd-9eda-9271f1986a34" d="M16.31987,8.45988l.00962.02448Z"/><path class="a5763529-9104-49bd-9eda-9271f1986a34" d="M16.276,8.31423l.01228.02428Z"/><path class="baf7e6b9-a027-4436-a3c5-2df21f72e29c" d="M16.26945,8.279a.01655.01655,0,0,1,.00222.01192l-.00514-.00542Z"/><path class="baf7e6b9-a027-4436-a3c5-2df21f72e29c" d="M16.24586,8.21405a.01749.01749,0,0,1,.00532.01256l-.00688-.00475Z"/><path class="a5763529-9104-49bd-9eda-9271f1986a34" d="M16.17954,8.04385l.009.018Z"/><path class="e6f34ac2-7ce8-493f-9be7-d01abd99c53c" d="M14.76538,4.36251l.02816.01826Z"/><polygon class="e6f34ac2-7ce8-493f-9be7-d01abd99c53c" points="17.305 6.967 17.311 6.976 17.304 6.974 17.305 6.967"/><polygon class="e6f34ac2-7ce8-493f-9be7-d01abd99c53c" points="17.243 6.864 17.248 6.872 17.242 6.87 17.243 6.864"/><polygon class="e6f34ac2-7ce8-493f-9be7-d01abd99c53c" points="15.262 4.697 15.269 4.702 15.264 4.702 15.262 4.697"/><path class="e6f34ac2-7ce8-493f-9be7-d01abd99c53c" d="M15.23419,4.67675l.018.01451Z"/><polygon class="e6f34ac2-7ce8-493f-9be7-d01abd99c53c" points="15.054 4.551 15.061 4.557 15.055 4.558 15.054 4.551"/><path class="e6f34ac2-7ce8-493f-9be7-d01abd99c53c" d="M15.02654,4.53125l.01754.01311Z"/><polygon class="e6f34ac2-7ce8-493f-9be7-d01abd99c53c" points="14.865 4.427 14.874 4.433 14.867 4.433 14.865 4.427"/><path class="e6f34ac2-7ce8-493f-9be7-d01abd99c53c" d="M14.83694,4.40717l.02.014Z"/><path class="e6f34ac2-7ce8-493f-9be7-d01abd99c53c" d="M14.73614,4.34407a.02554.02554,0,0,1,.01617.01136Z"/><path class="a4f1e7f9-0a88-46e4-adb4-89ae438347c1" d="M16.986,6.4657a.02632.02632,0,0,1,.01277.01469Z"/></svg>