<svg id="b6aa6334-ab13-4dab-a902-675d670bb1d7" data-name="Layer 1" xmlns="http://www.w3.org/2000/svg" xmlns:xlink="http://www.w3.org/1999/xlink" viewBox="0 0 44.06714 44.27793"><defs><style>.ecc82e05-1cc3-4d69-83d9-1f2d0cda6a4f{fill:none;}.f1724e12-8152-4417-9c0d-e7746f7786fb{clip-path:url(#e8d9537d-4d96-4572-923b-55189644b65f);}.aab409a5-fa75-49d7-a55c-93f3bade1450{clip-path:url(#f1efa8b2-cb8d-4e67-af22-5c16a7159784);}.be21b967-1b8d-4f8f-8f9c-f1b67e7f0d61{fill:#fefefe;}.bfbb221f-066f-4404-909a-d4d372eb7365{fill:#414042;}</style><clipPath id="e8d9537d-4d96-4572-923b-55189644b65f"><rect class="ecc82e05-1cc3-4d69-83d9-1f2d0cda6a4f" x="-463.68459" y="-1553.42631" width="233.75906" height="493.74709"/></clipPath><clipPath id="f1efa8b2-cb8d-4e67-af22-5c16a7159784"><rect class="ecc82e05-1cc3-4d69-83d9-1f2d0cda6a4f" x="-138.01593" y="-1554.48776" width="233.75906" height="493.74709"/></clipPath></defs><g class="aab409a5-fa75-49d7-a55c-93f3bade1450"><rect class="be21b967-1b8d-4f8f-8f9c-f1b67e7f0d61" x="-138.41496" y="-1554.48776" width="233.75906" height="1690.54987"/><rect class="bfbb221f-066f-4404-909a-d4d372eb7365" x="-138.41496" y="-247.44674" width="233.75906" height="383.50885"/></g><path class="bfbb221f-066f-4404-909a-d4d372eb7365" d="M8.23131,12.30461a5.67209,5.67209,0,1,0,6.366,5.65076,3.48239,3.48239,0,0,0-.07153-.85835A26.24084,26.24084,0,0,1,8.23131,12.30461Z"/><path class="bfbb221f-066f-4404-909a-d4d372eb7365" d="M8.9525,26.897A8.94519,8.94519,0,0,1,6.07017,9.48146L6.558,9.31593l.31153.41016c.04394.05762,4.45459,5.78613,10.52441,7.76367l.50733.16553-.01416.53369A8.9474,8.9474,0,0,1,8.9525,26.897ZM6.06578,11.01076a7.51435,7.51435,0,1,0,10.35937,7.65869C11.11119,16.74367,7.20591,12.39015,6.06578,11.01076Z"/><path class="bfbb221f-066f-4404-909a-d4d372eb7365" d="M34.41078,12.30461a5.63857,5.63857,0,1,1-6.36605,5.57923,3.48231,3.48231,0,0,1,.07153-.85834A25.74978,25.74978,0,0,0,34.41078,12.30461Z"/><path class="bfbb221f-066f-4404-909a-d4d372eb7365" d="M33.70445,26.90089A8.96145,8.96145,0,0,1,24.75474,18.189l-.01465-.53369.50782-.16553c6.07031-1.97754,10.48095-7.70605,10.5249-7.76367l.31152-.40967.48779.165a8.94876,8.94876,0,0,1-2.86767,17.41943Zm-7.48779-8.23144a7.54723,7.54723,0,0,0,5.064,6.39746,7.51447,7.51447,0,0,0,5.2959-14.05615C35.43687,12.38966,31.5316,16.74367,26.21666,18.66945Z"/><path class="bfbb221f-066f-4404-909a-d4d372eb7365" d="M21.32115,19.52931c-8.76856,0-15.31836-8.57568-15.59278-8.94092l1.14307-.85986c.06348.0835,6.40186,8.37012,14.44971,8.37012,6.24121,0,10.27783-4.18311,18.31933-12.51709q1.27808-1.32495,2.69776-2.78809l1.02539.99707q-1.42091,1.46118-2.69385,2.78467C32.34751,15.20021,28.17027,19.52931,21.32115,19.52931Z"/><path class="bfbb221f-066f-4404-909a-d4d372eb7365" d="M20.99937,19.46437a11.11806,11.11806,0,0,1-3.86035-.69482l-.24219-.08936-.12939-.22412a2.59771,2.59771,0,0,1-.29688-.79l-.01318-.11084c-.00293-.07226-.00391-.144-.00342-.21631a4.6708,4.6708,0,0,1,1.395-3.3164,4.76271,4.76271,0,0,1,3.32812-1.36036,5.04227,5.04227,0,0,1,5.07862,4.83252,2.66875,2.66875,0,0,1-.09766.87012l-.1084.38281-.38281.10987a15.48459,15.48459,0,0,1-4.269.60009H21.392Q21.19566,19.46413,20.99937,19.46437ZM17.91,17.52492a9.655,9.655,0,0,0,3.457.50244,14.15781,14.15781,0,0,0,3.46142-.42529L24.827,17.565a3.628,3.628,0,0,0-3.64453-3.47217h-.00782a3.20071,3.20071,0,0,0-2.31982.94678,3.25005,3.25005,0,0,0-.97022,2.30859l.00147.09375C17.89292,17.46974,17.90123,17.49757,17.91,17.52492Z"/><path class="bfbb221f-066f-4404-909a-d4d372eb7365" d="M28.93687,12.84669c-8.103-6.9746-14.90625-.3247-15.19141-.03759l-1.01562-1.00782c.0791-.08007,8.01269-7.894,17.14062-.03857Z"/><path class="bfbb221f-066f-4404-909a-d4d372eb7365" d="M31.745,9.83058c-10.88379-9.4043-20.41456-.418-20.814-.03076L9.8231,8.65871C9.931,8.55373,20.78355-1.74315,32.785,8.62746Z"/><path class="bfbb221f-066f-4404-909a-d4d372eb7365" d="M34.34117,7.13527C21.056-4.99706,8.55357,6.62257,8.02769,7.12306l-1.166-1.22461c.14014-.13379,14.18262-13.19629,28.62012-.0122Z"/><polygon class="bfbb221f-066f-4404-909a-d4d372eb7365" points="19.176 22.605 23.61 22.605 21.321 26.181 19.176 22.605"/><path class="bfbb221f-066f-4404-909a-d4d372eb7365" d="M41.27753,2.71977l2.78961-.85834-.57222,2.86115C43.49492,4.79411,42.85116,2.93436,41.27753,2.71977Z"/><path class="bfbb221f-066f-4404-909a-d4d372eb7365" d="M3.00972,39.70007a1.06068,1.06068,0,0,1,.07153.5007v2.64655h-.5007V40.20077q0-.85833-1.07293-.85835H.29163v-.42917c.42918,0,.85835-.07152,1.28752-.07152a3.17443,3.17443,0,0,1,.92986.14305A1.09643,1.09643,0,0,1,3.00972,39.70007ZM.79233,42.84732H.29163v-2.432h.5007Z"/><path class="bfbb221f-066f-4404-909a-d4d372eb7365" d="M4.72636,38.98478c.14307,0,.28612-.07153.50071-.07153a.77446.77446,0,0,1,.42917.07153c.143.07153.28612.07153.35761.14306s.21458.14306.28612.21458.143.21459.21458.28612.07153.21459.14306.28612a1.57486,1.57486,0,0,1,.07153.57222v1.00141a3.09938,3.09938,0,0,1-.07153.35761,1.20845,1.20845,0,0,1-.14306.35761.55848.55848,0,0,1-.28612.28612,1.56278,1.56278,0,0,1-.35761.21458,1.21714,1.21714,0,0,1-.5007.07153H4.86947c-.14307,0-.21459-.07153-.28612-.07153H4.51182v-.42909a3.59031,3.59031,0,0,0,.85834.14306.64477.64477,0,0,0,.35761-.07153c.07153,0,.21459-.07153.21459-.143.07153-.07153.14305-.14306.14305-.21459.07153-.07153.07153-.14306.143-.21458A.26276.26276,0,0,0,6.3,41.55984a3.099,3.099,0,0,1,.07154-.35761v-.57231A1.77583,1.77583,0,0,0,6.3,39.98616c0-.07153-.07153-.14306-.14305-.21459s-.07153-.143-.143-.21458-.14307-.07153-.28612-.14306a1.575,1.575,0,0,0-.57224-.07154.90727.90727,0,0,0-.42917.07153c-.143,0-.21458.07152-.2861.07152l-.07151.07157v-.42917a.07006.07006,0,0,0,.07153-.06855v-.003A.74.74,0,0,1,4.72636,38.98478Z"/><path class="bfbb221f-066f-4404-909a-d4d372eb7365" d="M7.65908,38.98478h.7153a1.39448,1.39448,0,0,1,.57222.07153,1.01675,1.01675,0,0,1,.42918.14306.98749.98749,0,0,1,.28611.21459,1.07564,1.07564,0,0,1,.28611.78681v2.64656H9.4473V40.20077c0-.50071-.35761-.78682-1.07293-.78682H7.65908Z"/><path class="bfbb221f-066f-4404-909a-d4d372eb7365" d="M13.9536,38.98478v.35761a.84143.84143,0,0,0-.64376.85835V42.8473h-.5007V40.20077a.64479.64479,0,0,1,.07153-.35762c0-.07153.07153-.14305.07153-.21458q.10728-.21459.21459-.21459H11.164v-.35761h2.78962Z"/><path class="bfbb221f-066f-4404-909a-d4d372eb7365" d="M17.88767,39.70007a1.06043,1.06043,0,0,1,.07153.5007v2.64655h-.50074V40.20077c0-.5007-.35761-.78682-1.07293-.78682H15.16959v-.42917c.42917,0,.85834-.07152,1.28751-.07152a3.17483,3.17483,0,0,1,.92987.14305A.94748.94748,0,0,1,17.88767,39.70007Zm-2.21739,3.14725h-.5007v-2.432h.5007Z"/><path class="bfbb221f-066f-4404-909a-d4d372eb7365" d="M22.25092,39.70007a1.06068,1.06068,0,0,1,.07153.5007v2.64655h-.5007V40.20077c0-.5007-.35762-.78682-1.07293-.78682h-1.216v-.42917c.42918,0,.85836-.07152,1.28752-.07152a3.17483,3.17483,0,0,1,.92987.14305C21.9648,39.12785,22.10786,39.414,22.25092,39.70007ZM19.962,42.84732h-.50073v-2.432h.5007Z"/><path class="bfbb221f-066f-4404-909a-d4d372eb7365" d="M27.544,42.84732a.43005.43005,0,0,1-.28612-.07152v-.42917h.2146c.28612,0,.42918-.14306.42918-.5007V39.34242l-.42918.07153v-.42917a10.58867,10.58867,0,0,1,1.43057-.07152,2.66793,2.66793,0,0,1,.85835.14305.80091.80091,0,0,1,.5007.57223,1.06072,1.06072,0,0,1,.07153.50071v2.64656H29.833V40.12925c0-.50071-.35761-.78681-1.07293-.78681h-.5007v2.50349a1.06786,1.06786,0,0,1-.21459.71529C28.11626,42.77579,27.83013,42.84732,27.544,42.84732Z"/><path class="bfbb221f-066f-4404-909a-d4d372eb7365" d="M31.9788,41.55981v-2.5035h.50071v2.00281l-.35761.5007Z"/><path class="bfbb221f-066f-4404-909a-d4d372eb7365" d="M33.91009,41.55981v-2.5035h.50069v2.00281l-.35761.5007Z"/><path class="bfbb221f-066f-4404-909a-d4d372eb7365" d="M35.55524,38.98478h.71528a1.39453,1.39453,0,0,1,.57223.07153,1.01671,1.01671,0,0,1,.42917.14306.98767.98767,0,0,1,.28612.21459,1.07568,1.07568,0,0,1,.2861.78681v2.64656h-.50069V40.20077c0-.50071-.35761-.78682-1.07293-.78682h-.71529Z"/><path class="bfbb221f-066f-4404-909a-d4d372eb7365" d="M41.34906,42.70427v.07152h-.5007v-.07152a1.77742,1.77742,0,0,1,.07152-.57223,2.91442,2.91442,0,0,0,.14306-.5007c.07153-.21458.14306-.5007.21459-.78682L41.7067,39.414H39.34628v-.35761h2.78961v.28611l-.42917,1.5021c-.07153.21459-.07153.35761-.143.42917,0,.14305-.07153.21459-.07153.35761s-.07153.21459-.07153.28612-.07153.21458-.07153.28611Zm-1.43057,1.57366h-.50071V40.55842h.50071Z"/><path class="bfbb221f-066f-4404-909a-d4d372eb7365" d="M3.00972,39.70007a1.06068,1.06068,0,0,1,.07153.5007v2.64655h-.5007V40.20077q0-.85833-1.07293-.85835H.29163v-.42917c.42918,0,.85835-.07152,1.28752-.07152a3.17443,3.17443,0,0,1,.92986.14305A1.09643,1.09643,0,0,1,3.00972,39.70007ZM.79233,42.84732H.29163v-2.432h.5007Z"/><path class="bfbb221f-066f-4404-909a-d4d372eb7365" d="M4.72636,38.98478c.14307,0,.28612-.07153.50071-.07153a.77446.77446,0,0,1,.42917.07153c.143.07153.28612.07153.35761.14306s.21458.14306.28612.21458.143.21459.21458.28612.07153.21459.14306.28612a1.57486,1.57486,0,0,1,.07153.57222v1.00141a3.09938,3.09938,0,0,1-.07153.35761,1.20845,1.20845,0,0,1-.14306.35761.55848.55848,0,0,1-.28612.28612,1.56278,1.56278,0,0,1-.35761.21458,1.21714,1.21714,0,0,1-.5007.07153H4.86947c-.14307,0-.21459-.07153-.28612-.07153H4.51182v-.42909a3.59031,3.59031,0,0,0,.85834.14306.64477.64477,0,0,0,.35761-.07153c.07153,0,.21459-.07153.21459-.143.07153-.07153.14305-.14306.14305-.21459.07153-.07153.07153-.14306.143-.21458A.26276.26276,0,0,0,6.3,41.55984a3.099,3.099,0,0,1,.07154-.35761v-.57231A1.77583,1.77583,0,0,0,6.3,39.98616c0-.07153-.07153-.14306-.14305-.21459s-.07153-.143-.143-.21458-.14307-.07153-.28612-.14306a1.575,1.575,0,0,0-.57224-.07154.90727.90727,0,0,0-.42917.07153c-.143,0-.21458.07152-.2861.07152l-.07151.07157v-.42917a.07006.07006,0,0,0,.07153-.06855v-.003A.74.74,0,0,1,4.72636,38.98478Z"/><path class="bfbb221f-066f-4404-909a-d4d372eb7365" d="M7.65908,38.98478h.7153a1.39448,1.39448,0,0,1,.57222.07153,1.01675,1.01675,0,0,1,.42918.14306.98749.98749,0,0,1,.28611.21459,1.07564,1.07564,0,0,1,.28611.78681v2.64656H9.4473V40.20077c0-.50071-.35761-.78682-1.07293-.78682H7.65908Z"/><path class="bfbb221f-066f-4404-909a-d4d372eb7365" d="M13.9536,38.98478v.35761a.84143.84143,0,0,0-.64376.85835V42.8473h-.5007V40.20077a.64479.64479,0,0,1,.07153-.35762c0-.07153.07153-.14305.07153-.21458q.10728-.21459.21459-.21459H11.164v-.35761h2.78962Z"/><path class="bfbb221f-066f-4404-909a-d4d372eb7365" d="M17.88767,39.70007a1.06043,1.06043,0,0,1,.07153.5007v2.64655h-.50074V40.20077c0-.5007-.35761-.78682-1.07293-.78682H15.16959v-.42917c.42917,0,.85834-.07152,1.28751-.07152a3.17483,3.17483,0,0,1,.92987.14305A.94748.94748,0,0,1,17.88767,39.70007Zm-2.21739,3.14725h-.5007v-2.432h.5007Z"/><path class="bfbb221f-066f-4404-909a-d4d372eb7365" d="M22.25092,39.70007a1.06068,1.06068,0,0,1,.07153.5007v2.64655h-.5007V40.20077c0-.5007-.35762-.78682-1.07293-.78682h-1.216v-.42917c.42918,0,.85836-.07152,1.28752-.07152a3.17483,3.17483,0,0,1,.92987.14305C21.9648,39.12785,22.10786,39.414,22.25092,39.70007ZM19.962,42.84732h-.50073v-2.432h.5007Z"/><path class="bfbb221f-066f-4404-909a-d4d372eb7365" d="M27.544,42.84732a.43005.43005,0,0,1-.28612-.07152v-.42917h.2146c.28612,0,.42918-.14306.42918-.5007V39.34242l-.42918.07153v-.42917a10.58867,10.58867,0,0,1,1.43057-.07152,2.66793,2.66793,0,0,1,.85835.14305.80091.80091,0,0,1,.5007.57223,1.06072,1.06072,0,0,1,.07153.50071v2.64656H29.833V40.12925c0-.50071-.35761-.78681-1.07293-.78681h-.5007v2.50349a1.06786,1.06786,0,0,1-.21459.71529C28.11626,42.77579,27.83013,42.84732,27.544,42.84732Z"/><path class="bfbb221f-066f-4404-909a-d4d372eb7365" d="M31.9788,41.55981v-2.5035h.50071v2.00281l-.35761.5007Z"/><path class="bfbb221f-066f-4404-909a-d4d372eb7365" d="M33.91009,41.55981v-2.5035h.50069v2.00281l-.35761.5007Z"/><path class="bfbb221f-066f-4404-909a-d4d372eb7365" d="M35.55524,38.98478h.71528a1.39453,1.39453,0,0,1,.57223.07153,1.01671,1.01671,0,0,1,.42917.14306.98767.98767,0,0,1,.28612.21459,1.07568,1.07568,0,0,1,.2861.78681v2.64656h-.50069V40.20077c0-.50071-.35761-.78682-1.07293-.78682h-.71529Z"/><path class="bfbb221f-066f-4404-909a-d4d372eb7365" d="M41.34906,42.70427v.07152h-.5007v-.07152a1.77742,1.77742,0,0,1,.07152-.57223,2.91442,2.91442,0,0,0,.14306-.5007c.07153-.21458.14306-.5007.21459-.78682L41.7067,39.414H39.34628v-.35761h2.78961v.28611l-.42917,1.5021c-.07153.21459-.07153.35761-.143.42917,0,.14305-.07153.21459-.07153.35761s-.07153.21459-.07153.28612-.07153.21458-.07153.28611Zm-1.43057,1.57366h-.50071V40.55842h.50071Z"/><path class="bfbb221f-066f-4404-909a-d4d372eb7365" d="M3.00972,39.70007a1.06068,1.06068,0,0,1,.07153.5007v2.64655h-.5007V40.20077q0-.85833-1.07293-.85835H.29163v-.42917c.42918,0,.85835-.07152,1.28752-.07152a3.17443,3.17443,0,0,1,.92986.14305A1.09643,1.09643,0,0,1,3.00972,39.70007ZM.79233,42.84732H.29163v-2.432h.5007Z"/><path class="bfbb221f-066f-4404-909a-d4d372eb7365" d="M4.72636,38.98478c.14307,0,.28612-.07153.50071-.07153a.77446.77446,0,0,1,.42917.07153c.143.07153.28612.07153.35761.14306s.21458.14306.28612.21458.143.21459.21458.28612.07153.21459.14306.28612a1.57486,1.57486,0,0,1,.07153.57222v1.00141a3.09938,3.09938,0,0,1-.07153.35761,1.20845,1.20845,0,0,1-.14306.35761.55848.55848,0,0,1-.28612.28612,1.56278,1.56278,0,0,1-.35761.21458,1.21714,1.21714,0,0,1-.5007.07153H4.86947c-.14307,0-.21459-.07153-.28612-.07153H4.51182v-.42909a3.59031,3.59031,0,0,0,.85834.14306.64477.64477,0,0,0,.35761-.07153c.07153,0,.21459-.07153.21459-.143.07153-.07153.14305-.14306.14305-.21459.07153-.07153.07153-.14306.143-.21458A.26276.26276,0,0,0,6.3,41.55984a3.099,3.099,0,0,1,.07154-.35761v-.57231A1.77583,1.77583,0,0,0,6.3,39.98616c0-.07153-.07153-.14306-.14305-.21459s-.07153-.143-.143-.21458-.14307-.07153-.28612-.14306a1.575,1.575,0,0,0-.57224-.07154.90727.90727,0,0,0-.42917.07153c-.143,0-.21458.07152-.2861.07152l-.07151.07157v-.42917a.07006.07006,0,0,0,.07153-.06855v-.003A.74.74,0,0,1,4.72636,38.98478Z"/><path class="bfbb221f-066f-4404-909a-d4d372eb7365" d="M7.65908,38.98478h.7153a1.39448,1.39448,0,0,1,.57222.07153,1.01675,1.01675,0,0,1,.42918.14306.98749.98749,0,0,1,.28611.21459,1.07564,1.07564,0,0,1,.28611.78681v2.64656H9.4473V40.20077c0-.50071-.35761-.78682-1.07293-.78682H7.65908Z"/><path class="bfbb221f-066f-4404-909a-d4d372eb7365" d="M13.9536,38.98478v.35761a.84143.84143,0,0,0-.64376.85835V42.8473h-.5007V40.20077a.64479.64479,0,0,1,.07153-.35762c0-.07153.07153-.14305.07153-.21458q.10728-.21459.21459-.21459H11.164v-.35761h2.78962Z"/><path class="bfbb221f-066f-4404-909a-d4d372eb7365" d="M17.88767,39.70007a1.06043,1.06043,0,0,1,.07153.5007v2.64655h-.50074V40.20077c0-.5007-.35761-.78682-1.07293-.78682H15.16959v-.42917c.42917,0,.85834-.07152,1.28751-.07152a3.17483,3.17483,0,0,1,.92987.14305A.94748.94748,0,0,1,17.88767,39.70007Zm-2.21739,3.14725h-.5007v-2.432h.5007Z"/><path class="bfbb221f-066f-4404-909a-d4d372eb7365" d="M22.25092,39.70007a1.06068,1.06068,0,0,1,.07153.5007v2.64655h-.5007V40.20077c0-.5007-.35762-.78682-1.07293-.78682h-1.216v-.42917c.42918,0,.85836-.07152,1.28752-.07152a3.17483,3.17483,0,0,1,.92987.14305C21.9648,39.12785,22.10786,39.414,22.25092,39.70007ZM19.962,42.84732h-.50073v-2.432h.5007Z"/><path class="bfbb221f-066f-4404-909a-d4d372eb7365" d="M27.544,42.84732a.43005.43005,0,0,1-.28612-.07152v-.42917h.2146c.28612,0,.42918-.14306.42918-.5007V39.34242l-.42918.07153v-.42917a10.58867,10.58867,0,0,1,1.43057-.07152,2.66793,2.66793,0,0,1,.85835.14305.80091.80091,0,0,1,.5007.57223,1.06072,1.06072,0,0,1,.07153.50071v2.64656H29.833V40.12925c0-.50071-.35761-.78681-1.07293-.78681h-.5007v2.50349a1.06786,1.06786,0,0,1-.21459.71529C28.11626,42.77579,27.83013,42.84732,27.544,42.84732Z"/><path class="bfbb221f-066f-4404-909a-d4d372eb7365" d="M31.9788,41.55981v-2.5035h.50071v2.00281l-.35761.5007Z"/><path class="bfbb221f-066f-4404-909a-d4d372eb7365" d="M33.91009,41.55981v-2.5035h.50069v2.00281l-.35761.5007Z"/><path class="bfbb221f-066f-4404-909a-d4d372eb7365" d="M35.55524,38.98478h.71528a1.39453,1.39453,0,0,1,.57223.07153,1.01671,1.01671,0,0,1,.42917.14306.98767.98767,0,0,1,.28612.21459,1.07568,1.07568,0,0,1,.2861.78681v2.64656h-.50069V40.20077c0-.50071-.35761-.78682-1.07293-.78682h-.71529Z"/><path class="bfbb221f-066f-4404-909a-d4d372eb7365" d="M41.34906,42.70427v.07152h-.5007v-.07152a1.77742,1.77742,0,0,1,.07152-.57223,2.91442,2.91442,0,0,0,.14306-.5007c.07153-.21458.14306-.5007.21459-.78682L41.7067,39.414H39.34628v-.35761h2.78961v.28611l-.42917,1.5021c-.07153.21459-.07153.35761-.143.42917,0,.14305-.07153.21459-.07153.35761s-.07153.21459-.07153.28612-.07153.21458-.07153.28611Zm-1.43057,1.57366h-.50071V40.55842h.50071Z"/><path class="bfbb221f-066f-4404-909a-d4d372eb7365" d="M3.00972,39.70007a1.06068,1.06068,0,0,1,.07153.5007v2.64655h-.5007V40.20077q0-.85833-1.07293-.85835H.29163v-.42917c.42918,0,.85835-.07152,1.28752-.07152a3.17443,3.17443,0,0,1,.92986.14305A1.09643,1.09643,0,0,1,3.00972,39.70007ZM.79233,42.84732H.29163v-2.432h.5007Z"/><path class="bfbb221f-066f-4404-909a-d4d372eb7365" d="M4.72636,38.98478c.14307,0,.28612-.07153.50071-.07153a.77446.77446,0,0,1,.42917.07153c.143.07153.28612.07153.35761.14306s.21458.14306.28612.21458.143.21459.21458.28612.07153.21459.14306.28612a1.57486,1.57486,0,0,1,.07153.57222v1.00141a3.09938,3.09938,0,0,1-.07153.35761,1.20845,1.20845,0,0,1-.14306.35761.55848.55848,0,0,1-.28612.28612,1.56278,1.56278,0,0,1-.35761.21458,1.21714,1.21714,0,0,1-.5007.07153H4.86947c-.14307,0-.21459-.07153-.28612-.07153H4.51182v-.42909a3.59031,3.59031,0,0,0,.85834.14306.64477.64477,0,0,0,.35761-.07153c.07153,0,.21459-.07153.21459-.143.07153-.07153.14305-.14306.14305-.21459.07153-.07153.07153-.14306.143-.21458A.26276.26276,0,0,0,6.3,41.55984a3.099,3.099,0,0,1,.07154-.35761v-.57231A1.77583,1.77583,0,0,0,6.3,39.98616c0-.07153-.07153-.14306-.14305-.21459s-.07153-.143-.143-.21458-.14307-.07153-.28612-.14306a1.575,1.575,0,0,0-.57224-.07154.90727.90727,0,0,0-.42917.07153c-.143,0-.21458.07152-.2861.07152l-.07151.07157v-.42917a.07006.07006,0,0,0,.07153-.06855v-.003A.74.74,0,0,1,4.72636,38.98478Z"/><path class="bfbb221f-066f-4404-909a-d4d372eb7365" d="M7.65908,38.98478h.7153a1.39448,1.39448,0,0,1,.57222.07153,1.01675,1.01675,0,0,1,.42918.14306.98749.98749,0,0,1,.28611.21459,1.07564,1.07564,0,0,1,.28611.78681v2.64656H9.4473V40.20077c0-.50071-.35761-.78682-1.07293-.78682H7.65908Z"/><path class="bfbb221f-066f-4404-909a-d4d372eb7365" d="M13.9536,38.98478v.35761a.84143.84143,0,0,0-.64376.85835V42.8473h-.5007V40.20077a.64479.64479,0,0,1,.07153-.35762c0-.07153.07153-.14305.07153-.21458q.10728-.21459.21459-.21459H11.164v-.35761h2.78962Z"/><path class="bfbb221f-066f-4404-909a-d4d372eb7365" d="M17.88767,39.70007a1.06043,1.06043,0,0,1,.07153.5007v2.64655h-.50074V40.20077c0-.5007-.35761-.78682-1.07293-.78682H15.16959v-.42917c.42917,0,.85834-.07152,1.28751-.07152a3.17483,3.17483,0,0,1,.92987.14305A.94748.94748,0,0,1,17.88767,39.70007Zm-2.21739,3.14725h-.5007v-2.432h.5007Z"/><path class="bfbb221f-066f-4404-909a-d4d372eb7365" d="M22.25092,39.70007a1.06068,1.06068,0,0,1,.07153.5007v2.64655h-.5007V40.20077c0-.5007-.35762-.78682-1.07293-.78682h-1.216v-.42917c.42918,0,.85836-.07152,1.28752-.07152a3.17483,3.17483,0,0,1,.92987.14305C21.9648,39.12785,22.10786,39.414,22.25092,39.70007ZM19.962,42.84732h-.50073v-2.432h.5007Z"/><path class="bfbb221f-066f-4404-909a-d4d372eb7365" d="M27.544,42.84732a.43005.43005,0,0,1-.28612-.07152v-.42917h.2146c.28612,0,.42918-.14306.42918-.5007V39.34242l-.42918.07153v-.42917a10.58867,10.58867,0,0,1,1.43057-.07152,2.66793,2.66793,0,0,1,.85835.14305.80091.80091,0,0,1,.5007.57223,1.06072,1.06072,0,0,1,.07153.50071v2.64656H29.833V40.12925c0-.50071-.35761-.78681-1.07293-.78681h-.5007v2.50349a1.06786,1.06786,0,0,1-.21459.71529C28.11626,42.77579,27.83013,42.84732,27.544,42.84732Z"/><path class="bfbb221f-066f-4404-909a-d4d372eb7365" d="M31.9788,41.55981v-2.5035h.50071v2.00281l-.35761.5007Z"/><path class="bfbb221f-066f-4404-909a-d4d372eb7365" d="M33.91009,41.55981v-2.5035h.50069v2.00281l-.35761.5007Z"/><path class="bfbb221f-066f-4404-909a-d4d372eb7365" d="M35.55524,38.98478h.71528a1.39453,1.39453,0,0,1,.57223.07153,1.01671,1.01671,0,0,1,.42917.14306.98767.98767,0,0,1,.28612.21459,1.07568,1.07568,0,0,1,.2861.78681v2.64656h-.50069V40.20077c0-.50071-.35761-.78682-1.07293-.78682h-.71529Z"/><path class="bfbb221f-066f-4404-909a-d4d372eb7365" d="M41.34906,42.70427v.07152h-.5007v-.07152a1.77742,1.77742,0,0,1,.07152-.57223,2.91442,2.91442,0,0,0,.14306-.5007c.07153-.21458.14306-.5007.21459-.78682L41.7067,39.414H39.34628v-.35761h2.78961v.28611l-.42917,1.5021c-.07153.21459-.07153.35761-.143.42917,0,.14305-.07153.21459-.07153.35761s-.07153.21459-.07153.28612-.07153.21458-.07153.28611Zm-1.43057,1.57366h-.50071V40.55842h.50071Z"/><path class="bfbb221f-066f-4404-909a-d4d372eb7365" d="M1.86526,31.33122H4.36875v.92984L3.725,34.47843h0l-.42918,1.85975H1.86526l.42917-1.93127.57223-1.93128H.36313V30.32977H1.86526Z"/><path class="bfbb221f-066f-4404-909a-d4d372eb7365" d="M6.08545,30.759H7.15838c-.14306.78681-.28611,1.50209-.35761,2.21737H5.44169v-.07152A9.8647,9.8647,0,0,1,6.08545,30.759Zm1.93127,0H9.08965c-.14306.78681-.28611,1.50209-.35761,2.21737H7.44449L7.373,32.90485q.42918-1.5021.64381-2.14585Z"/><path class="bfbb221f-066f-4404-909a-d4d372eb7365" d="M10.52023,34.76459V31.40275h1.5021v2.28891L11.164,34.76459Z"/><path class="bfbb221f-066f-4404-909a-d4d372eb7365" d="M15.81335,31.33122c.21457,0,.42917-.07153.64375-.07153a1.57492,1.57492,0,0,1,.57223.07153,3.48634,3.48634,0,0,1,.5007.21459,1.05136,1.05136,0,0,1,.35761.42917,3.71569,3.71569,0,0,1,.28612,1.71668,2.96018,2.96018,0,0,1-.57224,1.93128,2.09342,2.09342,0,0,1-1.64515.71528,3.58981,3.58981,0,0,1-.85834-.14306,1.55758,1.55758,0,0,1-.64376-.50069,1.63162,1.63162,0,0,1-.42917-.85835,2.78011,2.78011,0,0,1-.14306-1.07293v-2.432h1.5021v2.432c0,.92987.21458,1.43057.64375,1.43057a.5379.5379,0,0,0,.50071-.35761,2.13715,2.13715,0,0,0,.14306-1.07293,3.48472,3.48472,0,0,0-.14306-1.07293.4789.4789,0,0,0-.50071-.28611h-.21457Z"/><path class="bfbb221f-066f-4404-909a-d4d372eb7365" d="M23.82451,31.40275a9.6092,9.6092,0,0,1,1.359-.07153,3.49626,3.49626,0,0,1,.92986.07153c.21459.07153.42917.07153.57224.21459a.71407.71407,0,0,1,.35761.28611,1.56278,1.56278,0,0,1,.21458.35761c.07153.14305.07153.28611.143.42917v3.71948h-1.502V33.26245c0-.5007-.28611-.71529-.78681-.71529a9.60913,9.60913,0,0,0-1.359.07153V31.40275Z"/><path class="bfbb221f-066f-4404-909a-d4d372eb7365" d="M30.76282,36.33822h-1.5021v-5.007h1.5021Z"/><path class="bfbb221f-066f-4404-909a-d4d372eb7365" d="M36.34205,31.33122v1.07293a.70785.70785,0,0,0-.5007.35761,1.34766,1.34766,0,0,0-.14306.57223v3.0042H34.19618V33.334a1.02479,1.02479,0,0,1,.35761-.78682H32.19337V31.40275H36.342Z"/><path class="bfbb221f-066f-4404-909a-d4d372eb7365" d="M38.91709,31.33122a1.03388,1.03388,0,0,1,.143.50071h.07153l.21459-.21459c.07152-.07153.21457-.14306.2861-.21459s.21459-.07153.35762-.14306a1.39447,1.39447,0,0,1,.57222-.07152,1.34732,1.34732,0,0,1,.57223.143,1.79274,1.79274,0,0,1,.5007.28612,1.15284,1.15284,0,0,1,.28612.5007,3.60545,3.60545,0,0,1,.21459,1.359v2.78959H39.77541V35.12224h.85835V33.477a1.22965,1.22965,0,0,0-.07153-.57223c-.07152-.14306-.07152-.21459-.14305-.28612a.55689.55689,0,0,0-.50071-.21458.54079.54079,0,0,0-.28612.07152c-.07152,0-.14305.07153-.21458.14306-.14306.14306-.21459.21459-.21459.28612v.07152l-.14305,3.36184H37.558l.28612-3.14726V32.6902a4.05025,4.05025,0,0,0-.21459-1.28751h1.28752Z"/></svg>