<svg id="fa98038f-30bd-424a-a51f-e3610eb97d77" data-name="Layer 1" xmlns="http://www.w3.org/2000/svg" xmlns:xlink="http://www.w3.org/1999/xlink" viewBox="0 0 13.49954 13.60861"><defs><style>.b22f746f-73cb-437b-b402-2f0d3c39e4e7,.b41cab04-1166-4128-a180-1abf1bedb007{fill:none;}.ec9a7d4e-a150-48a4-a1ab-7806df16b73d{clip-path:url(#a8b330b6-372a-4546-8ae4-740cb4b3a5de);}.b294fbf8-facb-40cd-8fa3-6f33cfc5e940{fill:#fefefe;}.ebdc221f-b4b2-46e4-9d4a-30b23c0bb7c6{clip-path:url(#e14b3938-5160-455f-9608-08049f83cfbe);}.ab6c9a6f-7d74-4d0b-919b-da37e0ffc8d1{clip-path:url(#fe106a2c-80c3-4a33-9f9a-97ff2c246f70);}.b22f746f-73cb-437b-b402-2f0d3c39e4e7{stroke:#414042;stroke-linecap:round;stroke-linejoin:round;stroke-width:0.75px;}.eb1785a9-d79d-417a-a8b3-24d0e656dd66{fill:#414042;}</style><clipPath id="a8b330b6-372a-4546-8ae4-740cb4b3a5de"><rect class="b41cab04-1166-4128-a180-1abf1bedb007" x="-99.83272" y="-504.87736" width="693.31764" height="381.92699"/></clipPath><clipPath id="e14b3938-5160-455f-9608-08049f83cfbe"><rect class="b41cab04-1166-4128-a180-1abf1bedb007" x="635.30983" y="-504.87736" width="693.31764" height="381.92699"/></clipPath><clipPath id="fe106a2c-80c3-4a33-9f9a-97ff2c246f70"><rect class="b41cab04-1166-4128-a180-1abf1bedb007" x="-835.64173" y="-504.41114" width="693.31764" height="381.92699"/></clipPath></defs><g class="ec9a7d4e-a150-48a4-a1ab-7806df16b73d"><rect class="b294fbf8-facb-40cd-8fa3-6f33cfc5e940" x="-99.83272" y="-1082.71966" width="693.31764" height="1306.03954"/></g><path class="b22f746f-73cb-437b-b402-2f0d3c39e4e7" d="M5.9547,2.86811A2.52673,2.52673,0,0,0,3.25815.38965,2.93888,2.93888,0,0,0,.375,3.56238c0,1.76033,1.37019,3.00436,2.12377,3.73641l4.23555,3.854L10.969,7.22045c1.33669-1.26376,2.15551-1.89774,2.15551-3.65807A3.19516,3.19516,0,0,0,9.92168.375c-1.66517,0-2.37274.94215-2.5275,2.55894"/><path class="eb1785a9-d79d-417a-a8b3-24d0e656dd66" d="M5.95061,2.67254h0a.57491.57491,0,0,1,.57491.57491v.476a.0989.0989,0,0,1-.0989.0989h-.952a.0989.0989,0,0,1-.0989-.0989v-.476A.57491.57491,0,0,1,5.95061,2.67254Z"/><path class="eb1785a9-d79d-417a-a8b3-24d0e656dd66" d="M7.44538,2.67254h0a.57491.57491,0,0,1,.57491.57491V3.733a.08935.08935,0,0,1-.08935.08935H6.95982A.08935.08935,0,0,1,6.87047,3.733V3.24745A.57491.57491,0,0,1,7.44538,2.67254Z"/><path class="b22f746f-73cb-437b-b402-2f0d3c39e4e7" d="M6.74977,11.15281H10.296a1.0404,1.0404,0,0,1,1.0404,1.0404h0a1.0404,1.0404,0,0,1-1.0404,1.0404H1.37508"/></svg>