<svg id="b83b1bc5-4b20-4a6d-a363-83a3cecdf8e5" data-name="Layer 1" xmlns="http://www.w3.org/2000/svg" xmlns:xlink="http://www.w3.org/1999/xlink" viewBox="0 0 18.0238 10.89355"><defs><style>.a97faa8a-8735-4351-9243-f8ac7707d918,.b6c4caa7-7a9d-422d-9cf2-c2893aa2f919{fill:none;}.ea612bf0-9115-445e-91fd-3178c325596c{clip-path:url(#f4530c40-19a3-47f1-a69c-32bf6c6f393e);}.acf15e18-1b82-417a-b59d-5d5534ab6bed{fill:#fefefe;}.b712a209-5c41-4cac-930b-4be68e607663{clip-path:url(#f2e17d74-3446-4020-8397-86bcac2ebe60);}.f37e456d-8d47-41d8-9885-f96690300d70{clip-path:url(#ba52d50f-2b18-4757-a902-a87b3cab611d);}.a97faa8a-8735-4351-9243-f8ac7707d918{stroke:#fefefe;stroke-linecap:round;stroke-linejoin:round;stroke-width:0.9376px;}</style><clipPath id="f4530c40-19a3-47f1-a69c-32bf6c6f393e"><rect class="b6c4caa7-7a9d-422d-9cf2-c2893aa2f919" x="-34.80619" y="-490.39714" width="693.31764" height="381.92699"/></clipPath><clipPath id="f2e17d74-3446-4020-8397-86bcac2ebe60"><rect class="b6c4caa7-7a9d-422d-9cf2-c2893aa2f919" x="700.33635" y="-490.39714" width="693.31764" height="381.92699"/></clipPath><clipPath id="ba52d50f-2b18-4757-a902-a87b3cab611d"><rect class="b6c4caa7-7a9d-422d-9cf2-c2893aa2f919" x="-770.61521" y="-489.93092" width="693.31764" height="381.92699"/></clipPath></defs><g class="ea612bf0-9115-445e-91fd-3178c325596c"><rect class="acf15e18-1b82-417a-b59d-5d5534ab6bed" x="-34.80619" y="-1068.23943" width="693.31764" height="1306.03954"/></g><path class="acf15e18-1b82-417a-b59d-5d5534ab6bed" d="M17.03547.75036a.24132.24132,0,0,1,.23828.23828V7.9569a.23594.23594,0,0,1-.23828.23291h-.72021a2.20456,2.20456,0,0,0-3.93933,0H6.25984a2.11287,2.11287,0,0,0-1.9917-1.26269A2.11311,2.11311,0,0,0,2.27705,8.18981H.88288A.13043.13043,0,0,1,.75,8.06237V4.47008a.13043.13043,0,0,1,.13293-.12744H3.89717V.98864A.23594.23594,0,0,1,4.13008.75036H17.03547m0-.75H4.13008a.98563.98563,0,0,0-.98291.98828v2.604H.88288A.88032.88032,0,0,0,0,4.47008V8.06237a.88032.88032,0,0,0,.88293.87744H2.83857A1.39,1.39,0,0,1,4.26814,7.67712,1.38879,1.38879,0,0,1,5.69795,8.93981h7.22253a1.44311,1.44311,0,0,1,2.84973,0h1.26526a.9857.9857,0,0,0,.98828-.98291V.98864a.99029.99029,0,0,0-.98828-.98828Z"/><path class="acf15e18-1b82-417a-b59d-5d5534ab6bed" d="M4.31452,7.73669A1.20337,1.20337,0,1,1,3.11115,8.93981,1.20445,1.20445,0,0,1,4.31452,7.73669m0-.75A1.95337,1.95337,0,1,0,6.26777,8.93981,1.95327,1.95327,0,0,0,4.31452,6.98669Z"/><path class="acf15e18-1b82-417a-b59d-5d5534ab6bed" d="M14.33772,7.73669a1.20337,1.20337,0,1,1-1.20337,1.20312,1.20448,1.20448,0,0,1,1.20337-1.20312m0-.75a1.95337,1.95337,0,1,0,1.95337,1.95312,1.95326,1.95326,0,0,0-1.95337-1.95312Z"/><path class="acf15e18-1b82-417a-b59d-5d5534ab6bed" d="M4.36384,2.06676V3.5902H3.89717V2.06676h.46667m.42029-.75H3.47688a.33006.33006,0,0,0-.32971.33008V4.01012a.33006.33006,0,0,0,.32971.33008H4.78413a.33006.33006,0,0,0,.32971-.33008V1.64684a.33006.33006,0,0,0-.32971-.33008Z"/><line class="a97faa8a-8735-4351-9243-f8ac7707d918" x1="9.11515" y1="4.13745" x2="12.29205" y2="4.13745"/><line class="a97faa8a-8735-4351-9243-f8ac7707d918" x1="10.7036" y1="2.549" x2="10.7036" y2="5.72591"/></svg>