<svg id="bae211a9-4cbb-404b-9ecd-562372f90eba" data-name="Layer 1" xmlns="http://www.w3.org/2000/svg" xmlns:xlink="http://www.w3.org/1999/xlink" viewBox="0 0 18.0238 10.89355"><defs><style>.a6b6f84e-b2b0-492a-a393-829dc8edbbd0,.f73dcc8c-3259-4eb8-be59-018c5d789185{fill:none;}.b6465e89-7db6-4e3e-b30e-ac851b66b13b{clip-path:url(#f60424d9-6a4d-4e70-aece-7193ef3ae7d4);}.b918ff97-7826-4b56-8f40-77722b0c2b6a{fill:#fefefe;}.fe431ed3-4c8e-423b-ab0c-72229164baed{clip-path:url(#bf4cff69-de09-425f-9a95-f20896503191);}.a4c1f914-0094-455f-b3ea-23791e7e3c4f{clip-path:url(#ba645ecc-aa8a-4d4a-b078-b2eb976ef063);}.afd004bf-a987-4634-980d-35078ed9b7f6{fill:#414042;}.a6b6f84e-b2b0-492a-a393-829dc8edbbd0{stroke:#414042;stroke-linecap:round;stroke-linejoin:round;stroke-width:0.9376px;}</style><clipPath id="f60424d9-6a4d-4e70-aece-7193ef3ae7d4"><rect class="f73dcc8c-3259-4eb8-be59-018c5d789185" x="-34.80619" y="-511.68167" width="693.31764" height="381.92699"/></clipPath><clipPath id="bf4cff69-de09-425f-9a95-f20896503191"><rect class="f73dcc8c-3259-4eb8-be59-018c5d789185" x="700.33635" y="-511.68167" width="693.31764" height="381.92699"/></clipPath><clipPath id="ba645ecc-aa8a-4d4a-b078-b2eb976ef063"><rect class="f73dcc8c-3259-4eb8-be59-018c5d789185" x="-770.61521" y="-511.21545" width="693.31764" height="381.92699"/></clipPath></defs><g class="b6465e89-7db6-4e3e-b30e-ac851b66b13b"><rect class="b918ff97-7826-4b56-8f40-77722b0c2b6a" x="-34.80619" y="-1089.52396" width="693.31764" height="1306.03954"/></g><path class="afd004bf-a987-4634-980d-35078ed9b7f6" d="M17.03547.7505a.24132.24132,0,0,1,.23828.23828V7.957a.23594.23594,0,0,1-.23828.23291h-.72021a2.20456,2.20456,0,0,0-3.93933,0H6.25984a2.11288,2.11288,0,0,0-1.9917-1.2627A2.11312,2.11312,0,0,0,2.27705,8.19H.88288A.13043.13043,0,0,1,.75,8.06251V4.47022a.13043.13043,0,0,1,.13293-.12744H3.89717V.98878A.23594.23594,0,0,1,4.13008.7505H17.03547m0-.75H4.13008a.98562.98562,0,0,0-.98291.98828v2.604H.88288A.88032.88032,0,0,0,0,4.47022V8.06251A.88032.88032,0,0,0,.88288,8.94H2.83857a1.39,1.39,0,0,1,1.42957-1.2627A1.38879,1.38879,0,0,1,5.69795,8.94h7.22253a1.44311,1.44311,0,0,1,2.84973,0h1.26526a.9857.9857,0,0,0,.98828-.98291V.98878A.99028.99028,0,0,0,17.03547.0005Z"/><path class="afd004bf-a987-4634-980d-35078ed9b7f6" d="M4.31452,7.73634A1.20337,1.20337,0,1,1,3.11115,8.94,1.20486,1.20486,0,0,1,4.31452,7.73634m0-.75A1.95337,1.95337,0,1,0,6.26777,8.94,1.95369,1.95369,0,0,0,4.31452,6.98634Z"/><path class="afd004bf-a987-4634-980d-35078ed9b7f6" d="M14.33772,7.73634A1.20337,1.20337,0,1,1,13.13435,8.94a1.20489,1.20489,0,0,1,1.20337-1.20361m0-.75A1.95337,1.95337,0,1,0,16.29109,8.94a1.95368,1.95368,0,0,0-1.95337-1.95361Z"/><path class="afd004bf-a987-4634-980d-35078ed9b7f6" d="M4.36384,2.0669v1.523H3.89717V2.0669h.46667m.42029-.75H3.47688a.33006.33006,0,0,0-.32971.33008V4.01026a.32964.32964,0,0,0,.32971.32959H4.78413a.32964.32964,0,0,0,.32971-.32959V1.647a.33006.33006,0,0,0-.32971-.33008Z"/><line class="a6b6f84e-b2b0-492a-a393-829dc8edbbd0" x1="9.11515" y1="4.13745" x2="12.29205" y2="4.13745"/><line class="a6b6f84e-b2b0-492a-a393-829dc8edbbd0" x1="10.7036" y1="2.549" x2="10.7036" y2="5.72591"/></svg>