<?xml version="1.0" encoding="utf-8"?>
<!-- Generator: Adobe Illustrator 24.1.2, SVG Export Plug-In . SVG Version: 6.00 Build 0)  -->
<svg version="1.1" id="be6485e0-5a2d-4f83-a916-6215e07271cd"
	 xmlns="http://www.w3.org/2000/svg" xmlns:xlink="http://www.w3.org/1999/xlink" x="0px" y="0px" viewBox="0 0 7.9 7.9"
	 style="enable-background:new 0 0 7.9 7.9;" xml:space="preserve">
<style type="text/css">
	.st0{fill:#01A2E6;}
</style>
<path class="st0" d="M0.3,0h2.2c0.2,0,0.3,0.1,0.3,0.3v2.2c0,0.2-0.1,0.3-0.3,0.3H0.3C0.1,2.8,0,2.6,0,2.5V0.3C0,0.1,0.1,0,0.3,0z"
	/>
<path class="st0" d="M5.4,0h2.2c0.2,0,0.3,0.1,0.3,0.3v2.2c0,0.2-0.1,0.3-0.3,0.3H5.4c-0.2,0-0.3-0.1-0.3-0.3V0.3
	C5.1,0.1,5.2,0,5.4,0z"/>
<path class="st0" d="M5.4,5.1h2.2c0.2,0,0.3,0.1,0.3,0.3v2.2c0,0.2-0.1,0.3-0.3,0.3H5.4c-0.2,0-0.3-0.1-0.3-0.3V5.4
	C5.1,5.2,5.2,5.1,5.4,5.1z"/>
<path class="st0" d="M0.3,5.1h2.2c0.2,0,0.3,0.1,0.3,0.3v2.2c0,0.2-0.1,0.3-0.3,0.3H0.3C0.1,7.9,0,7.7,0,7.6V5.4
	C0,5.2,0.1,5.1,0.3,5.1z"/>
</svg>
