<svg id="f591945c-2d27-4550-a684-6525bda7394b" data-name="Layer 1" xmlns="http://www.w3.org/2000/svg" xmlns:xlink="http://www.w3.org/1999/xlink" viewBox="0 0 13.49954 13.60861"><defs><style>.a1e5b2ab-581f-44e3-8a5a-7681faff5e66,.fd75ce9b-b734-4b73-9121-fbcc9c3ad7de{fill:none;}.b6cc19f0-14e5-48a7-99fe-c913752667cf{clip-path:url(#ec026ffe-b781-4b5a-a86d-d899f04baf72);}.a280422c-6d36-4b7f-bf6b-79549ce94db1{fill:#fefefe;}.a541183e-f0c7-4d5c-aa11-ee08f59e1daa{clip-path:url(#f579d32b-6d15-4108-adc3-0b3dc2ce4df8);}.acb61a19-5d47-4d4a-953f-47e84b529f1b{clip-path:url(#a1c117ea-1847-4866-bdee-5c970c19a629);}.fd75ce9b-b734-4b73-9121-fbcc9c3ad7de{stroke:#fefefe;stroke-linecap:round;stroke-linejoin:round;stroke-width:0.75px;}</style><clipPath id="ec026ffe-b781-4b5a-a86d-d899f04baf72"><rect class="a1e5b2ab-581f-44e3-8a5a-7681faff5e66" x="-136.5969" y="-504.87736" width="693.31764" height="381.92699"/></clipPath><clipPath id="f579d32b-6d15-4108-adc3-0b3dc2ce4df8"><rect class="a1e5b2ab-581f-44e3-8a5a-7681faff5e66" x="598.54564" y="-504.87736" width="693.31764" height="381.92699"/></clipPath><clipPath id="a1c117ea-1847-4866-bdee-5c970c19a629"><rect class="a1e5b2ab-581f-44e3-8a5a-7681faff5e66" x="-872.40592" y="-504.41114" width="693.31764" height="381.92699"/></clipPath></defs><g class="b6cc19f0-14e5-48a7-99fe-c913752667cf"><rect class="a280422c-6d36-4b7f-bf6b-79549ce94db1" x="-136.5969" y="-1082.71966" width="693.31764" height="1306.03954"/></g><path class="fd75ce9b-b734-4b73-9121-fbcc9c3ad7de" d="M5.9547,2.86811A2.52673,2.52673,0,0,0,3.25815.38965,2.93888,2.93888,0,0,0,.375,3.56238c0,1.76033,1.37019,3.00436,2.12377,3.73641l4.23555,3.854L10.969,7.22045c1.33669-1.26376,2.15551-1.89774,2.15551-3.65807A3.19516,3.19516,0,0,0,9.92168.375c-1.66517,0-2.37274.94215-2.5275,2.55894"/><path class="a280422c-6d36-4b7f-bf6b-79549ce94db1" d="M5.95061,2.67254h0a.57491.57491,0,0,1,.57491.57491v.476a.0989.0989,0,0,1-.0989.0989h-.952a.0989.0989,0,0,1-.0989-.0989v-.476a.57491.57491,0,0,1,.57491-.57491Z"/><path class="a280422c-6d36-4b7f-bf6b-79549ce94db1" d="M7.44538,2.67254h0a.57491.57491,0,0,1,.57491.57491V3.733a.08935.08935,0,0,1-.08935.08935H6.95982A.08935.08935,0,0,1,6.87047,3.733V3.24745A.57491.57491,0,0,1,7.44538,2.67254Z"/><path class="fd75ce9b-b734-4b73-9121-fbcc9c3ad7de" d="M6.74977,11.15281H10.296a1.0404,1.0404,0,0,1,1.0404,1.0404h0a1.0404,1.0404,0,0,1-1.0404,1.0404H1.37508"/></svg>