<svg id="a6164432-5881-491f-9467-955542e26fb9" data-name="aacbc4b3-c86f-4649-b5b6-6b800e90c16c" xmlns="http://www.w3.org/2000/svg" viewBox="0 0 14.62 13.38"><defs><style>.a28805ff-39dd-4dee-b685-e44f187e522d,.bb8f73b2-ee03-4713-9984-0d86f5a2bac2{fill:none;stroke:#414042;stroke-linecap:round;stroke-linejoin:round;}.bb8f73b2-ee03-4713-9984-0d86f5a2bac2{stroke-width:0.75px;}.a2f468fd-e606-4bf5-93dc-3b0960e9fcfe{fill:#414042;}.a28805ff-39dd-4dee-b685-e44f187e522d{stroke-width:1.18px;}</style></defs><path class="bb8f73b2-ee03-4713-9984-0d86f5a2bac2" d="M5.72.38H9a.34.34,0,0,1,.35.3297q.0003.01014,0,.0203h0V3.11h-4V.73A.35.35,0,0,1,5.69943.37946Q5.70972.37945,5.72.38Z"/><path class="a2f468fd-e606-4bf5-93dc-3b0960e9fcfe" d="M13.26,3.54a.61.61,0,0,1,.61.61V12a.61.61,0,0,1-.61.61H1.36A.61.61,0,0,1,.75,12V4.15a.61.61,0,0,1,.61-.61h11.9m0-.75H1.36A1.36,1.36,0,0,0,0,4.15H0V12a1.36,1.36,0,0,0,1.36,1.36h11.9A1.36,1.36,0,0,0,14.62,12h0V4.15A1.36,1.36,0,0,0,13.26,2.79Z"/><line class="a28805ff-39dd-4dee-b685-e44f187e522d" x1="5.37" y1="8.09003" x2="9.36" y2="8.09003"/><line class="a28805ff-39dd-4dee-b685-e44f187e522d" x1="7.37" y1="6.09003" x2="7.37" y2="10.08003"/></svg>