<?xml version="1.0" encoding="utf-8"?>
<!-- Generator: Adobe Illustrator 24.1.2, SVG Export Plug-In . SVG Version: 6.00 Build 0)  -->
<svg version="1.1" id="aacbc4b3-c86f-4649-b5b6-6b800e90c16c"
	 xmlns="http://www.w3.org/2000/svg" xmlns:xlink="http://www.w3.org/1999/xlink" x="0px" y="0px" viewBox="0 0 14.6 13.4"
	 style="enable-background:new 0 0 14.6 13.4;" xml:space="preserve">
<style type="text/css">
	.st0{fill:none;stroke:#FEFEFE;stroke-width:0.75;stroke-linecap:round;stroke-linejoin:round;}
	.st1{fill:#FEFEFE;}
	.st2{fill:none;stroke:#FEFEFE;stroke-width:1.18;stroke-linecap:round;stroke-linejoin:round;}
</style>
<path class="st0" d="M5.7,0.4H9c0.2,0,0.3,0.1,0.4,0.3c0,0,0,0,0,0l0,0v2.4h-4V0.7C5.3,0.5,5.5,0.4,5.7,0.4C5.7,0.4,5.7,0.4,5.7,0.4
	z"/>
<path class="st1" d="M13.3,3.5c0.3,0,0.6,0.3,0.6,0.6V12c0,0.3-0.3,0.6-0.6,0.6H1.4c-0.3,0-0.6-0.3-0.6-0.6V4.2
	c0-0.3,0.3-0.6,0.6-0.6h0H13.3 M13.3,2.8H1.4C0.6,2.8,0,3.4,0,4.2c0,0,0,0,0,0V12c0,0.8,0.6,1.4,1.4,1.4h11.9c0.8,0,1.4-0.6,1.4-1.4
	l0,0V4.2C14.6,3.4,14,2.8,13.3,2.8z"/>
<line class="st2" x1="5.4" y1="8.1" x2="9.4" y2="8.1"/>
<line class="st2" x1="7.4" y1="6.1" x2="7.4" y2="10.1"/>
</svg>
