<svg id="e560f1f8-9d0b-4aca-9a3b-e50599534017" data-name="Layer 1" xmlns="http://www.w3.org/2000/svg" viewBox="0 0 75.18594 42.58302"><defs><style>.b4527329-ebd3-4155-9fe5-4ffc6080bcc6{fill:none;}.ac52798e-2fe3-4726-a48c-b1d35aad947d,.b4527329-ebd3-4155-9fe5-4ffc6080bcc6,.e7dc1cd5-f6f0-4d73-a79a-98f36bd39d8d{stroke:#414042;stroke-linecap:round;stroke-linejoin:round;stroke-width:1.04px;}.ac52798e-2fe3-4726-a48c-b1d35aad947d{fill:#fcfcfc;}.e7dc1cd5-f6f0-4d73-a79a-98f36bd39d8d{fill:#fefefe;}</style></defs><path class="b4527329-ebd3-4155-9fe5-4ffc6080bcc6" d="M10.49693,16.67337a20.34592,20.34592,0,0,0,9.31962-2.89585c4.62844-2.74058,7.888-6.92416,13.17125-8.73337a19.11871,19.11871,0,0,1,15.359,1.43223c4.726,2.5256,8.84348,6.51463,14.08081,8.00949a15.82158,15.82158,0,0,0,5.37223.56693"/><path class="b4527329-ebd3-4155-9fe5-4ffc6080bcc6" d="M10.49693,24.51473a20.34592,20.34592,0,0,0,9.31962-2.89585c4.62844-2.74058,7.888-6.92416,13.17125-8.73337a19.11867,19.11867,0,0,1,15.359,1.43224c4.726,2.5256,8.84348,6.51462,14.08081,8.00948a15.82133,15.82133,0,0,0,5.37223.56693"/><path class="b4527329-ebd3-4155-9fe5-4ffc6080bcc6" d="M10.49693,32.35609a20.34592,20.34592,0,0,0,9.31962-2.89585c4.62844-2.74058,7.888-6.92415,13.17125-8.73337a19.11867,19.11867,0,0,1,15.359,1.43224c4.726,2.5256,8.84348,6.51462,14.08081,8.00949a15.82157,15.82157,0,0,0,5.37223.56692"/><circle class="ac52798e-2fe3-4726-a48c-b1d35aad947d" cx="47.36737" cy="16.80924" r="2.9222"/><line class="b4527329-ebd3-4155-9fe5-4ffc6080bcc6" x1="50.28957" y1="16.80924" x2="50.28957" y2="4.54131"/><circle class="ac52798e-2fe3-4726-a48c-b1d35aad947d" cx="64.26511" cy="12.55659" r="2.3806"/><path class="b4527329-ebd3-4155-9fe5-4ffc6080bcc6" d="M66.58154,12.59134V1.17811a.65776.65776,0,0,1,.82621-.63582l6.66365,1.7654a.6972.6972,0,0,1,.51865.674V14.713"/><circle class="ac52798e-2fe3-4726-a48c-b1d35aad947d" cx="72.28534" cy="14.66027" r="2.3806"/><circle class="ac52798e-2fe3-4726-a48c-b1d35aad947d" cx="57.60773" cy="33.49208" r="2.13839"/><line class="b4527329-ebd3-4155-9fe5-4ffc6080bcc6" x1="59.74612" y1="33.49208" x2="59.74612" y2="24.51473"/><rect class="e7dc1cd5-f6f0-4d73-a79a-98f36bd39d8d" x="0.52" y="16.11574" width="5.8444" height="25.94728"/><rect class="e7dc1cd5-f6f0-4d73-a79a-98f36bd39d8d" x="6.3644" y="16.11574" width="5.8444" height="25.94728"/><rect class="e7dc1cd5-f6f0-4d73-a79a-98f36bd39d8d" x="12.20881" y="16.11574" width="5.8444" height="25.94728"/><rect class="e7dc1cd5-f6f0-4d73-a79a-98f36bd39d8d" x="18.05321" y="16.11574" width="5.8444" height="25.94728"/><rect class="e7dc1cd5-f6f0-4d73-a79a-98f36bd39d8d" x="23.89761" y="16.11574" width="5.8444" height="25.94728"/><rect class="e7dc1cd5-f6f0-4d73-a79a-98f36bd39d8d" x="29.74201" y="16.11574" width="5.8444" height="25.94728"/><rect class="e7dc1cd5-f6f0-4d73-a79a-98f36bd39d8d" x="15.89604" y="16.27832" width="4.23545" height="14.8457" rx="0.78807"/><rect class="e7dc1cd5-f6f0-4d73-a79a-98f36bd39d8d" x="4.24668" y="16.27832" width="4.23545" height="14.8457" rx="0.78807"/><rect class="e7dc1cd5-f6f0-4d73-a79a-98f36bd39d8d" x="21.77988" y="16.27832" width="4.23545" height="14.8457" rx="0.78807"/><rect class="e7dc1cd5-f6f0-4d73-a79a-98f36bd39d8d" x="27.62429" y="16.27832" width="4.23545" height="14.8457" rx="0.78807"/><path class="e7dc1cd5-f6f0-4d73-a79a-98f36bd39d8d" d="M.52,16.27835V31.12411H1.97915a.65848.65848,0,0,0,.65848-.65847V16.27835Z"/></svg>