<svg id="b6a2d2e1-ca96-4bbc-aec7-e6c02ecdb8a7" data-name="Layer 1" xmlns="http://www.w3.org/2000/svg" viewBox="0 0 15.14638 10.69145"><defs><style>.fea58467-a41c-4179-bf5f-e6457aaf11ac{fill:none;stroke:#fefefe;stroke-linecap:round;stroke-linejoin:round;stroke-width:1.04px;}</style></defs><path class="fea58467-a41c-4179-bf5f-e6457aaf11ac" d="M.52,2.13421a4.34167,4.34167,0,0,1,6.70213,0c3.632,3.632,7.40425,0,7.40425,0"/><path class="fea58467-a41c-4179-bf5f-e6457aaf11ac" d="M5.66144,3.95586A6.17351,6.17351,0,0,1,7.22213,5.123c3.632,3.632,7.40425,0,7.40425,0"/><path class="fea58467-a41c-4179-bf5f-e6457aaf11ac" d="M.52,5.123A4.98607,4.98607,0,0,1,3.50545,3.5269"/><path class="fea58467-a41c-4179-bf5f-e6457aaf11ac" d="M10.32,10.14992a6.05885,6.05885,0,0,0,4.30637-1.59268"/><path class="fea58467-a41c-4179-bf5f-e6457aaf11ac" d="M.52,8.55724a4.34168,4.34168,0,0,1,6.70213,0,6.2903,6.2903,0,0,0,1.12819.90655"/></svg>