<svg data-name="Layer 1" xmlns="http://www.w3.org/2000/svg" viewBox="0 0 145.215 27.647"><defs><style>.prefix__prefix__e3984e9d-976f-4d9c-ad98-072f127e2b06{fill:#fff}.prefix__prefix__a3843348-57c0-4b27-9148-4d3905762730{fill:#414042}</style></defs><path class="prefix__prefix__e3984e9d-976f-4d9c-ad98-072f127e2b06" d="M2.24 21.984a1.53 1.53 0 01-1.535-1.522v-9.118A1.53 1.53 0 012.24 9.823h6.451V2.508a1.799 1.799 0 011.79-1.803h32.754a1.805 1.805 0 011.804 1.803v17.687a1.799 1.799 0 01-1.804 1.789z"/><path class="prefix__prefix__a3843348-57c0-4b27-9148-4d3905762730" d="M43.236 1.41a1.1 1.1 0 011.099 1.099v17.686a1.094 1.094 0 01-1.1 1.085H2.242a.826.826 0 01-.832-.818v-9.118a.826.826 0 01.832-.817h7.155V2.51a1.094 1.094 0 011.086-1.1h32.754m0-1.409H10.482A2.502 2.502 0 007.987 2.51v6.609H2.241A2.234 2.234 0 000 11.344v9.118a2.234 2.234 0 002.24 2.227h40.996a2.502 2.502 0 002.508-2.494V2.509A2.514 2.514 0 0043.236 0z"/><path class="prefix__prefix__e3984e9d-976f-4d9c-ad98-072f127e2b06" d="M10.95 26.942a4.252 4.252 0 114.253-4.253 4.257 4.257 0 01-4.253 4.253z"/><path class="prefix__prefix__a3843348-57c0-4b27-9148-4d3905762730" d="M10.95 19.14a3.548 3.548 0 11-3.548 3.55 3.552 3.552 0 013.548-3.55m0-1.408a4.958 4.958 0 104.958 4.957 4.957 4.957 0 00-4.958-4.957z"/><path class="prefix__prefix__e3984e9d-976f-4d9c-ad98-072f127e2b06" d="M36.389 26.942a4.252 4.252 0 114.253-4.253 4.257 4.257 0 01-4.253 4.253z"/><path class="prefix__prefix__a3843348-57c0-4b27-9148-4d3905762730" d="M36.39 19.14a3.548 3.548 0 11-3.55 3.55 3.552 3.552 0 013.55-3.55m0-1.408a4.958 4.958 0 104.957 4.957 4.958 4.958 0 00-4.958-4.957z"/><path class="prefix__prefix__e3984e9d-976f-4d9c-ad98-072f127e2b06" d="M16.647 3.496h25.298a.072.072 0 01.072.072V9.76a.071.071 0 01-.07.072h-25.3a.071.071 0 01-.07-.072V3.567a.071.071 0 01.07-.071z"/><path class="prefix__prefix__a3843348-57c0-4b27-9148-4d3905762730" d="M41.349 4.165v5H17.245v-5h24.104m.597-1.337H16.647a.74.74 0 00-.74.74V9.76a.74.74 0 00.74.74h25.3a.74.74 0 00.739-.74V3.568a.74.74 0 00-.74-.74z"/><path class="prefix__prefix__e3984e9d-976f-4d9c-ad98-072f127e2b06" d="M8.824 3.496h3.317a.169.169 0 01.17.169v6a.168.168 0 01-.17.168H8.826a.169.169 0 01-.169-.17V3.665a.168.168 0 01.168-.168z"/><path class="prefix__prefix__a3843348-57c0-4b27-9148-4d3905762730" d="M11.642 4.165v5H9.324v-5h2.318m.5-1.337H8.824a.837.837 0 00-.837.837v5.999a.837.837 0 00.837.837h3.318a.837.837 0 00.837-.837V3.665a.837.837 0 00-.837-.837z"/><path d="M53.477 26.661h10.171m-4.915-6.029h12.772m63.668 6.029h6.183m-66.698-6.029h2.137m11.454 0h2.137m-17.389 6.029h-5.812m9.607 0h53.328" stroke="#414042" stroke-linecap="round" stroke-linejoin="round" stroke-width="1.366" fill="#fff"/></svg>