<svg id="b792c50d-24f4-448c-be47-309da10d7f87" data-name="Layer 1" xmlns="http://www.w3.org/2000/svg" xmlns:xlink="http://www.w3.org/1999/xlink" viewBox="0 0 145.21524 27.64673"><defs><style>.b71cbe50-11af-4c6c-9559-4465fb303828{fill:none;}.fed8d70d-dadb-4127-ad28-68a059bacd56{clip-path:url(#b77e7b27-8f34-4fda-9273-c17a3a7ba205);}.e79af599-b4c0-492b-b20d-b5a2bd4a253f{clip-path:url(#b3136ce9-819d-41b4-9b94-ed900c9d21b9);}.e3984e9d-976f-4d9c-ad98-072f127e2b06,.eff101b3-0d9b-43c5-9ead-2e4922308a25{fill:#fff;}.a3843348-57c0-4b27-9148-4d3905762730{fill:#414042;}.eff101b3-0d9b-43c5-9ead-2e4922308a25{stroke:#414042;stroke-linecap:round;stroke-linejoin:round;stroke-width:1.36599px;}</style><clipPath id="b77e7b27-8f34-4fda-9273-c17a3a7ba205"><rect class="b71cbe50-11af-4c6c-9559-4465fb303828" x="-346.95585" y="-1247.47115" width="233.75906" height="493.74709"/></clipPath><clipPath id="b3136ce9-819d-41b4-9b94-ed900c9d21b9"><rect class="b71cbe50-11af-4c6c-9559-4465fb303828" x="-653.35004" y="-1248.5326" width="233.75906" height="493.74709"/></clipPath></defs><path class="e3984e9d-976f-4d9c-ad98-072f127e2b06" d="M2.24072,21.98389A1.53071,1.53071,0,0,1,.70459,20.4624V11.34424A1.53071,1.53071,0,0,1,2.24072,9.82275H8.69214V2.5083A1.79853,1.79853,0,0,1,10.48193.70459H43.23584A1.80536,1.80536,0,0,1,45.03955,2.5083V20.19482a1.79854,1.79854,0,0,1-1.80371,1.78907Z"/><path class="a3843348-57c0-4b27-9148-4d3905762730" d="M43.23584,1.40918A1.10054,1.10054,0,0,1,44.335,2.50854V20.19482A1.09353,1.09353,0,0,1,43.23584,21.28H2.24072a.82572.82572,0,0,1-.83154-.81763V11.34448a.82552.82552,0,0,1,.83154-.81738H9.39648V2.50854a1.09363,1.09363,0,0,1,1.08545-1.09936H43.23584m0-1.40918H10.48193A2.50238,2.50238,0,0,0,7.9873,2.50854V9.11792H2.24072A2.23426,2.23426,0,0,0,0,11.34448V20.4624a2.23431,2.23431,0,0,0,2.24072,2.22681H43.23584a2.502,2.502,0,0,0,2.5083-2.49439V2.50854A2.51405,2.51405,0,0,0,43.23584,0Z"/><path class="e3984e9d-976f-4d9c-ad98-072f127e2b06" d="M10.9502,26.94189A4.25244,4.25244,0,1,1,15.20313,22.689,4.2574,4.2574,0,0,1,10.9502,26.94189Z"/><path class="a3843348-57c0-4b27-9148-4d3905762730" d="M10.9502,19.14087a3.54834,3.54834,0,1,1-3.54834,3.54834,3.55239,3.55239,0,0,1,3.54834-3.54834m0-1.40918a4.95752,4.95752,0,1,0,4.95751,4.95752,4.95726,4.95726,0,0,0-4.95751-4.95752Z"/><path class="e3984e9d-976f-4d9c-ad98-072f127e2b06" d="M36.38892,26.94189A4.25244,4.25244,0,1,1,40.64185,22.689,4.2574,4.2574,0,0,1,36.38892,26.94189Z"/><path class="a3843348-57c0-4b27-9148-4d3905762730" d="M36.38916,19.14087a3.54834,3.54834,0,1,1-3.54883,3.54834,3.55239,3.55239,0,0,1,3.54883-3.54834m0-1.40918a4.95752,4.95752,0,1,0,4.95752,4.95752,4.95769,4.95769,0,0,0-4.95752-4.95752Z"/><path class="e3984e9d-976f-4d9c-ad98-072f127e2b06" d="M16.64722,3.49561H41.94507a.07227.07227,0,0,1,.07227.07227V9.76123a.07129.07129,0,0,1-.07129.07129H16.64746a.07129.07129,0,0,1-.07129-.07129V3.56665A.071.071,0,0,1,16.64722,3.49561Z"/><path class="a3843348-57c0-4b27-9148-4d3905762730" d="M41.34863,4.16479V9.16406h-24.104V4.16479h24.104m.59766-1.33666H16.64746a.73951.73951,0,0,0-.73975.7395V9.761a.73973.73973,0,0,0,.73975.73974H41.94629a.73962.73962,0,0,0,.73926-.73974V3.56763a.73941.73941,0,0,0-.73926-.7395Z"/><path class="e3984e9d-976f-4d9c-ad98-072f127e2b06" d="M8.82446,3.49561h3.31689a.16895.16895,0,0,1,.16895.16895V9.66406a.16846.16846,0,0,1-.16846.16846H8.825A.16895.16895,0,0,1,8.656,9.66357V3.66406A.16846.16846,0,0,1,8.82446,3.49561Z"/><path class="a3843348-57c0-4b27-9148-4d3905762730" d="M11.64209,4.16479V9.16406H9.32422V4.16479h2.31787m.5-1.33666H8.82422A.83714.83714,0,0,0,7.9873,3.665V9.66382a.83714.83714,0,0,0,.83692.83691h3.31787a.83714.83714,0,0,0,.83691-.83691V3.665a.83714.83714,0,0,0-.83691-.83691Z"/><line class="eff101b3-0d9b-43c5-9ead-2e4922308a25" x1="53.47745" y1="26.66072" x2="63.64775" y2="26.66072"/><line class="eff101b3-0d9b-43c5-9ead-2e4922308a25" x1="58.73312" y1="20.63215" x2="71.50498" y2="20.63215"/><line class="eff101b3-0d9b-43c5-9ead-2e4922308a25" x1="135.1725" y1="26.66072" x2="141.35564" y2="26.66072"/><line class="eff101b3-0d9b-43c5-9ead-2e4922308a25" x1="144.53225" y1="26.66072" x2="144.53225" y2="26.66072"/><line class="eff101b3-0d9b-43c5-9ead-2e4922308a25" x1="74.65776" y1="20.63215" x2="76.79455" y2="20.63215"/><line class="eff101b3-0d9b-43c5-9ead-2e4922308a25" x1="88.24878" y1="20.63215" x2="90.38557" y2="20.63215"/><line class="eff101b3-0d9b-43c5-9ead-2e4922308a25" x1="72.99661" y1="26.66072" x2="67.18516" y2="26.66072"/><line class="eff101b3-0d9b-43c5-9ead-2e4922308a25" x1="76.79225" y1="26.66072" x2="130.11992" y2="26.66072"/></svg>