<svg xmlns="http://www.w3.org/2000/svg" viewBox="0 0 512.76898 518.44601"><defs><style>.a{fill:#d4ead4;}.b{fill:#4b6b4b;}.c{fill:#4fad4f;}.d{fill:#9f282e;}.e{fill:#4b4329;}.f{fill:#d39a41;}.g{fill:#51af51;}.h{fill:#72bf72;}.i{fill:#aad9aa;}.j{fill:#b6363c;}.k{opacity:0.49;}.l{fill:#fff;}.m{fill:#45462d;}.n{fill:#71bf71;}</style></defs><circle class="a" cx="233.05725" cy="256.71795" r="233.05725"/><path class="b" d="M193.93317,35.82393a7.74251,7.74251,0,0,1,1.17529,2.604,10.61323,10.61323,0,0,1,.32422,2.604,10.42307,10.42307,0,0,1-.32031,2.604,7.66037,7.66037,0,0,1-1.1792,2.604,7.66216,7.66216,0,0,1-1.17969-2.604,10.44564,10.44564,0,0,1-.31982-2.604,10.61323,10.61323,0,0,1,.32422-2.604A7.74271,7.74271,0,0,1,193.93317,35.82393Z"/><path class="b" d="M232.84821,66.14857a7.74466,7.74466,0,0,1-.36963,2.83294,10.64067,10.64067,0,0,1-1.09375,2.38528,10.46349,10.46349,0,0,1-1.6416,2.0465,7.65781,7.65781,0,0,1-2.37256,1.59455,7.648,7.648,0,0,1,.36621-2.83508,10.44567,10.44567,0,0,1,1.09717-2.38315,10.62147,10.62147,0,0,1,1.645-2.04435A7.73734,7.73734,0,0,1,232.84821,66.14857Z"/><path class="b" d="M239.22956,117.52184a7.74069,7.74069,0,0,1-1.67627,2.3135,10.63683,10.63683,0,0,1-2.09912,1.5747,10.44469,10.44469,0,0,1-2.41895,1.01553,7.65663,7.65663,0,0,1-2.8457.26965,7.65674,7.65674,0,0,1,1.67383-2.317,10.45917,10.45917,0,0,1,2.10107-1.57117,10.63841,10.63841,0,0,1,2.42139-1.012A7.73967,7.73967,0,0,1,239.22956,117.52184Z"/><path class="b" d="M230.18952,253.38751a7.74906,7.74906,0,0,1-1.67627,2.31351,10.65027,10.65027,0,0,1-2.09912,1.57468,10.44818,10.44818,0,0,1-2.41944,1.01553,7.656,7.656,0,0,1-2.8457.26965,7.65758,7.65758,0,0,1,1.67432-2.317,10.44388,10.44388,0,0,1,2.10107-1.57117,10.64441,10.64441,0,0,1,2.4209-1.012A7.743,7.743,0,0,1,230.18952,253.38751Z"/><path class="b" d="M234.70954,308.14154a7.74906,7.74906,0,0,1-1.67627,2.31351,10.63594,10.63594,0,0,1-2.09912,1.57468,10.45345,10.45345,0,0,1-2.41895,1.01553,7.65884,7.65884,0,0,1-2.84619.26968,7.6659,7.6659,0,0,1,1.67432-2.317,10.44388,10.44388,0,0,1,2.10107-1.57117,10.63891,10.63891,0,0,1,2.42139-1.012A7.73925,7.73925,0,0,1,234.70954,308.14154Z"/><path class="b" d="M133.24616,312.5477a7.74558,7.74558,0,0,1-2.604,1.17539,10.6376,10.6376,0,0,1-2.604.32415,10.443,10.443,0,0,1-2.604-.3201,7.65767,7.65767,0,0,1-2.604-1.17944,7.65739,7.65739,0,0,1,2.604-1.17947,10.443,10.443,0,0,1,2.604-.3201,10.64,10.64,0,0,1,2.604.32416A7.74485,7.74485,0,0,1,133.24616,312.5477Z"/><path class="b" d="M119.97663,269.27909a7.74133,7.74133,0,0,1-2.604,1.17538,10.63461,10.63461,0,0,1-2.604.32416,10.44714,10.44714,0,0,1-2.604-.3201,7.66223,7.66223,0,0,1-2.604-1.17944,7.66159,7.66159,0,0,1,2.604-1.17948,10.4471,10.4471,0,0,1,2.604-.32007,10.636,10.636,0,0,1,2.604.32413A7.74126,7.74126,0,0,1,119.97663,269.27909Z"/><path class="b" d="M108.09675,201.207a7.74371,7.74371,0,0,1-2.8042.54853,10.63556,10.63556,0,0,1-2.60889-.28016,10.44651,10.44651,0,0,1-2.46191-.90731,7.65155,7.65155,0,0,1-2.26465-1.74387,7.65585,7.65585,0,0,1,2.80468-.55249,10.44243,10.44243,0,0,1,2.60791.28412,10.63794,10.63794,0,0,1,2.46094.91125A7.74719,7.74719,0,0,1,108.09675,201.207Z"/><path class="b" d="M113.16657,153.39688a7.74321,7.74321,0,0,1-2.8042.54853,10.63464,10.63464,0,0,1-2.60889-.28016,10.44651,10.44651,0,0,1-2.46191-.90731,7.65139,7.65139,0,0,1-2.26465-1.74388,7.65641,7.65641,0,0,1,2.80469-.55246,10.4434,10.4434,0,0,1,2.60791.28408,10.63909,10.63909,0,0,1,2.46094.91127A7.74694,7.74694,0,0,1,113.16657,153.39688Z"/><path class="b" d="M149.6861,66.84324a7.73727,7.73727,0,0,1-2.76172-.73,10.63658,10.63658,0,0,1-2.22558-1.39065A10.45987,10.45987,0,0,1,142.88,62.83194a7.6477,7.6477,0,0,1-1.27686-2.55754,7.65953,7.65953,0,0,1,2.76465.72688,10.45616,10.45616,0,0,1,2.22266,1.3938,10.65131,10.65131,0,0,1,1.8164,1.89377A7.73587,7.73587,0,0,1,149.6861,66.84324Z"/><path class="c" d="M234.70944,165.9497a123.22514,123.22514,0,0,1,41.54731,2.48861c22.08636,5.28828,36.08475,9.02118,37.329,18.35344s-17.10915,13.9984-47.28346,14.30947-33.24509,0-33.24509,0Z"/><polygon class="d" points="93.789 130.383 114.556 137.97 133.246 82.952 93.789 130.383"/><path class="e" d="M129.78443,412.28448s-.37452-21.19687,65.32348-26.36091,70.44485,14.09523,70.44485,14.09523S209.05392,428.60421,129.78443,412.28448Z"/><path class="f" d="M147.12555,451.61923,169.96509,518.446l73.17109-2.11477,9.305-62.59724,6.07014-5.07545s8.73326-30.45271,7.04144-48.63975c0,0-60.05951,28.7609-135.76833,12.26568,0,0,5.92136,33.41339,10.99681,38.06589Z"/><path class="g" d="M162.41953,408.606S95.82638,249.68128,106.04005,185.13086s19.61026-102.12571,43.71453-124.6013,67.81879-25.33542,80.48374,15.92782-2.45128,59.64785-6.1282,105.40511-2.45128,60.0564,1.22564,94.78289,2.491,47.8,7.76239,78.84956,4.90257,44.52386,4.90257,44.52386S208.17679,408.606,162.41953,408.606Z"/><path class="h" d="M162.85174,389.82264c-9.65323-25.37624-18.31128-51.18468-26.27219-77.136-6.43741-20.98494-12.39635-42.16906-16.92383-63.6564-6.03518-28.64287-3.83745-58.3452.91393-87.00141,6.50724-39.2461,13.23029-103.64456,64.43254-107.88984,12.8647-1.06663,30.36052,2.85228,34.39022,17.09782,5.27074,18.63282,8.14568,46.90315,0,103.923s-6.22906,69.47793,1.43747,132.72681,14.48773,79.06109,3.65018,85.7693-25.2123,10.33-43.4203,6.36289S162.85175,389.82265,162.85174,389.82264Z"/><path class="i" d="M199.52565,387.48618s5.13535-9.92835,10.27071-14.03664,7.53186-5.82007,10.27071-3.76592,4.793,9.92835,2.05415,13.35192-5.82007,5.47771-12.66722,5.82007S199.52565,387.48618,199.52565,387.48618Z"/><circle cx="188.92639" cy="122.5023" r="3.96107"/><circle cx="213.63594" cy="122.5023" r="3.96107"/><path class="j" d="M234.70944,97.77377l-3.34072-20.15692c-41.667,14.76368-87.855-9.78473-88.28568-10.03961l-54.68161,56.186,23.19228,7.67515,18.8764-43.79874c7.61182,4.29217,36.24431,18.85717,68.53191,18.85717C210.49811,106.4968,221.7026,103.39541,234.70944,97.77377Z"/><g class="k"><path class="l" d="M173.40436,84.71172,144.064,104.35687l15.84424-31.55554a9.30752,9.30752,0,0,1,16.63574,8.353A9.41238,9.41238,0,0,1,173.40436,84.71172Z"/></g><path class="l" d="M124.37665,101.77824S147.29591,122.421,159.7818,129.635s27.65569,10.52017,45.7816,8.33448,27.49385-9.11294,27.49385-9.11294v2.5818s-5.82628.47848-8.34882,10.96-2.21971,23.02953-2.21971,23.02953-24.56307,12.28385-67.12863-3.32957l-45.79931,1.78157v-4.83368l45.799,1.10985c2.04368.04953,4.75458-4.663,5.35636-6.09329,2.779-6.60529,1.98266-17.61053-3.709-22.62442-5.82677-5.13294-34.59181-25.10933-34.59181-25.10933Z"/><path class="g" d="M125.11814,195.66411s-8.59272-3.55611-15.55736,14.22443-4.87848,20.94151,3.95651,26.47324,36.95035,21.82253,73.24,19.361,44.53822-24.49762,47.95211-32.79521,14.87244-42.27815,16.45293-58.4782,3.161-28.09023-1.58049-33.011-16.2-2.55-26.47324,19.972-25.29609,50.97086-34.18225,56.10746S125.11814,195.66411,125.11814,195.66411Z"/><path class="m" d="M127.127,99.5078a7.73813,7.73813,0,0,1-2.8501.19231,10.6349,10.6349,0,0,1-2.55322-.60538,10.444,10.444,0,0,1-2.32861-1.20908,7.65858,7.65858,0,0,1-2.02832-2.01436,7.65785,7.65785,0,0,1,2.852-.1961,10.44347,10.44347,0,0,1,2.55175.60917,10.63727,10.63727,0,0,1,2.32715,1.21288A7.73679,7.73679,0,0,1,127.127,99.5078Z"/><path class="l" d="M322.59127,171.94847a45.1052,45.1052,0,0,1,15.75489-8.371,24.275,24.275,0,0,1,9.56006-.95289,37.27966,37.27966,0,0,1,8.96,2.59518c5.50293,2.26785,10.35693,4.8568,15.5708,5.88272l1.96142.32382,1.98926.17206c.667.025,1.33594-.00241,2.01709.01412.69238.00134,1.437-.06023,2.15527-.08054l4.34912-.163c.72608-.02261,1.45215-.05684,2.16895-.11644.3623-.01855.72314-.04761,1.07324-.09943a2.8111,2.8111,0,0,0,.50391-.10876c.07715-.02791.14892-.05637.14892-.07532-.00341-.0495-.09961-.11288-.17919-.14738a.35855.35855,0,0,1,.28906.08984c.05371.08014.019.14278-.01123.21115a1.00438,1.00438,0,0,1-.10645.12532,2.83747,2.83747,0,0,1-.47949.34343c-.3291.20012-.665.37372-1.00293.53745-.68115.31824-1.37109.5945-2.062.86773-1.38379.54973-2.78662.99932-4.19092,1.44133-.71191.2076-1.38965.42673-2.1333.61265-.7583.17027-1.52588.34588-2.30078.48419-.77783.09543-1.56494.18214-2.35449.24418-.78516.00873-1.58057.03632-2.37159.01079a33.59734,33.59734,0,0,1-9.11718-1.82365c-2.88037-.95526-5.57569-2.13735-8.18311-3.19246a44.36013,44.36013,0,0,0-7.60254-2.54477,24.78168,24.78168,0,0,0-7.70263-.0466,75.16893,75.16893,0,0,0-8.26221,1.569C328.24411,170.40681,325.45163,171.17345,322.59127,171.94847Z"/><path class="l" d="M322.59127,203.775a45.1052,45.1052,0,0,1,15.75489-8.371,24.27522,24.27522,0,0,1,9.56006-.95289,37.27966,37.27966,0,0,1,8.96,2.59518c5.50293,2.26786,10.35693,4.8568,15.5708,5.88272l1.96142.32383,1.98926.172c.667.025,1.33594-.00241,2.01709.01412.69238.00134,1.437-.06023,2.15527-.08054l4.34912-.163c.72608-.02261,1.45215-.05684,2.16895-.11644.3623-.01855.72314-.0476,1.07324-.09942a2.812,2.812,0,0,0,.50391-.10877c.07715-.02791.14892-.05636.14892-.07531-.00341-.0495-.09961-.11289-.17919-.14739a.35858.35858,0,0,1,.28906.08984c.05371.08014.019.14278-.01123.21116a1.0051,1.0051,0,0,1-.10645.12532,2.838,2.838,0,0,1-.47949.34343c-.3291.20011-.665.37371-1.00293.53744-.68115.31824-1.37109.5945-2.062.86774-1.38379.54973-2.78662.99931-4.19092,1.44133-.71191.20759-1.38965.42672-2.1333.61264-.7583.17027-1.52588.34588-2.30078.48419-.77783.09543-1.56494.18214-2.35449.24419-.78516.00872-1.58057.03631-2.37159.01078a33.59734,33.59734,0,0,1-9.11718-1.82365c-2.88037-.95526-5.57569-2.13734-8.18311-3.19246a44.36013,44.36013,0,0,0-7.60254-2.54477,24.78168,24.78168,0,0,0-7.70263-.0466,75.17135,75.17135,0,0,0-8.26221,1.56905C328.24411,202.23334,325.45163,203,322.59127,203.775Z"/><path class="l" d="M371.62718,189.9636a45.1052,45.1052,0,0,1,15.75489-8.371,24.275,24.275,0,0,1,9.56-.95289,37.27961,37.27961,0,0,1,8.96,2.59518c5.50292,2.26785,10.35693,4.8568,15.5708,5.88272l1.96142.32382,1.98926.17206c.667.025,1.33594-.00241,2.01709.01412.69238.00134,1.437-.06023,2.15527-.08054l4.34912-.163c.72608-.02261,1.45215-.05684,2.16895-.11644.3623-.01855.72314-.04761,1.07324-.09942a2.812,2.812,0,0,0,.50391-.10877c.07715-.02791.14892-.05637.14892-.07532-.00341-.0495-.09961-.11288-.1792-.14738a.35857.35857,0,0,1,.28907.08984c.05371.08014.019.14278-.01123.21115a1.00438,1.00438,0,0,1-.10645.12532,2.83787,2.83787,0,0,1-.47949.34343c-.3291.20012-.665.37372-1.00293.53745-.68115.31824-1.37109.5945-2.062.86774-1.38379.54972-2.78662.99931-4.19092,1.44133-.71191.20759-1.38965.42672-2.1333.61264-.7583.17027-1.52588.34588-2.30078.48419-.77783.09543-1.56494.18214-2.35449.24418-.78516.00873-1.58057.03632-2.37159.01079a33.59734,33.59734,0,0,1-9.11718-1.82365c-2.88038-.95526-5.57569-2.13735-8.18311-3.19246a44.36013,44.36013,0,0,0-7.60254-2.54477,24.78174,24.78174,0,0,0-7.70264-.0466,75.17391,75.17391,0,0,0-8.2622,1.569C377.28,188.42194,374.48753,189.18858,371.62718,189.9636Z"/><polygon class="h" points="432.539 104.485 461.122 101.401 432.822 106.465 432.539 104.485"/><circle class="h" cx="464.27087" cy="102.80902" r="19.11177"/><circle class="h" cx="462.83033" cy="69.92864" r="3.86872"/><circle class="h" cx="491.13434" cy="96.0176" r="2.88424"/><circle class="h" cx="432.68034" cy="105.69326" r="2.88424"/><circle class="h" cx="441.44844" cy="83.69725" r="2.48102"/><circle class="h" cx="492.74183" cy="115.70081" r="2.48102"/><circle class="h" cx="479.26169" cy="81.39808" r="2.29917"/><circle class="h" cx="474.66335" cy="129.18422" r="2.29917"/><circle class="h" cx="446.22864" cy="117.99999" r="2.29917"/><circle class="h" cx="458.96161" cy="133.57429" r="3.39957"/><circle class="n" cx="482.18165" cy="119.61454" r="1.46135"/><circle class="n" cx="453.40813" cy="79.75488" r="1.46135"/><polygon class="n" points="441.999 83.415 453.408 92.141 440.898 85.085 441.999 83.415"/><polygon class="h" points="453.858 79.537 457.485 88.196 452.958 79.972 453.858 79.537"/><polygon class="h" points="445.874 117.988 452.842 111.698 446.583 118.694 445.874 117.988"/><polygon class="h" points="464.511 70.898 463.011 94.695 461.511 70.898 464.511 70.898"/><polygon class="h" points="479.556 82.5 474.663 88.196 477.879 81.41 479.556 82.5"/><polygon class="h" points="481.805 119.944 477.282 114.013 482.558 119.285 481.805 119.944"/><polygon class="h" points="489.658 97.176 482.181 97.867 489.211 95.227 489.658 97.176"/><polygon class="h" points="491.288 116.812 481.024 110.521 492.188 115.025 491.288 116.812"/><polygon class="h" points="473.707 129.477 471.151 117.713 475.619 128.891 473.707 129.477"/><polygon class="h" points="457.461 132.453 461.385 121.071 459.4 132.945 457.461 132.453"/><circle class="g" cx="455.00054" cy="102.80902" r="6.2838"/><circle class="g" cx="466.69905" cy="107.48534" r="3.86872"/><circle class="g" cx="463.01107" cy="92.91416" r="3.10344"/><circle class="g" cx="468.76346" cy="97.86666" r="2.64895"/><circle class="g" cx="469.66562" cy="91.55751" r="1.7468"/><polygon class="h" points="486.055 1.332 493.37 16.024 485.051 1.876 486.055 1.332"/><circle class="h" cx="493.24047" cy="17.98961" r="10.91111"/><circle class="h" cx="510.55968" cy="10.70266" r="2.20869"/><circle class="h" cx="502.20004" cy="31.02694" r="1.64664"/><circle class="h" cx="485.43613" cy="1.64709" r="1.64664"/><circle class="h" cx="498.95066" cy="1.98288" r="1.41644"/><circle class="h" cx="491.97988" cy="35.78809" r="1.41644"/><circle class="h" cx="507.67485" cy="21.77309" r="1.31262"/><circle class="h" cx="481.17816" cy="28.7805" r="1.31262"/><circle class="h" cx="481.53168" cy="11.3398" r="1.31262"/><circle class="h" cx="475.71615" cy="21.24348" r="1.94085"/><circle class="n" cx="487.79177" cy="30.90956" r="0.8343"/><circle class="n" cx="503.43143" cy="7.60506" r="0.8343"/><polygon class="n" points="499.211 2.222 496.799 10.06 498.099 1.963 499.211 2.222"/><polygon class="h" points="503.637 7.803 499.72 11.46 503.226 7.407 503.637 7.803"/><polygon class="h" points="481.468 11.148 486.216 13.632 481.231 11.667 481.468 11.148"/><polygon class="h" points="510.374 11.795 497.335 15.707 509.779 10.188 510.374 11.795"/><polygon class="h" points="507.144 22.149 503.124 20.658 507.395 21.035 507.144 22.149"/><polygon class="h" points="487.541 30.773 489.82 27.176 488.043 31.046 487.541 30.773"/><polygon class="h" points="501.288 30.466 499.436 26.6 502.242 29.84 501.288 30.466"/><polygon class="h" points="491.097 35.23 492.431 28.488 492.232 35.358 491.097 35.23"/><polygon class="h" points="480.832 28.327 486.624 24.627 481.524 29.234 480.832 28.327"/><polygon class="h" points="476.02 20.218 482.891 20.063 476.14 21.353 476.02 20.218"/><circle class="g" cx="491.40343" cy="13.02613" r="3.58749"/><circle class="g" cx="491.21787" cy="20.21637" r="2.20869"/><circle class="g" cx="498.28869" cy="15.3543" r="1.77179"/><circle class="g" cx="496.77695" cy="19.41563" r="1.51231"/><circle class="g" cx="500.33374" cy="18.64842" r="0.99727"/><polygon class="h" points="364.995 38.045 376.528 46.603 364.427 38.867 364.995 38.045"/><circle class="h" cx="377.20674" cy="48.18758" r="9.54778"/><circle class="h" cx="387.82509" cy="35.63409" r="1.93272"/><circle class="h" cx="389.36642" cy="54.80266" r="1.4409"/><circle class="h" cx="364.63711" cy="38.53625" r="1.4409"/><circle class="h" cx="375.31146" cy="33.43756" r="1.23946"/><circle class="h" cx="383.28336" cy="62.57018" r="1.23946"/><circle class="h" cx="389.96611" cy="45.41316" r="1.14861"/><circle class="h" cx="372.07857" cy="61.3889" r="1.14861"/><circle class="h" cx="365.43636" cy="47.64516" r="1.14861"/><circle class="h" cx="364.82867" cy="57.67667" r="1.69834"/><circle class="n" cx="378.08159" cy="60.42622" r="0.73006"/><circle class="n" cx="381.03647" cy="36.04546" r="0.73006"/><polygon class="n" points="375.609 33.521 376.837 40.59 374.639 33.76 375.609 33.521"/><polygon class="h" points="381.275 36.118 379.671 40.525 380.797 35.973 381.275 36.118"/><polygon class="h" points="365.311 47.521 370 47.575 365.331 48.02 365.311 47.521"/><polygon class="h" points="388.113 36.56 379.495 44.783 387.012 35.543 388.113 36.56"/><polygon class="h" points="389.701 45.917 385.974 46.349 389.455 44.949 389.701 45.917"/><polygon class="h" points="377.832 60.419 378.183 56.71 378.331 60.433 377.832 60.419"/><polygon class="h" points="388.432 54.727 385.455 52.446 388.929 53.86 388.432 54.727"/><polygon class="h" points="382.374 62.485 380.739 56.697 383.309 62.135 382.374 62.485"/><polygon class="h" points="371.628 61.172 374.679 55.989 372.529 61.606 371.628 61.172"/><polygon class="h" points="364.658 56.756 369.957 53.91 365.203 57.594 364.658 56.756"/><circle class="g" cx="373.80509" cy="45.04479" r="3.13924"/><circle class="g" cx="376.51239" cy="50.7267" r="1.93272"/><circle class="g" cx="380.09898" cy="44.12967" r="1.5504"/><circle class="g" cx="380.53079" cy="47.89709" r="1.32335"/><circle class="g" cx="383.00072" cy="45.88785" r="0.87266"/><polygon class="h" points="470.363 187.077 481.897 195.635 469.796 187.899 470.363 187.077"/><circle class="h" cx="482.57536" cy="197.21945" r="9.54778"/><circle class="h" cx="493.19372" cy="184.66596" r="1.93272"/><circle class="h" cx="494.73504" cy="203.83453" r="1.4409"/><circle class="h" cx="470.00573" cy="187.56813" r="1.4409"/><circle class="h" cx="480.68008" cy="182.46943" r="1.23946"/><circle class="h" cx="488.65198" cy="211.60205" r="1.23946"/><circle class="h" cx="495.33473" cy="194.44503" r="1.14861"/><circle class="h" cx="477.44719" cy="210.42078" r="1.14861"/><circle class="h" cx="470.80498" cy="196.67703" r="1.14861"/><circle class="h" cx="470.19729" cy="206.70854" r="1.69834"/><circle class="n" cx="483.45022" cy="209.45809" r="0.73006"/><circle class="n" cx="486.40509" cy="185.07733" r="0.73006"/><polygon class="n" points="480.978 182.553 482.206 189.622 480.008 182.792 480.978 182.553"/><polygon class="h" points="486.644 185.15 485.04 189.557 486.166 185.004 486.644 185.15"/><polygon class="h" points="470.679 196.553 475.368 196.607 470.7 197.052 470.679 196.553"/><polygon class="h" points="493.482 185.591 484.864 193.815 492.381 184.574 493.482 185.591"/><polygon class="h" points="495.069 194.949 491.343 195.38 494.823 193.981 495.069 194.949"/><polygon class="h" points="483.201 209.451 483.551 205.742 483.7 209.465 483.201 209.451"/><polygon class="h" points="493.801 203.759 490.823 201.478 494.297 202.892 493.801 203.759"/><polygon class="h" points="487.742 211.517 486.108 205.729 488.678 211.166 487.742 211.517"/><polygon class="h" points="476.997 210.204 480.047 205.021 477.897 210.638 476.997 210.204"/><polygon class="h" points="470.027 205.788 475.325 202.942 470.571 206.626 470.027 205.788"/><circle class="g" cx="479.17371" cy="194.07667" r="3.13924"/><circle class="g" cx="481.88102" cy="199.75857" r="1.93272"/><circle class="g" cx="485.4676" cy="193.16154" r="1.5504"/><circle class="g" cx="485.89941" cy="196.92896" r="1.32335"/><circle class="g" cx="488.36934" cy="194.91972" r="0.87266"/></svg>