<svg id="Layer_1" data-name="Layer 1" xmlns="http://www.w3.org/2000/svg" xmlns:xlink="http://www.w3.org/1999/xlink" viewBox="0 0 14.49 14.95"><defs><style>.cls-1{fill:none;}.cls-2{clip-path:url(#clip-path);}.cls-3{fill:#fefefe;}.cls-4{fill:#fcfcfc;}.cls-5{font-size:7.74px;fill:#414042;font-family:SecularOne-Regular, Secular One;}.cls-6{font-size:6.33px;font-family:Assistant-SemiBold, Assistant;font-weight:600;}.cls-7{fill:#fff;}.cls-7,.cls-8{stroke:#414042;stroke-miterlimit:10;stroke-width:0.75px;}.cls-8{fill:#ffee1d;}</style><clipPath id="clip-path"><rect class="cls-1" x="-235.48" y="187.78" width="693.32" height="381.93"/></clipPath></defs><g class="cls-2"><rect class="cls-3" x="-235.48" y="-400.84" width="693.32" height="1049.64"/><rect class="cls-4" x="-235.48" y="-219.7" width="385.4" height="249.83"/><text class="cls-5" transform="translate(6.37 1.28)">הב<tspan class="cls-6" x="8.68" y="0"> </tspan><tspan class="cls-6"><tspan x="-18.39" y="7.6">רעונהו</tspan></tspan></text></g><path class="cls-7" d="M7.62,4.49,14,13.86a.45.45,0,0,1-.38.71H.83a.45.45,0,0,1-.37-.71L6.87,4.49A.46.46,0,0,1,7.62,4.49Z"/><path class="cls-8" d="M9.79,7.66l-1.51,1-1-1.37-1,1.37-1.51-1L6.87,4.49a.53.53,0,0,1,.75,0L9.79,7.66"/><line class="cls-8" x1="7.25" y1="4.3" x2="7.25" y2="0.38"/><polygon class="cls-7" points="10.46 2.12 7.25 2.12 7.25 0.38 10.46 0.38 9.64 1.25 10.46 2.12"/></svg>