<?xml version="1.0" encoding="utf-8"?>
<!-- Generator: Adobe Illustrator 24.1.2, SVG Export Plug-In . SVG Version: 6.00 Build 0)  -->
<svg version="1.1" id="b0da3dc9-740f-4ea3-b9b2-d482eb754f0a"
	 xmlns="http://www.w3.org/2000/svg" xmlns:xlink="http://www.w3.org/1999/xlink" x="0px" y="0px" viewBox="0 0 16.3 16.3"
	 style="enable-background:new 0 0 16.3 16.3;" xml:space="preserve">
<style type="text/css">
	.st0{clip-path:url(#SVGID_2_);}
	.st1{fill:#414042;}
	.st2{fill:none;stroke:#FEFEFE;stroke-width:0.75;stroke-linecap:round;stroke-linejoin:round;}
</style>
<g>
	<defs>
		<rect id="SVGID_1_" x="164.4" y="-539.1" width="693.3" height="381.9"/>
	</defs>
	<clipPath id="SVGID_2_">
		<use xlink:href="#SVGID_1_"  style="overflow:visible;"/>
	</clipPath>
	<g class="st0">
		<path class="st1" d="M0.5,15.1h1.3c0.4,0,0.7-0.1,1-0.4C3,14.4,3.1,14,3.1,13.6V13c0-0.4-0.1-0.8-0.3-1.1c-0.2-0.3-0.6-0.4-1-0.4
			H0.5v-0.7H2c0.6,0,1.1,0.2,1.5,0.6C3.9,11.8,4.1,12.4,4,13v0.5c0,0.6-0.1,1.2-0.5,1.7c-0.4,0.4-0.9,0.6-1.5,0.6H0.5V15.1z"/>
		<path class="st1" d="M5.5,12.6c0-0.4,0.1-0.7,0.3-1.1H4.9v-0.7h2.4v0.7H6.6c-0.1,0.1-0.1,0.3-0.1,0.5c0,0.2,0,0.4,0,0.6v3.3h-1
			V12.6z"/>
	</g>
</g>
<path class="st2" d="M15.9,4.7L8.4,8.1C8.4,8.1,12,9.6,15.9,4.7z"/>
<path class="st2" d="M11.3,0.4l-3,7.7C8.4,8.1,6.7,4.5,11.3,0.4z"/>
<path class="st2" d="M8.2,8.2L6,10.3L4.7,11c-0.7,0.5-1.5,0.8-2.3,0.8c-1.2-0.1-2.1-1.2-2-2.4c0.1-0.7,0.5-1.4,1.1-1.7
	c1.1-0.6,2.5-0.2,3,1C4.6,8.8,4.7,9,4.7,9.2c1-0.5,2-1.1,2.9-1.6L8.2,8.2z"/>
<circle class="st2" cx="2.6" cy="9.6" r="1"/>
<path class="st2" d="M8.2,8.2l-2.1,2.1l-0.8,1.4c-0.5,0.7-0.8,1.5-0.8,2.3c0.1,1.2,1.2,2.1,2.4,2c0.7-0.1,1.4-0.5,1.7-1.1
	c0.6-1.1,0.2-2.5-1-3c-0.2-0.1-0.3-0.1-0.5-0.2c0.5-1,1.1-2,1.6-2.9L8.2,8.2z"/>
<circle class="st2" cx="6.7" cy="13.7" r="1"/>
</svg>
