<?xml version="1.0" encoding="utf-8"?>
<!-- Generator: Adobe Illustrator 24.1.2, SVG Export Plug-In . SVG Version: 6.00 Build 0)  -->
<svg version="1.1" id="a7481d4c-7a8c-4d73-9f2c-1fd6f8a38be2"
	 xmlns="http://www.w3.org/2000/svg" xmlns:xlink="http://www.w3.org/1999/xlink" x="0px" y="0px" viewBox="0 0 16.3 16.3"
	 style="enable-background:new 0 0 16.3 16.3;" xml:space="preserve">
<style type="text/css">
	.st0{fill:none;stroke:#414042;stroke-width:0.75;stroke-linecap:round;stroke-linejoin:round;}
</style>
<path class="st0" d="M15.9,4.7L8.4,8.1C8.4,8.1,12,9.6,15.9,4.7z"/>
<path class="st0" d="M11.3,0.4l-3,7.7C8.4,8.1,6.7,4.5,11.3,0.4z"/>
<path class="st0" d="M8.2,8.2L6,10.3L4.7,11c-0.7,0.5-1.5,0.8-2.3,0.8c-1.2-0.1-2.1-1.2-2-2.4C0.5,8.7,0.9,8,1.5,7.7
	c1.1-0.6,2.5-0.2,3,1C4.6,8.8,4.7,9,4.7,9.2c1-0.5,2-1.1,2.9-1.6L8.2,8.2z"/>
<circle class="st0" cx="2.6" cy="9.6" r="1"/>
<path class="st0" d="M8.2,8.2l-2.1,2.1l-0.8,1.4c-0.5,0.7-0.8,1.5-0.8,2.3c0.1,1.2,1.2,2.1,2.4,2c0.7-0.1,1.4-0.5,1.7-1.1
	c0.6-1.1,0.2-2.5-1-3c-0.2-0.1-0.3-0.1-0.5-0.2c0.5-1,1.1-2,1.6-2.9L8.2,8.2z"/>
<circle class="st0" cx="6.7" cy="13.7" r="1"/>
</svg>
