<svg id="aeb7f072-aba8-4785-8bde-bdbb19badf97" data-name="Layer 1" xmlns="http://www.w3.org/2000/svg" xmlns:xlink="http://www.w3.org/1999/xlink" viewBox="0 0 58.07447 42.67262"><defs><style>.a42083c5-4033-4107-8146-e136c84b0002{fill:none;}.a4db7046-aa5d-40df-9ef1-96fa67052eac{clip-path:url(#ad678d66-4889-487b-af37-165cb0371acb);}.f1035a14-9307-48da-a178-6239d4687aeb{fill:#fefefe;stroke:#414042;stroke-linecap:round;stroke-linejoin:round;stroke-width:0.91874px;}.af85c4e1-9f0e-486e-b1e3-563d56f76f17{fill:#414042;}</style><clipPath id="ad678d66-4889-487b-af37-165cb0371acb"><rect class="a42083c5-4033-4107-8146-e136c84b0002" x="-586.35425" y="-1349.18503" width="233.75906" height="493.74709"/></clipPath></defs><path class="f1035a14-9307-48da-a178-6239d4687aeb" d="M10.55291,31.03808H1.7395A1.28013,1.28013,0,0,1,.45937,29.758V6.63105C.45937.14271,5.64624.46193,5.64624.46193c4.59105,0,6.18679,3.37182,6.18679,7.96288V29.758A1.28012,1.28012,0,0,1,10.55291,31.03808Z"/><path class="f1035a14-9307-48da-a178-6239d4687aeb" d="M57.24016,20.50621l-6.232,6.232a1.28014,1.28014,0,0,1-1.81038,0L32.84457,10.385C28.25662,5.79709,32.15,2.35515,32.15,2.35515,35.39638-.89122,38.909.36466,42.15535,3.611L57.24016,18.69584A1.28012,1.28012,0,0,1,57.24016,20.50621Z"/><path class="f1035a14-9307-48da-a178-6239d4687aeb" d="M38.01237,1.7395V40.93313a1.28013,1.28013,0,0,1-1.28013,1.28013H6.81494a1.28013,1.28013,0,0,1-1.28012-1.28013V1.7395A1.28012,1.28012,0,0,1,6.81494.45937h7.12681a1.28016,1.28016,0,0,1,.90518.37493l6.022,6.022a1.28012,1.28012,0,0,0,1.80991.00045L28.70771.83386a1.28013,1.28013,0,0,1,.90474-.37449h7.11979A1.28013,1.28013,0,0,1,38.01237,1.7395Z"/><path class="f1035a14-9307-48da-a178-6239d4687aeb" d="M21.77527,7.76087l8.83314-3.62263-.79736-1.91353a1.28013,1.28013,0,0,0-2.08683-.4128Z"/><path class="f1035a14-9307-48da-a178-6239d4687aeb" d="M21.77527,7.76087,14.13318,4.62672a1.28013,1.28013,0,0,1-.6959-1.67678l.3022-.72523a1.28013,1.28013,0,0,1,2.08683-.4128Z"/><line class="f1035a14-9307-48da-a178-6239d4687aeb" x1="21.77527" y1="7.76087" x2="21.77527" y2="42.21363"/><rect class="f1035a14-9307-48da-a178-6239d4687aeb" x="26.19184" y="12.08903" width="8.13501" height="8.13501" rx="0.8994"/><rect class="f1035a14-9307-48da-a178-6239d4687aeb" x="8.87462" y="12.08903" width="8.13501" height="8.13501" rx="1.30848"/><circle class="af85c4e1-9f0e-486e-b1e3-563d56f76f17" cx="19.36057" cy="14.34449" r="0.86984"/><circle class="af85c4e1-9f0e-486e-b1e3-563d56f76f17" cx="19.36057" cy="22.21439" r="0.86984"/><circle class="af85c4e1-9f0e-486e-b1e3-563d56f76f17" cx="19.36057" cy="28.74089" r="0.86984"/><circle class="af85c4e1-9f0e-486e-b1e3-563d56f76f17" cx="19.36057" cy="35.27507" r="0.86984"/></svg>