<svg id="f2cbbedd-0754-44ad-80a9-7f4af8e66a3a" data-name="Layer 1" xmlns="http://www.w3.org/2000/svg" xmlns:xlink="http://www.w3.org/1999/xlink" viewBox="0 0 59.5834 59.58348"><defs><style>.b788d222-4a07-4de8-92cd-b09b6ca5ce1b{fill:none;}.ad712209-6422-44e4-b56b-5280e1ade795{clip-path:url(#a2a17496-79f9-4e79-bdc0-0c21b2a2a991);}.faf54d75-2bd9-4ce3-80c4-ff0b20ac6f91{fill:#231f20;}.aff13bc6-38d2-4adf-951b-85a48d2a812f{fill:#414042;}.b191e91b-a28a-4879-9f35-c1ed7d69334f{fill:#f5f5f5;}.bb02a231-7424-41cb-bd12-1536217fe7f7{fill:#e12533;}.a2303313-44d3-4736-b68e-8a24a13361b9{fill:#e22a38;}</style><clipPath id="a2a17496-79f9-4e79-bdc0-0c21b2a2a991"><circle class="b788d222-4a07-4de8-92cd-b09b6ca5ce1b" cx="29.7917" cy="29.79174" r="29.79226"/></clipPath></defs><g class="ad712209-6422-44e4-b56b-5280e1ade795"><path class="faf54d75-2bd9-4ce3-80c4-ff0b20ac6f91" d="M29.79185,58.97967a29.188,29.188,0,1,1,29.188-29.1875A29.22051,29.22051,0,0,1,29.79185,58.97967Z"/><path class="aff13bc6-38d2-4adf-951b-85a48d2a812f" d="M29.79161,1.20769a28.584,28.584,0,1,1-28.584,28.584,28.6164,28.6164,0,0,1,28.584-28.584m0-1.20825A29.79224,29.79224,0,1,0,59.58385,29.79168,29.79232,29.79232,0,0,0,29.79161-.00056Z"/><path class="b191e91b-a28a-4879-9f35-c1ed7d69334f" d="M9.8699,40.08781a.28965.28965,0,0,1-.08025-.13415,2.12543,2.12543,0,0,1,.04151-.74827,10.99645,10.99645,0,0,1,.18574-1.2912c.233-1.14116,1.4012-2.38822,2.676-1.8035a2.01012,2.01012,0,0,1,1.06016,1.19185,1.97076,1.97076,0,0,1,.09332.70882,2.43307,2.43307,0,0,1-.69308,1.39393,1.10855,1.10855,0,0,1-.5515.385,4.21639,4.21639,0,0,1-1.53587-.06692c-.09182.34029.08543.42847-.33181.43145C10.49266,40.15652,10.06225,40.2673,9.8699,40.08781ZM12.64,38.06887a.636.636,0,0,0,.02887-.25513.76565.76565,0,0,0-.66946-.66938.5668.5668,0,0,0-.35179.20919.746.746,0,0,0-.20992.29323c-.07456.24713-.14555.76114.05469.96465a.42724.42724,0,0,0,.43308.07679A1.09369,1.09369,0,0,0,12.64,38.06887Z"/><path class="b191e91b-a28a-4879-9f35-c1ed7d69334f" d="M35.66331,40.16486a.73768.73768,0,0,1-.33905-.17332.58543.58543,0,0,1-.142-.1844.8308.8308,0,0,1-.05273-.193,3.66158,3.66158,0,0,1,.1381-1.16571,9.90106,9.90106,0,0,1,.19923-1.322,1.40039,1.40039,0,0,1,1.39081-.99443c.37332.01157.57377.36475.85371.57474.127-.1615.14167-.39572.3-.55813a.77827.77827,0,0,1,.65237-.18736.28354.28354,0,0,1,.266.13049,1.896,1.896,0,0,1,.1677.79556,5.514,5.514,0,0,1-.203,1.05294c-.0817.54639-.05626,1.10623-.15917,1.64367a1.50775,1.50775,0,0,1-.09148.33538.49362.49362,0,0,1-.57073.29006c-.23061-.06316-.26877-.32556-.3459-.512a13.39871,13.39871,0,0,1-.57416-1.93785.05341.05341,0,0,0-.06674-.04979q-.16785.00168-.33563.0016c-.10227,0-.21478.97353-.23084,1.08609a4.70688,4.70688,0,0,1-.26284,1.09714C36.129,40.21535,35.98761,40.24336,35.66331,40.16486Z"/><path class="b191e91b-a28a-4879-9f35-c1ed7d69334f" d="M20.47451,39.85328a1.72462,1.72462,0,0,1-.87423-.88859,1.84192,1.84192,0,0,1,.04326-1.43479,5.106,5.106,0,0,1,.69448-1.20125c.301-.39965,1.226-1.313,1.78955-.87305.082.064.09178.26825.11392.36326.04806.20626.10251.40205-.07413.56247-.19692.17884-.39291.35718-.58782.53939a2.15854,2.15854,0,0,0-.64216.824c-.10531.31994-.30277.84625.12633,1.026.27814.11649.74538-.14725.6923-.4761a4.99851,4.99851,0,0,1-.13187-.88406,1.306,1.306,0,0,1,.2301-.03849.89319.89319,0,0,1,.67844.1276,1.28793,1.28793,0,0,1,.3737,1.38639,1.228,1.228,0,0,1-.49621.79889,2.27523,2.27523,0,0,1-1.56238.27091A1.5191,1.5191,0,0,1,20.47451,39.85328Z"/><path class="b191e91b-a28a-4879-9f35-c1ed7d69334f" d="M49.36278,39.85328a1.72462,1.72462,0,0,1-.87423-.88859,1.84192,1.84192,0,0,1,.04326-1.43479,5.10636,5.10636,0,0,1,.69448-1.20125c.301-.39965,1.226-1.313,1.78956-.87305.08195.064.09177.26825.11391.36326.04806.20626.10251.40205-.07413.56247-.19692.17884-.39291.35718-.58781.53939a2.15835,2.15835,0,0,0-.64216.824c-.10532.31994-.30278.84625.12632,1.026.27814.11649.74538-.14725.6923-.4761a4.99851,4.99851,0,0,1-.13187-.88406,1.306,1.306,0,0,1,.2301-.03849.89319.89319,0,0,1,.67844.1276,1.28793,1.28793,0,0,1,.3737,1.38639,1.228,1.228,0,0,1-.49621.79889,2.27523,2.27523,0,0,1-1.56238.27091A1.51922,1.51922,0,0,1,49.36278,39.85328Z"/><path class="b191e91b-a28a-4879-9f35-c1ed7d69334f" d="M33.51052,40.14791a.14423.14423,0,0,1-.03007-.01275c-.21448-.12239-.08654-.76382-.065-.95014a3.348,3.348,0,0,0,.05577-1.85053c-.14282-.31163-.47555-.29888-.76715-.23462-.24062.05306-.59825.26783-.84378.22842-.2372-.03806-.31311-.50794-.26515-.68969.18275-.69249,1.34032-.68118,1.87722-.67589a1.35874,1.35874,0,0,1,1.41555,1.27022c.05608.64739-.10878,1.32111-.112,1.97332-.00376.7619-.48238.94776-1.16458.95127A.34687.34687,0,0,1,33.51052,40.14791Z"/><path class="b191e91b-a28a-4879-9f35-c1ed7d69334f" d="M28.09175,40.10978c-.31518-.18457-.14378-.79633-.12446-1.19778.022-.458.34478-1.2557-.11481-1.56807-.35707-.2427-.948-.05538-1.3294.02268a.1828.1828,0,0,1-.22572-.08415c-.41938-.58915.11328-1.06249.662-1.23756a1.7109,1.7109,0,0,1,2.33112,1.13172,10.0673,10.0673,0,0,1,.01858,1.37249,2.03978,2.03978,0,0,1-.26385,1.18391C28.84338,40.024,28.44951,40.31922,28.09175,40.10978Z"/><path class="b191e91b-a28a-4879-9f35-c1ed7d69334f" d="M46.596,40.10978c-.31518-.18457-.14377-.79633-.12446-1.19778.022-.458.34478-1.2557-.11481-1.56807-.35707-.2427-.948-.05538-1.32939.02268a.18281.18281,0,0,1-.22573-.08415c-.41938-.58915.11328-1.06249.662-1.23756a1.71091,1.71091,0,0,1,2.33113,1.13172,10.0673,10.0673,0,0,1,.01857,1.37249,2.03971,2.03971,0,0,1-.26385,1.18391C47.34762,40.024,46.95375,40.31922,46.596,40.10978Z"/><path class="b191e91b-a28a-4879-9f35-c1ed7d69334f" d="M31.592,40.11725c-.298-.19169-.22553-.71571-.17951-1.01921.04305-.2839.13444-.57261.19431-.85337.04175-.19577.13195-.508.38182-.50812a1.522,1.522,0,0,1,.62506.02564.46882.46882,0,0,1,.20862.24082,2.548,2.548,0,0,1-.16878,1.53363c-.15622.40733-.46054.75994-.9369.63447A.43182.43182,0,0,1,31.592,40.11725Z"/><path class="bb02a231-7424-41cb-bd12-1536217fe7f7" d="M36.66637,32.57916c0-2.34791-.00989-4.67664.00633-7.00519.00456-.65522-.08136-3.40377.01451-4.17943l.35437-.60635h.76561l.46926.43378c-.31926.734-.20631,7.62772-.20631,10.28535l.28369.28242,2.52984-.24457a1.70845,1.70845,0,0,0,.8572-1.74133c.03841-2.24127.01419-4.4836.01419-6.72552V21.166c.44055-.27135.83341-.65917,1.40378-.1668,0,.84184-.06461,5.83169.04665,6.52877a14.511,14.511,0,0,1-.24606,3.799,2.61509,2.61509,0,0,1-1.72179,1.47217c-.32946.10818-2.64184.17214-3.43037.20156A1.58881,1.58881,0,0,1,36.66637,32.57916Z"/><path class="bb02a231-7424-41cb-bd12-1536217fe7f7" d="M27.18317,25.727c.10719-.70365.23-1.40693.33114-2.10824a1.14737,1.14737,0,0,0,.00567-.61129c-.11806-.20838-.38643-.07306-.56464-.18095-.23242-.14086-.5292-.6247-.31584-.881a.6921.6921,0,0,1,.25457-.17053c.6-.27339,1.74684-.38942,1.95392.48667a8.20274,8.20274,0,0,1-.28129,2.87538c-.185.91287-.6652,3.69687-.82873,4.19541.43671.925.92609,1.85832,1.31249,2.83211a4.02533,4.02533,0,0,1,.08808,1.24371c-.59106.38889-3.85265.45743-4.843.45743l-.25933-.25818c.03325-.3176-.14825-.69195.25963-.95444l3.19538-.24341a21.28178,21.28178,0,0,0-1.179-3.07087c-.52621-1.30872-1.08315-2.60834-1.57972-3.92869a19.9762,19.9762,0,0,1-.92817-2.62627.82627.82627,0,0,1,.85815-1.111c.5575.001.66023.65547.76488,1.08818a24.73611,24.73611,0,0,0,.74647,2.37335,5.38261,5.38261,0,0,0,.83527,1.91731C27.05481,26.61024,27.11591,26.16854,27.18317,25.727Z"/><path class="bb02a231-7424-41cb-bd12-1536217fe7f7" d="M20.99327,33.68369h-.89976c-.19822-.12513-.3667-.32171-.26394-.55784.34759-.79877,1.89614-10.151,1.99406-10.40778h-2.769l-.26588-.29391V19.77577c.74719-.51329.82163-.5231,1.33239-.19485l.26622,1.85574h2.47747l.468.4644a8.348,8.348,0,0,1-.15712,1.85216c-.13993.55383-1.509,8.71967-1.95308,9.588A3.35317,3.35317,0,0,1,20.99327,33.68369Z"/><path class="a2303313-44d3-4736-b68e-8a24a13361b9" d="M47.30331,22.863H44.46819l-.42409-.4939v-.489l.479-.40856c.01415-.00072.09883-.00862.18352-.00872.788-.00095,1.57914-.04412,2.36318.01136a1.99816,1.99816,0,0,1,1.93128,1.1869,3.50481,3.50481,0,0,1,.28605,1.18454c.03,1.83005-.11761,7.82494-.1704,8.99266-.01545.34179-.189.755-.56755.79784a1.05261,1.05261,0,0,1-.82519-.26754c-.26652-.31527-.14971-.94516-.13951-1.33055q.025-.94308.04316-1.88632.04893-2.34927.08393-4.69881.01052-.72863.01751-1.45729A1.55961,1.55961,0,0,0,47.30331,22.863Z"/><path class="a2303313-44d3-4736-b68e-8a24a13361b9" d="M10.00308,22.64744V21.879l.48324-.40738c.00813-.00043.09272-.00864.17733-.0088.61317-.00111,1.22742-.02267,1.83919.00652a8.54667,8.54667,0,0,1,1.41482.17656,1.7677,1.7677,0,0,1,1.15845,1.40094c-.06173,1.58062.02534,8.36624-.00291,9.79726a1.8077,1.8077,0,0,1-.18239.57656l-.4681.275-.91869-.35584c0-.8953.01577-10.06629-.18179-10.43553C12.21458,22.71043,11.07174,23.1046,10.00308,22.64744Z"/><path class="a2303313-44d3-4736-b68e-8a24a13361b9" d="M32.13507,32.6744c.38663-.09753.69816-.39573,1.12353-.05959a.50548.50548,0,0,0,.75542-.28634V22.70134h-1.1715V21.68293l.28152-.21946a5.39185,5.39185,0,0,1,2.32645.24788c.34385,3.34035.09553,6.72316.15047,10.09931a2.154,2.154,0,0,1-.69655,1.63,1.36662,1.36662,0,0,1-1.05264.43009c-.43677-.02261-.87564-.005-1.309-.005l-.4077-.40589Z"/><path class="a2303313-44d3-4736-b68e-8a24a13361b9" d="M40.72081,30.05885a2.55147,2.55147,0,0,1-.66489.74538c-.43743.27445-.60708-.18647-.93294-.07558,0-2.51292-.00757-4.948.00785-7.383.00242-.38247.13287-.76255.16107-1.14687.02936-.4.00655-.80376.00655-1.26427l1.10086-.21055.30292.30157a11.743,11.743,0,0,1-.03193,2.42784,10.40655,10.40655,0,0,0-.09523,3.41088C40.702,27.95277,40.60713,29.02881,40.72081,30.05885Z"/><path class="a2303313-44d3-4736-b68e-8a24a13361b9" d="M10.22564,26.173l.8114-.56332.71225.28019c0,1.90843-.14119,6.27977-.16886,6.57867-.0294.31749-.00661.63977-.00661.96107a1.83026,1.83026,0,0,1-.42552.2367,2.51232,2.51232,0,0,1-.56473.00929l-.3721-.42864A70.232,70.232,0,0,1,10.22564,26.173Z"/><path class="bb02a231-7424-41cb-bd12-1536217fe7f7" d="M45.60123,33.44269a1.53237,1.53237,0,0,1-.88676.26214.35269.35269,0,0,1-.1816-.11129,1.0171,1.0171,0,0,1-.33441-.69777c.00042-.219.01242-.43874.01709-.65778.01368-.64227.02336-1.28462.036-1.92691.02507-1.27616.01406-2.571.15068-3.8416.008-.07462.00808-.45579.08807-.49941l.63133-.34571.61.23468a.44781.44781,0,0,1,.05683.14722c.00315,2.3155.18667,4.71869-.03047,7.02391a.69245.69245,0,0,1-.10644.36137A.3202.3202,0,0,1,45.60123,33.44269Z"/><path class="a2303313-44d3-4736-b68e-8a24a13361b9" d="M32.10409,27.01855l-.83888.58622-.57925-.2907V22.68513a3.721,3.721,0,0,1-.6201-.00762,3.342,3.342,0,0,1-.56252-.20837v-.77482c.33128-.34392.75756-.37941,2.446-.164a2.5592,2.5592,0,0,1,.31468.79835c.03863,1.04457-.18005,3.589-.16357,3.84974C32.11694,26.43884,32.10409,26.70115,32.10409,27.01855Z"/><path class="bb02a231-7424-41cb-bd12-1536217fe7f7" d="M16.643,22.40056c-.42845-.22372-1.1015-.04338-1.25085-.736a1.41856,1.41856,0,0,1,1.27163-.718,1.7166,1.7166,0,0,1,1.57787.61005c0,1.57,0,3.14006,0,4.62143a2.04269,2.04269,0,0,1-1.42471,1.06583A45.29036,45.29036,0,0,1,16.643,22.40056Z"/><path class="b191e91b-a28a-4879-9f35-c1ed7d69334f" d="M30.98482,38.18783c-.19522.26931-.60166.19581-.87686.10758-.41013-.1315-.30528-.63323-.31289-.962a2.079,2.079,0,0,1,.15959-.94862.81189.81189,0,0,1,1.15661-.29458.71315.71315,0,0,1,.13781.66217c-.04295.20833-.096.449-.13274.67135-.039.23618.01858.53251-.11753.7436Z"/><path class="b191e91b-a28a-4879-9f35-c1ed7d69334f" d="M15.18711,38.193a2.33914,2.33914,0,0,1-1.007-.00572c.07362-.55951.117-1.12338.18366-1.68386a.96169.96169,0,0,1,.07772-.32461c.13745-.27152.44653-.206.69506-.19073a.587.587,0,0,1,.32681.08607.52562.52562,0,0,1,.157.40673,4.42293,4.42293,0,0,1-.24542,1.48673.41439.41439,0,0,1-.07207.15161A.25328.25328,0,0,1,15.18711,38.193Z"/><path class="b191e91b-a28a-4879-9f35-c1ed7d69334f" d="M43.66231,38.193a2.33914,2.33914,0,0,1-1.007-.00572c.07362-.55951.117-1.12338.18365-1.68386a.96194.96194,0,0,1,.07773-.32461c.13744-.27152.44653-.206.69506-.19073a.58694.58694,0,0,1,.3268.08607.52563.52563,0,0,1,.157.40673,4.42293,4.42293,0,0,1-.24542,1.48673.41471.41471,0,0,1-.07207.15161A.25328.25328,0,0,1,43.66231,38.193Z"/><circle class="b191e91b-a28a-4879-9f35-c1ed7d69334f" cx="8.43915" cy="39.45601" r="0.70103"/><circle class="b191e91b-a28a-4879-9f35-c1ed7d69334f" cx="25.22231" cy="39.45601" r="0.70103"/><circle class="b191e91b-a28a-4879-9f35-c1ed7d69334f" cx="41.58824" cy="39.45601" r="0.70103"/><path class="b191e91b-a28a-4879-9f35-c1ed7d69334f" d="M18.99178,36.17847a.93551.93551,0,0,0-.60214.05827c-.05084.0202-.56174.27182-.55751.27823-.303-.45925-1.10572-.835-1.56952-.38723a.56991.56991,0,0,0-.001.8142c.05678.057.21867.11169.23106.183.01376.07912-.19889.33355-.23946.40369a3.13062,3.13062,0,0,0-.4127.784,1.59876,1.59876,0,0,0,.22634,1.16232c.08674.10962.20337.19185.29644.29618a.79528.79528,0,0,0,.23472.18136,1.87948,1.87948,0,0,0,1.31564.19511,3.2853,3.2853,0,0,0,.542-.208,1.23488,1.23488,0,0,0,.66332-1.39206c-.04683-.41139-.09427-.82266-.14-1.22154.21072-.20987.48553-.44014.37241-.77288A.54562.54562,0,0,0,18.99178,36.17847Zm-1.101,2.50381v.08137l-.03561.01329a.495.495,0,0,1-.42378.3382c-.27764,0-.50274-.32478-.50274-.72538s.2251-.72539.50274-.72539.50274.32478.50274.72539A.99856.99856,0,0,1,17.89081,38.68228Z"/></g></svg>