<svg id="b070a802-38df-404f-9cd1-eb5341a5944e" data-name="Layer 1" xmlns="http://www.w3.org/2000/svg" xmlns:xlink="http://www.w3.org/1999/xlink" viewBox="0 0 59.5834 59.58348"><defs><style>.ba786488-209d-4add-b8f7-9cd96003876e{fill:none;}.e74547e7-51ba-43f1-aa68-b00b55ecb157{clip-path:url(#af21e425-0f76-4d6b-949e-07b597025e9b);}.bfdf177a-f341-42fb-b3ef-bc96945cf80b{fill:#fff;}.a2c881c7-b030-483a-aba7-774ad85e99b9{fill:#414042;}.a48bfe39-01a8-4e3c-b2ea-1badfac634da{fill:#0c5298;}.a3601de4-c197-4c38-b15b-4d8aec4cccc2{fill:#f4b932;}.ae253aaf-564b-4032-a641-ebb18a04602e{fill:#fefefe;}</style><clipPath id="af21e425-0f76-4d6b-949e-07b597025e9b"><circle class="ba786488-209d-4add-b8f7-9cd96003876e" cx="29.7917" cy="29.79174" r="29.79226"/></clipPath></defs><g class="e74547e7-51ba-43f1-aa68-b00b55ecb157"><path class="bfdf177a-f341-42fb-b3ef-bc96945cf80b" d="M29.79178,58.97972a29.188,29.188,0,1,1,29.188-29.1875A29.22052,29.22052,0,0,1,29.79178,58.97972Z"/><path class="a2c881c7-b030-483a-aba7-774ad85e99b9" d="M29.79178,1.20774a28.584,28.584,0,1,1-28.584,28.584,28.6164,28.6164,0,0,1,28.584-28.584m0-1.20825A29.79224,29.79224,0,1,0,59.584,29.79173,29.79216,29.79216,0,0,0,29.79178-.00051Z"/><path class="a48bfe39-01a8-4e3c-b2ea-1badfac634da" d="M53.457,27.49165c.08772.4778.19561.96688.26362,1.46144.08211.597-.15883.93452-.93054,1.31922l1.66271,1.6445c-.75711,0-1.37476.01457-1.99071-.01134a.70874.70874,0,0,1-.39453-.24179c-.49146-.5028-.96936-1.01884-1.45211-1.53014l-.14171.08387.2712,1.68346a14.28476,14.28476,0,0,1-1.86177-.01193c-.085-.48821-.19029-.95723-.2439-1.43207-.08572-.75912.08018-1.02419.85612-1.41354l-1.59258-1.6314c.71587,0,1.29011-.01889,1.86158.01244a.79878.79878,0,0,1,.44778.26375c.5201.53114,1.02321,1.0789,1.53248,1.62063l.138-.08848-.28349-1.70935A4.42753,4.42753,0,0,1,53.457,27.49165Z"/><path class="a48bfe39-01a8-4e3c-b2ea-1badfac634da" d="M28.73541,31.886H26.93494c-.108-.55444-.22013-1.12124-.3282-1.68881-.05653-.29688-.10647-.595-.1584-.89276-.14532-.83318-.25766-.91351-1.19221-.80059l.59248,3.40211H23.99879c-.07926-.44744-.16118-.91584-.24537-1.38383-.14986-.833-.31286-1.66388-.44755-2.49931-.08642-.536-.01764-.606.5174-.61031.84869-.00684,1.69746-.00306,2.5462-.00134a3.20454,3.20454,0,0,1,.36287.02256,1.50779,1.50779,0,0,1,1.507,1.38782c.15767.83186.285,1.66949.42341,2.505C28.68885,31.4839,28.70424,31.64307,28.73541,31.886Z"/><path class="a48bfe39-01a8-4e3c-b2ea-1badfac634da" d="M43.3674,28.74435c-.0267-.17633-.05815-.39035-.09176-.604-.0338-.21494-.06976-.42953-.11253-.69186h1.8576c.07355.49586.18062,1.02187.22018,1.55289a.71715.71715,0,0,1-.50758.79893,1.36013,1.36013,0,0,0-.28715.205c.29424.28633.59072.55006.855.84275a1.25294,1.25294,0,0,1,.2801.51094.414.414,0,0,1-.31388.51107.94507.94507,0,0,1-.29736.04955q-2.1432.00464-4.2802.00211c-.11064-.76038.09266-1.02351.76272-1.02757.50312-.003,1.00627-.0006,1.649-.0006l-3.41424-3.48557c.75938,0,1.37578-.02063,1.98917.01316a1.00819,1.00819,0,0,1,.50338.27808C42.58007,28.03234,42.96314,28.386,43.3674,28.74435Z"/><path class="a48bfe39-01a8-4e3c-b2ea-1badfac634da" d="M14.78938,31.8244l.35918-.94057c.29173,0,.53442.01722.77373-.00388a.56585.56585,0,0,0,.59534-.62384c.01278-.46365-.0138-.92833-.02041-1.3926-.00394-.27637-.14288-.40043-.41662-.39852-.5255.00365-1.05116.00723-1.57653-.00193a.79206.79206,0,0,1-.90361-.70341c-.11013-.46505-.17794-.94011-.26527-1.41545a2.73843,2.73843,0,0,1,1.60109-.13294c.09078.00893.20489.179.238.2947.07672.26789.11046.54807.17655.90351.308,0,.60458-.00115.90119.00029.36381.00178.72874-.01125,1.09115.01273a.97648.97648,0,0,1,.97066.9075,17.94483,17.94483,0,0,1,.08691,2.05376,1.47719,1.47719,0,0,1-1.38146,1.49682A6.20206,6.20206,0,0,1,14.78938,31.8244Z"/><path class="a48bfe39-01a8-4e3c-b2ea-1badfac634da" d="M28.33066,27.46679c1.28709,0,2.533-.0337,3.776.01253a1.43493,1.43493,0,0,1,1.36891,1.245c.15967.68351.26029,1.38093.38153,2.07317.06111.34892.11042.69991.1716,1.09176H32.182c-.13332-.76041-.26756-1.52675-.40213-2.293a5.02967,5.02967,0,0,0-.09869-.53371.71261.71261,0,0,0-.78406-.60127c-.40265-.0106-.80575-.00395-1.20866-.00439C28.81345,28.45593,28.67514,28.35733,28.33066,27.46679Z"/><path class="a3601de4-c197-4c38-b15b-4d8aec4cccc2" d="M10.28417,32.98237C8.8843,33.242,8.24292,32.96269,7.62,31.86722l.85918-1.06036L7.34,29.63908l.92118-1.09091L7.05172,27.40188c.28362-.35867.54775-.69432.8148-1.02762A.2507.2507,0,0,1,7.967,26.3101a3.83862,3.83862,0,0,1,1.56358-.06186l-.95647,1.138c.24012.21921.44158.40617.6466.58914.11881.106.2505.19841.36361.30988.163.16062.224.30891-.0023.4979a2.61523,2.61523,0,0,0-.39679.51807c-.28761.40482-.28527.43768.07442.7836.22852.21976.46386.43245.74272.6916-.21133.27829-.403.54753-.61246.8021-.24117.29306-.25315.389.01812.643C9.66391,32.46129,9.93708,32.68258,10.28417,32.98237Z"/><path class="a48bfe39-01a8-4e3c-b2ea-1badfac634da" d="M38.55039,31.88247c-.15957-.90733-.30446-1.75979-.46058-2.61019-.13525-.73673-.23831-.816-1.00055-.8242-.12114-.0013-.24231-.00046-.36346.00014-.82865.00412-.99527-.11916-1.29763-.99653a3.05291,3.05291,0,0,1,.39867-.04446c.90742.01711,1.81534.02711,2.72186.06733a1.24809,1.24809,0,0,1,1.2365,1.05252c.19469.86237.33314,1.73744.49406,2.60738.04333.23424.08067.46959.1282.748Z"/><path class="a48bfe39-01a8-4e3c-b2ea-1badfac634da" d="M45.60767,27.47154h1.91056l.78429,4.4138H46.38031Z"/><path class="a3601de4-c197-4c38-b15b-4d8aec4cccc2" d="M12.47326,27.45621c-.25593.29421-.43065.49789-.60847.69884-.29086.32869-.29335.34679.01591.66639a6.56314,6.56314,0,0,0,.59258.58117.36389.36389,0,0,1,.04784.606c-.15539.18312-.30457.37148-.45734.55684-.22672.2751-.2167.34522.067.57118.25995.207.51554.41956.78049.63574A1.56932,1.56932,0,0,1,11.2212,31.726c-.21771-.16924-.40435-.378-.61941-.55111a.42448.42448,0,0,1-.04516-.67883c.15043-.18717.32651-.35393.49319-.52784a.30525.30525,0,0,0-.01944-.51123c-.21458-.17493-.43141-.34711-.64686-.521a.5225.5225,0,0,1-.10945-.82123C10.78873,27.34173,11.51638,27.26967,12.47326,27.45621Z"/><path class="a3601de4-c197-4c38-b15b-4d8aec4cccc2" d="M4.61748,30.78253c.23648-.27065.45473-.50081.64937-.74942a.38577.38577,0,0,0-.04987-.58362c-.1618-.14508-.30905-.30628-.46382-.45925a.682.682,0,0,1-.07047-1.00244,1.28765,1.28765,0,0,1,1.28668-.60131,3.07637,3.07637,0,0,0,.58828.00563,1.00389,1.00389,0,0,1-.078.35072,3.16985,3.16985,0,0,1-.34817.32513c-.38136.37205-.37887.48856.02389.86016.175.16145.36622.30564.53746.47072.32027.30875.33038.42622.027.74775-.201.213-.43539.39449-.71644.645l1.10442,1.00256C6.4023,32.37472,5.10919,31.85773,4.61748,30.78253Z"/><path class="a3601de4-c197-4c38-b15b-4d8aec4cccc2" d="M15.01422,33.43685c.07056-.08273.12707-.20986.215-.23765a1.44354,1.44354,0,0,1,.42025-.00906c4.19932.00735,8.39868.00658,12.59794.02642,1.429.00675,2.8578.06488,4.28663.10218a.28914.28914,0,0,1,.16425.07269c-5.87212.21467-11.74453.15342-17.61643.16988Z"/><path class="a48bfe39-01a8-4e3c-b2ea-1badfac634da" d="M18.562,27.4326h1.86652l.46066,2.63808a2.88192,2.88192,0,0,1-1.63451.07946.4258.4258,0,0,1-.25615-.28694C18.8425,29.07627,18.71165,28.28437,18.562,27.4326Z"/><path class="a48bfe39-01a8-4e3c-b2ea-1badfac634da" d="M20.85775,27.43358h1.86148l.47032,2.61069a2.85379,2.85379,0,0,1-1.84.05445Z"/><path class="a48bfe39-01a8-4e3c-b2ea-1badfac634da" d="M30.6375,29.19387l.47238,2.72059H29.3c-.11911-.67725-.24468-1.32255-.33613-1.97264a.47488.47488,0,0,1,.166-.38342A2.31511,2.31511,0,0,1,30.6375,29.19387Z"/><path class="a48bfe39-01a8-4e3c-b2ea-1badfac634da" d="M35.66962,36.50192v.50415l-.44428.03832a.96666.96666,0,0,1-.08431-.19663c-.0466-.31852-.06027-.6443-.13511-.95563-.09071-.37733.08291-.513.45731-.58219.03338.16609.07216.31427.091.46494.01962.157.02.31634.02957.48885a.9433.9433,0,0,0,.30341-1.03491c-.268-.33561-.91153.16948-1.1119-.5419.48313,0,.899-.0053,1.31458.002a.37441.37441,0,0,1,.39436.3766,4.5755,4.5755,0,0,1-.002.6032C36.44971,36.33526,36.38343,36.40459,35.66962,36.50192Z"/><path class="a48bfe39-01a8-4e3c-b2ea-1badfac634da" d="M16.95073,36.40092c.16527-.40994.50742-.82789-.04764-1.33581v1.3286l-.57045.08512-.18291-1.76821c.33227,0,.72673-.02383,1.11526.01368a.55888.55888,0,0,1,.34413.28941,2.18916,2.18916,0,0,1,.19631.6281C17.93153,36.34609,17.73774,36.52184,16.95073,36.40092Z"/><path class="a48bfe39-01a8-4e3c-b2ea-1badfac634da" d="M28.66493,34.697c.394,0,.78907-.01748,1.18167.006a.50582.50582,0,0,1,.47243.4738c.06249.3951.10171.79387.15845,1.25279l-.50185.02779c-.24069-.43507-.00381-.95989-.45674-1.434,0,.3448-.01069.56514.002.78413.03729.64214-.03931.7088-.78688.58233a1.266,1.266,0,0,0-.14558-1.5684Z"/><path class="a48bfe39-01a8-4e3c-b2ea-1badfac634da" d="M37.50442,36.39092c.34844-.42943.49868-.824.09684-1.27806-.19827.20168-.11825.42642-.13649.624-.01972.21358-.02786.42822-.04444.69742l-.50265.02686c-.13047-.58032.17979-1.16981-.27668-1.68682a2.72979,2.72979,0,0,1,1.229-.0551.51031.51031,0,0,1,.34748.286,3.80144,3.80144,0,0,1,.23655.98632C38.48478,36.38721,38.22536,36.49981,37.50442,36.39092Z"/><path class="a48bfe39-01a8-4e3c-b2ea-1badfac634da" d="M19.89706,35.268l.02543-.53473.52568-.03224c.05921.42119.20623.78989-.15535,1.11752l.35592.55839c-.59672.31634-.74388-.21211-1.07463-.59055,0,.15986-.00294.23836.00074.31655.00454.09634.01458.19241.02549.32929l-.46974.022c-.16528-.698-.16528-.698.07134-1.19643-.06089-.081-.13649-.17168-.20057-.26987-.05188-.07951-.08989-.168-.13737-.25893a.63449.63449,0,0,1,.83383.32577.96254.96254,0,0,0,.20925.20235l.044.026Z"/><path class="a48bfe39-01a8-4e3c-b2ea-1badfac634da" d="M32.22254,36.41588h-1.4631c-.015-.34837-.015-.34837.56972-.44826l-.88844-1.23392c.41-.099.70108-.07.906.34042.1273-.33783.29725-.5119.6573-.29531a1.28157,1.28157,0,0,1-.02926.83154c-.04185.07729.00325.2139.03451.31523C32.04876,36.05357,32.115,36.17334,32.22254,36.41588Z"/><path class="a48bfe39-01a8-4e3c-b2ea-1badfac634da" d="M21.01517,36.41706c.13816-.44539.91395-.61063.4-1.25465l-.65739-.09383-.1315-.78591c.50244-.08578.50244-.08578.66954.37491.06733.0101.14436.02628.2222.03259.5372.04353.5719.0776.59357.60711.00411.10061.00277.20149.00191.30223C22.10653,36.41782,21.99689,36.51045,21.01517,36.41706Z"/><path class="a48bfe39-01a8-4e3c-b2ea-1badfac634da" d="M25.23978,35.93867c0-.15146.00058-.27013-.00012-.3888-.00172-.29273-.14182-.45752-.44239-.44411-.25834.01154-.426-.05444-.40888-.38208.1119-.01326.20681-.03173.30221-.0347.93236-.029,1.04124.06889,1.142.97522.02693.24237.08624.48116.13933.76837H24.60755C24.55362,36.09834,24.55362,36.09834,25.23978,35.93867Z"/><path class="a48bfe39-01a8-4e3c-b2ea-1badfac634da" d="M33.3151,36.46472c.05134-.56234.46488-.37417.77246-.52586a3.37067,3.37067,0,0,0-.07373-.59563c-.08164-.27654-.34984-.19447-.55452-.24768-.1264-.03285-.226-.16851-.33766-.258l.03977-.15028c.306,0,.61255-.01168.91781.00323.3154.01541.43257.25.50682.51412.0926.32941-.08049.71612.21629,1.00167-.08709.08615-.16941.24017-.26209.24667C34.14493,36.48063,33.74655,36.46472,33.3151,36.46472Z"/><path class="a48bfe39-01a8-4e3c-b2ea-1badfac634da" d="M26.01994,34.69614c.34536,0,.67832-.01387,1.0095.00436a.48547.48547,0,0,1,.48658.44589c.06314.41138.11958.82379.18541,1.28123l-.56316.04688-.20117-1.20869C26.6825,34.93551,26.0737,35.37557,26.01994,34.69614Z"/><path class="a48bfe39-01a8-4e3c-b2ea-1badfac634da" d="M23.44382,36.43876h-.92329c-.10216-.2963.09455-.36954.257-.42209.19921-.5576-.18212-.86063-.49442-1.19056.63819-.26189.93312-.128,1.02627.44965C23.36884,35.64422,23.39639,36.01781,23.44382,36.43876Z"/><path class="a48bfe39-01a8-4e3c-b2ea-1badfac634da" d="M18.75446,36.43978h-.5763L17.958,34.74137l.58406-.05819Z"/><path class="a48bfe39-01a8-4e3c-b2ea-1badfac634da" d="M33.11607,36.4402l-.56729.031-.24613-1.71441.57-.09041Z"/><path class="a48bfe39-01a8-4e3c-b2ea-1badfac634da" d="M15.80452,34.72432l.12158,1.03988-.56438.035-.13309-1.07488Z"/><path class="a48bfe39-01a8-4e3c-b2ea-1badfac634da" d="M23.53034,34.73683a2.22892,2.22892,0,0,1,.2794-.04577,2.54282,2.54282,0,0,1,.30218.03547l.08406,1.01788h-.52664Z"/><path class="a48bfe39-01a8-4e3c-b2ea-1badfac634da" d="M26.66755,35.39695l.154.98979c-.25469.11036-.47462.18468-.58731-.13869C26.0683,35.77194,26.17947,35.53025,26.66755,35.39695Z"/><path class="ae253aaf-564b-4032-a641-ebb18a04602e" d="M19.89706,35.268l.05407.0152-.044-.026Z"/></g></svg>