<svg id="f32d1edf-a4fe-4468-99f6-bf09c8ea393f" data-name="Layer 1" xmlns="http://www.w3.org/2000/svg" viewBox="0 0 41.74696 41.74696"><defs><style>.a336e41b-1ad9-4816-a030-d36a9fafce7a{fill:none;}.a336e41b-1ad9-4816-a030-d36a9fafce7a,.ab0dce9a-2a31-4d9b-b7a0-76499f7504e3{stroke:#414042;stroke-linecap:round;stroke-linejoin:round;stroke-width:1.04px;}.ab0dce9a-2a31-4d9b-b7a0-76499f7504e3{fill:#fefefe;}</style></defs><rect class="a336e41b-1ad9-4816-a030-d36a9fafce7a" x="5.30054" y="8.6118" width="34.37659" height="21.3372" rx="1.58"/><rect class="ab0dce9a-2a31-4d9b-b7a0-76499f7504e3" x="2.06983" y="11.79797" width="34.37659" height="21.3372" rx="1.58"/><rect class="a336e41b-1ad9-4816-a030-d36a9fafce7a" x="5.6238" y="15.29516" width="9.84362" height="9.84362"/><circle class="a336e41b-1ad9-4816-a030-d36a9fafce7a" cx="10.54562" cy="19.20878" r="1.87028"/><path class="a336e41b-1ad9-4816-a030-d36a9fafce7a" d="M9.37791,21.93687h2.33541a.974.974,0,0,1,.974.974v2.228a0,0,0,0,1,0,0H8.404a0,0,0,0,1,0,0v-2.228A.974.974,0,0,1,9.37791,21.93687Z"/><line class="a336e41b-1ad9-4816-a030-d36a9fafce7a" x1="32.88892" y1="15.81896" x2="21.73248" y2="15.81896"/><line class="a336e41b-1ad9-4816-a030-d36a9fafce7a" x1="32.88892" y1="20.21697" x2="21.73248" y2="20.21697"/><line class="a336e41b-1ad9-4816-a030-d36a9fafce7a" x1="32.88892" y1="24.61498" x2="21.73248" y2="24.61498"/><line class="a336e41b-1ad9-4816-a030-d36a9fafce7a" x1="32.88892" y1="29.01299" x2="21.73248" y2="29.01299"/></svg>