<svg id="bef0a7ec-e4cf-4da1-aef9-31557a01fe28" data-name="Layer 1" xmlns="http://www.w3.org/2000/svg" viewBox="0 0 41.74689 41.74696"><defs><style>.b80d4da4-8503-464c-9b79-a24cc71a6cf2{fill:#fefefe;stroke:#414042;stroke-linecap:round;stroke-linejoin:round;stroke-width:1.04px;}</style></defs><path class="b80d4da4-8503-464c-9b79-a24cc71a6cf2" d="M4.46279,17.78963,5.18268,5.00291c-.0197-.7349,3.7348-2.00158,4.47-2.00158H21.28481A1.29976,1.29976,0,0,1,22.5841,4.26626l.36242,13.52337Z"/><polygon class="b80d4da4-8503-464c-9b79-a24cc71a6cf2" points="23.032 20.983 23.236 28.581 4.752 28.581 4.548 20.983 23.032 20.983"/><path class="b80d4da4-8503-464c-9b79-a24cc71a6cf2" d="M5.42714,20.98347H22.31843a.50365.50365,0,0,0,.50615-.52014l-.05772-2.15357a.5373.5373,0,0,0-.534-.52013H5.34154a.50366.50366,0,0,0-.50615.52013l.05772,2.15357A.53731.53731,0,0,0,5.42714,20.98347Z"/><rect class="b80d4da4-8503-464c-9b79-a24cc71a6cf2" x="1.04401" y="4.35677" width="23.10824" height="0.85048" transform="translate(25.19626 9.56402) rotate(-180)"/><circle class="b80d4da4-8503-464c-9b79-a24cc71a6cf2" cx="24.66035" cy="4.78201" r="0.81228"/><path class="b80d4da4-8503-464c-9b79-a24cc71a6cf2" d="M3.06183,18.60331s0-6.26174,0-6.68312a40.49166,40.49166,0,0,1,.24189-6.64908A2.559,2.559,0,0,1,6.028,3.03533c.10983-.00484.21981-.00681.32975-.00706.86258-.00191,2.34613-.00565,3.20871-.00968,1.69239-.00792,3.38478-.01726,5.0772-.01726h6.895c.52035,0-.18667.47448-.18667.99483l.1936,14.60715Z"/><rect class="b80d4da4-8503-464c-9b79-a24cc71a6cf2" x="3.06183" y="21.79685" width="18.48374" height="7.59647"/><rect class="b80d4da4-8503-464c-9b79-a24cc71a6cf2" x="3.42049" y="18.60331" width="17.93147" height="3.19354" rx="0.61186" transform="translate(24.77246 40.40015) rotate(-180)"/><circle class="b80d4da4-8503-464c-9b79-a24cc71a6cf2" cx="1.33228" cy="4.78201" r="0.81228"/><path class="b80d4da4-8503-464c-9b79-a24cc71a6cf2" d="M21.277,20.05816a6.99669,6.99669,0,0,0,4.946-.74415,2.81215,2.81215,0,0,0-2.81763-2.08444,3.23633,3.23633,0,0,0-1.09425.19142Q21.794,18.74238,21.277,20.05816Z"/><path class="b80d4da4-8503-464c-9b79-a24cc71a6cf2" d="M10.40022,35.54179c.96294,1.7071,3.46868,2.6098,5.1922,2.94347a14.42386,14.42386,0,0,0,9.67311-1.50994,10.82467,10.82467,0,0,0,3.32656-2.97645c.88627-1.17627,1.53184-2.49479,2.94894-3.135a9.41684,9.41684,0,0,1,2.73562-.47593,8.04214,8.04214,0,0,0,3.15144-1.04509c2.99823-1.72887,4.54115-4.667,3.44691-6.56549a3.10762,3.10762,0,0,0-2.21041-1.417c-.72224,2.66442-3.99937,4.49734-6.25906,5.56968-1.15449.5526-2.484.80973-3.33751,1.84374a9.66118,9.66118,0,0,0-1.26376,2.309,8.12061,8.12061,0,0,1-3.89011,4.5465,9.6301,9.6301,0,0,1-1.21459.47606C17.07511,37.91623,10.40022,35.54179,10.40022,35.54179Z"/><path class="b80d4da4-8503-464c-9b79-a24cc71a6cf2" d="M21.277,20.05816a6.99669,6.99669,0,0,0,4.946-.74415,2.81215,2.81215,0,0,0-2.81763-2.08444,3.23633,3.23633,0,0,0-1.09425.19142Q21.794,18.74238,21.277,20.05816Z"/><path class="b80d4da4-8503-464c-9b79-a24cc71a6cf2" d="M10.00083,34.04816a3.026,3.026,0,0,0,.39939,1.49363s6.67489,2.37444,12.29934.56356a9.6301,9.6301,0,0,0,1.21459-.47606,8.12061,8.12061,0,0,0,3.89011-4.5465,9.66118,9.66118,0,0,1,1.26376-2.309c.85354-1.034,2.183-1.29114,3.33751-1.84374,2.25969-1.07234,5.53682-2.90526,6.25906-5.56968a7.926,7.926,0,0,0-3.58368-6.06766A8.50009,8.50009,0,0,0,29.8286,13.695,6.65468,6.65468,0,0,1,26.34883,19.243c-.04381.02191-.082.04929-.12583.07106a6.99669,6.99669,0,0,1-4.946.74415c-.1313.33381-.26261.66748-.39391.9958-.082.20785-.16417.4213-.24618.62914q-.64838,1.6578-1.30209,3.31013c-.68391,1.74529-1.60865,3.59464-3.39228,4.43162C13.80879,30.43161,10.00083,30.88029,10.00083,34.04816Z"/><path class="b80d4da4-8503-464c-9b79-a24cc71a6cf2" d="M21.277,20.05816a6.99669,6.99669,0,0,0,4.946-.74415,2.81215,2.81215,0,0,0-2.81763-2.08444,3.23633,3.23633,0,0,0-1.09425.19142Q21.794,18.74238,21.277,20.05816Z"/><path class="b80d4da4-8503-464c-9b79-a24cc71a6cf2" d="M20.27723,22.60225a12.40175,12.40175,0,0,0,3.47276.86294"/><path class="b80d4da4-8503-464c-9b79-a24cc71a6cf2" d="M19.5406,24.80392a5.57535,5.57535,0,0,0,2.84688.86294"/><path class="b80d4da4-8503-464c-9b79-a24cc71a6cf2" d="M18.40214,26.99054s.4068.607,2.5619.8583"/><path class="b80d4da4-8503-464c-9b79-a24cc71a6cf2" d="M17.09466,29.104a3.70874,3.70874,0,0,0,1.95008.70406"/><line class="b80d4da4-8503-464c-9b79-a24cc71a6cf2" x1="33.85304" y1="36.39927" x2="38.06644" y2="36.39927"/><line class="b80d4da4-8503-464c-9b79-a24cc71a6cf2" x1="39.27027" y1="36.39927" x2="39.27027" y2="36.39927"/><line class="b80d4da4-8503-464c-9b79-a24cc71a6cf2" x1="36.94297" y1="38.74563" x2="36.94297" y2="38.74563"/><line class="b80d4da4-8503-464c-9b79-a24cc71a6cf2" x1="29.3121" y1="38.74563" x2="33.52551" y2="38.74563"/><line class="b80d4da4-8503-464c-9b79-a24cc71a6cf2" x1="35.72608" y1="38.74563" x2="34.72933" y2="38.74563"/></svg>