<?xml version="1.0" encoding="utf-8"?>
<!-- Generator: Adobe Illustrator 24.1.2, SVG Export Plug-In . SVG Version: 6.00 Build 0)  -->
<svg version="1.1" id="a322f7a1-9fea-4c93-945b-aa3196083778"
	 xmlns="http://www.w3.org/2000/svg" xmlns:xlink="http://www.w3.org/1999/xlink" x="0px" y="0px" viewBox="0 0 15.7 15.7"
	 style="enable-background:new 0 0 15.7 15.7;" xml:space="preserve">
<style type="text/css">
	.st0{fill:none;stroke:#414042;stroke-width:0.65;stroke-linecap:round;stroke-linejoin:round;}
	.st1{fill:none;stroke:#414042;stroke-width:0.65;stroke-linecap:round;stroke-linejoin:round;stroke-miterlimit:4;}
</style>
<path class="st0" d="M6.4,13.9l-0.6,0.6c-0.9,0.9-2.4,0.9-3.3,0l0,0l-0.7-0.7l-0.7-0.7c-0.9-0.9-0.9-2.4,0-3.3l0,0l0.6-0.6"/>
<path class="st0" d="M4.8,9.1C3.7,8.4,2.6,8.3,2.1,8.9C1.3,9.7,1.7,11.4,3,12.7s3,1.7,3.7,0.9c0.6-0.6,0.5-1.7-0.2-2.8"/>
<path class="st0" d="M9.2,5.1l1.4,1.4l0,0l-5.2,5.2c-0.1,0.1-0.4,0.1-0.5,0l0,0L4,10.8c-0.1-0.1-0.1-0.4,0-0.5l0,0L9.2,5.1L9.2,5.1z
	"/>
<path class="st0" d="M14.5,5.9l-0.6,0.6c-0.9,0.9-2.4,0.9-3.3,0l0,0L9.9,5.8L9.2,5.1c-0.9-0.9-0.9-2.4,0-3.3l0,0l0.6-0.6"/>
<ellipse transform="matrix(0.7071 -0.7071 0.7071 0.7071 1.3458 9.6927)" class="st1" cx="12.4" cy="3.2" rx="2" ry="3.3"/>
</svg>
